<svg width="304" height="142" viewBox="0 0 304 142" fill="none" xmlns="http://www.w3.org/2000/svg">
<g filter="url(#filter0_d_33_303)">
<path d="M16 15C16 13.3431 17.3431 12 19 12H285C286.657 12 288 13.3431 288 15V119C288 120.657 286.657 122 285 122H19C17.3431 122 16 120.657 16 119V15Z" fill="white"/>
<rect x="229" y="37" width="36" height="36" rx="18" fill="#F4F6F9"/>
<path d="M255.891 52.9695C255.138 52.5272 253.727 52.5221 253.667 52.5221C253.488 52.5221 253.343 52.6926 253.343 52.9029C253.343 53.1132 253.488 53.2837 253.667 53.2837C254.031 53.2837 255.089 53.3496 255.601 53.6507C255.648 53.678 255.697 53.6909 255.746 53.6909C255.865 53.6909 255.979 53.6138 256.036 53.4804C256.116 53.2923 256.051 53.0635 255.891 52.9695Z" fill="black"/>
<path fill-rule="evenodd" clip-rule="evenodd" d="M257.415 57.5239L256.071 57.1386C256.013 57.122 255.973 57.0681 255.973 57.0075V56.5574C256.082 56.4814 256.187 56.3963 256.284 56.3014C256.756 55.8413 257.016 55.2242 257.016 54.5637V53.9425L257.146 53.6818C257.289 53.3956 257.364 53.0751 257.364 52.7551V51.0725C257.364 50.8921 257.219 50.7459 257.039 50.7459H253.908C252.77 50.7459 251.844 51.6755 251.844 52.8181V52.8375C251.844 53.1036 251.907 53.3701 252.025 53.6081L252.192 53.9425V54.4758C252.192 55.321 252.607 56.0794 253.235 56.5357L253.235 57.0075C253.235 57.0802 253.235 57.1103 252.967 57.1874L252.311 57.3754L250.415 56.6832C250.422 56.5934 250.392 56.5021 250.326 56.4333L249.72 55.7942V54.7215C249.784 54.6685 249.847 54.6141 249.909 54.5566C250.673 53.8374 251.112 52.8219 251.112 51.7707V50.914C251.342 50.4098 251.459 49.8763 251.459 49.3268V45.8357C251.459 45.6553 251.314 45.5092 251.134 45.5092H246.264C244.551 45.5092 243.157 46.9086 243.157 48.6286V49.3269C243.157 49.8764 243.274 50.4099 243.504 50.9141V51.6512C243.504 52.8717 244.045 53.9714 244.896 54.6963V55.7943L244.29 56.4333C244.224 56.5021 244.194 56.5935 244.201 56.6833L242.2 57.4138C242.054 57.4667 241.92 57.5384 241.797 57.6253L241.483 57.4675C242.419 57.0588 242.715 56.4839 242.729 56.4553C242.775 56.3634 242.775 56.2552 242.729 56.1633C242.495 55.6925 242.466 54.8296 242.444 54.1362C242.436 53.9054 242.429 53.6873 242.415 53.4932C242.304 51.927 241.118 50.7459 239.656 50.7459C238.194 50.7459 237.007 51.927 236.896 53.4932C236.883 53.6874 236.875 53.9055 236.868 54.1363C236.845 54.8296 236.817 55.6925 236.582 56.1633C236.536 56.2552 236.536 56.3634 236.582 56.4553C236.596 56.4839 236.892 57.0576 237.83 57.4668L236.957 57.9049C236.49 58.1393 236.2 58.6101 236.2 59.1338V61.5461C236.2 61.7264 236.346 61.8726 236.525 61.8726C236.705 61.8726 236.851 61.7264 236.851 61.5461V59.1338C236.851 58.859 237.003 58.612 237.248 58.4891L238.335 57.9435L238.713 58.3042C238.977 58.5564 239.316 58.6825 239.656 58.6825C239.995 58.6825 240.334 58.5563 240.599 58.3042L240.977 57.9436L241.331 58.1214C241.164 58.3895 241.07 58.7038 241.07 59.0331V61.5462C241.07 61.7265 241.215 61.8727 241.395 61.8727C241.574 61.8727 241.72 61.7265 241.72 61.5462V59.0331C241.72 58.5848 242.002 58.1807 242.422 58.0275L244.532 57.2574L245.411 58.58C245.523 58.7491 245.703 58.8576 245.904 58.8776C245.927 58.8798 245.949 58.8809 245.971 58.8809C246.149 58.8809 246.319 58.8107 246.447 58.683L246.983 58.145V61.5462C246.983 61.7266 247.128 61.8727 247.308 61.8727C247.488 61.8727 247.633 61.7266 247.633 61.5462V58.145L248.169 58.683C248.296 58.8107 248.467 58.8809 248.644 58.8809C248.667 58.8809 248.689 58.8798 248.711 58.8776C248.913 58.8576 249.093 58.7491 249.205 58.5801L250.084 57.2574L252.194 58.0276C252.614 58.1808 252.896 58.5849 252.896 59.0332V61.5463C252.896 61.7266 253.041 61.8728 253.221 61.8728C253.401 61.8728 253.546 61.7266 253.546 61.5463V59.0332C253.546 58.5792 253.367 58.1534 253.065 57.8385L253.146 57.8155C253.227 57.7922 253.337 57.7604 253.448 57.7058L254.279 58.5394V61.5463C254.279 61.7266 254.424 61.8728 254.604 61.8728C254.784 61.8728 254.929 61.7266 254.929 61.5463V58.5394L255.754 57.7116C255.798 57.7339 255.844 57.7528 255.893 57.7667L257.236 58.152C257.543 58.24 257.757 58.525 257.757 58.8451V61.5463C257.757 61.7266 257.903 61.8728 258.082 61.8728C258.262 61.8728 258.408 61.7266 258.408 61.5463V58.8451C258.408 58.2349 257.999 57.6916 257.415 57.5239ZM238.287 56.9472C237.678 56.7274 237.373 56.4344 237.243 56.2744C237.332 56.0414 237.389 55.7744 237.428 55.4926C237.608 55.9243 237.908 56.2929 238.287 56.5559V56.9472ZM239.161 57.8308C239.438 58.0954 239.873 58.0955 240.151 57.8309L240.453 57.5424C240.402 57.4463 240.374 57.3374 240.374 57.2234L240.374 56.8756C240.147 56.9464 239.906 56.985 239.656 56.985C239.406 56.985 239.165 56.9466 238.938 56.8754V57.2234C238.938 57.3374 238.91 57.4463 238.859 57.5423L239.161 57.8308ZM239.656 56.3319C238.685 56.3319 237.894 55.5387 237.894 54.5637C237.894 54.3834 237.749 54.2372 237.569 54.2372C237.551 54.2372 237.533 54.2391 237.516 54.242L237.518 54.158C237.526 53.9335 237.533 53.7214 237.546 53.5395C237.587 52.9528 237.821 52.4122 238.203 52.0172C238.589 51.6185 239.105 51.399 239.656 51.399C240.207 51.399 240.722 51.6185 241.109 52.0172C241.491 52.4122 241.725 52.9528 241.766 53.5395C241.779 53.7214 241.786 53.9334 241.793 54.1579L241.795 54.2161C241.441 53.6688 240.895 53.2654 240.189 53.0376C239.536 52.8272 238.975 52.8402 238.951 52.8409C238.866 52.8432 238.785 52.879 238.726 52.9406L238.139 53.5516C238.014 53.6814 238.018 53.8881 238.148 54.0133C238.277 54.1384 238.483 54.1346 238.607 54.0049L239.096 53.4965C239.516 53.5171 240.87 53.6751 241.396 54.8382C241.263 55.6954 240.53 56.3319 239.656 56.3319ZM241.025 56.5589L241.025 56.9483C241.632 56.7286 241.939 56.433 242.069 56.2745C241.98 56.042 241.922 55.7756 241.883 55.4945C241.704 55.9295 241.403 56.2973 241.025 56.5589ZM244.155 51.6511V50.841C244.155 50.7918 244.144 50.7433 244.123 50.699C243.913 50.2639 243.807 49.8023 243.807 49.3269V48.6286C243.807 47.2686 244.909 46.1622 246.264 46.1622H250.809V49.3269C250.809 49.8023 250.703 50.264 250.493 50.6991C250.472 50.7433 250.461 50.7919 250.461 50.841V51.7707C250.461 52.655 250.107 53.4752 249.464 54.0802C249.383 54.1557 249.3 54.2265 249.214 54.2924L249.208 54.2965C248.606 54.7556 247.868 54.9787 247.097 54.9286C245.447 54.8214 244.155 53.3817 244.155 51.6511ZM245.987 58.2212L245.987 58.2211L246.801 57.4041L245.266 56.3511L244.94 56.6944L245.952 58.2177C245.954 58.2204 245.958 58.2266 245.969 58.2276C245.979 58.2287 245.984 58.2235 245.987 58.2212ZM247.308 56.9611L245.546 55.7525V55.143C246.002 55.3903 246.513 55.545 247.055 55.5802C247.141 55.5858 247.226 55.5885 247.311 55.5885C247.933 55.5885 248.532 55.4393 249.07 55.156V55.7525L247.308 56.9611ZM248.648 58.2277C248.658 58.2267 248.662 58.2204 248.664 58.2177L249.676 56.6945L249.35 56.3511L247.815 57.4042L248.629 58.2212L248.63 58.2215C248.632 58.2239 248.637 58.229 248.648 58.2277ZM254.604 57.9422L253.866 57.2013C253.879 57.1426 253.886 57.0783 253.886 57.0074L253.886 56.8696C254.091 56.937 254.307 56.9771 254.53 56.9838C254.555 56.9846 254.58 56.9849 254.605 56.9849C254.852 56.9849 255.093 56.9475 255.323 56.8761V57.0075C255.323 57.0727 255.331 57.1365 255.346 57.1978L254.604 57.9422ZM254.55 56.3311C255.031 56.346 255.486 56.1686 255.831 55.8328C256.176 55.4968 256.366 55.0461 256.366 54.5637V53.8655C256.366 53.8148 256.378 53.7648 256.4 53.7195L256.564 53.3898C256.662 53.1938 256.714 52.9743 256.714 52.7551V51.399H253.908C253.129 51.399 252.495 52.0356 252.495 52.8181V52.8376C252.495 53.0028 252.534 53.1683 252.607 53.3161L252.808 53.7195C252.831 53.7648 252.842 53.8148 252.842 53.8655V54.4759C252.842 55.4705 253.608 56.3027 254.55 56.3311Z" fill="black"/>
<path d="M256.849 59.1455C256.634 59.1455 256.46 59.2906 256.46 59.4696V61.5487C256.46 61.7277 256.634 61.8728 256.849 61.8728C257.064 61.8728 257.239 61.7277 257.239 61.5487V59.4696C257.239 59.2907 257.064 59.1455 256.849 59.1455Z" fill="black"/>
<path d="M237.758 59.5352C237.543 59.5352 237.369 59.6827 237.369 59.8647V61.5433C237.369 61.7253 237.543 61.8728 237.758 61.8728C237.973 61.8728 238.148 61.7253 238.148 61.5433V59.8647C238.148 59.6828 237.973 59.5352 237.758 59.5352Z" fill="black"/>
<path d="M250.132 49.6328C248.916 48.3505 246.373 48.5957 245.335 48.7606C245.009 48.8125 244.771 49.1041 244.771 49.454V50.235C244.771 50.4222 244.915 50.574 245.093 50.574C245.27 50.574 245.414 50.4222 245.414 50.235V49.4539C245.414 49.4424 245.422 49.4325 245.431 49.431C245.845 49.3651 246.668 49.2635 247.519 49.3234C248.522 49.3938 249.248 49.6592 249.677 50.1122C249.803 50.2446 250.006 50.2446 250.132 50.1122C250.257 49.9798 250.257 49.7651 250.132 49.6328Z" fill="black"/>
<path d="M243.603 59.9247C243.387 59.9247 243.213 60.0636 243.213 60.235V61.5624C243.213 61.7338 243.387 61.8727 243.603 61.8727C243.818 61.8727 243.992 61.7338 243.992 61.5624V60.235C243.992 60.0637 243.818 59.9247 243.603 59.9247Z" fill="black"/>
<path d="M251.005 59.9247C250.79 59.9247 250.616 60.0636 250.616 60.235V61.5624C250.616 61.7338 250.79 61.8727 251.005 61.8727C251.221 61.8727 251.395 61.7338 251.395 61.5624V60.235C251.395 60.0637 251.221 59.9247 251.005 59.9247Z" fill="black"/>
<path d="M49.9883 73H47.1523V59.3008L42.9688 60.7305V58.3281L49.625 55.8789H49.9883V73ZM67.3906 73H55.918V71.043L61.6016 64.8438C62.4219 63.9297 63.0039 63.168 63.3477 62.5586C63.6992 61.9414 63.875 61.3242 63.875 60.707C63.875 59.8945 63.6445 59.2383 63.1836 58.7383C62.7305 58.2383 62.1172 57.9883 61.3438 57.9883C60.4219 57.9883 59.707 58.2695 59.1992 58.832C58.6914 59.3945 58.4375 60.1641 58.4375 61.1406H55.5898C55.5898 60.1016 55.8242 59.168 56.293 58.3398C56.7695 57.5039 57.4453 56.8555 58.3203 56.3945C59.2031 55.9336 60.2188 55.7031 61.3672 55.7031C63.0234 55.7031 64.3281 56.1211 65.2812 56.957C66.2422 57.7852 66.7227 58.9336 66.7227 60.4023C66.7227 61.2539 66.4805 62.1484 65.9961 63.0859C65.5195 64.0156 64.7344 65.0742 63.6406 66.2617L59.4688 70.7266H67.3906V73ZM80.6797 65.8164C80.6797 68.2695 80.2188 70.1211 79.2969 71.3711C78.3828 72.6133 76.9883 73.2344 75.1133 73.2344C73.2695 73.2344 71.8789 72.6289 70.9414 71.418C70.0117 70.1992 69.5352 68.3984 69.5117 66.0156V63.0625C69.5117 60.6094 69.9688 58.7695 70.8828 57.543C71.8047 56.3164 73.207 55.7031 75.0898 55.7031C76.957 55.7031 78.3477 56.3008 79.2617 57.4961C80.1836 58.6914 80.6562 60.4805 80.6797 62.8633V65.8164ZM77.832 62.6289C77.832 61.0273 77.6133 59.8555 77.1758 59.1133C76.7383 58.3633 76.043 57.9883 75.0898 57.9883C74.1602 57.9883 73.4766 58.3438 73.0391 59.0547C72.6016 59.7578 72.3711 60.8594 72.3477 62.3594V66.2266C72.3477 67.8203 72.5703 69.0078 73.0156 69.7891C73.4609 70.5703 74.1602 70.9609 75.1133 70.9609C76.0273 70.9609 76.7031 70.6016 77.1406 69.8828C77.5781 69.1562 77.8086 68.0234 77.832 66.4844V62.6289ZM94.3203 65.8164C94.3203 68.2695 93.8594 70.1211 92.9375 71.3711C92.0234 72.6133 90.6289 73.2344 88.7539 73.2344C86.9102 73.2344 85.5195 72.6289 84.582 71.418C83.6523 70.1992 83.1758 68.3984 83.1523 66.0156V63.0625C83.1523 60.6094 83.6094 58.7695 84.5234 57.543C85.4453 56.3164 86.8477 55.7031 88.7305 55.7031C90.5977 55.7031 91.9883 56.3008 92.9023 57.4961C93.8242 58.6914 94.2969 60.4805 94.3203 62.8633V65.8164ZM91.4727 62.6289C91.4727 61.0273 91.2539 59.8555 90.8164 59.1133C90.3789 58.3633 89.6836 57.9883 88.7305 57.9883C87.8008 57.9883 87.1172 58.3438 86.6797 59.0547C86.2422 59.7578 86.0117 60.8594 85.9883 62.3594V66.2266C85.9883 67.8203 86.2109 69.0078 86.6562 69.7891C87.1016 70.5703 87.8008 70.9609 88.7539 70.9609C89.668 70.9609 90.3438 70.6016 90.7812 69.8828C91.2188 69.1562 91.4492 68.0234 91.4727 66.4844V62.6289Z" fill="black"/>
<path d="M49.606 32.4932H46.1782V42H44.7793V32.4932H41.3589V31.3359H49.606V32.4932ZM49.8843 37.9644C49.8843 37.188 50.0356 36.4897 50.3384 35.8696C50.646 35.2495 51.0708 34.771 51.6128 34.4341C52.1597 34.0972 52.7822 33.9287 53.4805 33.9287C54.5596 33.9287 55.4312 34.3022 56.0952 35.0493C56.7642 35.7964 57.0986 36.79 57.0986 38.0303V38.1255C57.0986 38.897 56.9497 39.5903 56.6519 40.2056C56.3589 40.8159 55.9365 41.292 55.3848 41.6338C54.8379 41.9756 54.208 42.1465 53.4951 42.1465C52.4209 42.1465 51.5493 41.7729 50.8804 41.0259C50.2163 40.2788 49.8843 39.29 49.8843 38.0596V37.9644ZM51.2466 38.1255C51.2466 39.0044 51.4492 39.71 51.8545 40.2422C52.2646 40.7744 52.8115 41.0405 53.4951 41.0405C54.1836 41.0405 54.7305 40.772 55.1357 40.2349C55.541 39.6929 55.7437 38.936 55.7437 37.9644C55.7437 37.0952 55.5361 36.3921 55.1211 35.855C54.7109 35.313 54.1641 35.042 53.4805 35.042C52.8115 35.042 52.272 35.3081 51.8618 35.8403C51.4517 36.3726 51.2466 37.1343 51.2466 38.1255ZM60.6362 32.1562V34.0752H62.1157V35.1226H60.6362V40.0371C60.6362 40.3545 60.7021 40.5938 60.834 40.7549C60.9658 40.9111 61.1904 40.9893 61.5078 40.9893C61.6641 40.9893 61.8789 40.96 62.1523 40.9014V42C61.7959 42.0977 61.4492 42.1465 61.1123 42.1465C60.5068 42.1465 60.0503 41.9634 59.7427 41.5972C59.4351 41.231 59.2812 40.7109 59.2812 40.0371V35.1226H57.8384V34.0752H59.2812V32.1562H60.6362ZM68.5977 42C68.5195 41.8438 68.4561 41.5654 68.4072 41.165C67.7773 41.8193 67.0254 42.1465 66.1514 42.1465C65.3701 42.1465 64.728 41.9268 64.2251 41.4873C63.7271 41.043 63.478 40.4814 63.478 39.8027C63.478 38.9775 63.7905 38.3379 64.4155 37.8838C65.0454 37.4248 65.9292 37.1953 67.0669 37.1953H68.3853V36.5728C68.3853 36.0991 68.2437 35.7231 67.9604 35.4448C67.6772 35.1616 67.2598 35.02 66.708 35.02C66.2246 35.02 65.8193 35.1421 65.4922 35.3862C65.165 35.6304 65.0015 35.9258 65.0015 36.2725H63.6392C63.6392 35.877 63.7783 35.4961 64.0566 35.1299C64.3398 34.7588 64.7207 34.4658 65.1992 34.251C65.6826 34.0361 66.2124 33.9287 66.7886 33.9287C67.7017 33.9287 68.417 34.1582 68.9346 34.6172C69.4521 35.0713 69.7207 35.6987 69.7402 36.4995V40.147C69.7402 40.8745 69.833 41.4531 70.0186 41.8828V42H68.5977ZM66.3491 40.9673C66.7739 40.9673 67.1768 40.8574 67.5576 40.6377C67.9385 40.418 68.2144 40.1323 68.3853 39.7808V38.1548H67.3232C65.6631 38.1548 64.833 38.6406 64.833 39.6123C64.833 40.0371 64.9746 40.3691 65.2578 40.6084C65.541 40.8477 65.9048 40.9673 66.3491 40.9673ZM73.3364 42H71.9814V30.75H73.3364V42ZM82.9751 40.1323L86.022 31.3359H87.5601L83.605 42H82.3599L78.4121 31.3359H79.9429L82.9751 40.1323ZM90.2554 42H88.9004V34.0752H90.2554V42ZM88.7905 31.9731C88.7905 31.7534 88.8564 31.5679 88.9883 31.4165C89.125 31.2651 89.3252 31.1895 89.5889 31.1895C89.8525 31.1895 90.0527 31.2651 90.1895 31.4165C90.3262 31.5679 90.3945 31.7534 90.3945 31.9731C90.3945 32.1929 90.3262 32.376 90.1895 32.5225C90.0527 32.6689 89.8525 32.7422 89.5889 32.7422C89.3252 32.7422 89.125 32.6689 88.9883 32.5225C88.8564 32.376 88.7905 32.1929 88.7905 31.9731ZM97.0449 39.8979C97.0449 39.5317 96.9058 39.2485 96.6274 39.0483C96.354 38.8433 95.873 38.6675 95.1846 38.521C94.501 38.3745 93.9565 38.1987 93.5513 37.9937C93.1509 37.7886 92.853 37.5444 92.6577 37.2612C92.4673 36.978 92.3721 36.6411 92.3721 36.2505C92.3721 35.6011 92.6455 35.0518 93.1924 34.6025C93.7441 34.1533 94.4473 33.9287 95.3018 33.9287C96.2002 33.9287 96.9277 34.1606 97.4844 34.6245C98.0459 35.0884 98.3267 35.6816 98.3267 36.4043H96.9644C96.9644 36.0332 96.8057 35.7134 96.4883 35.4448C96.1758 35.1763 95.7803 35.042 95.3018 35.042C94.8086 35.042 94.4229 35.1494 94.1445 35.3643C93.8662 35.5791 93.7271 35.8599 93.7271 36.2065C93.7271 36.5337 93.8564 36.7803 94.1152 36.9463C94.374 37.1123 94.8403 37.271 95.5142 37.4224C96.1929 37.5737 96.7422 37.7544 97.1621 37.9644C97.582 38.1743 97.8921 38.4282 98.0923 38.7261C98.2974 39.019 98.3999 39.3779 98.3999 39.8027C98.3999 40.5107 98.1167 41.0796 97.5503 41.5093C96.9839 41.9341 96.249 42.1465 95.3457 42.1465C94.7109 42.1465 94.1494 42.0342 93.6611 41.8096C93.1729 41.585 92.7896 41.2725 92.5112 40.8721C92.2378 40.4668 92.1011 40.0298 92.1011 39.561H93.4561C93.4805 40.0151 93.6611 40.3765 93.998 40.645C94.3398 40.9087 94.7891 41.0405 95.3457 41.0405C95.8584 41.0405 96.2686 40.938 96.5762 40.7329C96.8887 40.5229 97.0449 40.2446 97.0449 39.8979ZM101.637 42H100.282V34.0752H101.637V42ZM100.172 31.9731C100.172 31.7534 100.238 31.5679 100.37 31.4165C100.507 31.2651 100.707 31.1895 100.971 31.1895C101.234 31.1895 101.435 31.2651 101.571 31.4165C101.708 31.5679 101.776 31.7534 101.776 31.9731C101.776 32.1929 101.708 32.376 101.571 32.5225C101.435 32.6689 101.234 32.7422 100.971 32.7422C100.707 32.7422 100.507 32.6689 100.37 32.5225C100.238 32.376 100.172 32.1929 100.172 31.9731ZM105.651 32.1562V34.0752H107.13V35.1226H105.651V40.0371C105.651 40.3545 105.717 40.5938 105.849 40.7549C105.98 40.9111 106.205 40.9893 106.522 40.9893C106.679 40.9893 106.894 40.96 107.167 40.9014V42C106.811 42.0977 106.464 42.1465 106.127 42.1465C105.521 42.1465 105.065 41.9634 104.757 41.5972C104.45 41.231 104.296 40.7109 104.296 40.0371V35.1226H102.853V34.0752H104.296V32.1562H105.651ZM108.214 37.9644C108.214 37.188 108.366 36.4897 108.668 35.8696C108.976 35.2495 109.401 34.771 109.943 34.4341C110.49 34.0972 111.112 33.9287 111.811 33.9287C112.89 33.9287 113.761 34.3022 114.425 35.0493C115.094 35.7964 115.429 36.79 115.429 38.0303V38.1255C115.429 38.897 115.28 39.5903 114.982 40.2056C114.689 40.8159 114.267 41.292 113.715 41.6338C113.168 41.9756 112.538 42.1465 111.825 42.1465C110.751 42.1465 109.879 41.7729 109.21 41.0259C108.546 40.2788 108.214 39.29 108.214 38.0596V37.9644ZM109.577 38.1255C109.577 39.0044 109.779 39.71 110.185 40.2422C110.595 40.7744 111.142 41.0405 111.825 41.0405C112.514 41.0405 113.061 40.772 113.466 40.2349C113.871 39.6929 114.074 38.936 114.074 37.9644C114.074 37.0952 113.866 36.3921 113.451 35.855C113.041 35.313 112.494 35.042 111.811 35.042C111.142 35.042 110.602 35.3081 110.192 35.8403C109.782 36.3726 109.577 37.1343 109.577 38.1255ZM120.958 35.291C120.753 35.2568 120.531 35.2397 120.292 35.2397C119.403 35.2397 118.8 35.6182 118.483 36.375V42H117.128V34.0752H118.446L118.468 34.9907C118.913 34.2827 119.542 33.9287 120.358 33.9287C120.622 33.9287 120.822 33.9629 120.958 34.0312V35.291Z" fill="#666666"/>
<path d="M40.6072 97.6602L40.2978 98.0529L41.0834 98.6717L41.3928 98.279L40.6072 97.6602ZM45.1986 92.6395L45.4604 92.2135L45.0812 91.9805L44.8058 92.3301L45.1986 92.6395ZM52.5968 97.1862L52.335 97.6122L52.6085 97.7802L52.8752 97.6016L52.5968 97.1862ZM63.3224 90L57.5617 90.3849L60.7753 95.1813L63.3224 90ZM41.3928 98.279L45.5913 92.9489L44.8058 92.3301L40.6072 97.6602L41.3928 98.279ZM44.9368 93.0655L52.335 97.6122L52.8586 96.7602L45.4604 92.2135L44.9368 93.0655ZM52.8752 97.6016L59.8622 92.9202L59.3056 92.0894L52.3185 96.7708L52.8752 97.6016Z" fill="#00A560"/>
<path d="M75.5146 91.1484C75.5146 91.6709 75.3804 92.1372 75.1118 92.5474C74.8433 92.9526 74.4771 93.2725 74.0132 93.5068C74.5698 93.7656 74.9971 94.1196 75.2949 94.5688C75.5977 95.0181 75.749 95.5259 75.749 96.0923C75.749 97.0298 75.4316 97.7744 74.7969 98.3262C74.1621 98.873 73.3174 99.1465 72.2627 99.1465C71.2031 99.1465 70.3535 98.8706 69.7139 98.3188C69.0791 97.7671 68.7617 97.0249 68.7617 96.0923C68.7617 95.521 68.9131 95.0083 69.2158 94.5542C69.5186 94.1001 69.9434 93.751 70.4902 93.5068C70.0312 93.2725 69.6675 92.9526 69.3989 92.5474C69.1353 92.1372 69.0034 91.6709 69.0034 91.1484C69.0034 90.2402 69.2964 89.52 69.8823 88.9878C70.4683 88.4556 71.2593 88.1895 72.2554 88.1895C73.2563 88.1895 74.0498 88.4556 74.6357 88.9878C75.2217 89.52 75.5146 90.2402 75.5146 91.1484ZM73.9692 96.0044C73.9692 95.4771 73.8105 95.0522 73.4932 94.73C73.1807 94.4028 72.7656 94.2393 72.248 94.2393C71.7305 94.2393 71.3154 94.4004 71.0029 94.7227C70.6953 95.0449 70.5415 95.4722 70.5415 96.0044C70.5415 96.5269 70.6929 96.9443 70.9956 97.2568C71.3032 97.5693 71.7256 97.7256 72.2627 97.7256C72.7998 97.7256 73.2173 97.5742 73.5151 97.2715C73.8179 96.9688 73.9692 96.5464 73.9692 96.0044ZM73.7422 91.2144C73.7422 90.7505 73.6079 90.3696 73.3394 90.0718C73.0708 89.769 72.7095 89.6177 72.2554 89.6177C71.8013 89.6177 71.4424 89.7617 71.1787 90.0498C70.915 90.333 70.7832 90.7212 70.7832 91.2144C70.7832 91.7026 70.915 92.0908 71.1787 92.3789C71.4473 92.667 71.8086 92.811 72.2627 92.811C72.7168 92.811 73.0757 92.667 73.3394 92.3789C73.6079 92.0908 73.7422 91.7026 73.7422 91.2144ZM78.5469 97.125C78.8789 97.125 79.1353 97.2202 79.3159 97.4106C79.4966 97.5962 79.5869 97.8306 79.5869 98.1138C79.5869 98.3921 79.4966 98.624 79.3159 98.8096C79.1353 98.9902 78.8789 99.0806 78.5469 99.0806C78.2295 99.0806 77.978 98.9902 77.7925 98.8096C77.6069 98.6289 77.5142 98.397 77.5142 98.1138C77.5142 97.8306 77.6045 97.5962 77.7852 97.4106C77.9658 97.2202 78.2197 97.125 78.5469 97.125ZM88.4639 94.5103C88.4639 96.0435 88.1758 97.2007 87.5996 97.9819C87.0283 98.7583 86.1567 99.1465 84.9849 99.1465C83.8325 99.1465 82.9634 98.7681 82.3774 98.0112C81.7964 97.2495 81.4985 96.124 81.4839 94.6348V92.7891C81.4839 91.2559 81.7695 90.106 82.3408 89.3394C82.917 88.5728 83.7935 88.1895 84.9702 88.1895C86.1372 88.1895 87.0063 88.563 87.5776 89.3101C88.1538 90.0571 88.4492 91.1753 88.4639 92.6646V94.5103ZM86.6841 92.5181C86.6841 91.5171 86.5474 90.7847 86.2739 90.3208C86.0005 89.8521 85.5659 89.6177 84.9702 89.6177C84.3892 89.6177 83.9619 89.8398 83.6885 90.2842C83.415 90.7236 83.271 91.4121 83.2563 92.3496V94.7666C83.2563 95.7627 83.3955 96.5049 83.6738 96.9932C83.9521 97.4814 84.3892 97.7256 84.9849 97.7256C85.5562 97.7256 85.9785 97.501 86.252 97.0518C86.5254 96.5977 86.6694 95.8896 86.6841 94.9277V92.5181ZM89.9653 90.3867C89.9653 89.7422 90.1729 89.2148 90.5879 88.8047C91.0029 88.3896 91.5474 88.1821 92.2212 88.1821C92.9048 88.1821 93.4517 88.3896 93.8618 88.8047C94.2769 89.2148 94.4844 89.7544 94.4844 90.4233V90.9507C94.4844 91.5903 94.2769 92.1152 93.8618 92.5254C93.4517 92.9355 92.9097 93.1406 92.2358 93.1406C91.5767 93.1406 91.0322 92.9404 90.6025 92.54C90.1777 92.1348 89.9653 91.5903 89.9653 90.9067V90.3867ZM91.2104 90.9507C91.2104 91.2876 91.3032 91.561 91.4888 91.771C91.6792 91.9761 91.9282 92.0786 92.2358 92.0786C92.5386 92.0786 92.7827 91.9761 92.9683 91.771C93.1538 91.561 93.2466 91.2778 93.2466 90.9214V90.3867C93.2466 90.0498 93.1514 89.7764 92.9609 89.5664C92.7754 89.3564 92.5288 89.2515 92.2212 89.2515C91.9136 89.2515 91.667 89.3589 91.4814 89.5737C91.3008 89.7837 91.2104 90.062 91.2104 90.4087V90.9507ZM95.0923 96.3853C95.0923 95.731 95.3047 95.2012 95.7295 94.7959C96.1543 94.3906 96.6963 94.188 97.3555 94.188C98.0195 94.188 98.5615 94.3906 98.9814 94.7959C99.4062 95.2012 99.6187 95.748 99.6187 96.4365V96.9565C99.6187 97.5913 99.4136 98.1162 99.0034 98.5312C98.5981 98.9414 98.0537 99.1465 97.3701 99.1465C96.6865 99.1465 96.1348 98.9438 95.7148 98.5386C95.2998 98.1284 95.0923 97.5889 95.0923 96.9199V96.3853ZM96.3374 96.9565C96.3374 97.2886 96.4326 97.562 96.623 97.7769C96.8184 97.9868 97.0674 98.0918 97.3701 98.0918C97.6826 98.0918 97.9268 97.9917 98.1025 97.7915C98.2832 97.5864 98.3735 97.3008 98.3735 96.9346V96.3853C98.3735 96.0435 98.2783 95.77 98.0879 95.5649C97.8975 95.3599 97.6533 95.2573 97.3555 95.2573C97.0527 95.2573 96.8062 95.3599 96.6157 95.5649C96.4302 95.77 96.3374 96.0532 96.3374 96.4146V96.9565ZM92.6021 98.2017L91.6865 97.6743L96.894 89.3394L97.8096 89.8667L92.6021 98.2017Z" fill="#00A560"/>
<path d="M116.434 99H115.02L109.651 90.7822V99H108.238V88.3359H109.651L115.035 96.5903V88.3359H116.434V99ZM122.007 99.1465C120.933 99.1465 120.059 98.7949 119.385 98.0918C118.711 97.3838 118.375 96.439 118.375 95.2573V95.0083C118.375 94.2222 118.523 93.5215 118.821 92.9062C119.124 92.2861 119.544 91.8027 120.081 91.4561C120.623 91.1045 121.209 90.9287 121.839 90.9287C122.869 90.9287 123.67 91.2681 124.241 91.9468C124.812 92.6255 125.098 93.5972 125.098 94.8618V95.4258H119.729C119.749 96.207 119.976 96.8394 120.411 97.3228C120.85 97.8013 121.407 98.0405 122.081 98.0405C122.559 98.0405 122.964 97.9429 123.296 97.7476C123.628 97.5522 123.919 97.2935 124.168 96.9712L124.996 97.6157C124.332 98.6362 123.335 99.1465 122.007 99.1465ZM121.839 92.042C121.292 92.042 120.833 92.2422 120.462 92.6426C120.091 93.0381 119.861 93.5947 119.773 94.3125H123.743V94.21C123.704 93.5215 123.519 92.9893 123.187 92.6133C122.854 92.2324 122.405 92.042 121.839 92.042ZM133.689 97.1323L135.213 91.0752H136.568L134.261 99H133.162L131.236 92.9941L129.361 99H128.262L125.962 91.0752H127.31L128.87 97.0078L130.716 91.0752H131.807L133.689 97.1323ZM145.416 97.1323L148.462 88.3359H150L146.045 99H144.8L140.853 88.3359H142.383L145.416 97.1323ZM152.696 99H151.341V91.0752H152.696V99ZM151.231 88.9731C151.231 88.7534 151.297 88.5679 151.429 88.4165C151.565 88.2651 151.766 88.1895 152.029 88.1895C152.293 88.1895 152.493 88.2651 152.63 88.4165C152.767 88.5679 152.835 88.7534 152.835 88.9731C152.835 89.1929 152.767 89.376 152.63 89.5225C152.493 89.6689 152.293 89.7422 152.029 89.7422C151.766 89.7422 151.565 89.6689 151.429 89.5225C151.297 89.376 151.231 89.1929 151.231 88.9731ZM159.485 96.8979C159.485 96.5317 159.346 96.2485 159.068 96.0483C158.794 95.8433 158.313 95.6675 157.625 95.521C156.941 95.3745 156.397 95.1987 155.992 94.9937C155.591 94.7886 155.293 94.5444 155.098 94.2612C154.908 93.978 154.812 93.6411 154.812 93.2505C154.812 92.6011 155.086 92.0518 155.633 91.6025C156.185 91.1533 156.888 90.9287 157.742 90.9287C158.641 90.9287 159.368 91.1606 159.925 91.6245C160.486 92.0884 160.767 92.6816 160.767 93.4043H159.405C159.405 93.0332 159.246 92.7134 158.929 92.4448C158.616 92.1763 158.221 92.042 157.742 92.042C157.249 92.042 156.863 92.1494 156.585 92.3643C156.307 92.5791 156.167 92.8599 156.167 93.2065C156.167 93.5337 156.297 93.7803 156.556 93.9463C156.814 94.1123 157.281 94.271 157.955 94.4224C158.633 94.5737 159.183 94.7544 159.603 94.9644C160.022 95.1743 160.333 95.4282 160.533 95.7261C160.738 96.019 160.84 96.3779 160.84 96.8027C160.84 97.5107 160.557 98.0796 159.991 98.5093C159.424 98.9341 158.689 99.1465 157.786 99.1465C157.151 99.1465 156.59 99.0342 156.102 98.8096C155.613 98.585 155.23 98.2725 154.952 97.8721C154.678 97.4668 154.542 97.0298 154.542 96.561H155.896C155.921 97.0151 156.102 97.3765 156.438 97.645C156.78 97.9087 157.229 98.0405 157.786 98.0405C158.299 98.0405 158.709 97.938 159.017 97.7329C159.329 97.5229 159.485 97.2446 159.485 96.8979ZM164.078 99H162.723V91.0752H164.078V99ZM162.613 88.9731C162.613 88.7534 162.679 88.5679 162.811 88.4165C162.947 88.2651 163.147 88.1895 163.411 88.1895C163.675 88.1895 163.875 88.2651 164.012 88.4165C164.148 88.5679 164.217 88.7534 164.217 88.9731C164.217 89.1929 164.148 89.376 164.012 89.5225C163.875 89.6689 163.675 89.7422 163.411 89.7422C163.147 89.7422 162.947 89.6689 162.811 89.5225C162.679 89.376 162.613 89.1929 162.613 88.9731ZM168.091 89.1562V91.0752H169.571V92.1226H168.091V97.0371C168.091 97.3545 168.157 97.5938 168.289 97.7549C168.421 97.9111 168.646 97.9893 168.963 97.9893C169.119 97.9893 169.334 97.96 169.607 97.9014V99C169.251 99.0977 168.904 99.1465 168.567 99.1465C167.962 99.1465 167.505 98.9634 167.198 98.5972C166.89 98.231 166.736 97.7109 166.736 97.0371V92.1226H165.293V91.0752H166.736V89.1562H168.091ZM170.655 94.9644C170.655 94.188 170.806 93.4897 171.109 92.8696C171.417 92.2495 171.841 91.771 172.383 91.4341C172.93 91.0972 173.553 90.9287 174.251 90.9287C175.33 90.9287 176.202 91.3022 176.866 92.0493C177.535 92.7964 177.869 93.79 177.869 95.0303V95.1255C177.869 95.897 177.72 96.5903 177.422 97.2056C177.129 97.8159 176.707 98.292 176.155 98.6338C175.608 98.9756 174.979 99.1465 174.266 99.1465C173.191 99.1465 172.32 98.7729 171.651 98.0259C170.987 97.2788 170.655 96.29 170.655 95.0596V94.9644ZM172.017 95.1255C172.017 96.0044 172.22 96.71 172.625 97.2422C173.035 97.7744 173.582 98.0405 174.266 98.0405C174.954 98.0405 175.501 97.772 175.906 97.2349C176.312 96.6929 176.514 95.936 176.514 94.9644C176.514 94.0952 176.307 93.3921 175.892 92.855C175.481 92.313 174.935 92.042 174.251 92.042C173.582 92.042 173.042 92.3081 172.632 92.8403C172.222 93.3726 172.017 94.1343 172.017 95.1255ZM183.399 92.291C183.194 92.2568 182.972 92.2397 182.732 92.2397C181.844 92.2397 181.241 92.6182 180.923 93.375V99H179.568V91.0752H180.887L180.909 91.9907C181.353 91.2827 181.983 90.9287 182.798 90.9287C183.062 90.9287 183.262 90.9629 183.399 91.0312V92.291ZM195.66 89.4932H192.232V99H190.833V89.4932H187.413V88.3359H195.66V89.4932ZM195.938 94.9644C195.938 94.188 196.089 93.4897 196.392 92.8696C196.7 92.2495 197.125 91.771 197.667 91.4341C198.213 91.0972 198.836 90.9287 199.534 90.9287C200.613 90.9287 201.485 91.3022 202.149 92.0493C202.818 92.7964 203.152 93.79 203.152 95.0303V95.1255C203.152 95.897 203.003 96.5903 202.706 97.2056C202.413 97.8159 201.99 98.292 201.438 98.6338C200.892 98.9756 200.262 99.1465 199.549 99.1465C198.475 99.1465 197.603 98.7729 196.934 98.0259C196.27 97.2788 195.938 96.29 195.938 95.0596V94.9644ZM197.3 95.1255C197.3 96.0044 197.503 96.71 197.908 97.2422C198.318 97.7744 198.865 98.0405 199.549 98.0405C200.237 98.0405 200.784 97.772 201.189 97.2349C201.595 96.6929 201.797 95.936 201.797 94.9644C201.797 94.0952 201.59 93.3921 201.175 92.855C200.765 92.313 200.218 92.042 199.534 92.042C198.865 92.042 198.326 92.3081 197.916 92.8403C197.505 93.3726 197.3 94.1343 197.3 95.1255ZM204.522 94.9717C204.522 93.7559 204.81 92.7793 205.386 92.042C205.962 91.2998 206.717 90.9287 207.649 90.9287C208.577 90.9287 209.312 91.2461 209.854 91.8809V87.75H211.209V99H209.964L209.898 98.1504C209.356 98.8145 208.602 99.1465 207.635 99.1465C206.717 99.1465 205.967 98.7705 205.386 98.0186C204.81 97.2666 204.522 96.2852 204.522 95.0742V94.9717ZM205.877 95.1255C205.877 96.0239 206.062 96.7271 206.434 97.2349C206.805 97.7427 207.317 97.9966 207.972 97.9966C208.831 97.9966 209.458 97.6108 209.854 96.8394V93.1992C209.449 92.4521 208.826 92.0786 207.986 92.0786C207.322 92.0786 206.805 92.335 206.434 92.8477C206.062 93.3604 205.877 94.1196 205.877 95.1255ZM218.211 99C218.133 98.8438 218.069 98.5654 218.021 98.165C217.391 98.8193 216.639 99.1465 215.765 99.1465C214.983 99.1465 214.341 98.9268 213.838 98.4873C213.34 98.043 213.091 97.4814 213.091 96.8027C213.091 95.9775 213.404 95.3379 214.029 94.8838C214.659 94.4248 215.542 94.1953 216.68 94.1953H217.999V93.5728C217.999 93.0991 217.857 92.7231 217.574 92.4448C217.291 92.1616 216.873 92.02 216.321 92.02C215.838 92.02 215.433 92.1421 215.105 92.3862C214.778 92.6304 214.615 92.9258 214.615 93.2725H213.252C213.252 92.877 213.392 92.4961 213.67 92.1299C213.953 91.7588 214.334 91.4658 214.812 91.251C215.296 91.0361 215.826 90.9287 216.402 90.9287C217.315 90.9287 218.03 91.1582 218.548 91.6172C219.065 92.0713 219.334 92.6987 219.354 93.4995V97.147C219.354 97.8745 219.446 98.4531 219.632 98.8828V99H218.211ZM215.962 97.9673C216.387 97.9673 216.79 97.8574 217.171 97.6377C217.552 97.418 217.828 97.1323 217.999 96.7808V95.1548H216.937C215.276 95.1548 214.446 95.6406 214.446 96.6123C214.446 97.0371 214.588 97.3691 214.871 97.6084C215.154 97.8477 215.518 97.9673 215.962 97.9673ZM223.953 97.0151L225.799 91.0752H227.249L224.063 100.223C223.57 101.542 222.786 102.201 221.712 102.201L221.456 102.179L220.95 102.083V100.985L221.316 101.014C221.775 101.014 222.132 100.921 222.386 100.736C222.645 100.55 222.857 100.211 223.023 99.7178L223.323 98.9121L220.496 91.0752H221.976L223.953 97.0151Z" fill="#666666"/>
</g>
<defs>
<filter id="filter0_d_33_303" x="0" y="0" width="304" height="142" filterUnits="userSpaceOnUse" color-interpolation-filters="sRGB">
<feFlood flood-opacity="0" result="BackgroundImageFix"/>
<feColorMatrix in="SourceAlpha" type="matrix" values="0 0 0 0 0 0 0 0 0 0 0 0 0 0 0 0 0 0 127 0" result="hardAlpha"/>
<feOffset dy="4"/>
<feGaussianBlur stdDeviation="8"/>
<feColorMatrix type="matrix" values="0 0 0 0 0 0 0 0 0 0 0 0 0 0 0 0 0 0 0.06 0"/>
<feBlend mode="normal" in2="BackgroundImageFix" result="effect1_dropShadow_33_303"/>
<feBlend mode="normal" in="SourceGraphic" in2="effect1_dropShadow_33_303" result="shape"/>
</filter>
</defs>
</svg>
