<svg width="304" height="142" viewBox="0 0 304 142" fill="none" xmlns="http://www.w3.org/2000/svg">
<g filter="url(#filter0_d_33_396)">
<path d="M16 15C16 13.3431 17.3431 12 19 12H285C286.657 12 288 13.3431 288 15V119C288 120.657 286.657 122 285 122H19C17.3431 122 16 120.657 16 119V15Z" fill="white"/>
<rect x="229" y="37" width="36" height="36" rx="18" fill="#F4F6F9"/>
<path fill-rule="evenodd" clip-rule="evenodd" d="M247.284 54.4408C247.281 54.4404 247.278 54.4397 247.273 54.4397C247.123 54.4397 247.001 54.3178 247.001 54.1675V47.0904C247.001 46.9401 247.123 46.8182 247.273 46.8182C250.342 46.8266 253.085 48.733 254.162 51.6062C254.188 51.674 254.185 51.7492 254.155 51.8151C254.125 51.881 254.07 51.9322 254.002 51.9573C247.37 54.4215 247.324 54.4478 247.284 54.4408ZM253.553 51.5436C252.527 49.1053 250.188 47.477 247.545 47.3626V53.7756L253.553 51.5436Z" fill="black"/>
<path fill-rule="evenodd" clip-rule="evenodd" d="M253.534 55.8007C253.537 54.9237 253.382 54.0533 253.076 53.2312C253.05 53.1626 252.997 53.1078 252.929 53.0791C252.861 53.0504 252.785 53.0502 252.717 53.0787L246.457 55.4087V48.7236C246.457 48.5733 246.335 48.4514 246.184 48.4514C243.208 48.4497 240.525 50.2429 239.388 52.9932C238.251 55.7435 238.885 58.9079 240.994 61.008C243.103 63.1081 246.27 63.7292 249.015 62.5811C250.879 63.6526 253.255 63.0947 254.448 61.3054C255.64 59.5161 255.24 57.1087 253.534 55.8007ZM245.912 48.9958V55.4577L239.633 53.9797C240.411 51.1243 242.955 49.1058 245.912 48.9958ZM245.831 55.9967L239.505 54.5105C238.886 57.741 240.667 60.9515 243.735 62.1374L245.831 55.9967ZM244.238 62.3143L246.399 56.0103L252.66 53.6857C252.849 54.2571 252.96 54.8513 252.989 55.4523C251.139 54.474 248.848 55.0539 247.685 56.7949C246.523 58.536 246.866 60.874 248.479 62.2082C247.114 62.6984 245.626 62.7356 244.238 62.3143ZM247.545 59.067C247.545 61.0213 249.13 62.6056 251.084 62.6056C252.022 62.6056 252.922 62.2328 253.586 61.5692C254.25 60.9056 254.622 60.0055 254.622 59.067C254.622 57.1128 253.038 55.5285 251.084 55.5285C249.13 55.5285 247.545 57.1128 247.545 59.067Z" fill="black"/>
<path d="M252.91 57.2407C252.859 57.1891 252.79 57.1602 252.717 57.1602C252.645 57.1602 252.575 57.1891 252.524 57.2407L249.258 60.507C249.179 60.5849 249.155 60.7025 249.198 60.8047C249.24 60.9068 249.34 60.9731 249.451 60.9725C249.523 60.9729 249.593 60.9445 249.644 60.8935L252.91 57.6272C252.962 57.5761 252.991 57.5065 252.991 57.4339C252.991 57.3614 252.962 57.2918 252.91 57.2407Z" fill="black"/>
<path fill-rule="evenodd" clip-rule="evenodd" d="M249.723 56.8895C250.174 56.8895 250.539 57.2551 250.539 57.7061C250.539 58.1571 250.174 58.5227 249.723 58.5227C249.272 58.5227 248.906 58.1571 248.906 57.7061C248.906 57.2551 249.272 56.8895 249.723 56.8895ZM249.723 57.4339C249.572 57.4339 249.451 57.5558 249.451 57.7061C249.451 57.8564 249.572 57.9783 249.723 57.9783C249.873 57.9783 249.995 57.8564 249.995 57.7061C249.995 57.5558 249.873 57.4339 249.723 57.4339Z" fill="black"/>
<path fill-rule="evenodd" clip-rule="evenodd" d="M251.628 60.428C251.628 59.977 251.994 59.6115 252.445 59.6115C252.896 59.6115 253.262 59.977 253.262 60.428C253.262 60.879 252.896 61.2446 252.445 61.2446C251.994 61.2446 251.628 60.879 251.628 60.428ZM252.173 60.428C252.173 60.5784 252.295 60.7002 252.445 60.7002C252.595 60.7002 252.717 60.5784 252.717 60.428C252.717 60.2777 252.595 60.1558 252.445 60.1558C252.295 60.1558 252.173 60.2777 252.173 60.428Z" fill="black"/>
<path d="M49.9883 73H47.1523V59.3008L42.9688 60.7305V58.3281L49.625 55.8789H49.9883V73ZM56.6797 64.5391L57.6055 55.9375H66.7695V58.3984H59.9727L59.5039 62.4766C60.293 62.0234 61.1836 61.7969 62.1758 61.7969C63.8008 61.7969 65.0625 62.3164 65.9609 63.3555C66.8672 64.3945 67.3203 65.793 67.3203 67.5508C67.3203 69.2852 66.8203 70.668 65.8203 71.6992C64.8203 72.7227 63.4492 73.2344 61.707 73.2344C60.1445 73.2344 58.8477 72.793 57.8164 71.9102C56.793 71.0195 56.2383 69.8477 56.1523 68.3945H58.9062C59.0156 69.2227 59.3125 69.8594 59.7969 70.3047C60.2812 70.7422 60.9141 70.9609 61.6953 70.9609C62.5703 70.9609 63.25 70.6484 63.7344 70.0234C64.2266 69.3984 64.4727 68.5469 64.4727 67.4688C64.4727 66.4297 64.2031 65.6094 63.6641 65.0078C63.125 64.3984 62.3828 64.0938 61.4375 64.0938C60.9219 64.0938 60.4844 64.1641 60.125 64.3047C59.7656 64.4375 59.375 64.7031 58.9531 65.1016L56.6797 64.5391ZM69.4414 59.2188C69.4414 58.1875 69.7734 57.3438 70.4375 56.6875C71.1016 56.0234 71.9727 55.6914 73.0508 55.6914C74.1445 55.6914 75.0195 56.0234 75.6758 56.6875C76.3398 57.3438 76.6719 58.207 76.6719 59.2773V60.1211C76.6719 61.1445 76.3398 61.9844 75.6758 62.6406C75.0195 63.2969 74.1523 63.625 73.0742 63.625C72.0195 63.625 71.1484 63.3047 70.4609 62.6641C69.7812 62.0156 69.4414 61.1445 69.4414 60.0508V59.2188ZM71.4336 60.1211C71.4336 60.6602 71.582 61.0977 71.8789 61.4336C72.1836 61.7617 72.582 61.9258 73.0742 61.9258C73.5586 61.9258 73.9492 61.7617 74.2461 61.4336C74.543 61.0977 74.6914 60.6445 74.6914 60.0742V59.2188C74.6914 58.6797 74.5391 58.2422 74.2344 57.9062C73.9375 57.5703 73.543 57.4023 73.0508 57.4023C72.5586 57.4023 72.1641 57.5742 71.8672 57.918C71.5781 58.2539 71.4336 58.6992 71.4336 59.2539V60.1211ZM77.6445 68.8164C77.6445 67.7695 77.9844 66.9219 78.6641 66.2734C79.3438 65.625 80.2109 65.3008 81.2656 65.3008C82.3281 65.3008 83.1953 65.625 83.8672 66.2734C84.5469 66.9219 84.8867 67.7969 84.8867 68.8984V69.7305C84.8867 70.7461 84.5586 71.5859 83.9023 72.25C83.2539 72.9062 82.3828 73.2344 81.2891 73.2344C80.1953 73.2344 79.3125 72.9102 78.6406 72.2617C77.9766 71.6055 77.6445 70.7422 77.6445 69.6719V68.8164ZM79.6367 69.7305C79.6367 70.2617 79.7891 70.6992 80.0938 71.043C80.4062 71.3789 80.8047 71.5469 81.2891 71.5469C81.7891 71.5469 82.1797 71.3867 82.4609 71.0664C82.75 70.7383 82.8945 70.2812 82.8945 69.6953V68.8164C82.8945 68.2695 82.7422 67.832 82.4375 67.5039C82.1328 67.1758 81.7422 67.0117 81.2656 67.0117C80.7812 67.0117 80.3867 67.1758 80.082 67.5039C79.7852 67.832 79.6367 68.2852 79.6367 68.8633V69.7305ZM73.6602 71.7227L72.1953 70.8789L80.5273 57.543L81.9922 58.3867L73.6602 71.7227Z" fill="black"/>
<path d="M50.082 38.6162C49.9502 39.7441 49.5327 40.6157 48.8296 41.231C48.1313 41.8413 47.2012 42.1465 46.0391 42.1465C44.7793 42.1465 43.7686 41.6948 43.0068 40.7915C42.25 39.8882 41.8716 38.6797 41.8716 37.166V36.1406C41.8716 35.1494 42.0474 34.2778 42.3989 33.5259C42.7554 32.7739 43.2583 32.1978 43.9077 31.7974C44.5571 31.3921 45.3091 31.1895 46.1636 31.1895C47.2964 31.1895 48.2046 31.5068 48.8882 32.1416C49.5718 32.7715 49.9697 33.6455 50.082 34.7637H48.6685C48.5464 33.9141 48.2803 33.2988 47.8701 32.918C47.4648 32.5371 46.896 32.3467 46.1636 32.3467C45.2651 32.3467 44.5596 32.6787 44.0469 33.3428C43.5391 34.0068 43.2852 34.9517 43.2852 36.1772V37.21C43.2852 38.3672 43.5269 39.2876 44.0103 39.9712C44.4937 40.6548 45.1699 40.9966 46.0391 40.9966C46.8203 40.9966 47.4185 40.8208 47.8335 40.4692C48.2534 40.1128 48.5317 39.4951 48.6685 38.6162H50.082ZM51.437 37.9644C51.437 37.188 51.5884 36.4897 51.8911 35.8696C52.1987 35.2495 52.6235 34.771 53.1655 34.4341C53.7124 34.0972 54.335 33.9287 55.0332 33.9287C56.1123 33.9287 56.9839 34.3022 57.6479 35.0493C58.3169 35.7964 58.6514 36.79 58.6514 38.0303V38.1255C58.6514 38.897 58.5024 39.5903 58.2046 40.2056C57.9116 40.8159 57.4893 41.292 56.9375 41.6338C56.3906 41.9756 55.7607 42.1465 55.0479 42.1465C53.9736 42.1465 53.1021 41.7729 52.4331 41.0259C51.769 40.2788 51.437 39.29 51.437 38.0596V37.9644ZM52.7993 38.1255C52.7993 39.0044 53.002 39.71 53.4072 40.2422C53.8174 40.7744 54.3643 41.0405 55.0479 41.0405C55.7363 41.0405 56.2832 40.772 56.6885 40.2349C57.0938 39.6929 57.2964 38.936 57.2964 37.9644C57.2964 37.0952 57.0889 36.3921 56.6738 35.855C56.2637 35.313 55.7168 35.042 55.0332 35.042C54.3643 35.042 53.8247 35.3081 53.4146 35.8403C53.0044 36.3726 52.7993 37.1343 52.7993 38.1255ZM61.6323 34.0752L61.6763 35.0713C62.2817 34.3096 63.0728 33.9287 64.0493 33.9287C65.7241 33.9287 66.5688 34.8735 66.5835 36.7632V42H65.2285V36.7559C65.2236 36.1846 65.0918 35.7622 64.833 35.4888C64.5791 35.2153 64.1812 35.0786 63.6392 35.0786C63.1997 35.0786 62.814 35.1958 62.4819 35.4302C62.1499 35.6646 61.8911 35.9722 61.7056 36.353V42H60.3506V34.0752H61.6323ZM71.2417 40.1616L73.2046 34.0752H74.5889L71.7471 42H70.7144L67.8433 34.0752H69.2275L71.2417 40.1616ZM79.0786 42.1465C78.0044 42.1465 77.1304 41.7949 76.4565 41.0918C75.7827 40.3838 75.4458 39.439 75.4458 38.2573V38.0083C75.4458 37.2222 75.5947 36.5215 75.8926 35.9062C76.1953 35.2861 76.6152 34.8027 77.1523 34.4561C77.6943 34.1045 78.2803 33.9287 78.9102 33.9287C79.9404 33.9287 80.7412 34.2681 81.3125 34.9468C81.8838 35.6255 82.1694 36.5972 82.1694 37.8618V38.4258H76.8008C76.8203 39.207 77.0474 39.8394 77.4819 40.3228C77.9214 40.8013 78.478 41.0405 79.1519 41.0405C79.6304 41.0405 80.0356 40.9429 80.3677 40.7476C80.6997 40.5522 80.9902 40.2935 81.2393 39.9712L82.0669 40.6157C81.4028 41.6362 80.4067 42.1465 79.0786 42.1465ZM78.9102 35.042C78.3633 35.042 77.9043 35.2422 77.5332 35.6426C77.1621 36.0381 76.9326 36.5947 76.8447 37.3125H80.8145V37.21C80.7754 36.5215 80.5898 35.9893 80.2578 35.6133C79.9258 35.2324 79.4766 35.042 78.9102 35.042ZM87.5747 35.291C87.3696 35.2568 87.1475 35.2397 86.9082 35.2397C86.0195 35.2397 85.4165 35.6182 85.0991 36.375V42H83.7441V34.0752H85.0625L85.0845 34.9907C85.5288 34.2827 86.1587 33.9287 86.9741 33.9287C87.2378 33.9287 87.438 33.9629 87.5747 34.0312V35.291ZM93.4414 39.8979C93.4414 39.5317 93.3022 39.2485 93.0239 39.0483C92.7505 38.8433 92.2695 38.6675 91.5811 38.521C90.8975 38.3745 90.353 38.1987 89.9478 37.9937C89.5474 37.7886 89.2495 37.5444 89.0542 37.2612C88.8638 36.978 88.7686 36.6411 88.7686 36.2505C88.7686 35.6011 89.042 35.0518 89.5889 34.6025C90.1406 34.1533 90.8438 33.9287 91.6982 33.9287C92.5967 33.9287 93.3242 34.1606 93.8809 34.6245C94.4424 35.0884 94.7231 35.6816 94.7231 36.4043H93.3608C93.3608 36.0332 93.2021 35.7134 92.8848 35.4448C92.5723 35.1763 92.1768 35.042 91.6982 35.042C91.2051 35.042 90.8193 35.1494 90.541 35.3643C90.2627 35.5791 90.1235 35.8599 90.1235 36.2065C90.1235 36.5337 90.2529 36.7803 90.5117 36.9463C90.7705 37.1123 91.2368 37.271 91.9106 37.4224C92.5894 37.5737 93.1387 37.7544 93.5586 37.9644C93.9785 38.1743 94.2886 38.4282 94.4888 38.7261C94.6938 39.019 94.7964 39.3779 94.7964 39.8027C94.7964 40.5107 94.5132 41.0796 93.9468 41.5093C93.3804 41.9341 92.6455 42.1465 91.7422 42.1465C91.1074 42.1465 90.5459 42.0342 90.0576 41.8096C89.5693 41.585 89.186 41.2725 88.9077 40.8721C88.6343 40.4668 88.4976 40.0298 88.4976 39.561H89.8525C89.877 40.0151 90.0576 40.3765 90.3945 40.645C90.7363 40.9087 91.1855 41.0405 91.7422 41.0405C92.2549 41.0405 92.665 40.938 92.9727 40.7329C93.2852 40.5229 93.4414 40.2446 93.4414 39.8979ZM98.0337 42H96.6787V34.0752H98.0337V42ZM96.5688 31.9731C96.5688 31.7534 96.6348 31.5679 96.7666 31.4165C96.9033 31.2651 97.1035 31.1895 97.3672 31.1895C97.6309 31.1895 97.8311 31.2651 97.9678 31.4165C98.1045 31.5679 98.1729 31.7534 98.1729 31.9731C98.1729 32.1929 98.1045 32.376 97.9678 32.5225C97.8311 32.6689 97.6309 32.7422 97.3672 32.7422C97.1035 32.7422 96.9033 32.6689 96.7666 32.5225C96.6348 32.376 96.5688 32.1929 96.5688 31.9731ZM99.8501 37.9644C99.8501 37.188 100.001 36.4897 100.304 35.8696C100.612 35.2495 101.037 34.771 101.579 34.4341C102.125 34.0972 102.748 33.9287 103.446 33.9287C104.525 33.9287 105.397 34.3022 106.061 35.0493C106.73 35.7964 107.064 36.79 107.064 38.0303V38.1255C107.064 38.897 106.916 39.5903 106.618 40.2056C106.325 40.8159 105.902 41.292 105.351 41.6338C104.804 41.9756 104.174 42.1465 103.461 42.1465C102.387 42.1465 101.515 41.7729 100.846 41.0259C100.182 40.2788 99.8501 39.29 99.8501 38.0596V37.9644ZM101.212 38.1255C101.212 39.0044 101.415 39.71 101.82 40.2422C102.23 40.7744 102.777 41.0405 103.461 41.0405C104.149 41.0405 104.696 40.772 105.102 40.2349C105.507 39.6929 105.709 38.936 105.709 37.9644C105.709 37.0952 105.502 36.3921 105.087 35.855C104.677 35.313 104.13 35.042 103.446 35.042C102.777 35.042 102.238 35.3081 101.828 35.8403C101.417 36.3726 101.212 37.1343 101.212 38.1255ZM110.045 34.0752L110.089 35.0713C110.695 34.3096 111.486 33.9287 112.462 33.9287C114.137 33.9287 114.982 34.8735 114.997 36.7632V42H113.642V36.7559C113.637 36.1846 113.505 35.7622 113.246 35.4888C112.992 35.2153 112.594 35.0786 112.052 35.0786C111.613 35.0786 111.227 35.1958 110.895 35.4302C110.563 35.6646 110.304 35.9722 110.119 36.353V42H108.764V34.0752H110.045ZM124.884 37.686H122.379V42H120.966V31.3359H124.496C125.697 31.3359 126.62 31.6094 127.265 32.1562C127.914 32.7031 128.239 33.499 128.239 34.5439C128.239 35.208 128.058 35.7866 127.697 36.2798C127.34 36.7729 126.842 37.1416 126.203 37.3857L128.708 41.9121V42H127.199L124.884 37.686ZM122.379 36.5361H124.54C125.238 36.5361 125.792 36.3555 126.203 35.9941C126.618 35.6328 126.825 35.1494 126.825 34.5439C126.825 33.8848 126.627 33.3794 126.232 33.0278C125.841 32.6763 125.275 32.498 124.533 32.4932H122.379V36.5361ZM134.896 42C134.818 41.8438 134.755 41.5654 134.706 41.165C134.076 41.8193 133.324 42.1465 132.45 42.1465C131.669 42.1465 131.027 41.9268 130.524 41.4873C130.026 41.043 129.777 40.4814 129.777 39.8027C129.777 38.9775 130.089 38.3379 130.714 37.8838C131.344 37.4248 132.228 37.1953 133.366 37.1953H134.684V36.5728C134.684 36.0991 134.542 35.7231 134.259 35.4448C133.976 35.1616 133.559 35.02 133.007 35.02C132.523 35.02 132.118 35.1421 131.791 35.3862C131.464 35.6304 131.3 35.9258 131.3 36.2725H129.938C129.938 35.877 130.077 35.4961 130.355 35.1299C130.639 34.7588 131.02 34.4658 131.498 34.251C131.981 34.0361 132.511 33.9287 133.087 33.9287C134 33.9287 134.716 34.1582 135.233 34.6172C135.751 35.0713 136.02 35.6987 136.039 36.4995V40.147C136.039 40.8745 136.132 41.4531 136.317 41.8828V42H134.896ZM132.648 40.9673C133.073 40.9673 133.476 40.8574 133.856 40.6377C134.237 40.418 134.513 40.1323 134.684 39.7808V38.1548H133.622C131.962 38.1548 131.132 38.6406 131.132 39.6123C131.132 40.0371 131.273 40.3691 131.557 40.6084C131.84 40.8477 132.204 40.9673 132.648 40.9673ZM140.001 32.1562V34.0752H141.481V35.1226H140.001V40.0371C140.001 40.3545 140.067 40.5938 140.199 40.7549C140.331 40.9111 140.556 40.9893 140.873 40.9893C141.029 40.9893 141.244 40.96 141.518 40.9014V42C141.161 42.0977 140.814 42.1465 140.478 42.1465C139.872 42.1465 139.416 41.9634 139.108 41.5972C138.8 41.231 138.646 40.7109 138.646 40.0371V35.1226H137.204V34.0752H138.646V32.1562H140.001ZM146.359 42.1465C145.285 42.1465 144.411 41.7949 143.737 41.0918C143.063 40.3838 142.726 39.439 142.726 38.2573V38.0083C142.726 37.2222 142.875 36.5215 143.173 35.9062C143.476 35.2861 143.896 34.8027 144.433 34.4561C144.975 34.1045 145.561 33.9287 146.19 33.9287C147.221 33.9287 148.021 34.2681 148.593 34.9468C149.164 35.6255 149.45 36.5972 149.45 37.8618V38.4258H144.081C144.101 39.207 144.328 39.8394 144.762 40.3228C145.202 40.8013 145.758 41.0405 146.432 41.0405C146.911 41.0405 147.316 40.9429 147.648 40.7476C147.98 40.5522 148.271 40.2935 148.52 39.9712L149.347 40.6157C148.683 41.6362 147.687 42.1465 146.359 42.1465ZM146.19 35.042C145.644 35.042 145.185 35.2422 144.813 35.6426C144.442 36.0381 144.213 36.5947 144.125 37.3125H148.095V37.21C148.056 36.5215 147.87 35.9893 147.538 35.6133C147.206 35.2324 146.757 35.042 146.19 35.042Z" fill="#666666"/>
<path d="M40.6072 92.4916L40.2978 92.0988L41.0834 91.48L41.3928 91.8728L40.6072 92.4916ZM45.1981 97.5117L45.4599 97.9376L45.0807 98.1707L44.8054 97.8211L45.1981 97.5117ZM52.5956 92.9655L52.3338 92.5395L52.6073 92.3714L52.8739 92.5501L52.5956 92.9655ZM63.32 100.151L57.5593 99.766L60.773 94.9696L63.32 100.151ZM41.3928 91.8728L45.5909 97.2023L44.8054 97.8211L40.6072 92.4916L41.3928 91.8728ZM44.9363 97.0857L52.3338 92.5395L52.8574 93.3915L45.4599 97.9376L44.9363 97.0857ZM52.8739 92.5501L59.8599 97.2307L59.3032 98.0615L52.3173 93.3809L52.8739 92.5501Z" fill="#DB0E00"/>
<path d="M70.8564 92.855H71.9404C72.4873 92.8501 72.9194 92.7085 73.2368 92.4302C73.5591 92.1519 73.7202 91.749 73.7202 91.2217C73.7202 90.7139 73.5859 90.3208 73.3174 90.0425C73.0537 89.7593 72.6484 89.6177 72.1016 89.6177C71.623 89.6177 71.23 89.7568 70.9224 90.0352C70.6147 90.3086 70.4609 90.6675 70.4609 91.1118H68.6812C68.6812 90.5649 68.8252 90.0669 69.1133 89.6177C69.4062 89.1685 69.8115 88.8193 70.3291 88.5703C70.8516 88.3164 71.4351 88.1895 72.0796 88.1895C73.144 88.1895 73.979 88.458 74.5845 88.9951C75.1948 89.5273 75.5 90.2695 75.5 91.2217C75.5 91.7002 75.3462 92.1519 75.0386 92.5767C74.7358 92.9966 74.3428 93.314 73.8594 93.5288C74.4453 93.729 74.8896 94.0439 75.1924 94.4736C75.5 94.9033 75.6538 95.416 75.6538 96.0117C75.6538 96.9688 75.3242 97.7305 74.665 98.2969C74.0107 98.8633 73.1489 99.1465 72.0796 99.1465C71.0542 99.1465 70.2144 98.873 69.5601 98.3262C68.9058 97.7793 68.5786 97.0518 68.5786 96.1436H70.3584C70.3584 96.6123 70.5146 96.9932 70.8271 97.2861C71.1445 97.5791 71.5693 97.7256 72.1016 97.7256C72.6533 97.7256 73.0879 97.5791 73.4053 97.2861C73.7227 96.9932 73.8813 96.5684 73.8813 96.0117C73.8813 95.4502 73.7153 95.0181 73.3833 94.7153C73.0513 94.4126 72.5581 94.2612 71.9038 94.2612H70.8564V92.855ZM78.5469 97.125C78.8789 97.125 79.1353 97.2202 79.3159 97.4106C79.4966 97.5962 79.5869 97.8306 79.5869 98.1138C79.5869 98.3921 79.4966 98.624 79.3159 98.8096C79.1353 98.9902 78.8789 99.0806 78.5469 99.0806C78.2295 99.0806 77.978 98.9902 77.7925 98.8096C77.6069 98.6289 77.5142 98.397 77.5142 98.1138C77.5142 97.8306 77.6045 97.5962 77.7852 97.4106C77.9658 97.2202 78.2197 97.125 78.5469 97.125ZM88.4639 94.5103C88.4639 96.0435 88.1758 97.2007 87.5996 97.9819C87.0283 98.7583 86.1567 99.1465 84.9849 99.1465C83.8325 99.1465 82.9634 98.7681 82.3774 98.0112C81.7964 97.2495 81.4985 96.124 81.4839 94.6348V92.7891C81.4839 91.2559 81.7695 90.106 82.3408 89.3394C82.917 88.5728 83.7935 88.1895 84.9702 88.1895C86.1372 88.1895 87.0063 88.563 87.5776 89.3101C88.1538 90.0571 88.4492 91.1753 88.4639 92.6646V94.5103ZM86.6841 92.5181C86.6841 91.5171 86.5474 90.7847 86.2739 90.3208C86.0005 89.8521 85.5659 89.6177 84.9702 89.6177C84.3892 89.6177 83.9619 89.8398 83.6885 90.2842C83.415 90.7236 83.271 91.4121 83.2563 92.3496V94.7666C83.2563 95.7627 83.3955 96.5049 83.6738 96.9932C83.9521 97.4814 84.3892 97.7256 84.9849 97.7256C85.5562 97.7256 85.9785 97.501 86.252 97.0518C86.5254 96.5977 86.6694 95.8896 86.6841 94.9277V92.5181ZM89.9653 90.3867C89.9653 89.7422 90.1729 89.2148 90.5879 88.8047C91.0029 88.3896 91.5474 88.1821 92.2212 88.1821C92.9048 88.1821 93.4517 88.3896 93.8618 88.8047C94.2769 89.2148 94.4844 89.7544 94.4844 90.4233V90.9507C94.4844 91.5903 94.2769 92.1152 93.8618 92.5254C93.4517 92.9355 92.9097 93.1406 92.2358 93.1406C91.5767 93.1406 91.0322 92.9404 90.6025 92.54C90.1777 92.1348 89.9653 91.5903 89.9653 90.9067V90.3867ZM91.2104 90.9507C91.2104 91.2876 91.3032 91.561 91.4888 91.771C91.6792 91.9761 91.9282 92.0786 92.2358 92.0786C92.5386 92.0786 92.7827 91.9761 92.9683 91.771C93.1538 91.561 93.2466 91.2778 93.2466 90.9214V90.3867C93.2466 90.0498 93.1514 89.7764 92.9609 89.5664C92.7754 89.3564 92.5288 89.2515 92.2212 89.2515C91.9136 89.2515 91.667 89.3589 91.4814 89.5737C91.3008 89.7837 91.2104 90.062 91.2104 90.4087V90.9507ZM95.0923 96.3853C95.0923 95.731 95.3047 95.2012 95.7295 94.7959C96.1543 94.3906 96.6963 94.188 97.3555 94.188C98.0195 94.188 98.5615 94.3906 98.9814 94.7959C99.4062 95.2012 99.6187 95.748 99.6187 96.4365V96.9565C99.6187 97.5913 99.4136 98.1162 99.0034 98.5312C98.5981 98.9414 98.0537 99.1465 97.3701 99.1465C96.6865 99.1465 96.1348 98.9438 95.7148 98.5386C95.2998 98.1284 95.0923 97.5889 95.0923 96.9199V96.3853ZM96.3374 96.9565C96.3374 97.2886 96.4326 97.562 96.623 97.7769C96.8184 97.9868 97.0674 98.0918 97.3701 98.0918C97.6826 98.0918 97.9268 97.9917 98.1025 97.7915C98.2832 97.5864 98.3735 97.3008 98.3735 96.9346V96.3853C98.3735 96.0435 98.2783 95.77 98.0879 95.5649C97.8975 95.3599 97.6533 95.2573 97.3555 95.2573C97.0527 95.2573 96.8062 95.3599 96.6157 95.5649C96.4302 95.77 96.3374 96.0532 96.3374 96.4146V96.9565ZM92.6021 98.2017L91.6865 97.6743L96.894 89.3394L97.8096 89.8667L92.6021 98.2017Z" fill="#DB0E00"/>
<path d="M116.082 95.6162C115.95 96.7441 115.533 97.6157 114.83 98.231C114.131 98.8413 113.201 99.1465 112.039 99.1465C110.779 99.1465 109.769 98.6948 109.007 97.7915C108.25 96.8882 107.872 95.6797 107.872 94.166V93.1406C107.872 92.1494 108.047 91.2778 108.399 90.5259C108.755 89.7739 109.258 89.1978 109.908 88.7974C110.557 88.3921 111.309 88.1895 112.164 88.1895C113.296 88.1895 114.205 88.5068 114.888 89.1416C115.572 89.7715 115.97 90.6455 116.082 91.7637H114.668C114.546 90.9141 114.28 90.2988 113.87 89.918C113.465 89.5371 112.896 89.3467 112.164 89.3467C111.265 89.3467 110.56 89.6787 110.047 90.3428C109.539 91.0068 109.285 91.9517 109.285 93.1772V94.21C109.285 95.3672 109.527 96.2876 110.01 96.9712C110.494 97.6548 111.17 97.9966 112.039 97.9966C112.82 97.9966 113.418 97.8208 113.833 97.4692C114.253 97.1128 114.532 96.4951 114.668 95.6162H116.082ZM117.437 94.9644C117.437 94.188 117.588 93.4897 117.891 92.8696C118.199 92.2495 118.624 91.771 119.166 91.4341C119.712 91.0972 120.335 90.9287 121.033 90.9287C122.112 90.9287 122.984 91.3022 123.648 92.0493C124.317 92.7964 124.651 93.79 124.651 95.0303V95.1255C124.651 95.897 124.502 96.5903 124.205 97.2056C123.912 97.8159 123.489 98.292 122.938 98.6338C122.391 98.9756 121.761 99.1465 121.048 99.1465C119.974 99.1465 119.102 98.7729 118.433 98.0259C117.769 97.2788 117.437 96.29 117.437 95.0596V94.9644ZM118.799 95.1255C118.799 96.0044 119.002 96.71 119.407 97.2422C119.817 97.7744 120.364 98.0405 121.048 98.0405C121.736 98.0405 122.283 97.772 122.688 97.2349C123.094 96.6929 123.296 95.936 123.296 94.9644C123.296 94.0952 123.089 93.3921 122.674 92.855C122.264 92.313 121.717 92.042 121.033 92.042C120.364 92.042 119.825 92.3081 119.415 92.8403C119.004 93.3726 118.799 94.1343 118.799 95.1255ZM127.632 91.0752L127.676 92.0713C128.282 91.3096 129.073 90.9287 130.049 90.9287C131.724 90.9287 132.569 91.8735 132.583 93.7632V99H131.229V93.7559C131.224 93.1846 131.092 92.7622 130.833 92.4888C130.579 92.2153 130.181 92.0786 129.639 92.0786C129.2 92.0786 128.814 92.1958 128.482 92.4302C128.15 92.6646 127.891 92.9722 127.706 93.353V99H126.351V91.0752H127.632ZM137.242 97.1616L139.205 91.0752H140.589L137.747 99H136.714L133.843 91.0752H135.228L137.242 97.1616ZM145.079 99.1465C144.004 99.1465 143.13 98.7949 142.457 98.0918C141.783 97.3838 141.446 96.439 141.446 95.2573V95.0083C141.446 94.2222 141.595 93.5215 141.893 92.9062C142.195 92.2861 142.615 91.8027 143.152 91.4561C143.694 91.1045 144.28 90.9287 144.91 90.9287C145.94 90.9287 146.741 91.2681 147.312 91.9468C147.884 92.6255 148.169 93.5972 148.169 94.8618V95.4258H142.801C142.82 96.207 143.047 96.8394 143.482 97.3228C143.921 97.8013 144.478 98.0405 145.152 98.0405C145.63 98.0405 146.036 97.9429 146.368 97.7476C146.7 97.5522 146.99 97.2935 147.239 96.9712L148.067 97.6157C147.403 98.6362 146.407 99.1465 145.079 99.1465ZM144.91 92.042C144.363 92.042 143.904 92.2422 143.533 92.6426C143.162 93.0381 142.933 93.5947 142.845 94.3125H146.814V94.21C146.775 93.5215 146.59 92.9893 146.258 92.6133C145.926 92.2324 145.477 92.042 144.91 92.042ZM153.575 92.291C153.37 92.2568 153.147 92.2397 152.908 92.2397C152.02 92.2397 151.417 92.6182 151.099 93.375V99H149.744V91.0752H151.062L151.084 91.9907C151.529 91.2827 152.159 90.9287 152.974 90.9287C153.238 90.9287 153.438 90.9629 153.575 91.0312V92.291ZM159.441 96.8979C159.441 96.5317 159.302 96.2485 159.024 96.0483C158.75 95.8433 158.27 95.6675 157.581 95.521C156.897 95.3745 156.353 95.1987 155.948 94.9937C155.547 94.7886 155.25 94.5444 155.054 94.2612C154.864 93.978 154.769 93.6411 154.769 93.2505C154.769 92.6011 155.042 92.0518 155.589 91.6025C156.141 91.1533 156.844 90.9287 157.698 90.9287C158.597 90.9287 159.324 91.1606 159.881 91.6245C160.442 92.0884 160.723 92.6816 160.723 93.4043H159.361C159.361 93.0332 159.202 92.7134 158.885 92.4448C158.572 92.1763 158.177 92.042 157.698 92.042C157.205 92.042 156.819 92.1494 156.541 92.3643C156.263 92.5791 156.124 92.8599 156.124 93.2065C156.124 93.5337 156.253 93.7803 156.512 93.9463C156.771 94.1123 157.237 94.271 157.911 94.4224C158.589 94.5737 159.139 94.7544 159.559 94.9644C159.979 95.1743 160.289 95.4282 160.489 95.7261C160.694 96.019 160.796 96.3779 160.796 96.8027C160.796 97.5107 160.513 98.0796 159.947 98.5093C159.38 98.9341 158.646 99.1465 157.742 99.1465C157.107 99.1465 156.546 99.0342 156.058 98.8096C155.569 98.585 155.186 98.2725 154.908 97.8721C154.634 97.4668 154.498 97.0298 154.498 96.561H155.853C155.877 97.0151 156.058 97.3765 156.395 97.645C156.736 97.9087 157.186 98.0405 157.742 98.0405C158.255 98.0405 158.665 97.938 158.973 97.7329C159.285 97.5229 159.441 97.2446 159.441 96.8979ZM164.034 99H162.679V91.0752H164.034V99ZM162.569 88.9731C162.569 88.7534 162.635 88.5679 162.767 88.4165C162.903 88.2651 163.104 88.1895 163.367 88.1895C163.631 88.1895 163.831 88.2651 163.968 88.4165C164.104 88.5679 164.173 88.7534 164.173 88.9731C164.173 89.1929 164.104 89.376 163.968 89.5225C163.831 89.6689 163.631 89.7422 163.367 89.7422C163.104 89.7422 162.903 89.6689 162.767 89.5225C162.635 89.376 162.569 89.1929 162.569 88.9731ZM165.85 94.9644C165.85 94.188 166.001 93.4897 166.304 92.8696C166.612 92.2495 167.037 91.771 167.579 91.4341C168.125 91.0972 168.748 90.9287 169.446 90.9287C170.525 90.9287 171.397 91.3022 172.061 92.0493C172.73 92.7964 173.064 93.79 173.064 95.0303V95.1255C173.064 95.897 172.916 96.5903 172.618 97.2056C172.325 97.8159 171.902 98.292 171.351 98.6338C170.804 98.9756 170.174 99.1465 169.461 99.1465C168.387 99.1465 167.515 98.7729 166.846 98.0259C166.182 97.2788 165.85 96.29 165.85 95.0596V94.9644ZM167.212 95.1255C167.212 96.0044 167.415 96.71 167.82 97.2422C168.23 97.7744 168.777 98.0405 169.461 98.0405C170.149 98.0405 170.696 97.772 171.102 97.2349C171.507 96.6929 171.709 95.936 171.709 94.9644C171.709 94.0952 171.502 93.3921 171.087 92.855C170.677 92.313 170.13 92.042 169.446 92.042C168.777 92.042 168.238 92.3081 167.828 92.8403C167.417 93.3726 167.212 94.1343 167.212 95.1255ZM176.045 91.0752L176.089 92.0713C176.695 91.3096 177.486 90.9287 178.462 90.9287C180.137 90.9287 180.982 91.8735 180.997 93.7632V99H179.642V93.7559C179.637 93.1846 179.505 92.7622 179.246 92.4888C178.992 92.2153 178.594 92.0786 178.052 92.0786C177.613 92.0786 177.227 92.1958 176.895 92.4302C176.563 92.6646 176.304 92.9722 176.119 93.353V99H174.764V91.0752H176.045ZM190.884 94.686H188.379V99H186.966V88.3359H190.496C191.697 88.3359 192.62 88.6094 193.265 89.1562C193.914 89.7031 194.239 90.499 194.239 91.5439C194.239 92.208 194.058 92.7866 193.697 93.2798C193.34 93.7729 192.842 94.1416 192.203 94.3857L194.708 98.9121V99H193.199L190.884 94.686ZM188.379 93.5361H190.54C191.238 93.5361 191.792 93.3555 192.203 92.9941C192.618 92.6328 192.825 92.1494 192.825 91.5439C192.825 90.8848 192.627 90.3794 192.232 90.0278C191.841 89.6763 191.275 89.498 190.533 89.4932H188.379V93.5361ZM200.896 99C200.818 98.8438 200.755 98.5654 200.706 98.165C200.076 98.8193 199.324 99.1465 198.45 99.1465C197.669 99.1465 197.027 98.9268 196.524 98.4873C196.026 98.043 195.777 97.4814 195.777 96.8027C195.777 95.9775 196.089 95.3379 196.714 94.8838C197.344 94.4248 198.228 94.1953 199.366 94.1953H200.684V93.5728C200.684 93.0991 200.542 92.7231 200.259 92.4448C199.976 92.1616 199.559 92.02 199.007 92.02C198.523 92.02 198.118 92.1421 197.791 92.3862C197.464 92.6304 197.3 92.9258 197.3 93.2725H195.938C195.938 92.877 196.077 92.4961 196.355 92.1299C196.639 91.7588 197.02 91.4658 197.498 91.251C197.981 91.0361 198.511 90.9287 199.087 90.9287C200 90.9287 200.716 91.1582 201.233 91.6172C201.751 92.0713 202.02 92.6987 202.039 93.4995V97.147C202.039 97.8745 202.132 98.4531 202.317 98.8828V99H200.896ZM198.648 97.9673C199.073 97.9673 199.476 97.8574 199.856 97.6377C200.237 97.418 200.513 97.1323 200.684 96.7808V95.1548H199.622C197.962 95.1548 197.132 95.6406 197.132 96.6123C197.132 97.0371 197.273 97.3691 197.557 97.6084C197.84 97.8477 198.204 97.9673 198.648 97.9673ZM206.001 89.1562V91.0752H207.481V92.1226H206.001V97.0371C206.001 97.3545 206.067 97.5938 206.199 97.7549C206.331 97.9111 206.556 97.9893 206.873 97.9893C207.029 97.9893 207.244 97.96 207.518 97.9014V99C207.161 99.0977 206.814 99.1465 206.478 99.1465C205.872 99.1465 205.416 98.9634 205.108 98.5972C204.8 98.231 204.646 97.7109 204.646 97.0371V92.1226H203.204V91.0752H204.646V89.1562H206.001ZM212.359 99.1465C211.285 99.1465 210.411 98.7949 209.737 98.0918C209.063 97.3838 208.726 96.439 208.726 95.2573V95.0083C208.726 94.2222 208.875 93.5215 209.173 92.9062C209.476 92.2861 209.896 91.8027 210.433 91.4561C210.975 91.1045 211.561 90.9287 212.19 90.9287C213.221 90.9287 214.021 91.2681 214.593 91.9468C215.164 92.6255 215.45 93.5972 215.45 94.8618V95.4258H210.081C210.101 96.207 210.328 96.8394 210.762 97.3228C211.202 97.8013 211.758 98.0405 212.432 98.0405C212.911 98.0405 213.316 97.9429 213.648 97.7476C213.98 97.5522 214.271 97.2935 214.52 96.9712L215.347 97.6157C214.683 98.6362 213.687 99.1465 212.359 99.1465ZM212.19 92.042C211.644 92.042 211.185 92.2422 210.813 92.6426C210.442 93.0381 210.213 93.5947 210.125 94.3125H214.095V94.21C214.056 93.5215 213.87 92.9893 213.538 92.6133C213.206 92.2324 212.757 92.042 212.19 92.042ZM228.033 89.4932H224.605V99H223.206V89.4932H219.786V88.3359H228.033V89.4932ZM228.311 94.9644C228.311 94.188 228.462 93.4897 228.765 92.8696C229.073 92.2495 229.498 91.771 230.04 91.4341C230.586 91.0972 231.209 90.9287 231.907 90.9287C232.986 90.9287 233.858 91.3022 234.522 92.0493C235.191 92.7964 235.525 93.79 235.525 95.0303V95.1255C235.525 95.897 235.376 96.5903 235.079 97.2056C234.786 97.8159 234.363 98.292 233.812 98.6338C233.265 98.9756 232.635 99.1465 231.922 99.1465C230.848 99.1465 229.976 98.7729 229.307 98.0259C228.643 97.2788 228.311 96.29 228.311 95.0596V94.9644ZM229.673 95.1255C229.673 96.0044 229.876 96.71 230.281 97.2422C230.691 97.7744 231.238 98.0405 231.922 98.0405C232.61 98.0405 233.157 97.772 233.562 97.2349C233.968 96.6929 234.17 95.936 234.17 94.9644C234.17 94.0952 233.963 93.3921 233.548 92.855C233.138 92.313 232.591 92.042 231.907 92.042C231.238 92.042 230.699 92.3081 230.289 92.8403C229.878 93.3726 229.673 94.1343 229.673 95.1255ZM236.895 94.9717C236.895 93.7559 237.183 92.7793 237.759 92.042C238.335 91.2998 239.09 90.9287 240.022 90.9287C240.95 90.9287 241.685 91.2461 242.227 91.8809V87.75H243.582V99H242.337L242.271 98.1504C241.729 98.8145 240.975 99.1465 240.008 99.1465C239.09 99.1465 238.34 98.7705 237.759 98.0186C237.183 97.2666 236.895 96.2852 236.895 95.0742V94.9717ZM238.25 95.1255C238.25 96.0239 238.436 96.7271 238.807 97.2349C239.178 97.7427 239.69 97.9966 240.345 97.9966C241.204 97.9966 241.832 97.6108 242.227 96.8394V93.1992C241.822 92.4521 241.199 92.0786 240.359 92.0786C239.695 92.0786 239.178 92.335 238.807 92.8477C238.436 93.3604 238.25 94.1196 238.25 95.1255ZM250.584 99C250.506 98.8438 250.442 98.5654 250.394 98.165C249.764 98.8193 249.012 99.1465 248.138 99.1465C247.356 99.1465 246.714 98.9268 246.211 98.4873C245.713 98.043 245.464 97.4814 245.464 96.8027C245.464 95.9775 245.777 95.3379 246.402 94.8838C247.032 94.4248 247.916 94.1953 249.053 94.1953H250.372V93.5728C250.372 93.0991 250.23 92.7231 249.947 92.4448C249.664 92.1616 249.246 92.02 248.694 92.02C248.211 92.02 247.806 92.1421 247.479 92.3862C247.151 92.6304 246.988 92.9258 246.988 93.2725H245.625C245.625 92.877 245.765 92.4961 246.043 92.1299C246.326 91.7588 246.707 91.4658 247.186 91.251C247.669 91.0361 248.199 90.9287 248.775 90.9287C249.688 90.9287 250.403 91.1582 250.921 91.6172C251.438 92.0713 251.707 92.6987 251.727 93.4995V97.147C251.727 97.8745 251.819 98.4531 252.005 98.8828V99H250.584ZM248.335 97.9673C248.76 97.9673 249.163 97.8574 249.544 97.6377C249.925 97.418 250.201 97.1323 250.372 96.7808V95.1548H249.31C247.649 95.1548 246.819 95.6406 246.819 96.6123C246.819 97.0371 246.961 97.3691 247.244 97.6084C247.527 97.8477 247.891 97.9673 248.335 97.9673ZM256.326 97.0151L258.172 91.0752H259.622L256.436 100.223C255.943 101.542 255.159 102.201 254.085 102.201L253.829 102.179L253.323 102.083V100.985L253.689 101.014C254.148 101.014 254.505 100.921 254.759 100.736C255.018 100.55 255.23 100.211 255.396 99.7178L255.696 98.9121L252.869 91.0752H254.349L256.326 97.0151Z" fill="#666666"/>
</g>
<defs>
<filter id="filter0_d_33_396" x="0" y="0" width="304" height="142" filterUnits="userSpaceOnUse" color-interpolation-filters="sRGB">
<feFlood flood-opacity="0" result="BackgroundImageFix"/>
<feColorMatrix in="SourceAlpha" type="matrix" values="0 0 0 0 0 0 0 0 0 0 0 0 0 0 0 0 0 0 127 0" result="hardAlpha"/>
<feOffset dy="4"/>
<feGaussianBlur stdDeviation="8"/>
<feColorMatrix type="matrix" values="0 0 0 0 0 0 0 0 0 0 0 0 0 0 0 0 0 0 0.06 0"/>
<feBlend mode="normal" in2="BackgroundImageFix" result="effect1_dropShadow_33_396"/>
<feBlend mode="normal" in="SourceGraphic" in2="effect1_dropShadow_33_396" result="shape"/>
</filter>
</defs>
</svg>
