<svg width="592" height="338" viewBox="0 0 592 338" fill="none" xmlns="http://www.w3.org/2000/svg">
<g clip-path="url(#clip0_33_541)" filter="url(#filter0_d_33_541)">
<g filter="url(#filter1_d_33_541)">
<rect x="16" y="12" width="560" height="306" rx="3" fill="white"/>
</g>
<g clip-path="url(#clip1_33_541)">
<path opacity="0.6" d="M117.293 253.067C117.293 254.293 117.063 255.219 116.602 255.844C116.145 256.465 115.448 256.776 114.51 256.776C113.588 256.776 112.893 256.473 112.424 255.867C111.959 255.258 111.721 254.358 111.709 253.166V251.69C111.709 250.463 111.938 249.543 112.395 248.93C112.856 248.317 113.557 248.01 114.499 248.01C115.432 248.01 116.127 248.309 116.584 248.906C117.045 249.504 117.282 250.399 117.293 251.59V253.067ZM115.87 251.473C115.87 250.672 115.76 250.086 115.542 249.715C115.323 249.34 114.975 249.152 114.499 249.152C114.034 249.152 113.692 249.33 113.473 249.686C113.254 250.037 113.139 250.588 113.127 251.338V253.272C113.127 254.068 113.239 254.662 113.461 255.053C113.684 255.443 114.034 255.639 114.51 255.639C114.967 255.639 115.305 255.459 115.524 255.1C115.743 254.736 115.858 254.17 115.87 253.401V251.473ZM115.588 270.658H114.17V263.809L112.079 264.524V263.322L115.407 262.098H115.588V270.658Z" fill="black"/>
<path opacity="0.6" d="M191.96 253.067C191.96 254.293 191.73 255.219 191.269 255.844C190.812 256.465 190.115 256.776 189.177 256.776C188.255 256.776 187.56 256.473 187.091 255.867C186.626 255.258 186.388 254.358 186.376 253.166V251.69C186.376 250.463 186.605 249.543 187.062 248.93C187.523 248.317 188.224 248.01 189.165 248.01C190.099 248.01 190.794 248.309 191.251 248.906C191.712 249.504 191.948 250.399 191.96 251.59V253.067ZM190.536 251.473C190.536 250.672 190.427 250.086 190.208 249.715C189.99 249.34 189.642 249.152 189.165 249.152C188.7 249.152 188.359 249.33 188.14 249.686C187.921 250.037 187.806 250.588 187.794 251.338V253.272C187.794 254.068 187.906 254.662 188.128 255.053C188.351 255.443 188.7 255.639 189.177 255.639C189.634 255.639 189.972 255.459 190.191 255.1C190.409 254.736 190.525 254.17 190.536 253.401V251.473ZM192.136 270.658H186.4V269.68L189.241 266.58C189.652 266.123 189.943 265.742 190.115 265.438C190.29 265.129 190.378 264.82 190.378 264.512C190.378 264.106 190.263 263.777 190.032 263.527C189.806 263.277 189.499 263.152 189.113 263.152C188.652 263.152 188.294 263.293 188.04 263.574C187.786 263.856 187.659 264.24 187.659 264.729H186.236C186.236 264.209 186.353 263.742 186.587 263.328C186.825 262.91 187.163 262.586 187.601 262.356C188.042 262.125 188.55 262.01 189.124 262.01C189.952 262.01 190.605 262.219 191.081 262.637C191.562 263.051 191.802 263.625 191.802 264.359C191.802 264.785 191.681 265.233 191.439 265.701C191.2 266.166 190.808 266.695 190.261 267.289L188.175 269.522H192.136V270.658Z" fill="black"/>
<path opacity="0.6" d="M266.627 253.067C266.627 254.293 266.396 255.219 265.936 255.844C265.479 256.465 264.781 256.776 263.844 256.776C262.922 256.776 262.227 256.473 261.758 255.867C261.293 255.258 261.055 254.358 261.043 253.166V251.69C261.043 250.463 261.271 249.543 261.729 248.93C262.189 248.317 262.891 248.01 263.832 248.01C264.766 248.01 265.461 248.309 265.918 248.906C266.379 249.504 266.615 250.399 266.627 251.59V253.067ZM265.203 251.473C265.203 250.672 265.094 250.086 264.875 249.715C264.656 249.34 264.309 249.152 263.832 249.152C263.367 249.152 263.025 249.33 262.807 249.686C262.588 250.037 262.473 250.588 262.461 251.338V253.272C262.461 254.068 262.572 254.662 262.795 255.053C263.018 255.443 263.367 255.639 263.844 255.639C264.301 255.639 264.639 255.459 264.857 255.1C265.076 254.736 265.191 254.17 265.203 253.401V251.473ZM262.713 265.742H263.58C264.018 265.738 264.363 265.625 264.617 265.402C264.875 265.18 265.004 264.858 265.004 264.436C265.004 264.029 264.896 263.715 264.682 263.492C264.471 263.266 264.146 263.152 263.709 263.152C263.326 263.152 263.012 263.264 262.766 263.486C262.52 263.705 262.396 263.992 262.396 264.348H260.973C260.973 263.91 261.088 263.512 261.318 263.152C261.553 262.793 261.877 262.514 262.291 262.315C262.709 262.111 263.176 262.01 263.691 262.01C264.543 262.01 265.211 262.225 265.695 262.654C266.184 263.08 266.428 263.674 266.428 264.436C266.428 264.818 266.305 265.18 266.059 265.52C265.816 265.856 265.502 266.109 265.115 266.281C265.584 266.442 265.939 266.693 266.182 267.037C266.428 267.381 266.551 267.791 266.551 268.268C266.551 269.033 266.287 269.643 265.76 270.096C265.236 270.549 264.547 270.776 263.691 270.776C262.871 270.776 262.199 270.557 261.676 270.119C261.152 269.682 260.891 269.1 260.891 268.373H262.314C262.314 268.748 262.439 269.053 262.689 269.287C262.943 269.522 263.283 269.639 263.709 269.639C264.15 269.639 264.498 269.522 264.752 269.287C265.006 269.053 265.133 268.713 265.133 268.268C265.133 267.818 265 267.473 264.734 267.231C264.469 266.988 264.074 266.867 263.551 266.867H262.713V265.742Z" fill="black"/>
<path opacity="0.6" d="M341.998 253.067C341.998 254.293 341.767 255.219 341.306 255.844C340.849 256.465 340.152 256.776 339.215 256.776C338.293 256.776 337.597 256.473 337.129 255.867C336.664 255.258 336.426 254.358 336.414 253.166V251.69C336.414 250.463 336.642 249.543 337.099 248.93C337.56 248.317 338.261 248.01 339.203 248.01C340.136 248.01 340.832 248.309 341.289 248.906C341.75 249.504 341.986 250.399 341.998 251.59V253.067ZM340.574 251.473C340.574 250.672 340.465 250.086 340.246 249.715C340.027 249.34 339.679 249.152 339.203 249.152C338.738 249.152 338.396 249.33 338.177 249.686C337.959 250.037 337.844 250.588 337.832 251.338V253.272C337.832 254.068 337.943 254.662 338.166 255.053C338.388 255.443 338.738 255.639 339.215 255.639C339.672 255.639 340.01 255.459 340.228 255.1C340.447 254.736 340.562 254.17 340.574 253.401V251.473ZM341.254 267.617H342.314V268.76H341.254V270.658H339.83V268.76H336.144L336.103 267.893L339.783 262.127H341.254V267.617ZM337.597 267.617H339.83V264.055L339.724 264.242L337.597 267.617Z" fill="black"/>
<path opacity="0.6" d="M416.665 253.067C416.665 254.293 416.434 255.219 415.973 255.844C415.516 256.465 414.819 256.776 413.881 256.776C412.959 256.776 412.264 256.473 411.795 255.867C411.331 255.258 411.092 254.358 411.081 253.166V251.69C411.081 250.463 411.309 249.543 411.766 248.93C412.227 248.317 412.928 248.01 413.87 248.01C414.803 248.01 415.499 248.309 415.956 248.906C416.417 249.504 416.653 250.399 416.665 251.59V253.067ZM415.241 251.473C415.241 250.672 415.131 250.086 414.913 249.715C414.694 249.34 414.346 249.152 413.87 249.152C413.405 249.152 413.063 249.33 412.844 249.686C412.625 250.037 412.51 250.588 412.499 251.338V253.272C412.499 254.068 412.61 254.662 412.833 255.053C413.055 255.443 413.405 255.639 413.881 255.639C414.338 255.639 414.676 255.459 414.895 255.1C415.114 254.736 415.229 254.17 415.241 253.401V251.473ZM411.485 266.428L411.948 262.127H416.53V263.358H413.131L412.897 265.397C413.292 265.17 413.737 265.057 414.233 265.057C415.045 265.057 415.676 265.317 416.125 265.836C416.579 266.356 416.805 267.055 416.805 267.934C416.805 268.801 416.555 269.492 416.055 270.008C415.555 270.52 414.87 270.776 413.999 270.776C413.217 270.776 412.569 270.555 412.053 270.113C411.542 269.668 411.264 269.082 411.221 268.356H412.598C412.653 268.77 412.801 269.088 413.043 269.311C413.286 269.529 413.602 269.639 413.993 269.639C414.43 269.639 414.77 269.483 415.012 269.17C415.258 268.858 415.381 268.432 415.381 267.893C415.381 267.373 415.247 266.963 414.977 266.662C414.708 266.358 414.336 266.205 413.864 266.205C413.606 266.205 413.387 266.24 413.208 266.311C413.028 266.377 412.833 266.51 412.622 266.709L411.485 266.428Z" fill="black"/>
<path opacity="0.6" d="M491.331 253.067C491.331 254.293 491.101 255.219 490.64 255.844C490.183 256.465 489.486 256.776 488.548 256.776C487.626 256.776 486.931 256.473 486.462 255.867C485.997 255.258 485.759 254.358 485.747 253.166V251.69C485.747 250.463 485.976 249.543 486.433 248.93C486.894 248.317 487.595 248.01 488.536 248.01C489.47 248.01 490.165 248.309 490.622 248.906C491.083 249.504 491.32 250.399 491.331 251.59V253.067ZM489.907 251.473C489.907 250.672 489.798 250.086 489.579 249.715C489.361 249.34 489.013 249.152 488.536 249.152C488.072 249.152 487.73 249.33 487.511 249.686C487.292 250.037 487.177 250.588 487.165 251.338V253.272C487.165 254.068 487.277 254.662 487.499 255.053C487.722 255.443 488.072 255.639 488.548 255.639C489.005 255.639 489.343 255.459 489.562 255.1C489.781 254.736 489.896 254.17 489.907 253.401V251.473ZM490.2 262.086V263.264H490.025C489.228 263.276 488.591 263.494 488.115 263.92C487.638 264.346 487.355 264.949 487.265 265.731C487.722 265.25 488.306 265.01 489.017 265.01C489.771 265.01 490.365 265.276 490.798 265.807C491.236 266.338 491.454 267.024 491.454 267.863C491.454 268.731 491.198 269.434 490.687 269.973C490.179 270.508 489.511 270.776 488.683 270.776C487.831 270.776 487.14 270.461 486.609 269.832C486.081 269.203 485.818 268.379 485.818 267.359V266.873C485.818 265.377 486.181 264.205 486.907 263.358C487.638 262.51 488.687 262.086 490.054 262.086H490.2ZM488.671 266.158C488.359 266.158 488.072 266.246 487.81 266.422C487.552 266.598 487.363 266.832 487.241 267.125V267.559C487.241 268.192 487.374 268.695 487.64 269.07C487.906 269.442 488.249 269.627 488.671 269.627C489.093 269.627 489.427 269.469 489.673 269.152C489.919 268.836 490.042 268.42 490.042 267.904C490.042 267.389 489.917 266.969 489.667 266.645C489.417 266.32 489.085 266.158 488.671 266.158Z" fill="black"/>
<path opacity="0.6" d="M525.808 248.323L528.269 254.862L530.724 248.323H532.64V256.854H531.163V254.041L531.31 250.28L528.79 256.854H527.73L525.216 250.285L525.362 254.041V256.854H523.886V248.323H525.808ZM533.993 253.625C533.993 253.004 534.116 252.446 534.362 251.949C534.609 251.449 534.954 251.067 535.4 250.801C535.845 250.531 536.357 250.397 536.935 250.397C537.79 250.397 538.484 250.672 539.015 251.223C539.55 251.774 539.839 252.504 539.882 253.414L539.888 253.748C539.888 254.373 539.767 254.932 539.525 255.424C539.286 255.916 538.943 256.297 538.493 256.567C538.048 256.836 537.532 256.971 536.946 256.971C536.052 256.971 535.335 256.674 534.796 256.08C534.261 255.483 533.993 254.688 533.993 253.696V253.625ZM535.417 253.748C535.417 254.401 535.552 254.912 535.821 255.283C536.091 255.651 536.466 255.834 536.946 255.834C537.427 255.834 537.8 255.647 538.066 255.272C538.335 254.897 538.47 254.348 538.47 253.625C538.47 252.985 538.331 252.477 538.054 252.102C537.78 251.727 537.407 251.539 536.935 251.539C536.47 251.539 536.101 251.725 535.827 252.096C535.554 252.463 535.417 253.014 535.417 253.748ZM542.413 250.514L542.454 251.246C542.923 250.68 543.538 250.397 544.3 250.397C545.62 250.397 546.292 251.153 546.316 252.664V256.854H544.892V252.746C544.892 252.344 544.804 252.047 544.628 251.856C544.456 251.66 544.173 251.563 543.778 251.563C543.204 251.563 542.777 251.823 542.495 252.342V256.854H541.071V250.514H542.413ZM549.556 248.973V250.514H550.675V251.569H549.556V255.108C549.556 255.35 549.603 255.526 549.696 255.635C549.794 255.74 549.966 255.793 550.212 255.793C550.376 255.793 550.542 255.774 550.71 255.735V256.836C550.386 256.926 550.073 256.971 549.773 256.971C548.679 256.971 548.132 256.367 548.132 255.16V251.569H547.089V250.514H548.132V248.973H549.556ZM553.171 251.205C553.636 250.666 554.224 250.397 554.935 250.397C556.286 250.397 556.972 251.168 556.991 252.711V256.854H555.568V252.764C555.568 252.326 555.472 252.018 555.28 251.838C555.093 251.655 554.816 251.563 554.448 251.563C553.878 251.563 553.452 251.817 553.171 252.324V256.854H551.747V247.854H553.171V251.205Z" fill="black"/>
</g>
<path d="M76.5129 146.71H553.459" stroke="#4A4A4A" stroke-dasharray="1 10"/>
<path d="M76.5129 88.3241H553.459" stroke="#4A4A4A" stroke-dasharray="1 10"/>
<path d="M76.5129 176.255H553.459" stroke="#4A4A4A" stroke-dasharray="1 10"/>
<path d="M76.5129 117.869H553.459" stroke="#4A4A4A" stroke-dasharray="1 10"/>
<path d="M76.5129 205.097H553.459" stroke="#4A4A4A" stroke-dasharray="1 10"/>
<path d="M76.5129 234.641H553.459" stroke="#4A4A4A" stroke-dasharray="1 10"/>
<g clip-path="url(#clip2_33_541)">
<path opacity="0.6" d="M61.0555 233.192C61.0555 234.461 60.8387 235.405 60.4051 236.022C59.9715 236.639 59.2938 236.948 58.3719 236.948C57.4617 236.948 56.7879 236.647 56.3504 236.045C55.9129 235.44 55.6864 234.538 55.6707 233.338V231.891C55.6707 230.637 55.8875 229.706 56.3211 229.096C56.7547 228.487 57.4344 228.182 58.3602 228.182C59.2782 228.182 59.9539 228.477 60.3875 229.067C60.8211 229.653 61.0438 230.559 61.0555 231.786V233.192ZM59.9715 231.709C59.9715 230.792 59.8426 230.124 59.5848 229.706C59.327 229.284 58.9188 229.073 58.3602 229.073C57.8055 229.073 57.4012 229.282 57.1473 229.7C56.8934 230.118 56.7625 230.76 56.7547 231.627V233.362C56.7547 234.284 56.8875 234.965 57.1532 235.407C57.4227 235.844 57.8289 236.063 58.3719 236.063C58.9071 236.063 59.3035 235.856 59.5614 235.442C59.8231 235.028 59.9598 234.375 59.9715 233.485V231.709Z" fill="black"/>
<path opacity="0.6" d="M47.8191 207.831H42.2292V207.051L45.1824 203.77C45.6199 203.274 45.9206 202.872 46.0847 202.563C46.2527 202.25 46.3367 201.928 46.3367 201.596C46.3367 201.151 46.2019 200.786 45.9324 200.5C45.6628 200.215 45.3035 200.073 44.8542 200.073C44.3152 200.073 43.8953 200.227 43.5945 200.536C43.2976 200.84 43.1492 201.266 43.1492 201.813H42.0652C42.0652 201.028 42.3171 200.393 42.821 199.909C43.3289 199.424 44.0066 199.182 44.8542 199.182C45.6472 199.182 46.2742 199.391 46.7351 199.809C47.196 200.223 47.4265 200.776 47.4265 201.467C47.4265 202.307 46.8914 203.307 45.821 204.467L43.5359 206.946H47.8191V207.831ZM54.3171 204.192C54.3171 205.461 54.1003 206.405 53.6667 207.022C53.2331 207.639 52.5554 207.948 51.6335 207.948C50.7234 207.948 50.0496 207.647 49.6121 207.045C49.1746 206.44 48.948 205.538 48.9324 204.338V202.891C48.9324 201.637 49.1492 200.706 49.5828 200.096C50.0164 199.487 50.696 199.182 51.6218 199.182C52.5398 199.182 53.2156 199.477 53.6492 200.067C54.0828 200.653 54.3054 201.559 54.3171 202.786V204.192ZM53.2331 202.709C53.2331 201.792 53.1042 201.124 52.8464 200.706C52.5886 200.284 52.1804 200.073 51.6218 200.073C51.0671 200.073 50.6628 200.282 50.4089 200.7C50.155 201.118 50.0242 201.76 50.0164 202.627V204.362C50.0164 205.284 50.1492 205.965 50.4148 206.407C50.6843 206.844 51.0906 207.063 51.6335 207.063C52.1687 207.063 52.5652 206.856 52.823 206.442C53.0847 206.028 53.2214 205.375 53.2331 204.485V202.709ZM61.0554 204.192C61.0554 205.461 60.8386 206.405 60.405 207.022C59.9714 207.639 59.2937 207.948 58.3718 207.948C57.4617 207.948 56.7878 207.647 56.3503 207.045C55.9128 206.44 55.6863 205.538 55.6706 204.338V202.891C55.6706 201.637 55.8874 200.706 56.321 200.096C56.7546 199.487 57.4343 199.182 58.3601 199.182C59.2781 199.182 59.9539 199.477 60.3874 200.067C60.821 200.653 61.0437 201.559 61.0554 202.786V204.192ZM59.9714 202.709C59.9714 201.792 59.8425 201.124 59.5847 200.706C59.3269 200.284 58.9187 200.073 58.3601 200.073C57.8054 200.073 57.4011 200.282 57.1472 200.7C56.8933 201.118 56.7624 201.76 56.7546 202.627V204.362C56.7546 205.284 56.8874 205.965 57.1531 206.407C57.4226 206.844 57.8289 207.063 58.3718 207.063C58.907 207.063 59.3035 206.856 59.5613 206.442C59.823 206.028 59.9597 205.375 59.9714 204.485V202.709Z" fill="black"/>
<path opacity="0.6" d="M46.8054 174.965H47.989V175.85H46.8054V177.831H45.7156V175.85H41.8308V175.211L45.6511 169.299H46.8054V174.965ZM43.0613 174.965H45.7156V170.782L45.5867 171.016L43.0613 174.965ZM54.3171 174.192C54.3171 175.461 54.1003 176.405 53.6667 177.022C53.2331 177.639 52.5554 177.948 51.6335 177.948C50.7234 177.948 50.0496 177.647 49.6121 177.045C49.1746 176.44 48.948 175.538 48.9324 174.338V172.891C48.9324 171.637 49.1492 170.706 49.5828 170.096C50.0164 169.487 50.696 169.182 51.6218 169.182C52.5398 169.182 53.2156 169.477 53.6492 170.067C54.0828 170.653 54.3054 171.559 54.3171 172.786V174.192ZM53.2331 172.709C53.2331 171.792 53.1042 171.124 52.8464 170.706C52.5886 170.284 52.1804 170.073 51.6218 170.073C51.0671 170.073 50.6628 170.282 50.4089 170.7C50.155 171.118 50.0242 171.76 50.0164 172.627V174.362C50.0164 175.284 50.1492 175.965 50.4148 176.407C50.6843 176.844 51.0906 177.063 51.6335 177.063C52.1687 177.063 52.5652 176.856 52.823 176.442C53.0847 176.028 53.2214 175.375 53.2331 174.485V172.709ZM61.0554 174.192C61.0554 175.461 60.8386 176.405 60.405 177.022C59.9714 177.639 59.2937 177.948 58.3718 177.948C57.4617 177.948 56.7878 177.647 56.3503 177.045C55.9128 176.44 55.6863 175.538 55.6706 174.338V172.891C55.6706 171.637 55.8874 170.706 56.321 170.096C56.7546 169.487 57.4343 169.182 58.3601 169.182C59.2781 169.182 59.9539 169.477 60.3874 170.067C60.821 170.653 61.0437 171.559 61.0554 172.786V174.192ZM59.9714 172.709C59.9714 171.792 59.8425 171.124 59.5847 170.706C59.3269 170.284 58.9187 170.073 58.3601 170.073C57.8054 170.073 57.4011 170.282 57.1472 170.7C56.8933 171.118 56.7624 171.76 56.7546 172.627V174.362C56.7546 175.284 56.8874 175.965 57.1531 176.407C57.4226 176.844 57.8289 177.063 58.3718 177.063C58.907 177.063 59.3035 176.856 59.5613 176.442C59.823 176.028 59.9597 175.375 59.9714 174.485V172.709Z" fill="black"/>
<path opacity="0.6" d="M46.4831 140.293V141.213H46.2839C45.4402 141.229 44.7683 141.479 44.2683 141.963C43.7683 142.448 43.4792 143.129 43.4011 144.008C43.8503 143.493 44.4636 143.235 45.241 143.235C45.9831 143.235 46.5749 143.497 47.0164 144.02C47.4617 144.543 47.6843 145.219 47.6843 146.047C47.6843 146.926 47.4441 147.629 46.9636 148.157C46.4871 148.684 45.8464 148.948 45.0417 148.948C44.2253 148.948 43.5632 148.635 43.0554 148.01C42.5476 147.381 42.2937 146.573 42.2937 145.584V145.168C42.2937 143.598 42.6277 142.399 43.2956 141.571C43.9675 140.739 44.9656 140.313 46.2898 140.293H46.4831ZM45.0593 144.137C44.6882 144.137 44.3464 144.249 44.0339 144.471C43.7214 144.694 43.5046 144.973 43.3835 145.309V145.708C43.3835 146.411 43.5417 146.977 43.8581 147.407C44.1746 147.836 44.5691 148.051 45.0417 148.051C45.53 148.051 45.9128 147.872 46.1902 147.512C46.4714 147.153 46.6121 146.682 46.6121 146.1C46.6121 145.514 46.4695 145.042 46.1843 144.682C45.9031 144.319 45.5281 144.137 45.0593 144.137ZM54.3171 145.192C54.3171 146.461 54.1003 147.405 53.6667 148.022C53.2331 148.639 52.5554 148.948 51.6335 148.948C50.7234 148.948 50.0496 148.647 49.6121 148.045C49.1746 147.44 48.948 146.538 48.9324 145.338V143.891C48.9324 142.637 49.1492 141.706 49.5828 141.096C50.0164 140.487 50.696 140.182 51.6218 140.182C52.5398 140.182 53.2156 140.477 53.6492 141.067C54.0828 141.653 54.3054 142.559 54.3171 143.786V145.192ZM53.2331 143.709C53.2331 142.792 53.1042 142.124 52.8464 141.706C52.5886 141.284 52.1804 141.073 51.6218 141.073C51.0671 141.073 50.6628 141.282 50.4089 141.7C50.155 142.118 50.0242 142.76 50.0164 143.627V145.362C50.0164 146.284 50.1492 146.965 50.4148 147.407C50.6843 147.844 51.0906 148.063 51.6335 148.063C52.1687 148.063 52.5652 147.856 52.823 147.442C53.0847 147.028 53.2214 146.375 53.2331 145.485V143.709ZM61.0554 145.192C61.0554 146.461 60.8386 147.405 60.405 148.022C59.9714 148.639 59.2937 148.948 58.3718 148.948C57.4617 148.948 56.7878 148.647 56.3503 148.045C55.9128 147.44 55.6863 146.538 55.6706 145.338V143.891C55.6706 142.637 55.8874 141.706 56.321 141.096C56.7546 140.487 57.4343 140.182 58.3601 140.182C59.2781 140.182 59.9539 140.477 60.3874 141.067C60.821 141.653 61.0437 142.559 61.0554 143.786V145.192ZM59.9714 143.709C59.9714 142.792 59.8425 142.124 59.5847 141.706C59.3269 141.284 58.9187 141.073 58.3601 141.073C57.8054 141.073 57.4011 141.282 57.1472 141.7C56.8933 142.118 56.7624 142.76 56.7546 143.627V145.362C56.7546 146.284 56.8874 146.965 57.1531 147.407C57.4226 147.844 57.8289 148.063 58.3718 148.063C58.907 148.063 59.3035 147.856 59.5613 147.442C59.823 147.028 59.9597 146.375 59.9714 145.485V143.709Z" fill="black"/>
<path opacity="0.6" d="M47.4031 113.526C47.4031 113.952 47.2898 114.331 47.0632 114.663C46.8406 114.995 46.5378 115.254 46.155 115.442C46.6003 115.633 46.9519 115.913 47.2097 116.28C47.4714 116.647 47.6023 117.063 47.6023 117.528C47.6023 118.266 47.3523 118.854 46.8523 119.292C46.3562 119.729 45.7019 119.948 44.8894 119.948C44.0691 119.948 43.4109 119.729 42.9148 119.292C42.4226 118.85 42.1765 118.262 42.1765 117.528C42.1765 117.067 42.3015 116.651 42.5515 116.28C42.8054 115.909 43.155 115.627 43.6003 115.436C43.2214 115.249 42.9226 114.989 42.7039 114.657C42.4851 114.325 42.3757 113.948 42.3757 113.526C42.3757 112.807 42.6062 112.237 43.0671 111.815C43.5281 111.393 44.1355 111.182 44.8894 111.182C45.6394 111.182 46.2449 111.393 46.7058 111.815C47.1706 112.237 47.4031 112.807 47.4031 113.526ZM46.5183 117.504C46.5183 117.028 46.366 116.639 46.0613 116.338C45.7605 116.038 45.366 115.887 44.8777 115.887C44.3894 115.887 43.9968 116.036 43.6999 116.333C43.407 116.629 43.2605 117.02 43.2605 117.504C43.2605 117.989 43.4031 118.37 43.6882 118.647C43.9773 118.924 44.3777 119.063 44.8894 119.063C45.3972 119.063 45.7956 118.924 46.0847 118.647C46.3738 118.366 46.5183 117.985 46.5183 117.504ZM44.8894 112.073C44.4636 112.073 44.1179 112.206 43.8523 112.471C43.5906 112.733 43.4597 113.09 43.4597 113.543C43.4597 113.977 43.5886 114.329 43.8464 114.598C44.1081 114.864 44.4558 114.997 44.8894 114.997C45.323 114.997 45.6687 114.864 45.9265 114.598C46.1882 114.329 46.3191 113.977 46.3191 113.543C46.3191 113.11 46.1843 112.756 45.9148 112.483C45.6453 112.209 45.3035 112.073 44.8894 112.073ZM54.3171 116.192C54.3171 117.461 54.1003 118.405 53.6667 119.022C53.2331 119.639 52.5554 119.948 51.6335 119.948C50.7234 119.948 50.0496 119.647 49.6121 119.045C49.1746 118.44 48.948 117.538 48.9324 116.338V114.891C48.9324 113.637 49.1492 112.706 49.5828 112.096C50.0164 111.487 50.696 111.182 51.6218 111.182C52.5398 111.182 53.2156 111.477 53.6492 112.067C54.0828 112.653 54.3054 113.559 54.3171 114.786V116.192ZM53.2331 114.709C53.2331 113.792 53.1042 113.124 52.8464 112.706C52.5886 112.284 52.1804 112.073 51.6218 112.073C51.0671 112.073 50.6628 112.282 50.4089 112.7C50.155 113.118 50.0242 113.76 50.0164 114.627V116.362C50.0164 117.284 50.1492 117.965 50.4148 118.407C50.6843 118.844 51.0906 119.063 51.6335 119.063C52.1687 119.063 52.5652 118.856 52.823 118.442C53.0847 118.028 53.2214 117.375 53.2331 116.485V114.709ZM61.0554 116.192C61.0554 117.461 60.8386 118.405 60.405 119.022C59.9714 119.639 59.2937 119.948 58.3718 119.948C57.4617 119.948 56.7878 119.647 56.3503 119.045C55.9128 118.44 55.6863 117.538 55.6706 116.338V114.891C55.6706 113.637 55.8874 112.706 56.321 112.096C56.7546 111.487 57.4343 111.182 58.3601 111.182C59.2781 111.182 59.9539 111.477 60.3874 112.067C60.821 112.653 61.0437 113.559 61.0554 114.786V116.192ZM59.9714 114.709C59.9714 113.792 59.8425 113.124 59.5847 112.706C59.3269 112.284 58.9187 112.073 58.3601 112.073C57.8054 112.073 57.4011 112.282 57.1472 112.7C56.8933 113.118 56.7624 113.76 56.7546 114.627V116.362C56.7546 117.284 56.8874 117.965 57.1531 118.407C57.4226 118.844 57.8289 119.063 58.3718 119.063C58.907 119.063 59.3035 118.856 59.5613 118.442C59.823 118.028 59.9597 117.375 59.9714 116.485V114.709Z" fill="black"/>
<path opacity="0.6" d="M36.698 90.8306H35.6082V83.606L33.4226 84.4087V83.4243L36.5281 82.2583H36.698V90.8306ZM39.95 92.5298L39.3347 92.1079C39.7019 91.5962 39.8933 91.0688 39.909 90.5259V89.5474H40.9695V90.397C40.9695 90.7915 40.8719 91.186 40.6765 91.5806C40.4851 91.9751 40.2429 92.2915 39.95 92.5298ZM47.5789 87.1919C47.5789 88.4614 47.3621 89.4048 46.9285 90.022C46.4949 90.6392 45.8172 90.9478 44.8953 90.9478C43.9851 90.9478 43.3113 90.647 42.8738 90.0454C42.4363 89.4399 42.2097 88.5376 42.1941 87.3384V85.8911C42.1941 84.6372 42.4109 83.7056 42.8445 83.0962C43.2781 82.4868 43.9578 82.1821 44.8836 82.1821C45.8015 82.1821 46.4773 82.4771 46.9109 83.0669C47.3445 83.6528 47.5672 84.5591 47.5789 85.7856V87.1919ZM46.4949 85.7095C46.4949 84.7915 46.366 84.1235 46.1082 83.7056C45.8504 83.2837 45.4422 83.0728 44.8836 83.0728C44.3289 83.0728 43.9246 83.2817 43.6707 83.6997C43.4168 84.1177 43.2859 84.7603 43.2781 85.6274V87.3618C43.2781 88.2837 43.4109 88.9653 43.6765 89.4067C43.9461 89.8442 44.3523 90.063 44.8953 90.063C45.4304 90.063 45.8269 89.856 46.0847 89.4419C46.3465 89.0278 46.4832 88.3755 46.4949 87.4849V85.7095ZM54.3172 87.1919C54.3172 88.4614 54.1004 89.4048 53.6668 90.022C53.2332 90.6392 52.5554 90.9478 51.6336 90.9478C50.7234 90.9478 50.0496 90.647 49.6121 90.0454C49.1746 89.4399 48.948 88.5376 48.9324 87.3384V85.8911C48.9324 84.6372 49.1492 83.7056 49.5828 83.0962C50.0164 82.4868 50.6961 82.1821 51.6219 82.1821C52.5398 82.1821 53.2156 82.4771 53.6492 83.0669C54.0828 83.6528 54.3054 84.5591 54.3172 85.7856V87.1919ZM53.2332 85.7095C53.2332 84.7915 53.1043 84.1235 52.8465 83.7056C52.5886 83.2837 52.1804 83.0728 51.6219 83.0728C51.0672 83.0728 50.6629 83.2817 50.409 83.6997C50.1551 84.1177 50.0242 84.7603 50.0164 85.6274V87.3618C50.0164 88.2837 50.1492 88.9653 50.4148 89.4067C50.6844 89.8442 51.0906 90.063 51.6336 90.063C52.1687 90.063 52.5652 89.856 52.823 89.4419C53.0847 89.0278 53.2215 88.3755 53.2332 87.4849V85.7095ZM61.0554 87.1919C61.0554 88.4614 60.8386 89.4048 60.4051 90.022C59.9715 90.6392 59.2937 90.9478 58.3719 90.9478C57.4617 90.9478 56.7879 90.647 56.3504 90.0454C55.9129 89.4399 55.6863 88.5376 55.6707 87.3384V85.8911C55.6707 84.6372 55.8875 83.7056 56.3211 83.0962C56.7547 82.4868 57.4344 82.1821 58.3601 82.1821C59.2781 82.1821 59.9539 82.4771 60.3875 83.0669C60.8211 83.6528 61.0437 84.5591 61.0554 85.7856V87.1919ZM59.9715 85.7095C59.9715 84.7915 59.8426 84.1235 59.5847 83.7056C59.3269 83.2837 58.9187 83.0728 58.3601 83.0728C57.8054 83.0728 57.4011 83.2817 57.1472 83.6997C56.8933 84.1177 56.7625 84.7603 56.7547 85.6274V87.3618C56.7547 88.2837 56.8875 88.9653 57.1531 89.4067C57.4226 89.8442 57.8289 90.063 58.3719 90.063C58.907 90.063 59.3035 89.856 59.5613 89.4419C59.823 89.0278 59.9597 88.3755 59.9715 87.4849V85.7095Z" fill="black"/>
</g>
<rect x="95.5977" y="214.593" width="7.04402" height="21.1035" rx="1" fill="#0C213A"/>
<rect x="106.164" y="168.165" width="7.04404" height="67.531" rx="1" fill="#F8B849"/>
<rect x="115.321" y="114.703" width="7.04401" height="120.993" rx="1" fill="#00A560"/>
<rect x="125.887" y="214.593" width="7.04402" height="21.1035" rx="1" fill="#DB0E00"/>
<rect x="170.969" y="179.421" width="7.04401" height="56.2758" rx="1" fill="#0C213A"/>
<rect x="181.535" y="149.876" width="7.04399" height="85.8207" rx="1" fill="#F8B849"/>
<rect x="190.692" y="166.055" width="7.04405" height="69.6414" rx="1" fill="#00A560"/>
<rect x="201.258" y="179.421" width="7.04401" height="56.2758" rx="1" fill="#DB0E00"/>
<rect x="246.34" y="137.214" width="7.04402" height="98.4827" rx="1" fill="#0C213A"/>
<rect x="256.906" y="190.676" width="7.04407" height="45.0207" rx="1" fill="#F8B849"/>
<rect x="266.063" y="185.752" width="7.04401" height="49.9448" rx="1" fill="#00A560"/>
<rect x="276.629" y="223.034" width="7.04404" height="12.6621" rx="1" fill="#DB0E00"/>
<rect x="321.006" y="112.593" width="7.04407" height="123.103" rx="1" fill="#0C213A"/>
<rect x="331.572" y="211.076" width="7.04407" height="24.6207" rx="1" fill="#F8B849"/>
<rect x="340.73" y="89.3793" width="7.04401" height="146.317" rx="1" fill="#00A560"/>
<rect x="351.296" y="154.097" width="7.04407" height="81.6" rx="1" fill="#DB0E00"/>
<rect x="396.377" y="218.814" width="7.04398" height="16.8828" rx="1" fill="#0C213A"/>
<rect x="406.944" y="110.483" width="7.04404" height="125.214" rx="1" fill="#F8B849"/>
<rect x="416.101" y="157.614" width="7.0441" height="78.0828" rx="1" fill="#00A560"/>
<rect x="426.667" y="140.027" width="7.04401" height="95.669" rx="1" fill="#DB0E00"/>
<rect x="471.749" y="187.862" width="7.04401" height="47.8345" rx="1" fill="#0C213A"/>
<rect x="482.314" y="175.2" width="7.04407" height="60.4966" rx="1" fill="#F8B849"/>
<rect x="491.472" y="151.986" width="7.04407" height="83.7103" rx="1" fill="#00A560"/>
<rect x="502.038" y="130.883" width="7.04401" height="104.814" rx="1" fill="#DB0E00"/>
<g clip-path="url(#clip3_33_541)">
<rect x="147.019" y="283.531" width="7.04403" height="7.03445" rx="1" fill="#0C213A"/>
<path d="M161.089 287.322C160.124 287.044 159.421 286.704 158.979 286.302C158.542 285.896 158.323 285.396 158.323 284.802C158.323 284.13 158.591 283.575 159.126 283.138C159.665 282.697 160.364 282.476 161.224 282.476C161.81 282.476 162.331 282.589 162.788 282.816C163.249 283.042 163.604 283.355 163.854 283.753C164.108 284.152 164.235 284.587 164.235 285.06H163.104C163.104 284.544 162.94 284.14 162.612 283.847C162.284 283.55 161.821 283.402 161.224 283.402C160.669 283.402 160.235 283.525 159.923 283.771C159.614 284.013 159.46 284.351 159.46 284.784C159.46 285.132 159.606 285.427 159.899 285.669C160.196 285.907 160.698 286.126 161.405 286.325C162.116 286.525 162.671 286.745 163.069 286.988C163.472 287.226 163.769 287.505 163.96 287.825C164.155 288.146 164.253 288.523 164.253 288.956C164.253 289.648 163.983 290.202 163.444 290.62C162.905 291.034 162.185 291.241 161.282 291.241C160.696 291.241 160.149 291.13 159.642 290.907C159.134 290.681 158.741 290.372 158.464 289.982C158.19 289.591 158.054 289.148 158.054 288.652H159.185C159.185 289.167 159.374 289.575 159.753 289.876C160.136 290.173 160.646 290.322 161.282 290.322C161.876 290.322 162.331 290.2 162.647 289.958C162.964 289.716 163.122 289.386 163.122 288.968C163.122 288.55 162.976 288.228 162.683 288.001C162.39 287.771 161.858 287.544 161.089 287.322ZM167.001 283.249V284.784H168.185V285.622H167.001V289.554C167.001 289.808 167.054 289.999 167.159 290.128C167.265 290.253 167.444 290.316 167.698 290.316C167.823 290.316 167.995 290.292 168.214 290.245V291.124C167.929 291.202 167.651 291.241 167.382 291.241C166.897 291.241 166.532 291.095 166.286 290.802C166.04 290.509 165.917 290.093 165.917 289.554V285.622H164.763V284.784H165.917V283.249H167.001ZM169.052 287.896C169.052 287.275 169.173 286.716 169.415 286.22C169.661 285.724 170.001 285.341 170.435 285.072C170.872 284.802 171.37 284.667 171.929 284.667C172.792 284.667 173.489 284.966 174.021 285.564C174.556 286.161 174.823 286.956 174.823 287.948V288.025C174.823 288.642 174.704 289.197 174.466 289.689C174.231 290.177 173.894 290.558 173.452 290.831C173.015 291.105 172.511 291.241 171.94 291.241C171.081 291.241 170.384 290.943 169.849 290.345C169.317 289.747 169.052 288.956 169.052 287.972V287.896ZM170.142 288.025C170.142 288.728 170.304 289.292 170.628 289.718C170.956 290.144 171.394 290.357 171.94 290.357C172.491 290.357 172.929 290.142 173.253 289.712C173.577 289.279 173.739 288.673 173.739 287.896C173.739 287.2 173.573 286.638 173.241 286.208C172.913 285.775 172.476 285.558 171.929 285.558C171.394 285.558 170.962 285.771 170.634 286.197C170.306 286.622 170.142 287.232 170.142 288.025ZM179.247 285.757C179.083 285.73 178.905 285.716 178.714 285.716C178.003 285.716 177.521 286.019 177.267 286.624V291.124H176.183V284.784H177.237L177.255 285.517C177.61 284.95 178.114 284.667 178.767 284.667C178.978 284.667 179.138 284.695 179.247 284.749V285.757ZM182.763 291.241C181.903 291.241 181.204 290.96 180.665 290.398C180.126 289.831 179.856 289.075 179.856 288.13V287.931C179.856 287.302 179.976 286.741 180.214 286.249C180.456 285.753 180.792 285.366 181.222 285.089C181.655 284.808 182.124 284.667 182.628 284.667C183.452 284.667 184.093 284.939 184.55 285.482C185.007 286.025 185.235 286.802 185.235 287.814V288.265H180.94C180.956 288.89 181.138 289.396 181.485 289.782C181.837 290.165 182.282 290.357 182.821 290.357C183.204 290.357 183.528 290.279 183.794 290.122C184.06 289.966 184.292 289.759 184.491 289.501L185.153 290.017C184.622 290.833 183.825 291.241 182.763 291.241ZM182.628 285.558C182.19 285.558 181.823 285.718 181.526 286.038C181.229 286.355 181.046 286.8 180.976 287.374H184.151V287.292C184.12 286.741 183.972 286.316 183.706 286.015C183.44 285.71 183.081 285.558 182.628 285.558ZM159.431 298.784L159.466 299.581C159.95 298.972 160.583 298.667 161.364 298.667C162.704 298.667 163.38 299.423 163.392 300.935V305.124H162.308V300.929C162.304 300.472 162.198 300.134 161.991 299.915C161.788 299.697 161.47 299.587 161.036 299.587C160.685 299.587 160.376 299.681 160.11 299.868C159.845 300.056 159.638 300.302 159.489 300.607V305.124H158.405V298.784H159.431ZM168.94 305.124C168.878 304.999 168.827 304.777 168.788 304.456C168.284 304.98 167.683 305.241 166.983 305.241C166.358 305.241 165.845 305.066 165.442 304.714C165.044 304.359 164.845 303.909 164.845 303.366C164.845 302.706 165.095 302.195 165.595 301.831C166.099 301.464 166.806 301.281 167.716 301.281H168.771V300.782C168.771 300.404 168.657 300.103 168.431 299.88C168.204 299.654 167.87 299.54 167.429 299.54C167.042 299.54 166.718 299.638 166.456 299.833C166.194 300.029 166.063 300.265 166.063 300.542H164.974C164.974 300.226 165.085 299.921 165.308 299.628C165.534 299.331 165.839 299.097 166.222 298.925C166.608 298.753 167.032 298.667 167.493 298.667C168.224 298.667 168.796 298.851 169.21 299.218C169.624 299.581 169.839 300.083 169.854 300.724V303.642C169.854 304.224 169.929 304.687 170.077 305.031V305.124H168.94ZM167.142 304.298C167.481 304.298 167.804 304.21 168.108 304.034C168.413 303.859 168.634 303.63 168.771 303.349V302.048H167.921C166.593 302.048 165.929 302.437 165.929 303.214C165.929 303.554 166.042 303.82 166.269 304.011C166.495 304.202 166.786 304.298 167.142 304.298ZM172.573 298.784L172.603 299.488C173.067 298.941 173.694 298.667 174.483 298.667C175.37 298.667 175.974 299.007 176.294 299.687C176.505 299.382 176.778 299.136 177.114 298.948C177.454 298.761 177.854 298.667 178.315 298.667C179.706 298.667 180.413 299.404 180.437 300.876V305.124H179.353V300.941C179.353 300.488 179.249 300.15 179.042 299.927C178.835 299.7 178.487 299.587 177.999 299.587C177.597 299.587 177.263 299.708 176.997 299.95C176.731 300.189 176.577 300.511 176.534 300.917V305.124H175.444V300.97C175.444 300.048 174.993 299.587 174.091 299.587C173.38 299.587 172.894 299.89 172.632 300.495V305.124H171.548V298.784H172.573ZM184.708 305.241C183.849 305.241 183.149 304.96 182.61 304.398C182.071 303.831 181.802 303.075 181.802 302.13V301.931C181.802 301.302 181.921 300.741 182.159 300.249C182.401 299.753 182.737 299.366 183.167 299.089C183.601 298.808 184.069 298.667 184.573 298.667C185.397 298.667 186.038 298.939 186.495 299.482C186.952 300.025 187.181 300.802 187.181 301.814V302.265H182.886C182.901 302.89 183.083 303.396 183.431 303.782C183.782 304.165 184.228 304.357 184.767 304.357C185.149 304.357 185.474 304.279 185.739 304.122C186.005 303.966 186.237 303.759 186.437 303.501L187.099 304.017C186.567 304.833 185.771 305.241 184.708 305.241ZM184.573 299.558C184.136 299.558 183.769 299.718 183.472 300.038C183.175 300.355 182.991 300.8 182.921 301.374H186.097V301.292C186.065 300.741 185.917 300.316 185.651 300.015C185.386 299.71 185.026 299.558 184.573 299.558ZM194.868 305.124H193.778V297.9L191.593 298.702V297.718L194.698 296.552H194.868V305.124Z" fill="black"/>
<rect x="225.912" y="283.531" width="7.04402" height="7.03445" rx="1" fill="#F8B849"/>
<path d="M239.982 287.322C239.017 287.044 238.314 286.704 237.873 286.302C237.435 285.896 237.216 285.396 237.216 284.802C237.216 284.13 237.484 283.575 238.019 283.138C238.558 282.697 239.257 282.476 240.117 282.476C240.703 282.476 241.224 282.589 241.681 282.816C242.142 283.042 242.498 283.355 242.748 283.753C243.001 284.152 243.128 284.587 243.128 285.06H241.998C241.998 284.544 241.833 284.14 241.505 283.847C241.177 283.55 240.714 283.402 240.117 283.402C239.562 283.402 239.128 283.525 238.816 283.771C238.507 284.013 238.353 284.351 238.353 284.784C238.353 285.132 238.5 285.427 238.792 285.669C239.089 285.907 239.591 286.126 240.298 286.325C241.009 286.525 241.564 286.745 241.962 286.988C242.365 287.226 242.662 287.505 242.853 287.825C243.048 288.146 243.146 288.523 243.146 288.956C243.146 289.648 242.876 290.202 242.337 290.62C241.798 291.034 241.078 291.241 240.175 291.241C239.589 291.241 239.042 291.13 238.535 290.907C238.027 290.681 237.634 290.372 237.357 289.982C237.083 289.591 236.947 289.148 236.947 288.652H238.078C238.078 289.167 238.267 289.575 238.646 289.876C239.029 290.173 239.539 290.322 240.175 290.322C240.769 290.322 241.224 290.2 241.541 289.958C241.857 289.716 242.015 289.386 242.015 288.968C242.015 288.55 241.869 288.228 241.576 288.001C241.283 287.771 240.751 287.544 239.982 287.322ZM245.894 283.249V284.784H247.078V285.622H245.894V289.554C245.894 289.808 245.947 289.999 246.052 290.128C246.158 290.253 246.337 290.316 246.591 290.316C246.716 290.316 246.888 290.292 247.107 290.245V291.124C246.822 291.202 246.544 291.241 246.275 291.241C245.791 291.241 245.425 291.095 245.179 290.802C244.933 290.509 244.81 290.093 244.81 289.554V285.622H243.656V284.784H244.81V283.249H245.894ZM247.945 287.896C247.945 287.275 248.066 286.716 248.308 286.22C248.554 285.724 248.894 285.341 249.328 285.072C249.765 284.802 250.263 284.667 250.822 284.667C251.685 284.667 252.382 284.966 252.914 285.564C253.449 286.161 253.716 286.956 253.716 287.948V288.025C253.716 288.642 253.597 289.197 253.359 289.689C253.125 290.177 252.787 290.558 252.345 290.831C251.908 291.105 251.404 291.241 250.833 291.241C249.974 291.241 249.277 290.943 248.742 290.345C248.21 289.747 247.945 288.956 247.945 287.972V287.896ZM249.035 288.025C249.035 288.728 249.197 289.292 249.521 289.718C249.849 290.144 250.287 290.357 250.833 290.357C251.384 290.357 251.822 290.142 252.146 289.712C252.47 289.279 252.632 288.673 252.632 287.896C252.632 287.2 252.466 286.638 252.134 286.208C251.806 285.775 251.369 285.558 250.822 285.558C250.287 285.558 249.855 285.771 249.527 286.197C249.199 286.622 249.035 287.232 249.035 288.025ZM258.14 285.757C257.976 285.73 257.798 285.716 257.607 285.716C256.896 285.716 256.414 286.019 256.16 286.624V291.124H255.076V284.784H256.13L256.148 285.517C256.503 284.95 257.007 284.667 257.66 284.667C257.871 284.667 258.031 284.695 258.14 284.749V285.757ZM261.656 291.241C260.796 291.241 260.097 290.96 259.558 290.398C259.019 289.831 258.75 289.075 258.75 288.13V287.931C258.75 287.302 258.869 286.741 259.107 286.249C259.349 285.753 259.685 285.366 260.115 285.089C260.548 284.808 261.017 284.667 261.521 284.667C262.345 284.667 262.986 284.939 263.443 285.482C263.9 286.025 264.128 286.802 264.128 287.814V288.265H259.833C259.849 288.89 260.031 289.396 260.378 289.782C260.73 290.165 261.175 290.357 261.714 290.357C262.097 290.357 262.421 290.279 262.687 290.122C262.953 289.966 263.185 289.759 263.384 289.501L264.046 290.017C263.515 290.833 262.718 291.241 261.656 291.241ZM261.521 285.558C261.083 285.558 260.716 285.718 260.419 286.038C260.123 286.355 259.939 286.8 259.869 287.374H263.044V287.292C263.013 286.741 262.865 286.316 262.599 286.015C262.333 285.71 261.974 285.558 261.521 285.558ZM238.324 298.784L238.359 299.581C238.843 298.972 239.476 298.667 240.257 298.667C241.597 298.667 242.273 299.423 242.285 300.935V305.124H241.201V300.929C241.197 300.472 241.091 300.134 240.884 299.915C240.681 299.697 240.363 299.587 239.929 299.587C239.578 299.587 239.269 299.681 239.003 299.868C238.738 300.056 238.531 300.302 238.382 300.607V305.124H237.298V298.784H238.324ZM247.833 305.124C247.771 304.999 247.72 304.777 247.681 304.456C247.177 304.98 246.576 305.241 245.876 305.241C245.251 305.241 244.738 305.066 244.335 304.714C243.937 304.359 243.738 303.909 243.738 303.366C243.738 302.706 243.988 302.195 244.488 301.831C244.992 301.464 245.699 301.281 246.609 301.281H247.664V300.782C247.664 300.404 247.55 300.103 247.324 299.88C247.097 299.654 246.763 299.54 246.322 299.54C245.935 299.54 245.611 299.638 245.349 299.833C245.087 300.029 244.957 300.265 244.957 300.542H243.867C243.867 300.226 243.978 299.921 244.201 299.628C244.427 299.331 244.732 299.097 245.115 298.925C245.501 298.753 245.925 298.667 246.386 298.667C247.117 298.667 247.689 298.851 248.103 299.218C248.517 299.581 248.732 300.083 248.748 300.724V303.642C248.748 304.224 248.822 304.687 248.97 305.031V305.124H247.833ZM246.035 304.298C246.375 304.298 246.697 304.21 247.001 304.034C247.306 303.859 247.527 303.63 247.664 303.349V302.048H246.814C245.486 302.048 244.822 302.437 244.822 303.214C244.822 303.554 244.935 303.82 245.162 304.011C245.388 304.202 245.679 304.298 246.035 304.298ZM251.466 298.784L251.496 299.488C251.96 298.941 252.587 298.667 253.376 298.667C254.263 298.667 254.867 299.007 255.187 299.687C255.398 299.382 255.671 299.136 256.007 298.948C256.347 298.761 256.748 298.667 257.208 298.667C258.599 298.667 259.306 299.404 259.33 300.876V305.124H258.246V300.941C258.246 300.488 258.142 300.15 257.935 299.927C257.728 299.7 257.38 299.587 256.892 299.587C256.49 299.587 256.156 299.708 255.89 299.95C255.625 300.189 255.47 300.511 255.427 300.917V305.124H254.337V300.97C254.337 300.048 253.886 299.587 252.984 299.587C252.273 299.587 251.787 299.89 251.525 300.495V305.124H250.441V298.784H251.466ZM263.601 305.241C262.742 305.241 262.042 304.96 261.503 304.398C260.964 303.831 260.695 303.075 260.695 302.13V301.931C260.695 301.302 260.814 300.741 261.052 300.249C261.294 299.753 261.63 299.366 262.06 299.089C262.494 298.808 262.962 298.667 263.466 298.667C264.291 298.667 264.931 298.939 265.388 299.482C265.845 300.025 266.074 300.802 266.074 301.814V302.265H261.779C261.794 302.89 261.976 303.396 262.324 303.782C262.675 304.165 263.121 304.357 263.66 304.357C264.042 304.357 264.367 304.279 264.632 304.122C264.898 303.966 265.13 303.759 265.33 303.501L265.992 304.017C265.46 304.833 264.664 305.241 263.601 305.241ZM263.466 299.558C263.029 299.558 262.662 299.718 262.365 300.038C262.068 300.355 261.884 300.8 261.814 301.374H264.99V301.292C264.958 300.741 264.81 300.316 264.544 300.015C264.279 299.71 263.919 299.558 263.466 299.558ZM275.789 305.124H270.199V304.345L273.152 301.064C273.589 300.568 273.89 300.165 274.054 299.857C274.222 299.544 274.306 299.222 274.306 298.89C274.306 298.445 274.171 298.079 273.902 297.794C273.632 297.509 273.273 297.366 272.824 297.366C272.285 297.366 271.865 297.521 271.564 297.829C271.267 298.134 271.119 298.56 271.119 299.107H270.035C270.035 298.322 270.287 297.687 270.791 297.202C271.298 296.718 271.976 296.476 272.824 296.476C273.617 296.476 274.244 296.685 274.705 297.103C275.166 297.517 275.396 298.07 275.396 298.761C275.396 299.601 274.861 300.601 273.791 301.761L271.505 304.24H275.789V305.124Z" fill="black"/>
<rect x="304.805" y="283.531" width="7.04402" height="7.03445" rx="1" fill="#00A560"/>
<path d="M318.875 287.322C317.91 287.044 317.207 286.704 316.766 286.302C316.328 285.896 316.109 285.396 316.109 284.802C316.109 284.13 316.377 283.575 316.912 283.138C317.451 282.697 318.15 282.476 319.01 282.476C319.596 282.476 320.117 282.589 320.574 282.816C321.035 283.042 321.391 283.355 321.641 283.753C321.895 284.152 322.021 284.587 322.021 285.06H320.891C320.891 284.544 320.727 284.14 320.398 283.847C320.07 283.55 319.607 283.402 319.01 283.402C318.455 283.402 318.021 283.525 317.709 283.771C317.4 284.013 317.246 284.351 317.246 284.784C317.246 285.132 317.393 285.427 317.686 285.669C317.982 285.907 318.484 286.126 319.191 286.325C319.902 286.525 320.457 286.745 320.855 286.988C321.258 287.226 321.555 287.505 321.746 287.825C321.941 288.146 322.039 288.523 322.039 288.956C322.039 289.648 321.77 290.202 321.23 290.62C320.691 291.034 319.971 291.241 319.068 291.241C318.482 291.241 317.936 291.13 317.428 290.907C316.92 290.681 316.527 290.372 316.25 289.982C315.977 289.591 315.84 289.148 315.84 288.652H316.971C316.971 289.167 317.16 289.575 317.539 289.876C317.922 290.173 318.432 290.322 319.068 290.322C319.662 290.322 320.117 290.2 320.434 289.958C320.75 289.716 320.908 289.386 320.908 288.968C320.908 288.55 320.762 288.228 320.469 288.001C320.176 287.771 319.645 287.544 318.875 287.322ZM324.787 283.249V284.784H325.971V285.622H324.787V289.554C324.787 289.808 324.84 289.999 324.945 290.128C325.051 290.253 325.23 290.316 325.484 290.316C325.609 290.316 325.781 290.292 326 290.245V291.124C325.715 291.202 325.438 291.241 325.168 291.241C324.684 291.241 324.318 291.095 324.072 290.802C323.826 290.509 323.703 290.093 323.703 289.554V285.622H322.549V284.784H323.703V283.249H324.787ZM326.838 287.896C326.838 287.275 326.959 286.716 327.201 286.22C327.447 285.724 327.787 285.341 328.221 285.072C328.658 284.802 329.156 284.667 329.715 284.667C330.578 284.667 331.275 284.966 331.807 285.564C332.342 286.161 332.609 286.956 332.609 287.948V288.025C332.609 288.642 332.49 289.197 332.252 289.689C332.018 290.177 331.68 290.558 331.238 290.831C330.801 291.105 330.297 291.241 329.727 291.241C328.867 291.241 328.17 290.943 327.635 290.345C327.104 289.747 326.838 288.956 326.838 287.972V287.896ZM327.928 288.025C327.928 288.728 328.09 289.292 328.414 289.718C328.742 290.144 329.18 290.357 329.727 290.357C330.277 290.357 330.715 290.142 331.039 289.712C331.363 289.279 331.525 288.673 331.525 287.896C331.525 287.2 331.359 286.638 331.027 286.208C330.699 285.775 330.262 285.558 329.715 285.558C329.18 285.558 328.748 285.771 328.42 286.197C328.092 286.622 327.928 287.232 327.928 288.025ZM337.033 285.757C336.869 285.73 336.691 285.716 336.5 285.716C335.789 285.716 335.307 286.019 335.053 286.624V291.124H333.969V284.784H335.023L335.041 285.517C335.396 284.95 335.9 284.667 336.553 284.667C336.764 284.667 336.924 284.695 337.033 284.749V285.757ZM340.549 291.241C339.689 291.241 338.99 290.96 338.451 290.398C337.912 289.831 337.643 289.075 337.643 288.13V287.931C337.643 287.302 337.762 286.741 338 286.249C338.242 285.753 338.578 285.366 339.008 285.089C339.441 284.808 339.91 284.667 340.414 284.667C341.238 284.667 341.879 284.939 342.336 285.482C342.793 286.025 343.021 286.802 343.021 287.814V288.265H338.727C338.742 288.89 338.924 289.396 339.271 289.782C339.623 290.165 340.068 290.357 340.607 290.357C340.99 290.357 341.314 290.279 341.58 290.122C341.846 289.966 342.078 289.759 342.277 289.501L342.939 290.017C342.408 290.833 341.611 291.241 340.549 291.241ZM340.414 285.558C339.977 285.558 339.609 285.718 339.312 286.038C339.016 286.355 338.832 286.8 338.762 287.374H341.938V287.292C341.906 286.741 341.758 286.316 341.492 286.015C341.227 285.71 340.867 285.558 340.414 285.558ZM317.217 298.784L317.252 299.581C317.736 298.972 318.369 298.667 319.15 298.667C320.49 298.667 321.166 299.423 321.178 300.935V305.124H320.094V300.929C320.09 300.472 319.984 300.134 319.777 299.915C319.574 299.697 319.256 299.587 318.822 299.587C318.471 299.587 318.162 299.681 317.896 299.868C317.631 300.056 317.424 300.302 317.275 300.607V305.124H316.191V298.784H317.217ZM326.727 305.124C326.664 304.999 326.613 304.777 326.574 304.456C326.07 304.98 325.469 305.241 324.77 305.241C324.145 305.241 323.631 305.066 323.229 304.714C322.83 304.359 322.631 303.909 322.631 303.366C322.631 302.706 322.881 302.195 323.381 301.831C323.885 301.464 324.592 301.281 325.502 301.281H326.557V300.782C326.557 300.404 326.443 300.103 326.217 299.88C325.99 299.654 325.656 299.54 325.215 299.54C324.828 299.54 324.504 299.638 324.242 299.833C323.98 300.029 323.85 300.265 323.85 300.542H322.76C322.76 300.226 322.871 299.921 323.094 299.628C323.32 299.331 323.625 299.097 324.008 298.925C324.395 298.753 324.818 298.667 325.279 298.667C326.01 298.667 326.582 298.851 326.996 299.218C327.41 299.581 327.625 300.083 327.641 300.724V303.642C327.641 304.224 327.715 304.687 327.863 305.031V305.124H326.727ZM324.928 304.298C325.268 304.298 325.59 304.21 325.895 304.034C326.199 303.859 326.42 303.63 326.557 303.349V302.048H325.707C324.379 302.048 323.715 302.437 323.715 303.214C323.715 303.554 323.828 303.82 324.055 304.011C324.281 304.202 324.572 304.298 324.928 304.298ZM330.359 298.784L330.389 299.488C330.854 298.941 331.48 298.667 332.27 298.667C333.156 298.667 333.76 299.007 334.08 299.687C334.291 299.382 334.564 299.136 334.9 298.948C335.24 298.761 335.641 298.667 336.102 298.667C337.492 298.667 338.199 299.404 338.223 300.876V305.124H337.139V300.941C337.139 300.488 337.035 300.15 336.828 299.927C336.621 299.7 336.273 299.587 335.785 299.587C335.383 299.587 335.049 299.708 334.783 299.95C334.518 300.189 334.363 300.511 334.32 300.917V305.124H333.23V300.97C333.23 300.048 332.779 299.587 331.877 299.587C331.166 299.587 330.68 299.89 330.418 300.495V305.124H329.334V298.784H330.359ZM342.494 305.241C341.635 305.241 340.936 304.96 340.396 304.398C339.857 303.831 339.588 303.075 339.588 302.13V301.931C339.588 301.302 339.707 300.741 339.945 300.249C340.188 299.753 340.523 299.366 340.953 299.089C341.387 298.808 341.855 298.667 342.359 298.667C343.184 298.667 343.824 298.939 344.281 299.482C344.738 300.025 344.967 300.802 344.967 301.814V302.265H340.672C340.688 302.89 340.869 303.396 341.217 303.782C341.568 304.165 342.014 304.357 342.553 304.357C342.936 304.357 343.26 304.279 343.525 304.122C343.791 303.966 344.023 303.759 344.223 303.501L344.885 304.017C344.354 304.833 343.557 305.241 342.494 305.241ZM342.359 299.558C341.922 299.558 341.555 299.718 341.258 300.038C340.961 300.355 340.777 300.8 340.707 301.374H343.883V301.292C343.852 300.741 343.703 300.316 343.438 300.015C343.172 299.71 342.812 299.558 342.359 299.558ZM350.668 300.331H351.482C351.994 300.323 352.396 300.189 352.689 299.927C352.982 299.665 353.129 299.312 353.129 298.866C353.129 297.866 352.631 297.366 351.635 297.366C351.166 297.366 350.791 297.501 350.51 297.771C350.232 298.036 350.094 298.39 350.094 298.831H349.01C349.01 298.156 349.256 297.595 349.748 297.15C350.244 296.7 350.873 296.476 351.635 296.476C352.439 296.476 353.07 296.689 353.527 297.115C353.984 297.54 354.213 298.132 354.213 298.89C354.213 299.261 354.092 299.62 353.85 299.968C353.611 300.316 353.285 300.575 352.871 300.747C353.34 300.896 353.701 301.142 353.955 301.486C354.213 301.829 354.342 302.249 354.342 302.745C354.342 303.511 354.092 304.118 353.592 304.568C353.092 305.017 352.441 305.241 351.641 305.241C350.84 305.241 350.188 305.025 349.684 304.591C349.184 304.157 348.934 303.585 348.934 302.874H350.023C350.023 303.323 350.17 303.683 350.463 303.952C350.756 304.222 351.148 304.357 351.641 304.357C352.164 304.357 352.564 304.22 352.842 303.947C353.119 303.673 353.258 303.281 353.258 302.769C353.258 302.273 353.105 301.892 352.801 301.626C352.496 301.361 352.057 301.224 351.482 301.216H350.668V300.331Z" fill="black"/>
<rect x="383.698" y="283.531" width="7.04402" height="7.03445" rx="1" fill="#DB0E00"/>
<path d="M397.768 287.322C396.803 287.044 396.1 286.704 395.659 286.302C395.221 285.896 395.002 285.396 395.002 284.802C395.002 284.13 395.27 283.575 395.805 283.138C396.344 282.697 397.043 282.476 397.903 282.476C398.489 282.476 399.01 282.589 399.467 282.816C399.928 283.042 400.284 283.355 400.534 283.753C400.788 284.152 400.915 284.587 400.915 285.06H399.784C399.784 284.544 399.62 284.14 399.292 283.847C398.963 283.55 398.5 283.402 397.903 283.402C397.348 283.402 396.915 283.525 396.602 283.771C396.293 284.013 396.139 284.351 396.139 284.784C396.139 285.132 396.286 285.427 396.579 285.669C396.875 285.907 397.377 286.126 398.084 286.325C398.795 286.525 399.35 286.745 399.749 286.988C400.151 287.226 400.448 287.505 400.639 287.825C400.834 288.146 400.932 288.523 400.932 288.956C400.932 289.648 400.663 290.202 400.124 290.62C399.584 291.034 398.864 291.241 397.961 291.241C397.375 291.241 396.829 291.13 396.321 290.907C395.813 290.681 395.42 290.372 395.143 289.982C394.87 289.591 394.733 289.148 394.733 288.652H395.864C395.864 289.167 396.053 289.575 396.432 289.876C396.815 290.173 397.325 290.322 397.961 290.322C398.555 290.322 399.01 290.2 399.327 289.958C399.643 289.716 399.801 289.386 399.801 288.968C399.801 288.55 399.655 288.228 399.362 288.001C399.069 287.771 398.538 287.544 397.768 287.322ZM403.68 283.249V284.784H404.864V285.622H403.68V289.554C403.68 289.808 403.733 289.999 403.838 290.128C403.944 290.253 404.124 290.316 404.377 290.316C404.502 290.316 404.674 290.292 404.893 290.245V291.124C404.608 291.202 404.331 291.241 404.061 291.241C403.577 291.241 403.211 291.095 402.965 290.802C402.719 290.509 402.596 290.093 402.596 289.554V285.622H401.442V284.784H402.596V283.249H403.68ZM405.731 287.896C405.731 287.275 405.852 286.716 406.094 286.22C406.34 285.724 406.68 285.341 407.114 285.072C407.551 284.802 408.049 284.667 408.608 284.667C409.471 284.667 410.168 284.966 410.7 285.564C411.235 286.161 411.502 286.956 411.502 287.948V288.025C411.502 288.642 411.383 289.197 411.145 289.689C410.911 290.177 410.573 290.558 410.131 290.831C409.694 291.105 409.19 291.241 408.62 291.241C407.76 291.241 407.063 290.943 406.528 290.345C405.997 289.747 405.731 288.956 405.731 287.972V287.896ZM406.821 288.025C406.821 288.728 406.983 289.292 407.307 289.718C407.635 290.144 408.073 290.357 408.62 290.357C409.17 290.357 409.608 290.142 409.932 289.712C410.256 289.279 410.418 288.673 410.418 287.896C410.418 287.2 410.252 286.638 409.92 286.208C409.592 285.775 409.155 285.558 408.608 285.558C408.073 285.558 407.641 285.771 407.313 286.197C406.985 286.622 406.821 287.232 406.821 288.025ZM415.926 285.757C415.762 285.73 415.584 285.716 415.393 285.716C414.682 285.716 414.2 286.019 413.946 286.624V291.124H412.862V284.784H413.917L413.934 285.517C414.29 284.95 414.793 284.667 415.446 284.667C415.657 284.667 415.817 284.695 415.926 284.749V285.757ZM419.442 291.241C418.583 291.241 417.883 290.96 417.344 290.398C416.805 289.831 416.536 289.075 416.536 288.13V287.931C416.536 287.302 416.655 286.741 416.893 286.249C417.135 285.753 417.471 285.366 417.901 285.089C418.334 284.808 418.803 284.667 419.307 284.667C420.131 284.667 420.772 284.939 421.229 285.482C421.686 286.025 421.915 286.802 421.915 287.814V288.265H417.62C417.635 288.89 417.817 289.396 418.165 289.782C418.516 290.165 418.961 290.357 419.5 290.357C419.883 290.357 420.208 290.279 420.473 290.122C420.739 289.966 420.971 289.759 421.17 289.501L421.833 290.017C421.301 290.833 420.504 291.241 419.442 291.241ZM419.307 285.558C418.87 285.558 418.502 285.718 418.206 286.038C417.909 286.355 417.725 286.8 417.655 287.374H420.831V287.292C420.799 286.741 420.651 286.316 420.385 286.015C420.12 285.71 419.76 285.558 419.307 285.558ZM396.11 298.784L396.145 299.581C396.629 298.972 397.262 298.667 398.043 298.667C399.383 298.667 400.059 299.423 400.071 300.935V305.124H398.987V300.929C398.983 300.472 398.877 300.134 398.67 299.915C398.467 299.697 398.149 299.587 397.715 299.587C397.364 299.587 397.055 299.681 396.79 299.868C396.524 300.056 396.317 300.302 396.168 300.607V305.124H395.084V298.784H396.11ZM405.62 305.124C405.557 304.999 405.506 304.777 405.467 304.456C404.963 304.98 404.362 305.241 403.663 305.241C403.038 305.241 402.524 305.066 402.122 304.714C401.723 304.359 401.524 303.909 401.524 303.366C401.524 302.706 401.774 302.195 402.274 301.831C402.778 301.464 403.485 301.281 404.395 301.281H405.45V300.782C405.45 300.404 405.336 300.103 405.11 299.88C404.883 299.654 404.549 299.54 404.108 299.54C403.721 299.54 403.397 299.638 403.135 299.833C402.874 300.029 402.743 300.265 402.743 300.542H401.653C401.653 300.226 401.764 299.921 401.987 299.628C402.213 299.331 402.518 299.097 402.901 298.925C403.288 298.753 403.711 298.667 404.172 298.667C404.903 298.667 405.475 298.851 405.889 299.218C406.303 299.581 406.518 300.083 406.534 300.724V303.642C406.534 304.224 406.608 304.687 406.756 305.031V305.124H405.62ZM403.821 304.298C404.161 304.298 404.483 304.21 404.788 304.034C405.092 303.859 405.313 303.63 405.45 303.349V302.048H404.6C403.272 302.048 402.608 302.437 402.608 303.214C402.608 303.554 402.721 303.82 402.948 304.011C403.174 304.202 403.465 304.298 403.821 304.298ZM409.252 298.784L409.282 299.488C409.747 298.941 410.374 298.667 411.163 298.667C412.049 298.667 412.653 299.007 412.973 299.687C413.184 299.382 413.458 299.136 413.793 298.948C414.133 298.761 414.534 298.667 414.995 298.667C416.385 298.667 417.092 299.404 417.116 300.876V305.124H416.032V300.941C416.032 300.488 415.928 300.15 415.721 299.927C415.514 299.7 415.167 299.587 414.678 299.587C414.276 299.587 413.942 299.708 413.676 299.95C413.411 300.189 413.256 300.511 413.213 300.917V305.124H412.124V300.97C412.124 300.048 411.672 299.587 410.77 299.587C410.059 299.587 409.573 299.89 409.311 300.495V305.124H408.227V298.784H409.252ZM421.387 305.241C420.528 305.241 419.829 304.96 419.29 304.398C418.75 303.831 418.481 303.075 418.481 302.13V301.931C418.481 301.302 418.6 300.741 418.838 300.249C419.081 299.753 419.417 299.366 419.846 299.089C420.28 298.808 420.749 298.667 421.252 298.667C422.077 298.667 422.717 298.939 423.174 299.482C423.631 300.025 423.86 300.802 423.86 301.814V302.265H419.565C419.581 302.89 419.762 303.396 420.11 303.782C420.461 304.165 420.907 304.357 421.446 304.357C421.829 304.357 422.153 304.279 422.418 304.122C422.684 303.966 422.917 303.759 423.116 303.501L423.778 304.017C423.247 304.833 422.45 305.241 421.387 305.241ZM421.252 299.558C420.815 299.558 420.448 299.718 420.151 300.038C419.854 300.355 419.67 300.8 419.6 301.374H422.776V301.292C422.745 300.741 422.596 300.316 422.331 300.015C422.065 299.71 421.706 299.558 421.252 299.558ZM432.561 302.259H433.745V303.144H432.561V305.124H431.471V303.144H427.586V302.505L431.407 296.593H432.561V302.259ZM428.817 302.259H431.471V298.075L431.342 298.31L428.817 302.259Z" fill="black"/>
</g>
<path opacity="0.6" d="M41.792 34.9961H37.8018V46H35.5957V34.9961H31.6406V33.2031H41.792V34.9961ZM53.4463 39.9355C53.4463 41.1895 53.2295 42.291 52.7959 43.2402C52.3623 44.1836 51.7412 44.9102 50.9326 45.4199C50.1299 45.9238 49.2041 46.1758 48.1553 46.1758C47.1182 46.1758 46.1924 45.9238 45.3779 45.4199C44.5693 44.9102 43.9424 44.1865 43.4971 43.249C43.0576 42.3115 42.835 41.2305 42.8291 40.0059V39.2852C42.8291 38.0371 43.0488 36.9355 43.4883 35.9805C43.9336 35.0254 44.5576 34.2959 45.3604 33.792C46.1689 33.2822 47.0947 33.0273 48.1377 33.0273C49.1807 33.0273 50.1035 33.2793 50.9062 33.7832C51.7148 34.2812 52.3389 35.002 52.7783 35.9453C53.2178 36.8828 53.4404 37.9756 53.4463 39.2236V39.9355ZM51.2227 39.2676C51.2227 37.8496 50.9531 36.7627 50.4141 36.0068C49.8809 35.251 49.1221 34.873 48.1377 34.873C47.1768 34.873 46.4238 35.251 45.8789 36.0068C45.3398 36.7568 45.0645 37.8203 45.0527 39.1973V39.9355C45.0527 41.3418 45.3252 42.4287 45.8701 43.1963C46.4209 43.9639 47.1826 44.3477 48.1553 44.3477C49.1396 44.3477 49.8955 43.9727 50.4229 43.2227C50.9561 42.4727 51.2227 41.377 51.2227 39.9355V39.2676ZM64.1514 34.9961H60.1611V46H57.9551V34.9961H54V33.2031H64.1514V34.9961ZM71.9473 43.0205H66.9902L65.9531 46H63.6416L68.4756 33.2031H70.4707L75.3135 46H72.9932L71.9473 43.0205ZM67.6143 41.2275H71.3232L69.4688 35.9189L67.6143 41.2275ZM78.9961 44.2246H84.8057V46H76.7725V33.2031H78.9961V44.2246ZM95.502 43.2139L98.7539 33.2031H101.197L96.5918 46H94.4385L89.8506 33.2031H92.2852L95.502 43.2139ZM104.994 46H102.779V33.2031H104.994V46ZM114.416 42.7041C114.416 42.1416 114.217 41.708 113.818 41.4033C113.426 41.0986 112.714 40.791 111.683 40.4805C110.651 40.1699 109.831 39.8242 109.222 39.4434C108.056 38.7109 107.473 37.7559 107.473 36.5781C107.473 35.5469 107.892 34.6973 108.729 34.0293C109.573 33.3613 110.666 33.0273 112.008 33.0273C112.898 33.0273 113.692 33.1914 114.39 33.5195C115.087 33.8477 115.635 34.3164 116.033 34.9258C116.432 35.5293 116.631 36.2002 116.631 36.9385H114.416C114.416 36.2705 114.205 35.749 113.783 35.374C113.367 34.9932 112.77 34.8027 111.99 34.8027C111.264 34.8027 110.698 34.958 110.294 35.2686C109.896 35.5791 109.696 36.0127 109.696 36.5693C109.696 37.0381 109.913 37.4307 110.347 37.7471C110.78 38.0576 111.495 38.3623 112.491 38.6611C113.487 38.9541 114.287 39.291 114.891 39.6719C115.494 40.0469 115.937 40.4805 116.218 40.9727C116.499 41.459 116.64 42.0303 116.64 42.6865C116.64 43.7529 116.229 44.6025 115.409 45.2354C114.595 45.8623 113.487 46.1758 112.087 46.1758C111.161 46.1758 110.309 46.0059 109.529 45.666C108.756 45.3203 108.152 44.8457 107.719 44.2422C107.291 43.6387 107.077 42.9355 107.077 42.1328H109.301C109.301 42.8594 109.541 43.4219 110.021 43.8203C110.502 44.2188 111.19 44.418 112.087 44.418C112.86 44.418 113.44 44.2627 113.827 43.9521C114.22 43.6357 114.416 43.2197 114.416 42.7041ZM120.938 46H118.723V33.2031H120.938V46ZM132.653 34.9961H128.663V46H126.457V34.9961H122.502V33.2031H132.653V34.9961ZM144.308 39.9355C144.308 41.1895 144.091 42.291 143.657 43.2402C143.224 44.1836 142.603 44.9102 141.794 45.4199C140.991 45.9238 140.065 46.1758 139.017 46.1758C137.979 46.1758 137.054 45.9238 136.239 45.4199C135.431 44.9102 134.804 44.1865 134.358 43.249C133.919 42.3115 133.696 41.2305 133.69 40.0059V39.2852C133.69 38.0371 133.91 36.9355 134.35 35.9805C134.795 35.0254 135.419 34.2959 136.222 33.792C137.03 33.2822 137.956 33.0273 138.999 33.0273C140.042 33.0273 140.965 33.2793 141.768 33.7832C142.576 34.2812 143.2 35.002 143.64 35.9453C144.079 36.8828 144.302 37.9756 144.308 39.2236V39.9355ZM142.084 39.2676C142.084 37.8496 141.814 36.7627 141.275 36.0068C140.742 35.251 139.983 34.873 138.999 34.873C138.038 34.873 137.285 35.251 136.74 36.0068C136.201 36.7568 135.926 37.8203 135.914 39.1973V39.9355C135.914 41.3418 136.187 42.4287 136.731 43.1963C137.282 43.9639 138.044 44.3477 139.017 44.3477C140.001 44.3477 140.757 43.9727 141.284 43.2227C141.817 42.4727 142.084 41.377 142.084 39.9355V39.2676ZM151.225 41.0693H148.746V46H146.522V33.2031H151.022C152.499 33.2031 153.639 33.5342 154.441 34.1963C155.244 34.8584 155.646 35.8164 155.646 37.0703C155.646 37.9258 155.438 38.6436 155.021 39.2236C154.611 39.7979 154.037 40.2402 153.299 40.5508L156.173 45.8857V46H153.791L151.225 41.0693ZM148.746 39.2852H151.031C151.781 39.2852 152.367 39.0977 152.789 38.7227C153.211 38.3418 153.422 37.8232 153.422 37.167C153.422 36.4814 153.226 35.9512 152.833 35.5762C152.446 35.2012 151.866 35.0078 151.093 34.9961H148.746V39.2852Z" fill="black"/>
</g>
<defs>
<filter id="filter0_d_33_541" x="0" y="0" width="592" height="338" filterUnits="userSpaceOnUse" color-interpolation-filters="sRGB">
<feFlood flood-opacity="0" result="BackgroundImageFix"/>
<feColorMatrix in="SourceAlpha" type="matrix" values="0 0 0 0 0 0 0 0 0 0 0 0 0 0 0 0 0 0 127 0" result="hardAlpha"/>
<feOffset dy="4"/>
<feGaussianBlur stdDeviation="8"/>
<feComposite in2="hardAlpha" operator="out"/>
<feColorMatrix type="matrix" values="0 0 0 0 0 0 0 0 0 0 0 0 0 0 0 0 0 0 0.06 0"/>
<feBlend mode="normal" in2="BackgroundImageFix" result="effect1_dropShadow_33_541"/>
<feBlend mode="normal" in="SourceGraphic" in2="effect1_dropShadow_33_541" result="shape"/>
</filter>
<filter id="filter1_d_33_541" x="0" y="0" width="592" height="338" filterUnits="userSpaceOnUse" color-interpolation-filters="sRGB">
<feFlood flood-opacity="0" result="BackgroundImageFix"/>
<feColorMatrix in="SourceAlpha" type="matrix" values="0 0 0 0 0 0 0 0 0 0 0 0 0 0 0 0 0 0 127 0" result="hardAlpha"/>
<feOffset dy="4"/>
<feGaussianBlur stdDeviation="8"/>
<feColorMatrix type="matrix" values="0 0 0 0 0 0 0 0 0 0 0 0 0 0 0 0 0 0 0.06 0"/>
<feBlend mode="normal" in2="BackgroundImageFix" result="effect1_dropShadow_33_541"/>
<feBlend mode="normal" in="SourceGraphic" in2="effect1_dropShadow_33_541" result="shape"/>
</filter>
<clipPath id="clip0_33_541">
<rect width="560" height="306" fill="white" transform="translate(16 12)"/>
</clipPath>
<clipPath id="clip1_33_541">
<rect width="465.481" height="9.14951" fill="white" transform="translate(95.2742 247.854)"/>
</clipPath>
<clipPath id="clip2_33_541">
<rect width="45.2071" height="176.89" fill="white" transform="translate(31.2451 62.8306)"/>
</clipPath>
<clipPath id="clip3_33_541">
<rect width="297.962" height="9.84824" fill="white" transform="translate(147.019 282.124)"/>
</clipPath>
</defs>
</svg>
