<svg width="304" height="385" viewBox="0 0 304 385" fill="none" xmlns="http://www.w3.org/2000/svg">
<g clip-path="url(#clip0_33_736)" filter="url(#filter0_d_33_736)">
<g filter="url(#filter1_d_33_736)">
<path fill-rule="evenodd" clip-rule="evenodd" d="M14.9736 15C14.9736 13.3432 16.3168 12 17.9736 12H285C286.657 12 288 13.3431 288 15V362C288 363.657 286.657 365 285 365H126.749H17.9736C16.3168 365 14.9736 363.657 14.9736 362V15Z" fill="white"/>
</g>
<g clip-path="url(#clip1_33_736)">
<rect x="57.3032" y="319.11" width="7.05495" height="7.06" rx="1" fill="#0C213A"/>
<path d="M71.3896 322.895C70.4248 322.618 69.7217 322.278 69.2803 321.876C68.8428 321.469 68.624 320.969 68.624 320.376C68.624 319.704 68.8916 319.149 69.4268 318.712C69.9658 318.27 70.665 318.05 71.5244 318.05C72.1104 318.05 72.6318 318.163 73.0889 318.389C73.5498 318.616 73.9053 318.928 74.1553 319.327C74.4092 319.725 74.5361 320.161 74.5361 320.634H73.4053C73.4053 320.118 73.2412 319.714 72.9131 319.421C72.585 319.124 72.1221 318.975 71.5244 318.975C70.9697 318.975 70.5361 319.098 70.2236 319.344C69.915 319.587 69.7607 319.925 69.7607 320.358C69.7607 320.706 69.9072 321.001 70.2002 321.243C70.4971 321.481 70.999 321.7 71.7061 321.899C72.417 322.098 72.9717 322.319 73.3701 322.561C73.7725 322.8 74.0693 323.079 74.2607 323.399C74.4561 323.719 74.5537 324.096 74.5537 324.53C74.5537 325.221 74.2842 325.776 73.7451 326.194C73.2061 326.608 72.4854 326.815 71.583 326.815C70.9971 326.815 70.4502 326.704 69.9424 326.481C69.4346 326.255 69.042 325.946 68.7646 325.555C68.4912 325.165 68.3545 324.721 68.3545 324.225H69.4854C69.4854 324.741 69.6748 325.149 70.0537 325.45C70.4365 325.747 70.9463 325.895 71.583 325.895C72.1768 325.895 72.6318 325.774 72.9482 325.532C73.2646 325.29 73.4229 324.96 73.4229 324.542C73.4229 324.124 73.2764 323.802 72.9834 323.575C72.6904 323.344 72.1592 323.118 71.3896 322.895ZM77.3018 318.823V320.358H78.4854V321.196H77.3018V325.128C77.3018 325.382 77.3545 325.573 77.46 325.702C77.5654 325.827 77.7451 325.889 77.999 325.889C78.124 325.889 78.2959 325.866 78.5146 325.819V326.698C78.2295 326.776 77.9521 326.815 77.6826 326.815C77.1982 326.815 76.833 326.669 76.5869 326.376C76.3408 326.083 76.2178 325.667 76.2178 325.128V321.196H75.0635V320.358H76.2178V318.823H77.3018ZM79.3525 323.469C79.3525 322.848 79.4736 322.29 79.7158 321.794C79.9619 321.298 80.3018 320.915 80.7354 320.645C81.1729 320.376 81.6709 320.241 82.2295 320.241C83.0928 320.241 83.79 320.54 84.3213 321.137C84.8564 321.735 85.124 322.53 85.124 323.522V323.598C85.124 324.216 85.0049 324.77 84.7666 325.262C84.5322 325.751 84.1943 326.132 83.7529 326.405C83.3154 326.678 82.8115 326.815 82.2412 326.815C81.3818 326.815 80.6846 326.516 80.1494 325.919C79.6182 325.321 79.3525 324.53 79.3525 323.546V323.469ZM80.4424 323.598C80.4424 324.302 80.6045 324.866 80.9287 325.292C81.2568 325.718 81.6943 325.93 82.2412 325.93C82.792 325.93 83.2295 325.716 83.5537 325.286C83.8779 324.852 84.04 324.247 84.04 323.469C84.04 322.774 83.874 322.212 83.542 321.782C83.2139 321.348 82.7764 321.132 82.2295 321.132C81.6943 321.132 81.2627 321.344 80.9346 321.77C80.6064 322.196 80.4424 322.805 80.4424 323.598ZM89.5479 321.331C89.3838 321.303 89.2061 321.29 89.0146 321.29C88.3037 321.29 87.8213 321.593 87.5674 322.198V326.698H86.4834V320.358H87.5381L87.5557 321.091C87.9111 320.524 88.415 320.241 89.0674 320.241C89.2783 320.241 89.4385 320.268 89.5479 320.323V321.331ZM93.0635 326.815C92.2041 326.815 91.5049 326.534 90.9658 325.971C90.4268 325.405 90.1572 324.649 90.1572 323.704V323.505C90.1572 322.876 90.2764 322.315 90.5146 321.823C90.7568 321.327 91.0928 320.94 91.5225 320.663C91.9561 320.382 92.4248 320.241 92.9287 320.241C93.7529 320.241 94.3936 320.512 94.8506 321.055C95.3076 321.598 95.5361 322.376 95.5361 323.387V323.839H91.2412C91.2568 324.464 91.4385 324.969 91.7861 325.356C92.1377 325.739 92.583 325.93 93.1221 325.93C93.5049 325.93 93.8291 325.852 94.0947 325.696C94.3604 325.54 94.5928 325.333 94.792 325.075L95.4541 325.591C94.9229 326.407 94.126 326.815 93.0635 326.815ZM92.9287 321.132C92.4912 321.132 92.124 321.292 91.8271 321.612C91.5303 321.928 91.3467 322.374 91.2764 322.948H94.4521V322.866C94.4209 322.315 94.2725 321.889 94.0068 321.589C93.7412 321.284 93.3818 321.132 92.9287 321.132ZM69.7314 334.358L69.7666 335.155C70.251 334.546 70.8838 334.241 71.665 334.241C73.0049 334.241 73.6807 334.997 73.6924 336.509V340.698H72.6084V336.503C72.6045 336.046 72.499 335.708 72.292 335.489C72.0889 335.27 71.7705 335.161 71.3369 335.161C70.9854 335.161 70.6768 335.255 70.4111 335.442C70.1455 335.63 69.9385 335.876 69.79 336.18V340.698H68.7061V334.358H69.7314ZM79.2412 340.698C79.1787 340.573 79.1279 340.35 79.0889 340.03C78.585 340.553 77.9834 340.815 77.2842 340.815C76.6592 340.815 76.1455 340.639 75.7432 340.288C75.3447 339.932 75.1455 339.483 75.1455 338.94C75.1455 338.28 75.3955 337.768 75.8955 337.405C76.3994 337.038 77.1064 336.854 78.0166 336.854H79.0713V336.356C79.0713 335.977 78.958 335.677 78.7314 335.454C78.5049 335.227 78.1709 335.114 77.7295 335.114C77.3428 335.114 77.0186 335.212 76.7568 335.407C76.4951 335.602 76.3643 335.839 76.3643 336.116H75.2744C75.2744 335.8 75.3857 335.495 75.6084 335.202C75.835 334.905 76.1396 334.671 76.5225 334.499C76.9092 334.327 77.333 334.241 77.7939 334.241C78.5244 334.241 79.0967 334.425 79.5107 334.792C79.9248 335.155 80.1396 335.657 80.1553 336.298V339.216C80.1553 339.798 80.2295 340.26 80.3779 340.604V340.698H79.2412ZM77.4424 339.872C77.7822 339.872 78.1045 339.784 78.4092 339.608C78.7139 339.432 78.9346 339.204 79.0713 338.923V337.622H78.2217C76.8936 337.622 76.2295 338.01 76.2295 338.788C76.2295 339.128 76.3428 339.393 76.5693 339.585C76.7959 339.776 77.0869 339.872 77.4424 339.872ZM82.874 334.358L82.9033 335.061C83.3682 334.514 83.9951 334.241 84.7842 334.241C85.6709 334.241 86.2744 334.581 86.5947 335.26C86.8057 334.956 87.0791 334.71 87.415 334.522C87.7549 334.335 88.1553 334.241 88.6162 334.241C90.0068 334.241 90.7139 334.977 90.7373 336.45V340.698H89.6533V336.514C89.6533 336.061 89.5498 335.723 89.3428 335.501C89.1357 335.274 88.7881 335.161 88.2998 335.161C87.8975 335.161 87.5635 335.282 87.2979 335.524C87.0322 335.762 86.8779 336.085 86.835 336.491V340.698H85.7451V336.544C85.7451 335.622 85.2939 335.161 84.3916 335.161C83.6807 335.161 83.1943 335.464 82.9326 336.069V340.698H81.8486V334.358H82.874ZM95.0088 340.815C94.1494 340.815 93.4502 340.534 92.9111 339.971C92.3721 339.405 92.1025 338.649 92.1025 337.704V337.505C92.1025 336.876 92.2217 336.315 92.46 335.823C92.7021 335.327 93.0381 334.94 93.4678 334.663C93.9014 334.382 94.3701 334.241 94.874 334.241C95.6982 334.241 96.3389 334.512 96.7959 335.055C97.2529 335.598 97.4814 336.376 97.4814 337.387V337.839H93.1865C93.2021 338.464 93.3838 338.969 93.7314 339.356C94.083 339.739 94.5283 339.93 95.0674 339.93C95.4502 339.93 95.7744 339.852 96.04 339.696C96.3057 339.54 96.5381 339.333 96.7373 339.075L97.3994 339.591C96.8682 340.407 96.0713 340.815 95.0088 340.815ZM94.874 335.132C94.4365 335.132 94.0693 335.292 93.7725 335.612C93.4756 335.928 93.292 336.374 93.2217 336.948H96.3975V336.866C96.3662 336.315 96.2178 335.889 95.9521 335.589C95.6865 335.284 95.3271 335.132 94.874 335.132ZM105.169 340.698H104.079V333.473L101.894 334.276V333.292L104.999 332.126H105.169V340.698Z" fill="black"/>
</g>
<g clip-path="url(#clip2_33_736)">
<rect x="173.71" y="319.11" width="7.05494" height="7.06" rx="1" fill="#F8B849"/>
<path d="M187.796 322.895C186.832 322.618 186.128 322.278 185.687 321.876C185.25 321.469 185.031 320.969 185.031 320.376C185.031 319.704 185.298 319.149 185.833 318.712C186.373 318.27 187.072 318.05 187.931 318.05C188.517 318.05 189.039 318.163 189.496 318.389C189.957 318.616 190.312 318.928 190.562 319.327C190.816 319.725 190.943 320.161 190.943 320.634H189.812C189.812 320.118 189.648 319.714 189.32 319.421C188.992 319.124 188.529 318.975 187.931 318.975C187.376 318.975 186.943 319.098 186.63 319.344C186.322 319.587 186.167 319.925 186.167 320.358C186.167 320.706 186.314 321.001 186.607 321.243C186.904 321.481 187.406 321.7 188.113 321.899C188.824 322.098 189.378 322.319 189.777 322.561C190.179 322.8 190.476 323.079 190.667 323.399C190.863 323.719 190.96 324.096 190.96 324.53C190.96 325.221 190.691 325.776 190.152 326.194C189.613 326.608 188.892 326.815 187.99 326.815C187.404 326.815 186.857 326.704 186.349 326.481C185.841 326.255 185.449 325.946 185.171 325.555C184.898 325.165 184.761 324.721 184.761 324.225H185.892C185.892 324.741 186.082 325.149 186.46 325.45C186.843 325.747 187.353 325.895 187.99 325.895C188.583 325.895 189.039 325.774 189.355 325.532C189.671 325.29 189.83 324.96 189.83 324.542C189.83 324.124 189.683 323.802 189.39 323.575C189.097 323.344 188.566 323.118 187.796 322.895ZM193.708 318.823V320.358H194.892V321.196H193.708V325.128C193.708 325.382 193.761 325.573 193.867 325.702C193.972 325.827 194.152 325.889 194.406 325.889C194.531 325.889 194.703 325.866 194.921 325.819V326.698C194.636 326.776 194.359 326.815 194.089 326.815C193.605 326.815 193.24 326.669 192.994 326.376C192.748 326.083 192.625 325.667 192.625 325.128V321.196H191.47V320.358H192.625V318.823H193.708ZM195.759 323.469C195.759 322.848 195.88 322.29 196.123 321.794C196.369 321.298 196.708 320.915 197.142 320.645C197.58 320.376 198.078 320.241 198.636 320.241C199.5 320.241 200.197 320.54 200.728 321.137C201.263 321.735 201.531 322.53 201.531 323.522V323.598C201.531 324.216 201.412 324.77 201.173 325.262C200.939 325.751 200.601 326.132 200.16 326.405C199.722 326.678 199.218 326.815 198.648 326.815C197.789 326.815 197.091 326.516 196.556 325.919C196.025 325.321 195.759 324.53 195.759 323.546V323.469ZM196.849 323.598C196.849 324.302 197.011 324.866 197.335 325.292C197.664 325.718 198.101 325.93 198.648 325.93C199.199 325.93 199.636 325.716 199.96 325.286C200.285 324.852 200.447 324.247 200.447 323.469C200.447 322.774 200.281 322.212 199.949 321.782C199.621 321.348 199.183 321.132 198.636 321.132C198.101 321.132 197.669 321.344 197.341 321.77C197.013 322.196 196.849 322.805 196.849 323.598ZM205.955 321.331C205.791 321.303 205.613 321.29 205.421 321.29C204.71 321.29 204.228 321.593 203.974 322.198V326.698H202.89V320.358H203.945L203.962 321.091C204.318 320.524 204.822 320.241 205.474 320.241C205.685 320.241 205.845 320.268 205.955 320.323V321.331ZM209.47 326.815C208.611 326.815 207.912 326.534 207.373 325.971C206.833 325.405 206.564 324.649 206.564 323.704V323.505C206.564 322.876 206.683 322.315 206.921 321.823C207.164 321.327 207.5 320.94 207.929 320.663C208.363 320.382 208.832 320.241 209.335 320.241C210.16 320.241 210.8 320.512 211.257 321.055C211.714 321.598 211.943 322.376 211.943 323.387V323.839H207.648C207.664 324.464 207.845 324.969 208.193 325.356C208.544 325.739 208.99 325.93 209.529 325.93C209.912 325.93 210.236 325.852 210.501 325.696C210.767 325.54 211 325.333 211.199 325.075L211.861 325.591C211.33 326.407 210.533 326.815 209.47 326.815ZM209.335 321.132C208.898 321.132 208.531 321.292 208.234 321.612C207.937 321.928 207.753 322.374 207.683 322.948H210.859V322.866C210.828 322.315 210.679 321.889 210.414 321.589C210.148 321.284 209.789 321.132 209.335 321.132ZM186.138 334.358L186.173 335.155C186.658 334.546 187.291 334.241 188.072 334.241C189.412 334.241 190.087 334.997 190.099 336.509V340.698H189.015V336.503C189.011 336.046 188.906 335.708 188.699 335.489C188.496 335.27 188.177 335.161 187.744 335.161C187.392 335.161 187.083 335.255 186.818 335.442C186.552 335.63 186.345 335.876 186.197 336.18V340.698H185.113V334.358H186.138ZM195.648 340.698C195.585 340.573 195.535 340.35 195.496 340.03C194.992 340.553 194.39 340.815 193.691 340.815C193.066 340.815 192.552 340.639 192.15 340.288C191.751 339.932 191.552 339.483 191.552 338.94C191.552 338.28 191.802 337.768 192.302 337.405C192.806 337.038 193.513 336.854 194.423 336.854H195.478V336.356C195.478 335.977 195.365 335.677 195.138 335.454C194.912 335.227 194.578 335.114 194.136 335.114C193.75 335.114 193.425 335.212 193.164 335.407C192.902 335.602 192.771 335.839 192.771 336.116H191.681C191.681 335.8 191.792 335.495 192.015 335.202C192.242 334.905 192.546 334.671 192.929 334.499C193.316 334.327 193.74 334.241 194.201 334.241C194.931 334.241 195.503 334.425 195.917 334.792C196.332 335.155 196.546 335.657 196.562 336.298V339.216C196.562 339.798 196.636 340.26 196.785 340.604V340.698H195.648ZM193.849 339.872C194.189 339.872 194.511 339.784 194.816 339.608C195.121 339.432 195.341 339.204 195.478 338.923V337.622H194.628C193.3 337.622 192.636 338.01 192.636 338.788C192.636 339.128 192.75 339.393 192.976 339.585C193.203 339.776 193.494 339.872 193.849 339.872ZM199.281 334.358L199.31 335.061C199.775 334.514 200.402 334.241 201.191 334.241C202.078 334.241 202.681 334.581 203.001 335.26C203.212 334.956 203.486 334.71 203.822 334.522C204.162 334.335 204.562 334.241 205.023 334.241C206.414 334.241 207.121 334.977 207.144 336.45V340.698H206.06V336.514C206.06 336.061 205.957 335.723 205.75 335.501C205.542 335.274 205.195 335.161 204.707 335.161C204.304 335.161 203.97 335.282 203.705 335.524C203.439 335.762 203.285 336.085 203.242 336.491V340.698H202.152V336.544C202.152 335.622 201.701 335.161 200.798 335.161C200.087 335.161 199.601 335.464 199.339 336.069V340.698H198.255V334.358H199.281ZM211.416 340.815C210.556 340.815 209.857 340.534 209.318 339.971C208.779 339.405 208.509 338.649 208.509 337.704V337.505C208.509 336.876 208.628 336.315 208.867 335.823C209.109 335.327 209.445 334.94 209.875 334.663C210.308 334.382 210.777 334.241 211.281 334.241C212.105 334.241 212.746 334.512 213.203 335.055C213.66 335.598 213.888 336.376 213.888 337.387V337.839H209.593C209.609 338.464 209.791 338.969 210.138 339.356C210.49 339.739 210.935 339.93 211.474 339.93C211.857 339.93 212.181 339.852 212.447 339.696C212.712 339.54 212.945 339.333 213.144 339.075L213.806 339.591C213.275 340.407 212.478 340.815 211.416 340.815ZM211.281 335.132C210.843 335.132 210.476 335.292 210.179 335.612C209.882 335.928 209.699 336.374 209.628 336.948H212.804V336.866C212.773 336.315 212.625 335.889 212.359 335.589C212.093 335.284 211.734 335.132 211.281 335.132ZM223.603 340.698H218.013V339.919L220.966 336.637C221.404 336.141 221.705 335.739 221.869 335.43C222.037 335.118 222.121 334.796 222.121 334.464C222.121 334.018 221.986 333.653 221.716 333.368C221.447 333.083 221.087 332.94 220.638 332.94C220.099 332.94 219.679 333.094 219.378 333.403C219.082 333.708 218.933 334.134 218.933 334.68H217.849C217.849 333.895 218.101 333.26 218.605 332.776C219.113 332.292 219.791 332.05 220.638 332.05C221.431 332.05 222.058 332.259 222.519 332.677C222.98 333.091 223.21 333.643 223.21 334.335C223.21 335.175 222.675 336.175 221.605 337.335L219.32 339.813H223.603V340.698Z" fill="black"/>
</g>
<g clip-path="url(#clip3_33_736)">
<rect x="57.3032" y="336.054" width="7.05495" height="7.06002" rx="1" fill="#00A560"/>
<path d="M71.3896 339.839C70.4248 339.562 69.7217 339.222 69.2803 338.82C68.8428 338.414 68.624 337.914 68.624 337.32C68.624 336.648 68.8916 336.093 69.4268 335.656C69.9658 335.214 70.665 334.994 71.5244 334.994C72.1104 334.994 72.6318 335.107 73.0889 335.333C73.5498 335.56 73.9053 335.873 74.1553 336.271C74.4092 336.669 74.5361 337.105 74.5361 337.578H73.4053C73.4053 337.062 73.2412 336.658 72.9131 336.365C72.585 336.068 72.1221 335.919 71.5244 335.919C70.9697 335.919 70.5361 336.042 70.2236 336.289C69.915 336.531 69.7607 336.869 69.7607 337.302C69.7607 337.65 69.9072 337.945 70.2002 338.187C70.4971 338.425 70.999 338.644 71.7061 338.843C72.417 339.042 72.9717 339.263 73.3701 339.505C73.7725 339.744 74.0693 340.023 74.2607 340.343C74.4561 340.664 74.5537 341.041 74.5537 341.474C74.5537 342.166 74.2842 342.72 73.7451 343.138C73.2061 343.552 72.4854 343.759 71.583 343.759C70.9971 343.759 70.4502 343.648 69.9424 343.425C69.4346 343.199 69.042 342.89 68.7646 342.5C68.4912 342.109 68.3545 341.666 68.3545 341.169H69.4854C69.4854 341.685 69.6748 342.093 70.0537 342.394C70.4365 342.691 70.9463 342.839 71.583 342.839C72.1768 342.839 72.6318 342.718 72.9482 342.476C73.2646 342.234 73.4229 341.904 73.4229 341.486C73.4229 341.068 73.2764 340.746 72.9834 340.519C72.6904 340.289 72.1592 340.062 71.3896 339.839ZM77.3018 335.767V337.302H78.4854V338.14H77.3018V342.072C77.3018 342.326 77.3545 342.517 77.46 342.646C77.5654 342.771 77.7451 342.833 77.999 342.833C78.124 342.833 78.2959 342.81 78.5146 342.763V343.642C78.2295 343.72 77.9521 343.759 77.6826 343.759C77.1982 343.759 76.833 343.613 76.5869 343.32C76.3408 343.027 76.2178 342.611 76.2178 342.072V338.14H75.0635V337.302H76.2178V335.767H77.3018ZM79.3525 340.414C79.3525 339.792 79.4736 339.234 79.7158 338.738C79.9619 338.242 80.3018 337.859 80.7354 337.589C81.1729 337.32 81.6709 337.185 82.2295 337.185C83.0928 337.185 83.79 337.484 84.3213 338.082C84.8564 338.679 85.124 339.474 85.124 340.466V340.542C85.124 341.16 85.0049 341.714 84.7666 342.207C84.5322 342.695 84.1943 343.076 83.7529 343.349C83.3154 343.623 82.8115 343.759 82.2412 343.759C81.3818 343.759 80.6846 343.46 80.1494 342.863C79.6182 342.265 79.3525 341.474 79.3525 340.49V340.414ZM80.4424 340.542C80.4424 341.246 80.6045 341.81 80.9287 342.236C81.2568 342.662 81.6943 342.875 82.2412 342.875C82.792 342.875 83.2295 342.66 83.5537 342.23C83.8779 341.796 84.04 341.191 84.04 340.414C84.04 339.718 83.874 339.156 83.542 338.726C83.2139 338.292 82.7764 338.076 82.2295 338.076C81.6943 338.076 81.2627 338.289 80.9346 338.714C80.6064 339.14 80.4424 339.75 80.4424 340.542ZM89.5479 338.275C89.3838 338.248 89.2061 338.234 89.0146 338.234C88.3037 338.234 87.8213 338.537 87.5674 339.142V343.642H86.4834V337.302H87.5381L87.5557 338.035C87.9111 337.468 88.415 337.185 89.0674 337.185C89.2783 337.185 89.4385 337.212 89.5479 337.267V338.275ZM93.0635 343.759C92.2041 343.759 91.5049 343.478 90.9658 342.916C90.4268 342.349 90.1572 341.593 90.1572 340.648V340.449C90.1572 339.82 90.2764 339.259 90.5146 338.767C90.7568 338.271 91.0928 337.884 91.5225 337.607C91.9561 337.326 92.4248 337.185 92.9287 337.185C93.7529 337.185 94.3936 337.457 94.8506 338C95.3076 338.542 95.5361 339.32 95.5361 340.332V340.783H91.2412C91.2568 341.408 91.4385 341.914 91.7861 342.3C92.1377 342.683 92.583 342.875 93.1221 342.875C93.5049 342.875 93.8291 342.796 94.0947 342.64C94.3604 342.484 94.5928 342.277 94.792 342.019L95.4541 342.535C94.9229 343.351 94.126 343.759 93.0635 343.759ZM92.9287 338.076C92.4912 338.076 92.124 338.236 91.8271 338.556C91.5303 338.873 91.3467 339.318 91.2764 339.892H94.4521V339.81C94.4209 339.259 94.2725 338.833 94.0068 338.533C93.7412 338.228 93.3818 338.076 92.9287 338.076ZM69.7314 351.302L69.7666 352.099C70.251 351.49 70.8838 351.185 71.665 351.185C73.0049 351.185 73.6807 351.941 73.6924 353.453V357.642H72.6084V353.447C72.6045 352.99 72.499 352.652 72.292 352.433C72.0889 352.214 71.7705 352.105 71.3369 352.105C70.9854 352.105 70.6768 352.199 70.4111 352.386C70.1455 352.574 69.9385 352.82 69.79 353.125V357.642H68.7061V351.302H69.7314ZM79.2412 357.642C79.1787 357.517 79.1279 357.294 79.0889 356.974C78.585 357.498 77.9834 357.759 77.2842 357.759C76.6592 357.759 76.1455 357.583 75.7432 357.232C75.3447 356.876 75.1455 356.427 75.1455 355.884C75.1455 355.224 75.3955 354.712 75.8955 354.349C76.3994 353.982 77.1064 353.798 78.0166 353.798H79.0713V353.3C79.0713 352.921 78.958 352.621 78.7314 352.398C78.5049 352.171 78.1709 352.058 77.7295 352.058C77.3428 352.058 77.0186 352.156 76.7568 352.351C76.4951 352.546 76.3643 352.783 76.3643 353.06H75.2744C75.2744 352.744 75.3857 352.439 75.6084 352.146C75.835 351.849 76.1396 351.615 76.5225 351.443C76.9092 351.271 77.333 351.185 77.7939 351.185C78.5244 351.185 79.0967 351.369 79.5107 351.736C79.9248 352.099 80.1396 352.601 80.1553 353.242V356.16C80.1553 356.742 80.2295 357.205 80.3779 357.548V357.642H79.2412ZM77.4424 356.816C77.7822 356.816 78.1045 356.728 78.4092 356.552C78.7139 356.376 78.9346 356.148 79.0713 355.867V354.566H78.2217C76.8936 354.566 76.2295 354.955 76.2295 355.732C76.2295 356.072 76.3428 356.337 76.5693 356.529C76.7959 356.72 77.0869 356.816 77.4424 356.816ZM82.874 351.302L82.9033 352.005C83.3682 351.458 83.9951 351.185 84.7842 351.185C85.6709 351.185 86.2744 351.525 86.5947 352.205C86.8057 351.9 87.0791 351.654 87.415 351.466C87.7549 351.279 88.1553 351.185 88.6162 351.185C90.0068 351.185 90.7139 351.921 90.7373 353.394V357.642H89.6533V353.458C89.6533 353.005 89.5498 352.667 89.3428 352.445C89.1357 352.218 88.7881 352.105 88.2998 352.105C87.8975 352.105 87.5635 352.226 87.2979 352.468C87.0322 352.707 86.8779 353.029 86.835 353.435V357.642H85.7451V353.488C85.7451 352.566 85.2939 352.105 84.3916 352.105C83.6807 352.105 83.1943 352.408 82.9326 353.013V357.642H81.8486V351.302H82.874ZM95.0088 357.759C94.1494 357.759 93.4502 357.478 92.9111 356.916C92.3721 356.349 92.1025 355.593 92.1025 354.648V354.449C92.1025 353.82 92.2217 353.259 92.46 352.767C92.7021 352.271 93.0381 351.884 93.4678 351.607C93.9014 351.326 94.3701 351.185 94.874 351.185C95.6982 351.185 96.3389 351.457 96.7959 352C97.2529 352.542 97.4814 353.32 97.4814 354.332V354.783H93.1865C93.2021 355.408 93.3838 355.914 93.7314 356.3C94.083 356.683 94.5283 356.875 95.0674 356.875C95.4502 356.875 95.7744 356.796 96.04 356.64C96.3057 356.484 96.5381 356.277 96.7373 356.019L97.3994 356.535C96.8682 357.351 96.0713 357.759 95.0088 357.759ZM94.874 352.076C94.4365 352.076 94.0693 352.236 93.7725 352.556C93.4756 352.873 93.292 353.318 93.2217 353.892H96.3975V353.81C96.3662 353.259 96.2178 352.833 95.9521 352.533C95.6865 352.228 95.3271 352.076 94.874 352.076ZM103.183 352.849H103.997C104.509 352.841 104.911 352.707 105.204 352.445C105.497 352.183 105.644 351.83 105.644 351.384C105.644 350.384 105.146 349.884 104.149 349.884C103.681 349.884 103.306 350.019 103.024 350.289C102.747 350.554 102.608 350.908 102.608 351.349H101.524C101.524 350.673 101.771 350.113 102.263 349.667C102.759 349.218 103.388 348.994 104.149 348.994C104.954 348.994 105.585 349.207 106.042 349.632C106.499 350.058 106.728 350.65 106.728 351.408C106.728 351.779 106.606 352.138 106.364 352.486C106.126 352.833 105.8 353.093 105.386 353.265C105.854 353.414 106.216 353.66 106.47 354.003C106.728 354.347 106.856 354.767 106.856 355.263C106.856 356.029 106.606 356.636 106.106 357.085C105.606 357.535 104.956 357.759 104.155 357.759C103.354 357.759 102.702 357.542 102.198 357.109C101.698 356.675 101.448 356.103 101.448 355.392H102.538C102.538 355.841 102.685 356.201 102.978 356.47C103.271 356.74 103.663 356.875 104.155 356.875C104.679 356.875 105.079 356.738 105.356 356.464C105.634 356.191 105.772 355.798 105.772 355.287C105.772 354.791 105.62 354.41 105.315 354.144C105.011 353.878 104.571 353.742 103.997 353.734H103.183V352.849Z" fill="black"/>
</g>
<g clip-path="url(#clip4_33_736)">
<rect x="173.71" y="336.054" width="7.05494" height="7.06002" rx="1" fill="#DB0E00"/>
<path d="M187.796 339.839C186.832 339.562 186.128 339.222 185.687 338.82C185.25 338.414 185.031 337.914 185.031 337.32C185.031 336.648 185.298 336.093 185.833 335.656C186.373 335.214 187.072 334.994 187.931 334.994C188.517 334.994 189.039 335.107 189.496 335.333C189.957 335.56 190.312 335.873 190.562 336.271C190.816 336.669 190.943 337.105 190.943 337.578H189.812C189.812 337.062 189.648 336.658 189.32 336.365C188.992 336.068 188.529 335.919 187.931 335.919C187.376 335.919 186.943 336.042 186.63 336.289C186.322 336.531 186.167 336.869 186.167 337.302C186.167 337.65 186.314 337.945 186.607 338.187C186.904 338.425 187.406 338.644 188.113 338.843C188.824 339.042 189.378 339.263 189.777 339.505C190.179 339.744 190.476 340.023 190.667 340.343C190.863 340.664 190.96 341.041 190.96 341.474C190.96 342.166 190.691 342.72 190.152 343.138C189.613 343.552 188.892 343.759 187.99 343.759C187.404 343.759 186.857 343.648 186.349 343.425C185.841 343.199 185.449 342.89 185.171 342.5C184.898 342.109 184.761 341.666 184.761 341.169H185.892C185.892 341.685 186.082 342.093 186.46 342.394C186.843 342.691 187.353 342.839 187.99 342.839C188.583 342.839 189.039 342.718 189.355 342.476C189.671 342.234 189.83 341.904 189.83 341.486C189.83 341.068 189.683 340.746 189.39 340.519C189.097 340.289 188.566 340.062 187.796 339.839ZM193.708 335.767V337.302H194.892V338.14H193.708V342.072C193.708 342.326 193.761 342.517 193.867 342.646C193.972 342.771 194.152 342.833 194.406 342.833C194.531 342.833 194.703 342.81 194.921 342.763V343.642C194.636 343.72 194.359 343.759 194.089 343.759C193.605 343.759 193.24 343.613 192.994 343.32C192.748 343.027 192.625 342.611 192.625 342.072V338.14H191.47V337.302H192.625V335.767H193.708ZM195.759 340.414C195.759 339.792 195.88 339.234 196.123 338.738C196.369 338.242 196.708 337.859 197.142 337.589C197.58 337.32 198.078 337.185 198.636 337.185C199.5 337.185 200.197 337.484 200.728 338.082C201.263 338.679 201.531 339.474 201.531 340.466V340.542C201.531 341.16 201.412 341.714 201.173 342.207C200.939 342.695 200.601 343.076 200.16 343.349C199.722 343.623 199.218 343.759 198.648 343.759C197.789 343.759 197.091 343.46 196.556 342.863C196.025 342.265 195.759 341.474 195.759 340.49V340.414ZM196.849 340.542C196.849 341.246 197.011 341.81 197.335 342.236C197.664 342.662 198.101 342.875 198.648 342.875C199.199 342.875 199.636 342.66 199.96 342.23C200.285 341.796 200.447 341.191 200.447 340.414C200.447 339.718 200.281 339.156 199.949 338.726C199.621 338.292 199.183 338.076 198.636 338.076C198.101 338.076 197.669 338.289 197.341 338.714C197.013 339.14 196.849 339.75 196.849 340.542ZM205.955 338.275C205.791 338.248 205.613 338.234 205.421 338.234C204.71 338.234 204.228 338.537 203.974 339.142V343.642H202.89V337.302H203.945L203.962 338.035C204.318 337.468 204.822 337.185 205.474 337.185C205.685 337.185 205.845 337.212 205.955 337.267V338.275ZM209.47 343.759C208.611 343.759 207.912 343.478 207.373 342.916C206.833 342.349 206.564 341.593 206.564 340.648V340.449C206.564 339.82 206.683 339.259 206.921 338.767C207.164 338.271 207.5 337.884 207.929 337.607C208.363 337.326 208.832 337.185 209.335 337.185C210.16 337.185 210.8 337.457 211.257 338C211.714 338.542 211.943 339.32 211.943 340.332V340.783H207.648C207.664 341.408 207.845 341.914 208.193 342.3C208.544 342.683 208.99 342.875 209.529 342.875C209.912 342.875 210.236 342.796 210.501 342.64C210.767 342.484 211 342.277 211.199 342.019L211.861 342.535C211.33 343.351 210.533 343.759 209.47 343.759ZM209.335 338.076C208.898 338.076 208.531 338.236 208.234 338.556C207.937 338.873 207.753 339.318 207.683 339.892H210.859V339.81C210.828 339.259 210.679 338.833 210.414 338.533C210.148 338.228 209.789 338.076 209.335 338.076ZM186.138 351.302L186.173 352.099C186.658 351.49 187.291 351.185 188.072 351.185C189.412 351.185 190.087 351.941 190.099 353.453V357.642H189.015V353.447C189.011 352.99 188.906 352.652 188.699 352.433C188.496 352.214 188.177 352.105 187.744 352.105C187.392 352.105 187.083 352.199 186.818 352.386C186.552 352.574 186.345 352.82 186.197 353.125V357.642H185.113V351.302H186.138ZM195.648 357.642C195.585 357.517 195.535 357.294 195.496 356.974C194.992 357.498 194.39 357.759 193.691 357.759C193.066 357.759 192.552 357.583 192.15 357.232C191.751 356.876 191.552 356.427 191.552 355.884C191.552 355.224 191.802 354.712 192.302 354.349C192.806 353.982 193.513 353.798 194.423 353.798H195.478V353.3C195.478 352.921 195.365 352.621 195.138 352.398C194.912 352.171 194.578 352.058 194.136 352.058C193.75 352.058 193.425 352.156 193.164 352.351C192.902 352.546 192.771 352.783 192.771 353.06H191.681C191.681 352.744 191.792 352.439 192.015 352.146C192.242 351.849 192.546 351.615 192.929 351.443C193.316 351.271 193.74 351.185 194.201 351.185C194.931 351.185 195.503 351.369 195.917 351.736C196.332 352.099 196.546 352.601 196.562 353.242V356.16C196.562 356.742 196.636 357.205 196.785 357.548V357.642H195.648ZM193.849 356.816C194.189 356.816 194.511 356.728 194.816 356.552C195.121 356.376 195.341 356.148 195.478 355.867V354.566H194.628C193.3 354.566 192.636 354.955 192.636 355.732C192.636 356.072 192.75 356.337 192.976 356.529C193.203 356.72 193.494 356.816 193.849 356.816ZM199.281 351.302L199.31 352.005C199.775 351.458 200.402 351.185 201.191 351.185C202.078 351.185 202.681 351.525 203.001 352.205C203.212 351.9 203.486 351.654 203.822 351.466C204.162 351.279 204.562 351.185 205.023 351.185C206.414 351.185 207.121 351.921 207.144 353.394V357.642H206.06V353.458C206.06 353.005 205.957 352.667 205.75 352.445C205.542 352.218 205.195 352.105 204.707 352.105C204.304 352.105 203.97 352.226 203.705 352.468C203.439 352.707 203.285 353.029 203.242 353.435V357.642H202.152V353.488C202.152 352.566 201.701 352.105 200.798 352.105C200.087 352.105 199.601 352.408 199.339 353.013V357.642H198.255V351.302H199.281ZM211.416 357.759C210.556 357.759 209.857 357.478 209.318 356.916C208.779 356.349 208.509 355.593 208.509 354.648V354.449C208.509 353.82 208.628 353.259 208.867 352.767C209.109 352.271 209.445 351.884 209.875 351.607C210.308 351.326 210.777 351.185 211.281 351.185C212.105 351.185 212.746 351.457 213.203 352C213.66 352.542 213.888 353.32 213.888 354.332V354.783H209.593C209.609 355.408 209.791 355.914 210.138 356.3C210.49 356.683 210.935 356.875 211.474 356.875C211.857 356.875 212.181 356.796 212.447 356.64C212.712 356.484 212.945 356.277 213.144 356.019L213.806 356.535C213.275 357.351 212.478 357.759 211.416 357.759ZM211.281 352.076C210.843 352.076 210.476 352.236 210.179 352.556C209.882 352.873 209.699 353.318 209.628 353.892H212.804V353.81C212.773 353.259 212.625 352.833 212.359 352.533C212.093 352.228 211.734 352.076 211.281 352.076ZM222.589 354.777H223.773V355.662H222.589V357.642H221.5V355.662H217.615V355.023L221.435 349.111H222.589V354.777ZM218.845 354.777H221.5V350.593L221.371 350.828L218.845 354.777Z" fill="black"/>
</g>
<g clip-path="url(#clip5_33_736)">
<path d="M42.9613 95.4277V96.6055H42.7855C41.9886 96.6172 41.3519 96.8359 40.8753 97.2617C40.3988 97.6875 40.1156 98.291 40.0257 99.0723C40.4828 98.5918 41.0667 98.3516 41.7777 98.3516C42.5316 98.3516 43.1253 98.6172 43.5589 99.1484C43.9964 99.6797 44.2152 100.365 44.2152 101.205C44.2152 102.072 43.9593 102.775 43.4476 103.314C42.9398 103.85 42.2718 104.117 41.4437 104.117C40.5921 104.117 39.9007 103.803 39.3695 103.174C38.8421 102.545 38.5785 101.721 38.5785 100.701V100.215C38.5785 98.7188 38.9417 97.5469 39.6683 96.6992C40.3988 95.8516 41.4476 95.4277 42.8148 95.4277H42.9613ZM41.432 99.5C41.1195 99.5 40.8324 99.5879 40.5706 99.7637C40.3128 99.9395 40.1234 100.174 40.0023 100.467V100.9C40.0023 101.533 40.1351 102.037 40.4007 102.412C40.6664 102.783 41.0101 102.969 41.432 102.969C41.8539 102.969 42.1878 102.811 42.4339 102.494C42.68 102.178 42.8031 101.762 42.8031 101.246C42.8031 100.73 42.6781 100.311 42.4281 99.9863C42.1781 99.6621 41.846 99.5 41.432 99.5Z" fill="#8087A3"/>
<path opacity="0.6" d="M40.0261 72.4688L42.487 79.0078L44.9421 72.4688H46.8581V81H45.3816V78.1875L45.528 74.4258L43.0085 81H41.948L39.4343 74.4316L39.5808 78.1875V81H38.1042V72.4688H40.0261ZM48.2116 77.7715C48.2116 77.1504 48.3347 76.5918 48.5808 76.0957C48.8269 75.5957 49.1726 75.2129 49.6179 74.9473C50.0632 74.6777 50.5749 74.543 51.153 74.543C52.0085 74.543 52.7019 74.8184 53.2331 75.3691C53.7683 75.9199 54.0573 76.6504 54.1003 77.5605L54.1062 77.8945C54.1062 78.5195 53.9851 79.0781 53.7429 79.5703C53.5046 80.0625 53.1609 80.4434 52.7116 80.7129C52.2663 80.9824 51.7507 81.1172 51.1648 81.1172C50.2702 81.1172 49.5534 80.8203 49.0144 80.2266C48.4792 79.6289 48.2116 78.834 48.2116 77.8418V77.7715ZM49.6355 77.8945C49.6355 78.5469 49.7702 79.0586 50.0398 79.4297C50.3093 79.7969 50.6843 79.9805 51.1648 79.9805C51.6452 79.9805 52.0183 79.793 52.2839 79.418C52.5534 79.043 52.6882 78.4941 52.6882 77.7715C52.6882 77.1309 52.5495 76.623 52.2722 76.248C51.9988 75.873 51.6257 75.6855 51.153 75.6855C50.6882 75.6855 50.3191 75.8711 50.0456 76.2422C49.7722 76.6094 49.6355 77.1602 49.6355 77.8945ZM56.6316 74.6602L56.6726 75.3926C57.1413 74.8262 57.7566 74.543 58.5183 74.543C59.8386 74.543 60.5105 75.2988 60.5339 76.8105V81H59.1101V76.8926C59.1101 76.4902 59.0222 76.1934 58.8464 76.002C58.6745 75.8066 58.3913 75.709 57.9968 75.709C57.4226 75.709 56.9948 75.9688 56.7136 76.4883V81H55.2898V74.6602H56.6316ZM63.7741 73.1191V74.6602H64.8933V75.7148H63.7741V79.2539C63.7741 79.4961 63.821 79.6719 63.9148 79.7812C64.0124 79.8867 64.1843 79.9395 64.4304 79.9395C64.5945 79.9395 64.7605 79.9199 64.9284 79.8809V80.9824C64.6042 81.0723 64.2917 81.1172 63.9909 81.1172C62.8972 81.1172 62.3503 80.5137 62.3503 79.3066V75.7148H61.3073V74.6602H62.3503V73.1191H63.7741ZM67.3894 75.3516C67.8542 74.8125 68.4421 74.543 69.153 74.543C70.5046 74.543 71.1902 75.3145 71.2097 76.8574V81H69.7859V76.9102C69.7859 76.4727 69.6902 76.1641 69.4988 75.9844C69.3113 75.8008 69.0339 75.709 68.6667 75.709C68.0964 75.709 67.6706 75.9629 67.3894 76.4707V81H65.9655V72H67.3894V75.3516Z" fill="black"/>
<path d="M38.9124 132.278L39.3753 127.977H43.9574V129.208H40.5589L40.3246 131.247C40.7191 131.02 41.1644 130.907 41.6605 130.907C42.473 130.907 43.1039 131.167 43.5531 131.686C44.0062 132.206 44.2328 132.905 44.2328 133.784C44.2328 134.651 43.9828 135.343 43.4828 135.858C42.9828 136.37 42.2972 136.626 41.4261 136.626C40.6449 136.626 39.9964 136.405 39.4808 135.964C38.9691 135.518 38.6917 134.932 38.6488 134.206H40.0257C40.0804 134.62 40.2289 134.938 40.471 135.161C40.7132 135.38 41.0296 135.489 41.4203 135.489C41.8578 135.489 42.1976 135.333 42.4398 135.02C42.6859 134.708 42.8089 134.282 42.8089 133.743C42.8089 133.223 42.6742 132.813 42.4046 132.512C42.1351 132.208 41.764 132.055 41.2914 132.055C41.0335 132.055 40.8148 132.091 40.6351 132.161C40.4554 132.227 40.2601 132.36 40.0492 132.559L38.9124 132.278Z" fill="#8087A3"/>
<path d="M43.8197 166.468H44.8802V167.61H43.8197V169.509H42.3958V167.61H38.7103L38.6693 166.743L42.349 160.977H43.8197V166.468ZM40.1634 166.468H42.3958V162.905L42.2904 163.093L40.1634 166.468Z" fill="#8087A3"/>
<path d="M39.6497 196.593H40.5169C40.9544 196.589 41.3001 196.475 41.554 196.253C41.8119 196.03 41.9408 195.708 41.9408 195.286C41.9408 194.88 41.8333 194.565 41.6185 194.343C41.4076 194.116 41.0833 194.003 40.6458 194.003C40.263 194.003 39.9486 194.114 39.7025 194.337C39.4564 194.555 39.3333 194.843 39.3333 195.198H37.9095C37.9095 194.76 38.0247 194.362 38.2552 194.003C38.4896 193.643 38.8138 193.364 39.2279 193.165C39.6458 192.962 40.1126 192.86 40.6283 192.86C41.4798 192.86 42.1478 193.075 42.6322 193.505C43.1205 193.93 43.3646 194.524 43.3646 195.286C43.3646 195.669 43.2415 196.03 42.9955 196.37C42.7533 196.706 42.4388 196.96 42.0521 197.132C42.5208 197.292 42.8763 197.544 43.1185 197.887C43.3646 198.231 43.4876 198.641 43.4876 199.118C43.4876 199.884 43.224 200.493 42.6966 200.946C42.1732 201.399 41.4837 201.626 40.6283 201.626C39.808 201.626 39.1361 201.407 38.6126 200.969C38.0892 200.532 37.8275 199.95 37.8275 199.223H39.2513C39.2513 199.598 39.3763 199.903 39.6263 200.137C39.8802 200.372 40.2201 200.489 40.6458 200.489C41.0872 200.489 41.4349 200.372 41.6888 200.137C41.9427 199.903 42.0697 199.563 42.0697 199.118C42.0697 198.669 41.9369 198.323 41.6712 198.081C41.4056 197.839 41.0111 197.718 40.4876 197.718H39.6497V196.593Z" fill="#8087A3"/>
<path d="M43.5547 233.509H37.8184V232.53L40.6602 229.43C41.0703 228.973 41.3613 228.593 41.5332 228.288C41.709 227.979 41.7969 227.671 41.7969 227.362C41.7969 226.956 41.6816 226.628 41.4512 226.378C41.2246 226.128 40.918 226.003 40.5312 226.003C40.0703 226.003 39.7129 226.143 39.459 226.425C39.2051 226.706 39.0781 227.091 39.0781 227.579H37.6543C37.6543 227.059 37.7715 226.593 38.0059 226.178C38.2441 225.76 38.582 225.436 39.0195 225.206C39.4609 224.975 39.9688 224.86 40.543 224.86C41.3711 224.86 42.0234 225.069 42.5 225.487C42.9805 225.901 43.2207 226.475 43.2207 227.21C43.2207 227.635 43.0996 228.083 42.8574 228.552C42.6191 229.016 42.2266 229.546 41.6797 230.139L39.5938 232.372H43.5547V233.509Z" fill="#8087A3"/>
</g>
<rect x="55.8923" y="89.6599" width="16.9319" height="2.82399" rx="1.41199" fill="#0C213A"/>
<rect x="55.8923" y="95.3079" width="111.468" height="2.824" rx="1.412" fill="#F8B849"/>
<rect x="55.8923" y="100.956" width="120.64" height="2.82397" rx="1.41199" fill="#DB0E00"/>
<rect x="55.8923" y="106.604" width="96.6527" height="2.82398" rx="1.41199" fill="#00A560"/>
<rect x="55.8923" y="122.136" width="141.099" height="2.824" rx="1.412" fill="#0C213A"/>
<rect x="55.8923" y="127.784" width="72.6659" height="2.82401" rx="1.41201" fill="#F8B849"/>
<rect x="55.8923" y="133.432" width="14.8154" height="2.82398" rx="1.41199" fill="#DB0E00"/>
<rect x="55.8923" y="139.08" width="44.4462" height="2.824" rx="1.412" fill="#00A560"/>
<rect x="55.8923" y="154.612" width="78.3099" height="2.82402" rx="1.41201" fill="#0C213A"/>
<rect x="55.8923" y="160.26" width="110.057" height="2.82402" rx="1.41201" fill="#F8B849"/>
<rect x="55.8923" y="165.908" width="119.229" height="2.82404" rx="1.41202" fill="#DB0E00"/>
<rect x="55.8923" y="171.556" width="81.8374" height="2.82401" rx="1.412" fill="#00A560"/>
<rect x="55.8923" y="187.088" width="134.044" height="2.82401" rx="1.412" fill="#0C213A"/>
<rect x="55.8923" y="192.736" width="88.8923" height="2.82402" rx="1.41201" fill="#F8B849"/>
<rect x="55.8923" y="198.384" width="14.8154" height="2.82401" rx="1.412" fill="#DB0E00"/>
<rect x="55.8923" y="204.032" width="123.462" height="2.82399" rx="1.41199" fill="#00A560"/>
<rect x="55.8923" y="219.564" width="66.3165" height="2.82397" rx="1.41199" fill="#0C213A"/>
<rect x="55.8923" y="225.212" width="28.2198" height="2.82404" rx="1.41202" fill="#F8B849"/>
<rect x="55.8923" y="230.86" width="97.3583" height="2.82404" rx="1.41202" fill="#DB0E00"/>
<rect x="55.8923" y="236.508" width="138.982" height="2.82401" rx="1.412" fill="#00A560"/>
<rect x="55.8923" y="252.04" width="100.886" height="2.82404" rx="1.41202" fill="#0C213A"/>
<rect x="55.8923" y="257.688" width="170.024" height="2.82397" rx="1.41199" fill="#F8B849"/>
<rect x="55.8923" y="263.336" width="91.7143" height="2.82401" rx="1.412" fill="#DB0E00"/>
<rect x="55.8923" y="268.984" width="76.1934" height="2.82404" rx="1.41202" fill="#00A560"/>
<g clip-path="url(#clip6_33_736)">
<path opacity="0.6" d="M57.0496 286.598L57.5125 282.297H62.0945V283.528H58.696L58.4617 285.567C58.8562 285.34 59.3015 285.227 59.7976 285.227C60.6101 285.227 61.241 285.487 61.6902 286.006C62.1433 286.526 62.3699 287.225 62.3699 288.104C62.3699 288.971 62.1199 289.662 61.6199 290.178C61.1199 290.69 60.4343 290.946 59.5632 290.946C58.782 290.946 58.1335 290.725 57.6179 290.283C57.1062 289.838 56.8289 289.252 56.7859 288.526H58.1628C58.2175 288.94 58.366 289.258 58.6082 289.481C58.8503 289.699 59.1667 289.809 59.5574 289.809C59.9949 289.809 60.3347 289.653 60.5769 289.34C60.823 289.028 60.946 288.602 60.946 288.063C60.946 287.543 60.8113 287.133 60.5417 286.832C60.2722 286.528 59.9011 286.375 59.4285 286.375C59.1707 286.375 58.9519 286.41 58.7722 286.481C58.5925 286.547 58.3972 286.68 58.1863 286.879L57.0496 286.598ZM69.0496 287.237C69.0496 288.463 68.8191 289.389 68.3582 290.014C67.9011 290.635 67.2039 290.946 66.2664 290.946C65.3445 290.946 64.6492 290.643 64.1804 290.037C63.7156 289.428 63.4773 288.528 63.4656 287.336V285.86C63.4656 284.633 63.6941 283.713 64.1511 283.1C64.6121 282.487 65.3132 282.18 66.2546 282.18C67.1882 282.18 67.8835 282.479 68.3406 283.076C68.8015 283.674 69.0378 284.569 69.0496 285.76V287.237ZM67.6257 285.643C67.6257 284.842 67.5164 284.256 67.2976 283.885C67.0789 283.51 66.7312 283.323 66.2546 283.323C65.7898 283.323 65.448 283.5 65.2292 283.856C65.0105 284.207 64.8953 284.758 64.8835 285.508V287.442C64.8835 288.239 64.9949 288.832 65.2175 289.223C65.4402 289.614 65.7898 289.809 66.2664 289.809C66.7234 289.809 67.0613 289.629 67.28 289.27C67.4988 288.906 67.614 288.34 67.6257 287.571V285.643Z" fill="black"/>
<path opacity="0.6" d="M94.3958 290.828H92.9778V283.979L90.886 284.694V283.492L94.2141 282.268H94.3958V290.828ZM102.921 287.237C102.921 288.463 102.691 289.389 102.23 290.014C101.773 290.635 101.075 290.946 100.138 290.946C99.2161 290.946 98.5208 290.643 98.052 290.037C97.5872 289.428 97.3489 288.528 97.3372 287.336V285.86C97.3372 284.633 97.5657 283.713 98.0227 283.1C98.4836 282.487 99.1848 282.18 100.126 282.18C101.06 282.18 101.755 282.479 102.212 283.076C102.673 283.674 102.909 284.569 102.921 285.76V287.237ZM101.497 285.643C101.497 284.842 101.388 284.256 101.169 283.885C100.95 283.51 100.603 283.323 100.126 283.323C99.6614 283.323 99.3196 283.5 99.1008 283.856C98.8821 284.207 98.7668 284.758 98.7551 285.508V287.442C98.7551 288.239 98.8665 288.832 99.0891 289.223C99.3118 289.614 99.6614 289.809 100.138 289.809C100.595 289.809 100.933 289.629 101.152 289.27C101.37 288.906 101.486 288.34 101.497 287.571V285.643ZM109.741 287.237C109.741 288.463 109.511 289.389 109.05 290.014C108.593 290.635 107.896 290.946 106.958 290.946C106.036 290.946 105.341 290.643 104.872 290.037C104.407 289.428 104.169 288.528 104.157 287.336V285.86C104.157 284.633 104.386 283.713 104.843 283.1C105.304 282.487 106.005 282.18 106.947 282.18C107.88 282.18 108.575 282.479 109.032 283.076C109.493 283.674 109.73 284.569 109.741 285.76V287.237ZM108.318 285.643C108.318 284.842 108.208 284.256 107.99 283.885C107.771 283.51 107.423 283.323 106.947 283.323C106.482 283.323 106.14 283.5 105.921 283.856C105.702 284.207 105.587 284.758 105.575 285.508V287.442C105.575 288.239 105.687 288.832 105.909 289.223C106.132 289.614 106.482 289.809 106.958 289.809C107.415 289.809 107.753 289.629 107.972 289.27C108.191 288.906 108.306 288.34 108.318 287.571V285.643Z" fill="black"/>
<path opacity="0.6" d="M134.426 290.828H133.008V283.979L130.916 284.694V283.492L134.244 282.268H134.426V290.828ZM137.772 286.598L138.235 282.297H142.817V283.528H139.418L139.184 285.567C139.578 285.34 140.024 285.227 140.52 285.227C141.332 285.227 141.963 285.487 142.412 286.006C142.865 286.526 143.092 287.225 143.092 288.104C143.092 288.971 142.842 289.662 142.342 290.178C141.842 290.69 141.156 290.946 140.285 290.946C139.504 290.946 138.856 290.725 138.34 290.283C137.828 289.838 137.551 289.252 137.508 288.526H138.885C138.94 288.94 139.088 289.258 139.33 289.481C139.573 289.699 139.889 289.809 140.28 289.809C140.717 289.809 141.057 289.653 141.299 289.34C141.545 289.028 141.668 288.602 141.668 288.063C141.668 287.543 141.533 287.133 141.264 286.832C140.994 286.528 140.623 286.375 140.151 286.375C139.893 286.375 139.674 286.41 139.494 286.481C139.315 286.547 139.119 286.68 138.908 286.879L137.772 286.598ZM149.772 287.237C149.772 288.463 149.541 289.389 149.08 290.014C148.623 290.635 147.926 290.946 146.989 290.946C146.067 290.946 145.371 290.643 144.903 290.037C144.438 289.428 144.199 288.528 144.188 287.336V285.86C144.188 284.633 144.416 283.713 144.873 283.1C145.334 282.487 146.035 282.18 146.977 282.18C147.91 282.18 148.606 282.479 149.063 283.076C149.524 283.674 149.76 284.569 149.772 285.76V287.237ZM148.348 285.643C148.348 284.842 148.239 284.256 148.02 283.885C147.801 283.51 147.453 283.323 146.977 283.323C146.512 283.323 146.17 283.5 145.951 283.856C145.733 284.207 145.617 284.758 145.606 285.508V287.442C145.606 288.239 145.717 288.832 145.94 289.223C146.162 289.614 146.512 289.809 146.989 289.809C147.446 289.809 147.783 289.629 148.002 289.27C148.221 288.906 148.336 288.34 148.348 287.571V285.643Z" fill="black"/>
<path opacity="0.6" d="M175.311 290.828H169.574V289.85L172.416 286.75C172.826 286.293 173.117 285.912 173.289 285.608C173.465 285.299 173.553 284.99 173.553 284.682C173.553 284.276 173.438 283.948 173.207 283.698C172.981 283.448 172.674 283.323 172.287 283.323C171.826 283.323 171.469 283.463 171.215 283.744C170.961 284.026 170.834 284.41 170.834 284.899H169.41C169.41 284.379 169.528 283.912 169.762 283.498C170 283.08 170.338 282.756 170.776 282.526C171.217 282.295 171.725 282.18 172.299 282.18C173.127 282.18 173.78 282.389 174.256 282.807C174.737 283.221 174.977 283.795 174.977 284.53C174.977 284.955 174.856 285.403 174.614 285.871C174.375 286.336 173.983 286.865 173.436 287.459L171.35 289.692H175.311V290.828ZM181.955 287.237C181.955 288.463 181.725 289.389 181.264 290.014C180.807 290.635 180.11 290.946 179.172 290.946C178.25 290.946 177.555 290.643 177.086 290.037C176.621 289.428 176.383 288.528 176.371 287.336V285.86C176.371 284.633 176.6 283.713 177.057 283.1C177.518 282.487 178.219 282.18 179.16 282.18C180.094 282.18 180.789 282.479 181.246 283.076C181.707 283.674 181.944 284.569 181.955 285.76V287.237ZM180.531 285.643C180.531 284.842 180.422 284.256 180.203 283.885C179.985 283.51 179.637 283.323 179.16 283.323C178.696 283.323 178.354 283.5 178.135 283.856C177.916 284.207 177.801 284.758 177.789 285.508V287.442C177.789 288.239 177.901 288.832 178.123 289.223C178.346 289.614 178.696 289.809 179.172 289.809C179.629 289.809 179.967 289.629 180.186 289.27C180.405 288.906 180.52 288.34 180.531 287.571V285.643ZM188.776 287.237C188.776 288.463 188.545 289.389 188.084 290.014C187.627 290.635 186.93 290.946 185.992 290.946C185.071 290.946 184.375 290.643 183.906 290.037C183.442 289.428 183.203 288.528 183.192 287.336V285.86C183.192 284.633 183.42 283.713 183.877 283.1C184.338 282.487 185.039 282.18 185.981 282.18C186.914 282.18 187.61 282.479 188.067 283.076C188.528 283.674 188.764 284.569 188.776 285.76V287.237ZM187.352 285.643C187.352 284.842 187.242 284.256 187.024 283.885C186.805 283.51 186.457 283.323 185.981 283.323C185.516 283.323 185.174 283.5 184.955 283.856C184.737 284.207 184.621 284.758 184.61 285.508V287.442C184.61 288.239 184.721 288.832 184.944 289.223C185.166 289.614 185.516 289.809 185.992 289.809C186.449 289.809 186.787 289.629 187.006 289.27C187.225 288.906 187.34 288.34 187.352 287.571V285.643Z" fill="black"/>
<path opacity="0.6" d="M214.314 290.828H208.578V289.85L211.42 286.75C211.83 286.293 212.121 285.912 212.293 285.608C212.469 285.299 212.557 284.99 212.557 284.682C212.557 284.276 212.441 283.948 212.211 283.698C211.984 283.448 211.678 283.323 211.291 283.323C210.83 283.323 210.473 283.463 210.219 283.744C209.965 284.026 209.838 284.41 209.838 284.899H208.414C208.414 284.379 208.531 283.912 208.766 283.498C209.004 283.08 209.342 282.756 209.779 282.526C210.221 282.295 210.729 282.18 211.303 282.18C212.131 282.18 212.783 282.389 213.26 282.807C213.74 283.221 213.98 283.795 213.98 284.53C213.98 284.955 213.859 285.403 213.617 285.871C213.379 286.336 212.986 286.865 212.439 287.459L210.354 289.692H214.314V290.828ZM215.779 286.598L216.242 282.297H220.824V283.528H217.426L217.191 285.567C217.586 285.34 218.031 285.227 218.527 285.227C219.34 285.227 219.971 285.487 220.42 286.006C220.873 286.526 221.1 287.225 221.1 288.104C221.1 288.971 220.85 289.662 220.35 290.178C219.85 290.69 219.164 290.946 218.293 290.946C217.512 290.946 216.863 290.725 216.348 290.283C215.836 289.838 215.559 289.252 215.516 288.526H216.893C216.947 288.94 217.096 289.258 217.338 289.481C217.58 289.699 217.896 289.809 218.287 289.809C218.725 289.809 219.064 289.653 219.307 289.34C219.553 289.028 219.676 288.602 219.676 288.063C219.676 287.543 219.541 287.133 219.271 286.832C219.002 286.528 218.631 286.375 218.158 286.375C217.9 286.375 217.682 286.41 217.502 286.481C217.322 286.547 217.127 286.68 216.916 286.879L215.779 286.598ZM227.779 287.237C227.779 288.463 227.549 289.389 227.088 290.014C226.631 290.635 225.934 290.946 224.996 290.946C224.074 290.946 223.379 290.643 222.91 290.037C222.445 289.428 222.207 288.528 222.195 287.336V285.86C222.195 284.633 222.424 283.713 222.881 283.1C223.342 282.487 224.043 282.18 224.984 282.18C225.918 282.18 226.613 282.479 227.07 283.076C227.531 283.674 227.768 284.569 227.779 285.76V287.237ZM226.355 285.643C226.355 284.842 226.246 284.256 226.027 283.885C225.809 283.51 225.461 283.323 224.984 283.323C224.52 283.323 224.178 283.5 223.959 283.856C223.74 284.207 223.625 284.758 223.613 285.508V287.442C223.613 288.239 223.725 288.832 223.947 289.223C224.17 289.614 224.52 289.809 224.996 289.809C225.453 289.809 225.791 289.629 226.01 289.27C226.229 288.906 226.344 288.34 226.355 287.571V285.643Z" fill="black"/>
<path opacity="0.6" d="M249.229 285.912H250.096C250.533 285.908 250.879 285.795 251.133 285.573C251.391 285.35 251.52 285.028 251.52 284.606C251.52 284.199 251.412 283.885 251.197 283.662C250.986 283.436 250.662 283.323 250.225 283.323C249.842 283.323 249.527 283.434 249.281 283.656C249.035 283.875 248.912 284.162 248.912 284.518H247.488C247.488 284.08 247.604 283.682 247.834 283.323C248.068 282.963 248.393 282.684 248.807 282.485C249.225 282.281 249.691 282.18 250.207 282.18C251.059 282.18 251.727 282.395 252.211 282.824C252.699 283.25 252.943 283.844 252.943 284.606C252.943 284.989 252.82 285.35 252.574 285.69C252.332 286.026 252.018 286.28 251.631 286.451C252.1 286.612 252.455 286.864 252.697 287.207C252.943 287.551 253.066 287.961 253.066 288.438C253.066 289.203 252.803 289.813 252.275 290.266C251.752 290.719 251.062 290.946 250.207 290.946C249.387 290.946 248.715 290.727 248.191 290.289C247.668 289.852 247.406 289.27 247.406 288.543H248.83C248.83 288.918 248.955 289.223 249.205 289.457C249.459 289.692 249.799 289.809 250.225 289.809C250.666 289.809 251.014 289.692 251.268 289.457C251.521 289.223 251.648 288.883 251.648 288.438C251.648 287.989 251.516 287.643 251.25 287.401C250.984 287.158 250.59 287.037 250.066 287.037H249.229V285.912ZM259.963 287.237C259.963 288.463 259.732 289.389 259.271 290.014C258.814 290.635 258.117 290.946 257.18 290.946C256.258 290.946 255.562 290.643 255.094 290.037C254.629 289.428 254.391 288.528 254.379 287.336V285.86C254.379 284.633 254.607 283.713 255.064 283.1C255.525 282.487 256.227 282.18 257.168 282.18C258.102 282.18 258.797 282.479 259.254 283.076C259.715 283.674 259.951 284.569 259.963 285.76V287.237ZM258.539 285.643C258.539 284.842 258.43 284.256 258.211 283.885C257.992 283.51 257.645 283.323 257.168 283.323C256.703 283.323 256.361 283.5 256.143 283.856C255.924 284.207 255.809 284.758 255.797 285.508V287.442C255.797 288.239 255.908 288.832 256.131 289.223C256.354 289.614 256.703 289.809 257.18 289.809C257.637 289.809 257.975 289.629 258.193 289.27C258.412 288.906 258.527 288.34 258.539 287.571V285.643ZM266.783 287.237C266.783 288.463 266.553 289.389 266.092 290.014C265.635 290.635 264.938 290.946 264 290.946C263.078 290.946 262.383 290.643 261.914 290.037C261.449 289.428 261.211 288.528 261.199 287.336V285.86C261.199 284.633 261.428 283.713 261.885 283.1C262.346 282.487 263.047 282.18 263.988 282.18C264.922 282.18 265.617 282.479 266.074 283.076C266.535 283.674 266.771 284.569 266.783 285.76V287.237ZM265.359 285.643C265.359 284.842 265.25 284.256 265.031 283.885C264.812 283.51 264.465 283.323 263.988 283.323C263.523 283.323 263.182 283.5 262.963 283.856C262.744 284.207 262.629 284.758 262.617 285.508V287.442C262.617 288.239 262.729 288.832 262.951 289.223C263.174 289.614 263.523 289.809 264 289.809C264.457 289.809 264.795 289.629 265.014 289.27C265.232 288.906 265.348 288.34 265.359 287.571V285.643Z" fill="black"/>
<path opacity="0.6" d="M233.078 307.828H231.596L227.793 301.776V307.828H226.311V299.297H227.793L231.607 305.373V299.297H233.078V307.828ZM238.533 307.207C238.115 307.699 237.521 307.946 236.752 307.946C236.064 307.946 235.543 307.744 235.187 307.342C234.836 306.94 234.66 306.358 234.66 305.596V301.489H236.084V305.578C236.084 306.383 236.418 306.785 237.086 306.785C237.777 306.785 238.244 306.537 238.486 306.041V301.489H239.91V307.828H238.568L238.533 307.207ZM242.699 301.489L242.74 302.151C243.186 301.631 243.795 301.371 244.568 301.371C245.416 301.371 245.996 301.696 246.309 302.344C246.77 301.696 247.418 301.371 248.254 301.371C248.953 301.371 249.473 301.565 249.812 301.951C250.156 302.338 250.332 302.908 250.34 303.662V307.828H248.916V303.703C248.916 303.301 248.828 303.006 248.652 302.819C248.477 302.631 248.186 302.537 247.779 302.537C247.455 302.537 247.189 302.625 246.982 302.801C246.779 302.973 246.637 303.199 246.555 303.481L246.561 307.828H245.137V303.656C245.117 302.91 244.736 302.537 243.994 302.537C243.424 302.537 243.02 302.77 242.781 303.235V307.828H241.357V301.489H242.699ZM257.365 304.723C257.365 305.707 257.145 306.49 256.703 307.073C256.266 307.655 255.662 307.946 254.893 307.946C254.15 307.946 253.572 307.678 253.158 307.143L253.088 307.828H251.799V298.828H253.223V302.098C253.633 301.614 254.186 301.371 254.881 301.371C255.654 301.371 256.262 301.658 256.703 302.233C257.145 302.807 257.365 303.61 257.365 304.641V304.723ZM255.941 304.6C255.941 303.912 255.82 303.397 255.578 303.053C255.336 302.709 254.984 302.537 254.523 302.537C253.906 302.537 253.473 302.807 253.223 303.346V305.959C253.477 306.51 253.914 306.785 254.535 306.785C254.98 306.785 255.324 306.619 255.566 306.287C255.809 305.955 255.934 305.453 255.941 304.781V304.6ZM261.355 307.946C260.453 307.946 259.721 307.662 259.158 307.096C258.6 306.526 258.32 305.768 258.32 304.823V304.647C258.32 304.014 258.441 303.449 258.684 302.953C258.93 302.453 259.273 302.065 259.715 301.787C260.156 301.51 260.648 301.371 261.191 301.371C262.055 301.371 262.721 301.647 263.189 302.198C263.662 302.748 263.898 303.528 263.898 304.535V305.11H259.756C259.799 305.633 259.973 306.047 260.277 306.352C260.586 306.656 260.973 306.809 261.437 306.809C262.09 306.809 262.621 306.545 263.031 306.018L263.799 306.75C263.545 307.129 263.205 307.424 262.779 307.635C262.357 307.842 261.883 307.946 261.355 307.946ZM261.186 302.514C260.795 302.514 260.479 302.651 260.236 302.924C259.998 303.198 259.846 303.578 259.779 304.067H262.492V303.961C262.461 303.485 262.334 303.125 262.111 302.883C261.889 302.637 261.58 302.514 261.186 302.514ZM268.328 302.789C268.141 302.758 267.947 302.742 267.748 302.742C267.096 302.742 266.656 302.992 266.43 303.492V307.828H265.006V301.489H266.365L266.4 302.198C266.744 301.647 267.221 301.371 267.83 301.371C268.033 301.371 268.201 301.399 268.334 301.453L268.328 302.789Z" fill="black"/>
</g>
<path d="M42.8587 269.509H41.4408V262.659L39.349 263.374V262.173L42.6771 260.948H42.8587V269.509Z" fill="#8087A3"/>
<path opacity="0.6" d="M38.4255 45.0693H35.947V50H33.7234V37.2031H38.2234C39.7 37.2031 40.8396 37.5342 41.6423 38.1963C42.4451 38.8584 42.8464 39.8164 42.8464 41.0703C42.8464 41.9258 42.6384 42.6436 42.2224 43.2236C41.8123 43.7979 41.238 44.2402 40.4998 44.5508L43.3738 49.8857V50H40.9919L38.4255 45.0693ZM35.947 43.2852H38.2322C38.9822 43.2852 39.5681 43.0977 39.99 42.7227C40.4119 42.3418 40.6228 41.8232 40.6228 41.167C40.6228 40.4814 40.4265 39.9512 40.0339 39.5762C39.6472 39.2012 39.0671 39.0078 38.2937 38.9961H35.947V43.2852ZM52.4353 44.2871H47.1794V48.2246H53.323V50H44.9558V37.2031H53.2615V38.9961H47.1794V42.5293H52.4353V44.2871ZM64.5554 38.9961H60.5652V50H58.3591V38.9961H54.4041V37.2031H64.5554V38.9961ZM75.6033 37.2031V45.7549C75.6033 47.1143 75.1667 48.1924 74.2937 48.9893C73.4265 49.7803 72.2693 50.1758 70.822 50.1758C69.3572 50.1758 68.1941 49.7861 67.3328 49.0068C66.4714 48.2217 66.0408 47.1348 66.0408 45.7461V37.2031H68.2556V45.7637C68.2556 46.6191 68.4724 47.2725 68.906 47.7236C69.3396 48.1748 69.9783 48.4004 70.822 48.4004C72.533 48.4004 73.3884 47.498 73.3884 45.6934V37.2031H75.6033ZM82.6873 45.0693H80.2087V50H77.9851V37.2031H82.4851C83.9617 37.2031 85.1013 37.5342 85.9041 38.1963C86.7068 38.8584 87.1082 39.8164 87.1082 41.0703C87.1082 41.9258 86.9001 42.6436 86.4841 43.2236C86.074 43.7979 85.4998 44.2402 84.7615 44.5508L87.6355 49.8857V50H85.2537L82.6873 45.0693ZM80.2087 43.2852H82.4939C83.2439 43.2852 83.8298 43.0977 84.2517 42.7227C84.6736 42.3418 84.8845 41.8232 84.8845 41.167C84.8845 40.4814 84.6882 39.9512 84.2957 39.5762C83.9089 39.2012 83.3289 39.0078 82.5554 38.9961H80.2087V43.2852ZM99.3689 50H97.1453L91.4412 40.9209V50H89.2175V37.2031H91.4412L97.1628 46.3174V37.2031H99.3689V50ZM104.344 50H102.129V37.2031H104.344V50ZM117.228 50H115.005L109.301 40.9209V50H107.077V37.2031H109.301L115.022 46.3174V37.2031H117.228V50ZM129.665 48.3389C129.202 48.9424 128.56 49.3994 127.74 49.71C126.92 50.0205 125.988 50.1758 124.945 50.1758C123.873 50.1758 122.924 49.9326 122.097 49.4463C121.271 48.96 120.633 48.2656 120.181 47.3633C119.736 46.4551 119.505 45.3975 119.487 44.1904V43.1885C119.487 41.2549 119.95 39.7461 120.876 38.6621C121.802 37.5723 123.094 37.0273 124.752 37.0273C126.176 37.0273 127.306 37.3789 128.144 38.082C128.982 38.7852 129.486 39.7988 129.656 41.123H127.476C127.23 39.582 126.337 38.8115 124.796 38.8115C123.8 38.8115 123.041 39.1719 122.519 39.8926C122.004 40.6074 121.737 41.6592 121.719 43.0479V44.0322C121.719 45.415 122.01 46.4902 122.59 47.2578C123.176 48.0195 123.987 48.4004 125.024 48.4004C126.161 48.4004 126.969 48.1426 127.45 47.627V45.1221H124.813V43.4346H129.665V48.3389ZM146.355 45.834C146.226 47.1992 145.722 48.2656 144.844 49.0332C143.965 49.7949 142.796 50.1758 141.337 50.1758C140.317 50.1758 139.418 49.9355 138.638 49.4551C137.865 48.9688 137.267 48.2803 136.845 47.3896C136.424 46.499 136.204 45.4648 136.186 44.2871V43.0918C136.186 41.8848 136.4 40.8213 136.828 39.9014C137.256 38.9814 137.868 38.2725 138.665 37.7744C139.468 37.2764 140.393 37.0273 141.442 37.0273C142.854 37.0273 143.991 37.4111 144.852 38.1787C145.714 38.9463 146.215 40.0303 146.355 41.4307H144.14C144.035 40.5107 143.765 39.8486 143.332 39.4443C142.904 39.0342 142.274 38.8291 141.442 38.8291C140.475 38.8291 139.731 39.1836 139.21 39.8926C138.694 40.5957 138.43 41.6299 138.419 42.9951V44.1289C138.419 45.5117 138.665 46.5664 139.157 47.293C139.655 48.0195 140.382 48.3828 141.337 48.3828C142.21 48.3828 142.866 48.1865 143.305 47.7939C143.745 47.4014 144.023 46.748 144.14 45.834H146.355ZM157.711 37.2031V45.7549C157.711 47.1143 157.274 48.1924 156.401 48.9893C155.534 49.7803 154.377 50.1758 152.929 50.1758C151.465 50.1758 150.302 49.7861 149.44 49.0068C148.579 48.2217 148.148 47.1348 148.148 45.7461V37.2031H150.363V45.7637C150.363 46.6191 150.58 47.2725 151.013 47.7236C151.447 48.1748 152.086 48.4004 152.929 48.4004C154.64 48.4004 155.496 47.498 155.496 45.6934V37.2031H157.711ZM166.781 46.7041C166.781 46.1416 166.582 45.708 166.183 45.4033C165.791 45.0986 165.079 44.791 164.048 44.4805C163.016 44.1699 162.196 43.8242 161.587 43.4434C160.421 42.7109 159.838 41.7559 159.838 40.5781C159.838 39.5469 160.257 38.6973 161.094 38.0293C161.938 37.3613 163.031 37.0273 164.373 37.0273C165.263 37.0273 166.057 37.1914 166.755 37.5195C167.452 37.8477 168 38.3164 168.398 38.9258C168.797 39.5293 168.996 40.2002 168.996 40.9385H166.781C166.781 40.2705 166.57 39.749 166.148 39.374C165.732 38.9932 165.135 38.8027 164.355 38.8027C163.629 38.8027 163.063 38.958 162.659 39.2686C162.26 39.5791 162.061 40.0127 162.061 40.5693C162.061 41.0381 162.278 41.4307 162.712 41.7471C163.145 42.0576 163.86 42.3623 164.856 42.6611C165.852 42.9541 166.652 43.291 167.256 43.6719C167.859 44.0469 168.302 44.4805 168.583 44.9727C168.864 45.459 169.005 46.0303 169.005 46.6865C169.005 47.7529 168.594 48.6025 167.774 49.2354C166.96 49.8623 165.852 50.1758 164.452 50.1758C163.526 50.1758 162.674 50.0059 161.894 49.666C161.121 49.3203 160.517 48.8457 160.084 48.2422C159.656 47.6387 159.442 46.9355 159.442 46.1328H161.666C161.666 46.8594 161.906 47.4219 162.386 47.8203C162.867 48.2188 163.555 48.418 164.452 48.418C165.225 48.418 165.805 48.2627 166.192 47.9521C166.585 47.6357 166.781 47.2197 166.781 46.7041ZM180.202 38.9961H176.212V50H174.006V38.9961H170.051V37.2031H180.202V38.9961ZM191.856 43.9355C191.856 45.1895 191.639 46.291 191.206 47.2402C190.772 48.1836 190.151 48.9102 189.343 49.4199C188.54 49.9238 187.614 50.1758 186.565 50.1758C185.528 50.1758 184.602 49.9238 183.788 49.4199C182.979 48.9102 182.352 48.1865 181.907 47.249C181.468 46.3115 181.245 45.2305 181.239 44.0059V43.2852C181.239 42.0371 181.459 40.9355 181.898 39.9805C182.344 39.0254 182.968 38.2959 183.77 37.792C184.579 37.2822 185.505 37.0273 186.548 37.0273C187.591 37.0273 188.513 37.2793 189.316 37.7832C190.125 38.2812 190.749 39.002 191.188 39.9453C191.628 40.8828 191.85 41.9756 191.856 43.2236V43.9355ZM189.633 43.2676C189.633 41.8496 189.363 40.7627 188.824 40.0068C188.291 39.251 187.532 38.873 186.548 38.873C185.587 38.873 184.834 39.251 184.289 40.0068C183.75 40.7568 183.474 41.8203 183.463 43.1973V43.9355C183.463 45.3418 183.735 46.4287 184.28 47.1963C184.831 47.9639 185.593 48.3477 186.565 48.3477C187.55 48.3477 188.305 47.9727 188.833 47.2227C189.366 46.4727 189.633 45.377 189.633 43.9355V43.2676ZM196.954 37.2031L200.645 47.0117L204.328 37.2031H207.202V50H204.987V45.7812L205.207 40.1387L201.427 50H199.837L196.066 40.1475L196.286 45.7812V50H194.071V37.2031H196.954ZM217.318 44.2871H212.062V48.2246H218.206V50H209.839V37.2031H218.144V38.9961H212.062V42.5293H217.318V44.2871ZM224.719 45.0693H222.24V50H220.016V37.2031H224.516C225.993 37.2031 227.133 37.5342 227.935 38.1963C228.738 38.8584 229.139 39.8164 229.139 41.0703C229.139 41.9258 228.931 42.6436 228.515 43.2236C228.105 43.7979 227.531 44.2402 226.793 44.5508L229.667 49.8857V50H227.285L224.719 45.0693ZM222.24 43.2852H224.525C225.275 43.2852 225.861 43.0977 226.283 42.7227C226.705 42.3418 226.916 41.8232 226.916 41.167C226.916 40.4814 226.719 39.9512 226.327 39.5762C225.94 39.2012 225.36 39.0078 224.587 38.9961H222.24V43.2852Z" fill="black"/>
</g>
<defs>
<filter id="filter0_d_33_736" x="0" y="0" width="304" height="385" filterUnits="userSpaceOnUse" color-interpolation-filters="sRGB">
<feFlood flood-opacity="0" result="BackgroundImageFix"/>
<feColorMatrix in="SourceAlpha" type="matrix" values="0 0 0 0 0 0 0 0 0 0 0 0 0 0 0 0 0 0 127 0" result="hardAlpha"/>
<feOffset dy="4"/>
<feGaussianBlur stdDeviation="8"/>
<feComposite in2="hardAlpha" operator="out"/>
<feColorMatrix type="matrix" values="0 0 0 0 0 0 0 0 0 0 0 0 0 0 0 0 0 0 0.06 0"/>
<feBlend mode="normal" in2="BackgroundImageFix" result="effect1_dropShadow_33_736"/>
<feBlend mode="normal" in="SourceGraphic" in2="effect1_dropShadow_33_736" result="shape"/>
</filter>
<filter id="filter1_d_33_736" x="-1.02637" y="0" width="305.026" height="385" filterUnits="userSpaceOnUse" color-interpolation-filters="sRGB">
<feFlood flood-opacity="0" result="BackgroundImageFix"/>
<feColorMatrix in="SourceAlpha" type="matrix" values="0 0 0 0 0 0 0 0 0 0 0 0 0 0 0 0 0 0 127 0" result="hardAlpha"/>
<feOffset dy="4"/>
<feGaussianBlur stdDeviation="8"/>
<feColorMatrix type="matrix" values="0 0 0 0 0 0 0 0 0 0 0 0 0 0 0 0 0 0 0.06 0"/>
<feBlend mode="normal" in2="BackgroundImageFix" result="effect1_dropShadow_33_736"/>
<feBlend mode="normal" in="SourceGraphic" in2="effect1_dropShadow_33_736" result="shape"/>
</filter>
<clipPath id="clip0_33_736">
<rect width="272" height="353" fill="white" transform="translate(16 12)"/>
</clipPath>
<clipPath id="clip1_33_736">
<rect width="61.378" height="9.884" fill="white" transform="translate(57.3032 317.698)"/>
</clipPath>
<clipPath id="clip2_33_736">
<rect width="61.378" height="9.884" fill="white" transform="translate(173.71 317.698)"/>
</clipPath>
<clipPath id="clip3_33_736">
<rect width="61.378" height="9.88403" fill="white" transform="translate(57.3032 334.642)"/>
</clipPath>
<clipPath id="clip4_33_736">
<rect width="61.378" height="9.88403" fill="white" transform="translate(173.71 334.642)"/>
</clipPath>
<clipPath id="clip5_33_736">
<rect width="57.4792" height="195.997" fill="white" transform="translate(22.1584 70.4912)"/>
</clipPath>
<clipPath id="clip6_33_736">
<rect width="219.653" height="52.3343" fill="white" transform="translate(56.03 279.828)"/>
</clipPath>
</defs>
</svg>
