<svg width="302" height="385" viewBox="0 0 302 385" fill="none" xmlns="http://www.w3.org/2000/svg">
<g clip-path="url(#clip0_33_799)" filter="url(#filter0_d_33_799)">
<g filter="url(#filter1_d_33_799)">
<rect x="12.9207" y="12" width="273.026" height="353" rx="3" fill="white"/>
</g>
<g clip-path="url(#clip1_33_799)">
<rect x="60.8943" y="319.11" width="7.05495" height="7.06002" rx="1" fill="#0C213A"/>
<path d="M74.9807 322.895C74.0159 322.618 73.3127 322.278 72.8713 321.876C72.4338 321.469 72.2151 320.969 72.2151 320.376C72.2151 319.704 72.4827 319.149 73.0178 318.712C73.5569 318.27 74.2561 318.05 75.1155 318.05C75.7014 318.05 76.2229 318.163 76.6799 318.389C77.1409 318.616 77.4963 318.928 77.7463 319.327C78.0002 319.725 78.1272 320.161 78.1272 320.634H76.9963C76.9963 320.118 76.8323 319.714 76.5042 319.421C76.176 319.124 75.7131 318.975 75.1155 318.975C74.5608 318.975 74.1272 319.098 73.8147 319.344C73.5061 319.587 73.3518 319.925 73.3518 320.358C73.3518 320.706 73.4983 321.001 73.7913 321.243C74.0881 321.481 74.5901 321.7 75.2971 321.899C76.0081 322.098 76.5627 322.319 76.9612 322.561C77.3635 322.8 77.6604 323.079 77.8518 323.399C78.0471 323.719 78.1448 324.096 78.1448 324.53C78.1448 325.221 77.8752 325.776 77.3362 326.194C76.7971 326.608 76.0764 326.815 75.1741 326.815C74.5881 326.815 74.0413 326.704 73.5334 326.481C73.0256 326.255 72.6331 325.946 72.3557 325.555C72.0823 325.165 71.9456 324.721 71.9456 324.225H73.0764C73.0764 324.741 73.2659 325.149 73.6448 325.45C74.0276 325.747 74.5374 325.895 75.1741 325.895C75.7678 325.895 76.2229 325.774 76.5393 325.532C76.8557 325.29 77.0139 324.96 77.0139 324.542C77.0139 324.124 76.8674 323.802 76.5745 323.575C76.2815 323.344 75.7502 323.118 74.9807 322.895ZM80.8928 318.823V320.358H82.0764V321.196H80.8928V325.128C80.8928 325.382 80.9456 325.573 81.051 325.702C81.1565 325.827 81.3362 325.889 81.5901 325.889C81.7151 325.889 81.887 325.866 82.1057 325.819V326.698C81.8206 326.776 81.5432 326.815 81.2737 326.815C80.7893 326.815 80.4241 326.669 80.178 326.376C79.9319 326.083 79.8088 325.667 79.8088 325.128V321.196H78.6545V320.358H79.8088V318.823H80.8928ZM82.9436 323.469C82.9436 322.848 83.0647 322.29 83.3069 321.794C83.553 321.298 83.8928 320.915 84.3264 320.645C84.7639 320.376 85.262 320.241 85.8206 320.241C86.6838 320.241 87.3811 320.54 87.9124 321.137C88.4475 321.735 88.7151 322.53 88.7151 323.522V323.598C88.7151 324.216 88.5959 324.77 88.3577 325.262C88.1233 325.751 87.7854 326.132 87.344 326.405C86.9065 326.678 86.4026 326.815 85.8323 326.815C84.9729 326.815 84.2756 326.516 83.7405 325.919C83.2092 325.321 82.9436 324.53 82.9436 323.546V323.469ZM84.0334 323.598C84.0334 324.302 84.1956 324.866 84.5198 325.292C84.8479 325.718 85.2854 325.93 85.8323 325.93C86.3831 325.93 86.8206 325.716 87.1448 325.286C87.469 324.852 87.6311 324.247 87.6311 323.469C87.6311 322.774 87.4651 322.212 87.1331 321.782C86.8049 321.348 86.3674 321.132 85.8206 321.132C85.2854 321.132 84.8538 321.344 84.5256 321.77C84.1975 322.196 84.0334 322.805 84.0334 323.598ZM93.1389 321.331C92.9749 321.303 92.7971 321.29 92.6057 321.29C91.8948 321.29 91.4124 321.593 91.1584 322.198V326.698H90.0745V320.358H91.1292L91.1467 321.091C91.5022 320.524 92.0061 320.241 92.6584 320.241C92.8694 320.241 93.0295 320.268 93.1389 320.323V321.331ZM96.6545 326.815C95.7952 326.815 95.0959 326.534 94.5569 325.971C94.0178 325.405 93.7483 324.649 93.7483 323.704V323.505C93.7483 322.876 93.8674 322.315 94.1057 321.823C94.3479 321.327 94.6838 320.94 95.1135 320.663C95.5471 320.382 96.0159 320.241 96.5198 320.241C97.344 320.241 97.9846 320.512 98.4417 321.055C98.8987 321.598 99.1272 322.376 99.1272 323.387V323.839H94.8323C94.8479 324.464 95.0295 324.969 95.3772 325.356C95.7288 325.739 96.1741 325.93 96.7131 325.93C97.0959 325.93 97.4202 325.852 97.6858 325.696C97.9514 325.54 98.1838 325.333 98.3831 325.075L99.0452 325.591C98.5139 326.407 97.717 326.815 96.6545 326.815ZM96.5198 321.132C96.0823 321.132 95.7151 321.292 95.4182 321.612C95.1213 321.928 94.9377 322.374 94.8674 322.948H98.0432V322.866C98.012 322.315 97.8635 321.889 97.5979 321.589C97.3323 321.284 96.9729 321.132 96.5198 321.132ZM73.3225 334.358L73.3577 335.155C73.842 334.546 74.4749 334.241 75.2561 334.241C76.5959 334.241 77.2717 334.997 77.2834 336.509V340.698H76.1995V336.503C76.1956 336.046 76.0901 335.708 75.8831 335.489C75.6799 335.27 75.3616 335.161 74.928 335.161C74.5764 335.161 74.2678 335.255 74.0022 335.442C73.7366 335.63 73.5295 335.876 73.3811 336.18V340.698H72.2971V334.358H73.3225ZM82.8323 340.698C82.7698 340.573 82.719 340.35 82.6799 340.03C82.176 340.553 81.5745 340.815 80.8752 340.815C80.2502 340.815 79.7366 340.639 79.3342 340.288C78.9358 339.932 78.7366 339.483 78.7366 338.94C78.7366 338.28 78.9866 337.768 79.4866 337.405C79.9905 337.038 80.6975 336.854 81.6077 336.854H82.6624V336.356C82.6624 335.977 82.5491 335.677 82.3225 335.454C82.0959 335.227 81.762 335.114 81.3206 335.114C80.9338 335.114 80.6096 335.212 80.3479 335.407C80.0862 335.602 79.9553 335.839 79.9553 336.116H78.8655C78.8655 335.8 78.9768 335.495 79.1995 335.202C79.426 334.905 79.7307 334.671 80.1135 334.499C80.5002 334.327 80.9241 334.241 81.385 334.241C82.1155 334.241 82.6877 334.425 83.1018 334.792C83.5159 335.155 83.7307 335.657 83.7463 336.298V339.216C83.7463 339.798 83.8206 340.26 83.969 340.604V340.698H82.8323ZM81.0334 339.872C81.3733 339.872 81.6956 339.784 82.0002 339.608C82.3049 339.432 82.5256 339.204 82.6624 338.923V337.622H81.8127C80.4846 337.622 79.8206 338.01 79.8206 338.788C79.8206 339.128 79.9338 339.393 80.1604 339.585C80.387 339.776 80.678 339.872 81.0334 339.872ZM86.4651 334.358L86.4944 335.061C86.9592 334.514 87.5862 334.241 88.3752 334.241C89.262 334.241 89.8655 334.581 90.1858 335.26C90.3967 334.956 90.6702 334.71 91.0061 334.522C91.3459 334.335 91.7463 334.241 92.2073 334.241C93.5979 334.241 94.3049 334.977 94.3284 336.45V340.698H93.2444V336.514C93.2444 336.061 93.1409 335.723 92.9338 335.501C92.7268 335.274 92.3792 335.161 91.8909 335.161C91.4885 335.161 91.1545 335.282 90.8889 335.524C90.6233 335.762 90.469 336.085 90.426 336.491V340.698H89.3362V336.544C89.3362 335.622 88.885 335.161 87.9827 335.161C87.2717 335.161 86.7854 335.464 86.5237 336.069V340.698H85.4397V334.358H86.4651ZM98.5999 340.815C97.7405 340.815 97.0413 340.534 96.5022 339.971C95.9631 339.405 95.6936 338.649 95.6936 337.704V337.505C95.6936 336.876 95.8127 336.315 96.051 335.823C96.2932 335.327 96.6292 334.94 97.0588 334.663C97.4924 334.382 97.9612 334.241 98.4651 334.241C99.2893 334.241 99.9299 334.512 100.387 335.055C100.844 335.598 101.073 336.376 101.073 337.387V337.839H96.7776C96.7932 338.464 96.9749 338.969 97.3225 339.356C97.6741 339.739 98.1194 339.93 98.6584 339.93C99.0413 339.93 99.3655 339.852 99.6311 339.696C99.8967 339.54 100.129 339.333 100.328 339.075L100.99 339.591C100.459 340.407 99.6624 340.815 98.5999 340.815ZM98.4651 335.132C98.0276 335.132 97.6604 335.292 97.3635 335.612C97.0667 335.928 96.8831 336.374 96.8127 336.948H99.9885V336.866C99.9573 336.315 99.8088 335.889 99.5432 335.589C99.2776 335.284 98.9182 335.132 98.4651 335.132ZM108.76 340.698H107.67V333.473L105.485 334.276V333.292L108.59 332.126H108.76V340.698Z" fill="black"/>
</g>
<g clip-path="url(#clip2_33_799)">
<rect x="177.301" y="319.11" width="7.05495" height="7.06002" rx="1" fill="#F8B849"/>
<path d="M191.387 322.895C190.422 322.618 189.719 322.278 189.278 321.876C188.84 321.469 188.622 320.969 188.622 320.376C188.622 319.704 188.889 319.149 189.424 318.712C189.963 318.27 190.663 318.05 191.522 318.05C192.108 318.05 192.629 318.163 193.086 318.389C193.547 318.616 193.903 318.928 194.153 319.327C194.407 319.725 194.534 320.161 194.534 320.634H193.403C193.403 320.118 193.239 319.714 192.911 319.421C192.583 319.124 192.12 318.975 191.522 318.975C190.967 318.975 190.534 319.098 190.221 319.344C189.913 319.587 189.758 319.925 189.758 320.358C189.758 320.706 189.905 321.001 190.198 321.243C190.495 321.481 190.997 321.7 191.704 321.899C192.415 322.098 192.969 322.319 193.368 322.561C193.77 322.8 194.067 323.079 194.258 323.399C194.454 323.719 194.551 324.096 194.551 324.53C194.551 325.221 194.282 325.776 193.743 326.194C193.204 326.608 192.483 326.815 191.581 326.815C190.995 326.815 190.448 326.704 189.94 326.481C189.432 326.255 189.04 325.946 188.762 325.555C188.489 325.165 188.352 324.721 188.352 324.225H189.483C189.483 324.741 189.672 325.149 190.051 325.45C190.434 325.747 190.944 325.895 191.581 325.895C192.174 325.895 192.629 325.774 192.946 325.532C193.262 325.29 193.42 324.96 193.42 324.542C193.42 324.124 193.274 323.802 192.981 323.575C192.688 323.344 192.157 323.118 191.387 322.895ZM197.299 318.823V320.358H198.483V321.196H197.299V325.128C197.299 325.382 197.352 325.573 197.458 325.702C197.563 325.827 197.743 325.889 197.997 325.889C198.122 325.889 198.293 325.866 198.512 325.819V326.698C198.227 326.776 197.95 326.815 197.68 326.815C197.196 326.815 196.831 326.669 196.584 326.376C196.338 326.083 196.215 325.667 196.215 325.128V321.196H195.061V320.358H196.215V318.823H197.299ZM199.35 323.469C199.35 322.848 199.471 322.29 199.713 321.794C199.959 321.298 200.299 320.915 200.733 320.645C201.17 320.376 201.668 320.241 202.227 320.241C203.09 320.241 203.788 320.54 204.319 321.137C204.854 321.735 205.122 322.53 205.122 323.522V323.598C205.122 324.216 205.002 324.77 204.764 325.262C204.53 325.751 204.192 326.132 203.75 326.405C203.313 326.678 202.809 326.815 202.239 326.815C201.379 326.815 200.682 326.516 200.147 325.919C199.616 325.321 199.35 324.53 199.35 323.546V323.469ZM200.44 323.598C200.44 324.302 200.602 324.866 200.926 325.292C201.254 325.718 201.692 325.93 202.239 325.93C202.79 325.93 203.227 325.716 203.551 325.286C203.875 324.852 204.038 324.247 204.038 323.469C204.038 322.774 203.872 322.212 203.54 321.782C203.211 321.348 202.774 321.132 202.227 321.132C201.692 321.132 201.26 321.344 200.932 321.77C200.604 322.196 200.44 322.805 200.44 323.598ZM209.545 321.331C209.381 321.303 209.204 321.29 209.012 321.29C208.301 321.29 207.819 321.593 207.565 322.198V326.698H206.481V320.358H207.536L207.553 321.091C207.909 320.524 208.413 320.241 209.065 320.241C209.276 320.241 209.436 320.268 209.545 320.323V321.331ZM213.061 326.815C212.202 326.815 211.502 326.534 210.963 325.971C210.424 325.405 210.155 324.649 210.155 323.704V323.505C210.155 322.876 210.274 322.315 210.512 321.823C210.754 321.327 211.09 320.94 211.52 320.663C211.954 320.382 212.422 320.241 212.926 320.241C213.75 320.241 214.391 320.512 214.848 321.055C215.305 321.598 215.534 322.376 215.534 323.387V323.839H211.239C211.254 324.464 211.436 324.969 211.784 325.356C212.135 325.739 212.581 325.93 213.12 325.93C213.502 325.93 213.827 325.852 214.092 325.696C214.358 325.54 214.59 325.333 214.79 325.075L215.452 325.591C214.92 326.407 214.124 326.815 213.061 326.815ZM212.926 321.132C212.489 321.132 212.122 321.292 211.825 321.612C211.528 321.928 211.344 322.374 211.274 322.948H214.45V322.866C214.418 322.315 214.27 321.889 214.004 321.589C213.739 321.284 213.379 321.132 212.926 321.132ZM189.729 334.358L189.764 335.155C190.249 334.546 190.881 334.241 191.663 334.241C193.002 334.241 193.678 334.997 193.69 336.509V340.698H192.606V336.503C192.602 336.046 192.497 335.708 192.29 335.489C192.086 335.27 191.768 335.161 191.334 335.161C190.983 335.161 190.674 335.255 190.409 335.442C190.143 335.63 189.936 335.876 189.788 336.18V340.698H188.704V334.358H189.729ZM199.239 340.698C199.176 340.573 199.125 340.35 199.086 340.03C198.583 340.553 197.981 340.815 197.282 340.815C196.657 340.815 196.143 340.639 195.741 340.288C195.342 339.932 195.143 339.483 195.143 338.94C195.143 338.28 195.393 337.768 195.893 337.405C196.397 337.038 197.104 336.854 198.014 336.854H199.069V336.356C199.069 335.977 198.956 335.677 198.729 335.454C198.502 335.227 198.168 335.114 197.727 335.114C197.34 335.114 197.016 335.212 196.754 335.407C196.493 335.602 196.362 335.839 196.362 336.116H195.272C195.272 335.8 195.383 335.495 195.606 335.202C195.833 334.905 196.137 334.671 196.52 334.499C196.907 334.327 197.331 334.241 197.792 334.241C198.522 334.241 199.094 334.425 199.508 334.792C199.922 335.155 200.137 335.657 200.153 336.298V339.216C200.153 339.798 200.227 340.26 200.375 340.604V340.698H199.239ZM197.44 339.872C197.78 339.872 198.102 339.784 198.407 339.608C198.711 339.432 198.932 339.204 199.069 338.923V337.622H198.219C196.891 337.622 196.227 338.01 196.227 338.788C196.227 339.128 196.34 339.393 196.567 339.585C196.793 339.776 197.084 339.872 197.44 339.872ZM202.872 334.358L202.901 335.061C203.366 334.514 203.993 334.241 204.782 334.241C205.668 334.241 206.272 334.581 206.592 335.26C206.803 334.956 207.077 334.71 207.413 334.522C207.752 334.335 208.153 334.241 208.614 334.241C210.004 334.241 210.711 334.977 210.735 336.45V340.698H209.651V336.514C209.651 336.061 209.547 335.723 209.34 335.501C209.133 335.274 208.786 335.161 208.297 335.161C207.895 335.161 207.561 335.282 207.295 335.524C207.03 335.762 206.875 336.085 206.833 336.491V340.698H205.743V336.544C205.743 335.622 205.292 335.161 204.389 335.161C203.678 335.161 203.192 335.464 202.93 336.069V340.698H201.846V334.358H202.872ZM215.006 340.815C214.147 340.815 213.448 340.534 212.909 339.971C212.37 339.405 212.1 338.649 212.1 337.704V337.505C212.1 336.876 212.219 336.315 212.458 335.823C212.7 335.327 213.036 334.94 213.465 334.663C213.899 334.382 214.368 334.241 214.872 334.241C215.696 334.241 216.336 334.512 216.793 335.055C217.25 335.598 217.479 336.376 217.479 337.387V337.839H213.184C213.2 338.464 213.381 338.969 213.729 339.356C214.081 339.739 214.526 339.93 215.065 339.93C215.448 339.93 215.772 339.852 216.038 339.696C216.303 339.54 216.536 339.333 216.735 339.075L217.397 339.591C216.866 340.407 216.069 340.815 215.006 340.815ZM214.872 335.132C214.434 335.132 214.067 335.292 213.77 335.612C213.473 335.928 213.29 336.374 213.219 336.948H216.395V336.866C216.364 336.315 216.215 335.889 215.95 335.589C215.684 335.284 215.325 335.132 214.872 335.132ZM227.194 340.698H221.604V339.919L224.557 336.637C224.995 336.141 225.295 335.739 225.459 335.43C225.627 335.118 225.711 334.796 225.711 334.464C225.711 334.018 225.577 333.653 225.307 333.368C225.038 333.083 224.678 332.94 224.229 332.94C223.69 332.94 223.27 333.094 222.969 333.403C222.672 333.708 222.524 334.134 222.524 334.68H221.44C221.44 333.895 221.692 333.26 222.196 332.776C222.704 332.292 223.381 332.05 224.229 332.05C225.022 332.05 225.649 332.259 226.11 332.677C226.571 333.091 226.801 333.643 226.801 334.335C226.801 335.175 226.266 336.175 225.196 337.335L222.911 339.813H227.194V340.698Z" fill="black"/>
</g>
<g clip-path="url(#clip3_33_799)">
<rect x="60.8943" y="336.054" width="7.05495" height="7.06002" rx="1" fill="#00A560"/>
<path d="M74.9807 339.839C74.0159 339.562 73.3127 339.222 72.8713 338.82C72.4338 338.414 72.2151 337.914 72.2151 337.32C72.2151 336.648 72.4827 336.093 73.0178 335.656C73.5569 335.214 74.2561 334.994 75.1155 334.994C75.7014 334.994 76.2229 335.107 76.6799 335.333C77.1409 335.56 77.4963 335.873 77.7463 336.271C78.0002 336.669 78.1272 337.105 78.1272 337.578H76.9963C76.9963 337.062 76.8323 336.658 76.5042 336.365C76.176 336.068 75.7131 335.919 75.1155 335.919C74.5608 335.919 74.1272 336.042 73.8147 336.289C73.5061 336.531 73.3518 336.869 73.3518 337.302C73.3518 337.65 73.4983 337.945 73.7913 338.187C74.0881 338.425 74.5901 338.644 75.2971 338.843C76.0081 339.042 76.5627 339.263 76.9612 339.505C77.3635 339.744 77.6604 340.023 77.8518 340.343C78.0471 340.664 78.1448 341.041 78.1448 341.474C78.1448 342.166 77.8752 342.72 77.3362 343.138C76.7971 343.552 76.0764 343.759 75.1741 343.759C74.5881 343.759 74.0413 343.648 73.5334 343.425C73.0256 343.199 72.6331 342.89 72.3557 342.5C72.0823 342.109 71.9456 341.666 71.9456 341.169H73.0764C73.0764 341.685 73.2659 342.093 73.6448 342.394C74.0276 342.691 74.5374 342.839 75.1741 342.839C75.7678 342.839 76.2229 342.718 76.5393 342.476C76.8557 342.234 77.0139 341.904 77.0139 341.486C77.0139 341.068 76.8674 340.746 76.5745 340.519C76.2815 340.289 75.7502 340.062 74.9807 339.839ZM80.8928 335.767V337.302H82.0764V338.14H80.8928V342.072C80.8928 342.326 80.9456 342.517 81.051 342.646C81.1565 342.771 81.3362 342.833 81.5901 342.833C81.7151 342.833 81.887 342.81 82.1057 342.763V343.642C81.8206 343.72 81.5432 343.759 81.2737 343.759C80.7893 343.759 80.4241 343.613 80.178 343.32C79.9319 343.027 79.8088 342.611 79.8088 342.072V338.14H78.6545V337.302H79.8088V335.767H80.8928ZM82.9436 340.414C82.9436 339.792 83.0647 339.234 83.3069 338.738C83.553 338.242 83.8928 337.859 84.3264 337.589C84.7639 337.32 85.262 337.185 85.8206 337.185C86.6838 337.185 87.3811 337.484 87.9124 338.082C88.4475 338.679 88.7151 339.474 88.7151 340.466V340.542C88.7151 341.16 88.5959 341.714 88.3577 342.207C88.1233 342.695 87.7854 343.076 87.344 343.349C86.9065 343.623 86.4026 343.759 85.8323 343.759C84.9729 343.759 84.2756 343.46 83.7405 342.863C83.2092 342.265 82.9436 341.474 82.9436 340.49V340.414ZM84.0334 340.542C84.0334 341.246 84.1956 341.81 84.5198 342.236C84.8479 342.662 85.2854 342.875 85.8323 342.875C86.3831 342.875 86.8206 342.66 87.1448 342.23C87.469 341.796 87.6311 341.191 87.6311 340.414C87.6311 339.718 87.4651 339.156 87.1331 338.726C86.8049 338.292 86.3674 338.076 85.8206 338.076C85.2854 338.076 84.8538 338.289 84.5256 338.714C84.1975 339.14 84.0334 339.75 84.0334 340.542ZM93.1389 338.275C92.9749 338.248 92.7971 338.234 92.6057 338.234C91.8948 338.234 91.4124 338.537 91.1584 339.142V343.642H90.0745V337.302H91.1292L91.1467 338.035C91.5022 337.468 92.0061 337.185 92.6584 337.185C92.8694 337.185 93.0295 337.212 93.1389 337.267V338.275ZM96.6545 343.759C95.7952 343.759 95.0959 343.478 94.5569 342.916C94.0178 342.349 93.7483 341.593 93.7483 340.648V340.449C93.7483 339.82 93.8674 339.259 94.1057 338.767C94.3479 338.271 94.6838 337.884 95.1135 337.607C95.5471 337.326 96.0159 337.185 96.5198 337.185C97.344 337.185 97.9846 337.457 98.4417 338C98.8987 338.542 99.1272 339.32 99.1272 340.332V340.783H94.8323C94.8479 341.408 95.0295 341.914 95.3772 342.3C95.7288 342.683 96.1741 342.875 96.7131 342.875C97.0959 342.875 97.4202 342.796 97.6858 342.64C97.9514 342.484 98.1838 342.277 98.3831 342.019L99.0452 342.535C98.5139 343.351 97.717 343.759 96.6545 343.759ZM96.5198 338.076C96.0823 338.076 95.7151 338.236 95.4182 338.556C95.1213 338.873 94.9377 339.318 94.8674 339.892H98.0432V339.81C98.012 339.259 97.8635 338.833 97.5979 338.533C97.3323 338.228 96.9729 338.076 96.5198 338.076ZM73.3225 351.302L73.3577 352.099C73.842 351.49 74.4749 351.185 75.2561 351.185C76.5959 351.185 77.2717 351.941 77.2834 353.453V357.642H76.1995V353.447C76.1956 352.99 76.0901 352.652 75.8831 352.433C75.6799 352.214 75.3616 352.105 74.928 352.105C74.5764 352.105 74.2678 352.199 74.0022 352.386C73.7366 352.574 73.5295 352.82 73.3811 353.125V357.642H72.2971V351.302H73.3225ZM82.8323 357.642C82.7698 357.517 82.719 357.294 82.6799 356.974C82.176 357.498 81.5745 357.759 80.8752 357.759C80.2502 357.759 79.7366 357.583 79.3342 357.232C78.9358 356.876 78.7366 356.427 78.7366 355.884C78.7366 355.224 78.9866 354.712 79.4866 354.349C79.9905 353.982 80.6975 353.798 81.6077 353.798H82.6624V353.3C82.6624 352.921 82.5491 352.621 82.3225 352.398C82.0959 352.171 81.762 352.058 81.3206 352.058C80.9338 352.058 80.6096 352.156 80.3479 352.351C80.0862 352.546 79.9553 352.783 79.9553 353.06H78.8655C78.8655 352.744 78.9768 352.439 79.1995 352.146C79.426 351.849 79.7307 351.615 80.1135 351.443C80.5002 351.271 80.9241 351.185 81.385 351.185C82.1155 351.185 82.6877 351.369 83.1018 351.736C83.5159 352.099 83.7307 352.601 83.7463 353.242V356.16C83.7463 356.742 83.8206 357.205 83.969 357.548V357.642H82.8323ZM81.0334 356.816C81.3733 356.816 81.6956 356.728 82.0002 356.552C82.3049 356.376 82.5256 356.148 82.6624 355.867V354.566H81.8127C80.4846 354.566 79.8206 354.955 79.8206 355.732C79.8206 356.072 79.9338 356.337 80.1604 356.529C80.387 356.72 80.678 356.816 81.0334 356.816ZM86.4651 351.302L86.4944 352.005C86.9592 351.458 87.5862 351.185 88.3752 351.185C89.262 351.185 89.8655 351.525 90.1858 352.205C90.3967 351.9 90.6702 351.654 91.0061 351.466C91.3459 351.279 91.7463 351.185 92.2073 351.185C93.5979 351.185 94.3049 351.921 94.3284 353.394V357.642H93.2444V353.458C93.2444 353.005 93.1409 352.667 92.9338 352.445C92.7268 352.218 92.3792 352.105 91.8909 352.105C91.4885 352.105 91.1545 352.226 90.8889 352.468C90.6233 352.707 90.469 353.029 90.426 353.435V357.642H89.3362V353.488C89.3362 352.566 88.885 352.105 87.9827 352.105C87.2717 352.105 86.7854 352.408 86.5237 353.013V357.642H85.4397V351.302H86.4651ZM98.5999 357.759C97.7405 357.759 97.0413 357.478 96.5022 356.916C95.9631 356.349 95.6936 355.593 95.6936 354.648V354.449C95.6936 353.82 95.8127 353.259 96.051 352.767C96.2932 352.271 96.6292 351.884 97.0588 351.607C97.4924 351.326 97.9612 351.185 98.4651 351.185C99.2893 351.185 99.9299 351.457 100.387 352C100.844 352.542 101.073 353.32 101.073 354.332V354.783H96.7776C96.7932 355.408 96.9749 355.914 97.3225 356.3C97.6741 356.683 98.1194 356.875 98.6584 356.875C99.0413 356.875 99.3655 356.796 99.6311 356.64C99.8967 356.484 100.129 356.277 100.328 356.019L100.99 356.535C100.459 357.351 99.6624 357.759 98.5999 357.759ZM98.4651 352.076C98.0276 352.076 97.6604 352.236 97.3635 352.556C97.0667 352.873 96.8831 353.318 96.8127 353.892H99.9885V353.81C99.9573 353.259 99.8088 352.833 99.5432 352.533C99.2776 352.228 98.9182 352.076 98.4651 352.076ZM106.774 352.849H107.588C108.1 352.841 108.502 352.707 108.795 352.445C109.088 352.183 109.235 351.83 109.235 351.384C109.235 350.384 108.737 349.884 107.74 349.884C107.272 349.884 106.897 350.019 106.615 350.289C106.338 350.554 106.199 350.908 106.199 351.349H105.115C105.115 350.673 105.362 350.113 105.854 349.667C106.35 349.218 106.979 348.994 107.74 348.994C108.545 348.994 109.176 349.207 109.633 349.632C110.09 350.058 110.319 350.65 110.319 351.408C110.319 351.779 110.198 352.138 109.955 352.486C109.717 352.833 109.391 353.093 108.977 353.265C109.446 353.414 109.807 353.66 110.061 354.003C110.319 354.347 110.448 354.767 110.448 355.263C110.448 356.029 110.198 356.636 109.698 357.085C109.198 357.535 108.547 357.759 107.746 357.759C106.946 357.759 106.293 357.542 105.789 357.109C105.289 356.675 105.039 356.103 105.039 355.392H106.129C106.129 355.841 106.276 356.201 106.569 356.47C106.862 356.74 107.254 356.875 107.746 356.875C108.27 356.875 108.67 356.738 108.948 356.464C109.225 356.191 109.364 355.798 109.364 355.287C109.364 354.791 109.211 354.41 108.906 354.144C108.602 353.878 108.162 353.742 107.588 353.734H106.774V352.849Z" fill="black"/>
</g>
<g clip-path="url(#clip4_33_799)">
<rect x="177.301" y="336.054" width="7.05495" height="7.06002" rx="1" fill="#DB0E00"/>
<path d="M191.387 339.839C190.422 339.562 189.719 339.222 189.278 338.82C188.84 338.414 188.622 337.914 188.622 337.32C188.622 336.648 188.889 336.093 189.424 335.656C189.963 335.214 190.663 334.994 191.522 334.994C192.108 334.994 192.629 335.107 193.086 335.333C193.547 335.56 193.903 335.873 194.153 336.271C194.407 336.669 194.534 337.105 194.534 337.578H193.403C193.403 337.062 193.239 336.658 192.911 336.365C192.583 336.068 192.12 335.919 191.522 335.919C190.967 335.919 190.534 336.042 190.221 336.289C189.913 336.531 189.758 336.869 189.758 337.302C189.758 337.65 189.905 337.945 190.198 338.187C190.495 338.425 190.997 338.644 191.704 338.843C192.415 339.042 192.969 339.263 193.368 339.505C193.77 339.744 194.067 340.023 194.258 340.343C194.454 340.664 194.551 341.041 194.551 341.474C194.551 342.166 194.282 342.72 193.743 343.138C193.204 343.552 192.483 343.759 191.581 343.759C190.995 343.759 190.448 343.648 189.94 343.425C189.432 343.199 189.04 342.89 188.762 342.5C188.489 342.109 188.352 341.666 188.352 341.169H189.483C189.483 341.685 189.672 342.093 190.051 342.394C190.434 342.691 190.944 342.839 191.581 342.839C192.174 342.839 192.629 342.718 192.946 342.476C193.262 342.234 193.42 341.904 193.42 341.486C193.42 341.068 193.274 340.746 192.981 340.519C192.688 340.289 192.157 340.062 191.387 339.839ZM197.299 335.767V337.302H198.483V338.14H197.299V342.072C197.299 342.326 197.352 342.517 197.458 342.646C197.563 342.771 197.743 342.833 197.997 342.833C198.122 342.833 198.293 342.81 198.512 342.763V343.642C198.227 343.72 197.95 343.759 197.68 343.759C197.196 343.759 196.831 343.613 196.584 343.32C196.338 343.027 196.215 342.611 196.215 342.072V338.14H195.061V337.302H196.215V335.767H197.299ZM199.35 340.414C199.35 339.792 199.471 339.234 199.713 338.738C199.959 338.242 200.299 337.859 200.733 337.589C201.17 337.32 201.668 337.185 202.227 337.185C203.09 337.185 203.788 337.484 204.319 338.082C204.854 338.679 205.122 339.474 205.122 340.466V340.542C205.122 341.16 205.002 341.714 204.764 342.207C204.53 342.695 204.192 343.076 203.75 343.349C203.313 343.623 202.809 343.759 202.239 343.759C201.379 343.759 200.682 343.46 200.147 342.863C199.616 342.265 199.35 341.474 199.35 340.49V340.414ZM200.44 340.542C200.44 341.246 200.602 341.81 200.926 342.236C201.254 342.662 201.692 342.875 202.239 342.875C202.79 342.875 203.227 342.66 203.551 342.23C203.875 341.796 204.038 341.191 204.038 340.414C204.038 339.718 203.872 339.156 203.54 338.726C203.211 338.292 202.774 338.076 202.227 338.076C201.692 338.076 201.26 338.289 200.932 338.714C200.604 339.14 200.44 339.75 200.44 340.542ZM209.545 338.275C209.381 338.248 209.204 338.234 209.012 338.234C208.301 338.234 207.819 338.537 207.565 339.142V343.642H206.481V337.302H207.536L207.553 338.035C207.909 337.468 208.413 337.185 209.065 337.185C209.276 337.185 209.436 337.212 209.545 337.267V338.275ZM213.061 343.759C212.202 343.759 211.502 343.478 210.963 342.916C210.424 342.349 210.155 341.593 210.155 340.648V340.449C210.155 339.82 210.274 339.259 210.512 338.767C210.754 338.271 211.09 337.884 211.52 337.607C211.954 337.326 212.422 337.185 212.926 337.185C213.75 337.185 214.391 337.457 214.848 338C215.305 338.542 215.534 339.32 215.534 340.332V340.783H211.239C211.254 341.408 211.436 341.914 211.784 342.3C212.135 342.683 212.581 342.875 213.12 342.875C213.502 342.875 213.827 342.796 214.092 342.64C214.358 342.484 214.59 342.277 214.79 342.019L215.452 342.535C214.92 343.351 214.124 343.759 213.061 343.759ZM212.926 338.076C212.489 338.076 212.122 338.236 211.825 338.556C211.528 338.873 211.344 339.318 211.274 339.892H214.45V339.81C214.418 339.259 214.27 338.833 214.004 338.533C213.739 338.228 213.379 338.076 212.926 338.076ZM189.729 351.302L189.764 352.099C190.249 351.49 190.881 351.185 191.663 351.185C193.002 351.185 193.678 351.941 193.69 353.453V357.642H192.606V353.447C192.602 352.99 192.497 352.652 192.29 352.433C192.086 352.214 191.768 352.105 191.334 352.105C190.983 352.105 190.674 352.199 190.409 352.386C190.143 352.574 189.936 352.82 189.788 353.125V357.642H188.704V351.302H189.729ZM199.239 357.642C199.176 357.517 199.125 357.294 199.086 356.974C198.583 357.498 197.981 357.759 197.282 357.759C196.657 357.759 196.143 357.583 195.741 357.232C195.342 356.876 195.143 356.427 195.143 355.884C195.143 355.224 195.393 354.712 195.893 354.349C196.397 353.982 197.104 353.798 198.014 353.798H199.069V353.3C199.069 352.921 198.956 352.621 198.729 352.398C198.502 352.171 198.168 352.058 197.727 352.058C197.34 352.058 197.016 352.156 196.754 352.351C196.493 352.546 196.362 352.783 196.362 353.06H195.272C195.272 352.744 195.383 352.439 195.606 352.146C195.833 351.849 196.137 351.615 196.52 351.443C196.907 351.271 197.331 351.185 197.792 351.185C198.522 351.185 199.094 351.369 199.508 351.736C199.922 352.099 200.137 352.601 200.153 353.242V356.16C200.153 356.742 200.227 357.205 200.375 357.548V357.642H199.239ZM197.44 356.816C197.78 356.816 198.102 356.728 198.407 356.552C198.711 356.376 198.932 356.148 199.069 355.867V354.566H198.219C196.891 354.566 196.227 354.955 196.227 355.732C196.227 356.072 196.34 356.337 196.567 356.529C196.793 356.72 197.084 356.816 197.44 356.816ZM202.872 351.302L202.901 352.005C203.366 351.458 203.993 351.185 204.782 351.185C205.668 351.185 206.272 351.525 206.592 352.205C206.803 351.9 207.077 351.654 207.413 351.466C207.752 351.279 208.153 351.185 208.614 351.185C210.004 351.185 210.711 351.921 210.735 353.394V357.642H209.651V353.458C209.651 353.005 209.547 352.667 209.34 352.445C209.133 352.218 208.786 352.105 208.297 352.105C207.895 352.105 207.561 352.226 207.295 352.468C207.03 352.707 206.875 353.029 206.833 353.435V357.642H205.743V353.488C205.743 352.566 205.292 352.105 204.389 352.105C203.678 352.105 203.192 352.408 202.93 353.013V357.642H201.846V351.302H202.872ZM215.006 357.759C214.147 357.759 213.448 357.478 212.909 356.916C212.37 356.349 212.1 355.593 212.1 354.648V354.449C212.1 353.82 212.219 353.259 212.458 352.767C212.7 352.271 213.036 351.884 213.465 351.607C213.899 351.326 214.368 351.185 214.872 351.185C215.696 351.185 216.336 351.457 216.793 352C217.25 352.542 217.479 353.32 217.479 354.332V354.783H213.184C213.2 355.408 213.381 355.914 213.729 356.3C214.081 356.683 214.526 356.875 215.065 356.875C215.448 356.875 215.772 356.796 216.038 356.64C216.303 356.484 216.536 356.277 216.735 356.019L217.397 356.535C216.866 357.351 216.069 357.759 215.006 357.759ZM214.872 352.076C214.434 352.076 214.067 352.236 213.77 352.556C213.473 352.873 213.29 353.318 213.219 353.892H216.395V353.81C216.364 353.259 216.215 352.833 215.95 352.533C215.684 352.228 215.325 352.076 214.872 352.076ZM226.18 354.777H227.364V355.662H226.18V357.642H225.09V355.662H221.206V355.023L225.026 349.111H226.18V354.777ZM222.436 354.777H225.09V350.593L224.961 350.828L222.436 354.777Z" fill="black"/>
</g>
<path d="M72.8879 174.693L110.279 211.928L147.67 132.726L184.356 127.784L219.631 168.732L256.317 102.368" stroke="#0C213A" stroke-width="1.65" stroke-linecap="round"/>
<path d="M72.8879 115.201L110.279 170.85L146.965 90.1133L183.651 93.8959L219.631 182.852L256.317 188.5" stroke="#DB0E00" stroke-width="1.65" stroke-linecap="round"/>
<path d="M73.5933 192.343L110.984 152.731L146.965 115.201L185.061 145.434L220.336 127.784L256.316 165.908" stroke="#F8B849" stroke-width="1.65" stroke-linecap="round"/>
<path d="M72.8879 132.726L110.985 123.548L147.67 103.78L184.356 196.972L220.336 182.532L256.317 229.448" stroke="#00A560" stroke-width="1.65" stroke-linecap="round"/>
<path opacity="0.6" d="M40.4089 45.834C40.28 47.1992 39.7761 48.2656 38.8972 49.0332C38.0183 49.7949 36.8494 50.1758 35.3904 50.1758C34.3708 50.1758 33.4714 49.9355 32.6921 49.4551C31.9187 48.9688 31.321 48.2803 30.8992 47.3896C30.4773 46.499 30.2576 45.4648 30.24 44.2871V43.0918C30.24 41.8848 30.4539 40.8213 30.8816 39.9014C31.3093 38.9814 31.9216 38.2725 32.7185 37.7744C33.5212 37.2764 34.447 37.0273 35.4958 37.0273C36.908 37.0273 38.0447 37.4111 38.906 38.1787C39.7673 38.9463 40.2683 40.0303 40.4089 41.4307H38.1941C38.0886 40.5107 37.8191 39.8486 37.3855 39.4443C36.9578 39.0342 36.3279 38.8291 35.4958 38.8291C34.5291 38.8291 33.7849 39.1836 33.2634 39.8926C32.7478 40.5957 32.4841 41.6299 32.4724 42.9951V44.1289C32.4724 45.5117 32.7185 46.5664 33.2107 47.293C33.7087 48.0195 34.4353 48.3828 35.3904 48.3828C36.2634 48.3828 36.9197 48.1865 37.3591 47.7939C37.7986 47.4014 38.0769 46.748 38.1941 45.834H40.4089ZM47.1062 45.0693H44.6277V50H42.4041V37.2031H46.9041C48.3806 37.2031 49.5203 37.5342 50.323 38.1963C51.1257 38.8584 51.5271 39.8164 51.5271 41.0703C51.5271 41.9258 51.3191 42.6436 50.9031 43.2236C50.4929 43.7979 49.9187 44.2402 49.1804 44.5508L52.0544 49.8857V50H49.6726L47.1062 45.0693ZM44.6277 43.2852H46.9128C47.6628 43.2852 48.2488 43.0977 48.6707 42.7227C49.0925 42.3418 49.3035 41.8232 49.3035 41.167C49.3035 40.4814 49.1072 39.9512 48.7146 39.5762C48.3279 39.2012 47.7478 39.0078 46.9744 38.9961H44.6277V43.2852ZM63.8494 43.9355C63.8494 45.1895 63.6326 46.291 63.199 47.2402C62.7654 48.1836 62.1443 48.9102 61.3357 49.4199C60.533 49.9238 59.6072 50.1758 58.5583 50.1758C57.5212 50.1758 56.5955 49.9238 55.781 49.4199C54.9724 48.9102 54.3455 48.1865 53.9001 47.249C53.4607 46.3115 53.238 45.2305 53.2322 44.0059V43.2852C53.2322 42.0371 53.4519 40.9355 53.8914 39.9805C54.3367 39.0254 54.9607 38.2959 55.7634 37.792C56.572 37.2822 57.4978 37.0273 58.5408 37.0273C59.5837 37.0273 60.5066 37.2793 61.3093 37.7832C62.1179 38.2812 62.7419 39.002 63.1814 39.9453C63.6208 40.8828 63.8435 41.9756 63.8494 43.2236V43.9355ZM61.6257 43.2676C61.6257 41.8496 61.3562 40.7627 60.8171 40.0068C60.2839 39.251 59.5251 38.873 58.5408 38.873C57.5798 38.873 56.8269 39.251 56.282 40.0068C55.7429 40.7568 55.4675 41.8203 55.4558 43.1973V43.9355C55.4558 45.3418 55.7283 46.4287 56.2732 47.1963C56.824 47.9639 57.5857 48.3477 58.5583 48.3477C59.5427 48.3477 60.2986 47.9727 60.8259 47.2227C61.3591 46.4727 61.6257 45.377 61.6257 43.9355V43.2676ZM72.7527 46.7041C72.7527 46.1416 72.5535 45.708 72.155 45.4033C71.7625 45.0986 71.0505 44.791 70.0193 44.4805C68.988 44.1699 68.1677 43.8242 67.5583 43.4434C66.3923 42.7109 65.8093 41.7559 65.8093 40.5781C65.8093 39.5469 66.2283 38.6973 67.0662 38.0293C67.9099 37.3613 69.0027 37.0273 70.3445 37.0273C71.2351 37.0273 72.0291 37.1914 72.7263 37.5195C73.4236 37.8477 73.9714 38.3164 74.3699 38.9258C74.7683 39.5293 74.9675 40.2002 74.9675 40.9385H72.7527C72.7527 40.2705 72.5417 39.749 72.1199 39.374C71.7039 38.9932 71.1062 38.8027 70.3269 38.8027C69.6003 38.8027 69.0349 38.958 68.6306 39.2686C68.2322 39.5791 68.033 40.0127 68.033 40.5693C68.033 41.0381 68.2498 41.4307 68.6833 41.7471C69.1169 42.0576 69.8318 42.3623 70.8279 42.6611C71.824 42.9541 72.6238 43.291 73.2273 43.6719C73.8308 44.0469 74.2732 44.4805 74.5544 44.9727C74.8357 45.459 74.9763 46.0303 74.9763 46.6865C74.9763 47.7529 74.5662 48.6025 73.7458 49.2354C72.9314 49.8623 71.824 50.1758 70.4236 50.1758C69.4978 50.1758 68.6453 50.0059 67.866 49.666C67.0925 49.3203 66.489 48.8457 66.0554 48.2422C65.6277 47.6387 65.4138 46.9355 65.4138 46.1328H67.6375C67.6375 46.8594 67.8777 47.4219 68.3582 47.8203C68.8386 48.2188 69.5271 48.418 70.4236 48.418C71.197 48.418 71.7771 48.2627 72.1638 47.9521C72.5564 47.6357 72.7527 47.2197 72.7527 46.7041ZM83.616 46.7041C83.616 46.1416 83.4167 45.708 83.0183 45.4033C82.6257 45.0986 81.9138 44.791 80.8826 44.4805C79.8513 44.1699 79.031 43.8242 78.4216 43.4434C77.2556 42.7109 76.6726 41.7559 76.6726 40.5781C76.6726 39.5469 77.0916 38.6973 77.9294 38.0293C78.7732 37.3613 79.866 37.0273 81.2078 37.0273C82.0984 37.0273 82.8923 37.1914 83.5896 37.5195C84.2869 37.8477 84.8347 38.3164 85.2332 38.9258C85.6316 39.5293 85.8308 40.2002 85.8308 40.9385H83.616C83.616 40.2705 83.405 39.749 82.9832 39.374C82.5671 38.9932 81.9695 38.8027 81.1902 38.8027C80.4636 38.8027 79.8982 38.958 79.4939 39.2686C79.0955 39.5791 78.8962 40.0127 78.8962 40.5693C78.8962 41.0381 79.113 41.4307 79.5466 41.7471C79.9802 42.0576 80.6951 42.3623 81.6912 42.6611C82.6873 42.9541 83.4871 43.291 84.0906 43.6719C84.6941 44.0469 85.1365 44.4805 85.4177 44.9727C85.699 45.459 85.8396 46.0303 85.8396 46.6865C85.8396 47.7529 85.4294 48.6025 84.6091 49.2354C83.7947 49.8623 82.6873 50.1758 81.2869 50.1758C80.3611 50.1758 79.5085 50.0059 78.7292 49.666C77.9558 49.3203 77.3523 48.8457 76.9187 48.2422C76.491 47.6387 76.2771 46.9355 76.2771 46.1328H78.5007C78.5007 46.8594 78.741 47.4219 79.2214 47.8203C79.7019 48.2188 80.3904 48.418 81.2869 48.418C82.0603 48.418 82.6404 48.2627 83.0271 47.9521C83.4197 47.6357 83.616 47.2197 83.616 46.7041ZM98.9617 46.7041C98.9617 46.1416 98.7625 45.708 98.364 45.4033C97.9714 45.0986 97.2595 44.791 96.2283 44.4805C95.197 44.1699 94.3767 43.8242 93.7673 43.4434C92.6013 42.7109 92.0183 41.7559 92.0183 40.5781C92.0183 39.5469 92.4373 38.6973 93.2751 38.0293C94.1189 37.3613 95.2117 37.0273 96.5535 37.0273C97.4441 37.0273 98.238 37.1914 98.9353 37.5195C99.6326 37.8477 100.18 38.3164 100.579 38.9258C100.977 39.5293 101.177 40.2002 101.177 40.9385H98.9617C98.9617 40.2705 98.7507 39.749 98.3289 39.374C97.9128 38.9932 97.3152 38.8027 96.5359 38.8027C95.8093 38.8027 95.2439 38.958 94.8396 39.2686C94.4412 39.5791 94.2419 40.0127 94.2419 40.5693C94.2419 41.0381 94.4587 41.4307 94.8923 41.7471C95.3259 42.0576 96.0408 42.3623 97.0369 42.6611C98.033 42.9541 98.8328 43.291 99.4363 43.6719C100.04 44.0469 100.482 44.4805 100.763 44.9727C101.045 45.459 101.185 46.0303 101.185 46.6865C101.185 47.7529 100.775 48.6025 99.9548 49.2354C99.1404 49.8623 98.033 50.1758 96.6326 50.1758C95.7068 50.1758 94.8542 50.0059 94.075 49.666C93.3015 49.3203 92.698 48.8457 92.2644 48.2422C91.8367 47.6387 91.6228 46.9355 91.6228 46.1328H93.8464C93.8464 46.8594 94.0867 47.4219 94.5671 47.8203C95.0476 48.2188 95.7361 48.418 96.6326 48.418C97.406 48.418 97.9861 48.2627 98.3728 47.9521C98.7654 47.6357 98.9617 47.2197 98.9617 46.7041ZM113.297 50H111.082V44.3135H105.36V50H103.136V37.2031H105.36V42.5293H111.082V37.2031H113.297V50ZM126.146 43.9355C126.146 45.1895 125.929 46.291 125.496 47.2402C125.062 48.1836 124.441 48.9102 123.633 49.4199C122.83 49.9238 121.904 50.1758 120.855 50.1758C119.818 50.1758 118.892 49.9238 118.078 49.4199C117.269 48.9102 116.642 48.1865 116.197 47.249C115.758 46.3115 115.535 45.2305 115.529 44.0059V43.2852C115.529 42.0371 115.749 40.9355 116.188 39.9805C116.634 39.0254 117.258 38.2959 118.06 37.792C118.869 37.2822 119.795 37.0273 120.838 37.0273C121.881 37.0273 122.803 37.2793 123.606 37.7832C124.415 38.2812 125.039 39.002 125.478 39.9453C125.918 40.8828 126.14 41.9756 126.146 43.2236V43.9355ZM123.923 43.2676C123.923 41.8496 123.653 40.7627 123.114 40.0068C122.581 39.251 121.822 38.873 120.838 38.873C119.877 38.873 119.124 39.251 118.579 40.0068C118.04 40.7568 117.764 41.8203 117.753 43.1973V43.9355C117.753 45.3418 118.025 46.4287 118.57 47.1963C119.121 47.9639 119.883 48.3477 120.855 48.3477C121.84 48.3477 122.595 47.9727 123.123 47.2227C123.656 46.4727 123.923 45.377 123.923 43.9355V43.2676ZM130.585 45.2451V50H128.361V37.2031H133.257C134.686 37.2031 135.82 37.5752 136.658 38.3193C137.502 39.0635 137.924 40.0479 137.924 41.2725C137.924 42.5264 137.51 43.502 136.684 44.1992C135.864 44.8965 134.713 45.2451 133.23 45.2451H130.585ZM130.585 43.4609H133.257C134.048 43.4609 134.651 43.2764 135.067 42.9072C135.483 42.5322 135.691 41.9932 135.691 41.29C135.691 40.5986 135.48 40.0479 135.058 39.6377C134.636 39.2217 134.056 39.0078 133.318 38.9961H130.585V43.4609ZM142.098 45.2451V50H139.875V37.2031H144.77C146.2 37.2031 147.334 37.5752 148.172 38.3193C149.015 39.0635 149.437 40.0479 149.437 41.2725C149.437 42.5264 149.024 43.502 148.198 44.1992C147.378 44.8965 146.226 45.2451 144.744 45.2451H142.098ZM142.098 43.4609H144.77C145.561 43.4609 146.165 43.2764 146.581 42.9072C146.997 42.5322 147.205 41.9932 147.205 41.29C147.205 40.5986 146.994 40.0479 146.572 39.6377C146.15 39.2217 145.57 39.0078 144.832 38.9961H142.098V43.4609ZM153.735 50H151.52V37.2031H153.735V50ZM166.62 50H164.396L158.692 40.9209V50H156.469V37.2031H158.692L164.414 46.3174V37.2031H166.62V50ZM179.056 48.3389C178.594 48.9424 177.952 49.3994 177.132 49.71C176.311 50.0205 175.38 50.1758 174.337 50.1758C173.264 50.1758 172.315 49.9326 171.489 49.4463C170.663 48.96 170.024 48.2656 169.573 47.3633C169.128 46.4551 168.896 45.3975 168.879 44.1904V43.1885C168.879 41.2549 169.342 39.7461 170.267 38.6621C171.193 37.5723 172.485 37.0273 174.143 37.0273C175.567 37.0273 176.698 37.3789 177.536 38.082C178.374 38.7852 178.878 39.7988 179.048 41.123H176.868C176.622 39.582 175.728 38.8115 174.187 38.8115C173.191 38.8115 172.432 39.1719 171.911 39.8926C171.395 40.6074 171.129 41.6592 171.111 43.0479V44.0322C171.111 45.415 171.401 46.4902 171.981 47.2578C172.567 48.0195 173.379 48.4004 174.416 48.4004C175.552 48.4004 176.361 48.1426 176.842 47.627V45.1221H174.205V43.4346H179.056V48.3389Z" fill="black"/>
<g clip-path="url(#clip5_33_799)">
<path d="M40.4323 95.9189V97.0967H40.2565C39.4597 97.1084 38.823 97.3271 38.3464 97.7529C37.8698 98.1787 37.5866 98.7822 37.4968 99.5635C37.9538 99.083 38.5378 98.8428 39.2487 98.8428C40.0026 98.8428 40.5964 99.1084 41.03 99.6396C41.4675 100.171 41.6862 100.856 41.6862 101.696C41.6862 102.563 41.4304 103.267 40.9187 103.806C40.4108 104.341 39.7429 104.608 38.9147 104.608C38.0632 104.608 37.3718 104.294 36.8405 103.665C36.3132 103.036 36.0495 102.212 36.0495 101.192V100.706C36.0495 99.21 36.4128 98.0381 37.1394 97.1904C37.8698 96.3428 38.9187 95.9189 40.2858 95.9189H40.4323ZM38.903 99.9912C38.5905 99.9912 38.3034 100.079 38.0417 100.255C37.7839 100.431 37.5944 100.665 37.4733 100.958V101.392C37.4733 102.024 37.6062 102.528 37.8718 102.903C38.1374 103.274 38.4812 103.46 38.903 103.46C39.3249 103.46 39.6589 103.302 39.905 102.985C40.1511 102.669 40.2741 102.253 40.2741 101.737C40.2741 101.222 40.1491 100.802 39.8991 100.478C39.6491 100.153 39.3171 99.9912 38.903 99.9912ZM48.3835 100.899C48.3835 102.126 48.153 103.052 47.6921 103.677C47.2351 104.298 46.5378 104.608 45.6003 104.608C44.6784 104.608 43.9831 104.306 43.5144 103.7C43.0495 103.091 42.8112 102.19 42.7995 100.999V99.5225C42.7995 98.2959 43.028 97.376 43.4851 96.7627C43.946 96.1494 44.6472 95.8428 45.5886 95.8428C46.5222 95.8428 47.2175 96.1416 47.6745 96.7393C48.1355 97.3369 48.3718 98.2314 48.3835 99.4229V100.899ZM46.9597 99.3057C46.9597 98.5049 46.8503 97.9189 46.6315 97.5479C46.4128 97.1729 46.0651 96.9854 45.5886 96.9854C45.1237 96.9854 44.7819 97.1631 44.5632 97.5186C44.3444 97.8701 44.2292 98.4209 44.2175 99.1709V101.104C44.2175 101.901 44.3288 102.495 44.5515 102.886C44.7741 103.276 45.1237 103.472 45.6003 103.472C46.0573 103.472 46.3952 103.292 46.614 102.933C46.8327 102.569 46.948 102.003 46.9597 101.233V99.3057ZM55.2038 100.899C55.2038 102.126 54.9733 103.052 54.5124 103.677C54.0554 104.298 53.3581 104.608 52.4206 104.608C51.4987 104.608 50.8034 104.306 50.3347 103.7C49.8698 103.091 49.6315 102.19 49.6198 100.999V99.5225C49.6198 98.2959 49.8483 97.376 50.3054 96.7627C50.7663 96.1494 51.4675 95.8428 52.4089 95.8428C53.3425 95.8428 54.0378 96.1416 54.4948 96.7393C54.9558 97.3369 55.1921 98.2314 55.2038 99.4229V100.899ZM53.78 99.3057C53.78 98.5049 53.6706 97.9189 53.4519 97.5479C53.2331 97.1729 52.8855 96.9854 52.4089 96.9854C51.944 96.9854 51.6022 97.1631 51.3835 97.5186C51.1647 97.8701 51.0495 98.4209 51.0378 99.1709V101.104C51.0378 101.901 51.1491 102.495 51.3718 102.886C51.5944 103.276 51.944 103.472 52.4206 103.472C52.8776 103.472 53.2155 103.292 53.4343 102.933C53.653 102.569 53.7683 102.003 53.78 101.233V99.3057Z" fill="#8087A3"/>
<path opacity="0.6" d="M39.031 83.4912H37.5486L33.7458 77.4385V83.4912H32.2634V74.96H33.7458L37.5603 81.0361V74.96H39.031V83.4912ZM44.4861 82.8701C44.0681 83.3623 43.4744 83.6084 42.7048 83.6084C42.0173 83.6084 41.4958 83.4072 41.1404 83.0049C40.7888 82.6025 40.613 82.0205 40.613 81.2588V77.1514H42.0369V81.2412C42.0369 82.0459 42.3708 82.4482 43.0388 82.4482C43.7302 82.4482 44.197 82.2002 44.4392 81.7041V77.1514H45.863V83.4912H44.5212L44.4861 82.8701ZM48.6521 77.1514L48.6931 77.8135C49.1384 77.2939 49.7478 77.0342 50.5212 77.0342C51.3689 77.0342 51.949 77.3584 52.2615 78.0068C52.7224 77.3584 53.3708 77.0342 54.2068 77.0342C54.906 77.0342 55.4255 77.2275 55.7654 77.6143C56.1091 78.001 56.2849 78.5713 56.2927 79.3252V83.4912H54.8689V79.3662C54.8689 78.9639 54.781 78.6689 54.6052 78.4814C54.4294 78.2939 54.1384 78.2002 53.7322 78.2002C53.408 78.2002 53.1423 78.2881 52.9353 78.4639C52.7322 78.6357 52.5896 78.8623 52.5076 79.1436L52.5134 83.4912H51.0896V79.3193C51.0701 78.5732 50.6892 78.2002 49.947 78.2002C49.3767 78.2002 48.9724 78.4326 48.7341 78.8975V83.4912H47.3103V77.1514H48.6521ZM63.3181 80.3857C63.3181 81.3701 63.0974 82.1533 62.656 82.7354C62.2185 83.3174 61.615 83.6084 60.8455 83.6084C60.1033 83.6084 59.5251 83.3408 59.1111 82.8057L59.0408 83.4912H57.7517V74.4912H59.1755V77.7607C59.5857 77.2764 60.1384 77.0342 60.8337 77.0342C61.6072 77.0342 62.2146 77.3213 62.656 77.8955C63.0974 78.4697 63.3181 79.2725 63.3181 80.3037V80.3857ZM61.8943 80.2627C61.8943 79.5752 61.7732 79.0596 61.531 78.7158C61.2888 78.3721 60.9373 78.2002 60.4763 78.2002C59.8591 78.2002 59.4255 78.4697 59.1755 79.0088V81.6221C59.4294 82.1729 59.8669 82.4482 60.488 82.4482C60.9333 82.4482 61.2771 82.2822 61.5193 81.9502C61.7615 81.6182 61.8865 81.1162 61.8943 80.4443V80.2627ZM67.3083 83.6084C66.406 83.6084 65.6736 83.3252 65.1111 82.7588C64.5525 82.1885 64.2732 81.4307 64.2732 80.4854V80.3096C64.2732 79.6768 64.3943 79.1123 64.6365 78.6162C64.8826 78.1162 65.2263 77.7275 65.6677 77.4502C66.1091 77.1729 66.6013 77.0342 67.1443 77.0342C68.0076 77.0342 68.6736 77.3096 69.1423 77.8604C69.615 78.4111 69.8513 79.1904 69.8513 80.1982V80.7725H65.7087C65.7517 81.2959 65.9255 81.71 66.2302 82.0146C66.5388 82.3193 66.9255 82.4717 67.3904 82.4717C68.0427 82.4717 68.574 82.208 68.9841 81.6807L69.7517 82.4131C69.4978 82.792 69.158 83.0869 68.7322 83.2979C68.3103 83.5049 67.8357 83.6084 67.3083 83.6084ZM67.1384 78.1768C66.7478 78.1768 66.4314 78.3135 66.1892 78.5869C65.9509 78.8604 65.7986 79.2412 65.7322 79.7295H68.4451V79.624C68.4138 79.1475 68.2869 78.7881 68.0642 78.5459C67.8416 78.2998 67.533 78.1768 67.1384 78.1768ZM74.281 78.4521C74.0935 78.4209 73.9001 78.4053 73.7009 78.4053C73.0486 78.4053 72.6091 78.6553 72.3826 79.1553V83.4912H70.9587V77.1514H72.3181L72.3533 77.8604C72.697 77.3096 73.1736 77.0342 73.783 77.0342C73.9861 77.0342 74.1541 77.0615 74.2869 77.1162L74.281 78.4521Z" fill="black"/>
<path d="M36.3835 132.261L36.8464 127.96H41.4284V129.19H38.03L37.7956 131.229C38.1901 131.003 38.6355 130.89 39.1315 130.89C39.944 130.89 40.5749 131.149 41.0241 131.669C41.4772 132.188 41.7038 132.888 41.7038 133.767C41.7038 134.634 41.4538 135.325 40.9538 135.841C40.4538 136.353 39.7683 136.608 38.8972 136.608C38.1159 136.608 37.4675 136.388 36.9519 135.946C36.4401 135.501 36.1628 134.915 36.1198 134.188H37.4968C37.5515 134.603 37.6999 134.921 37.9421 135.144C38.1843 135.362 38.5007 135.472 38.8913 135.472C39.3288 135.472 39.6687 135.315 39.9108 135.003C40.1569 134.69 40.28 134.265 40.28 133.726C40.28 133.206 40.1452 132.796 39.8757 132.495C39.6062 132.19 39.2351 132.038 38.7624 132.038C38.5046 132.038 38.2858 132.073 38.1062 132.144C37.9265 132.21 37.7312 132.343 37.5202 132.542L36.3835 132.261ZM48.3835 132.899C48.3835 134.126 48.153 135.052 47.6921 135.677C47.2351 136.298 46.5378 136.608 45.6003 136.608C44.6784 136.608 43.9831 136.306 43.5144 135.7C43.0495 135.091 42.8112 134.19 42.7995 132.999V131.522C42.7995 130.296 43.028 129.376 43.4851 128.763C43.946 128.149 44.6472 127.843 45.5886 127.843C46.5222 127.843 47.2175 128.142 47.6745 128.739C48.1355 129.337 48.3718 130.231 48.3835 131.423V132.899ZM46.9597 131.306C46.9597 130.505 46.8503 129.919 46.6315 129.548C46.4128 129.173 46.0651 128.985 45.5886 128.985C45.1237 128.985 44.7819 129.163 44.5632 129.519C44.3444 129.87 44.2292 130.421 44.2175 131.171V133.104C44.2175 133.901 44.3288 134.495 44.5515 134.886C44.7741 135.276 45.1237 135.472 45.6003 135.472C46.0573 135.472 46.3952 135.292 46.614 134.933C46.8327 134.569 46.948 134.003 46.9597 133.233V131.306ZM55.2038 132.899C55.2038 134.126 54.9733 135.052 54.5124 135.677C54.0554 136.298 53.3581 136.608 52.4206 136.608C51.4987 136.608 50.8034 136.306 50.3347 135.7C49.8698 135.091 49.6315 134.19 49.6198 132.999V131.522C49.6198 130.296 49.8483 129.376 50.3054 128.763C50.7663 128.149 51.4675 127.843 52.4089 127.843C53.3425 127.843 54.0378 128.142 54.4948 128.739C54.9558 129.337 55.1921 130.231 55.2038 131.423V132.899ZM53.78 131.306C53.78 130.505 53.6706 129.919 53.4519 129.548C53.2331 129.173 52.8855 128.985 52.4089 128.985C51.944 128.985 51.6022 129.163 51.3835 129.519C51.1647 129.87 51.0495 130.421 51.0378 131.171V133.104C51.0378 133.901 51.1491 134.495 51.3718 134.886C51.5944 135.276 51.944 135.472 52.4206 135.472C52.8776 135.472 53.2155 135.292 53.4343 134.933C53.653 134.569 53.7683 134.003 53.78 133.233V131.306Z" fill="#8087A3"/>
<path d="M40.819 164.45H41.8796V165.593H40.819V167.491H39.3952V165.593H35.7097L35.6687 164.726L39.3483 158.96H40.819V164.45ZM37.1628 164.45H39.3952V160.888L39.2897 161.075L37.1628 164.45ZM48.3835 163.899C48.3835 165.126 48.153 166.052 47.6921 166.677C47.2351 167.298 46.5378 167.608 45.6003 167.608C44.6784 167.608 43.9831 167.306 43.5144 166.7C43.0495 166.091 42.8112 165.19 42.7995 163.999V162.522C42.7995 161.296 43.028 160.376 43.4851 159.763C43.946 159.149 44.6472 158.843 45.5886 158.843C46.5222 158.843 47.2175 159.142 47.6745 159.739C48.1355 160.337 48.3718 161.231 48.3835 162.423V163.899ZM46.9597 162.306C46.9597 161.505 46.8503 160.919 46.6315 160.548C46.4128 160.173 46.0651 159.985 45.5886 159.985C45.1237 159.985 44.7819 160.163 44.5632 160.519C44.3444 160.87 44.2292 161.421 44.2175 162.171V164.104C44.2175 164.901 44.3288 165.495 44.5515 165.886C44.7741 166.276 45.1237 166.472 45.6003 166.472C46.0573 166.472 46.3952 166.292 46.614 165.933C46.8327 165.569 46.948 165.003 46.9597 164.233V162.306ZM55.2038 163.899C55.2038 165.126 54.9733 166.052 54.5124 166.677C54.0554 167.298 53.3581 167.608 52.4206 167.608C51.4987 167.608 50.8034 167.306 50.3347 166.7C49.8698 166.091 49.6315 165.19 49.6198 163.999V162.522C49.6198 161.296 49.8483 160.376 50.3054 159.763C50.7663 159.149 51.4675 158.843 52.4089 158.843C53.3425 158.843 54.0378 159.142 54.4948 159.739C54.9558 160.337 55.1921 161.231 55.2038 162.423V163.899ZM53.78 162.306C53.78 161.505 53.6706 160.919 53.4519 160.548C53.2331 160.173 52.8855 159.985 52.4089 159.985C51.944 159.985 51.6022 160.163 51.3835 160.519C51.1647 160.87 51.0495 161.421 51.0378 162.171V164.104C51.0378 164.901 51.1491 165.495 51.3718 165.886C51.5944 166.276 51.944 166.472 52.4206 166.472C52.8776 166.472 53.2155 166.292 53.4343 165.933C53.653 165.569 53.7683 165.003 53.78 164.233V162.306Z" fill="#8087A3"/>
<path d="M37.6491 191.575H38.5163C38.9538 191.571 39.2995 191.458 39.5534 191.235C39.8112 191.013 39.9401 190.69 39.9401 190.269C39.9401 189.862 39.8327 189.548 39.6179 189.325C39.4069 189.099 39.0827 188.985 38.6452 188.985C38.2624 188.985 37.948 189.097 37.7019 189.319C37.4558 189.538 37.3327 189.825 37.3327 190.181H35.9089C35.9089 189.743 36.0241 189.345 36.2546 188.985C36.489 188.626 36.8132 188.347 37.2272 188.147C37.6452 187.944 38.112 187.843 38.6276 187.843C39.4792 187.843 40.1472 188.058 40.6315 188.487C41.1198 188.913 41.364 189.507 41.364 190.269C41.364 190.651 41.2409 191.013 40.9948 191.353C40.7526 191.688 40.4382 191.942 40.0515 192.114C40.5202 192.274 40.8757 192.526 41.1179 192.87C41.364 193.214 41.487 193.624 41.487 194.101C41.487 194.866 41.2233 195.476 40.696 195.929C40.1726 196.382 39.4831 196.608 38.6276 196.608C37.8073 196.608 37.1355 196.39 36.612 195.952C36.0886 195.515 35.8269 194.933 35.8269 194.206H37.2507C37.2507 194.581 37.3757 194.886 37.6257 195.12C37.8796 195.354 38.2194 195.472 38.6452 195.472C39.0866 195.472 39.4343 195.354 39.6882 195.12C39.9421 194.886 40.069 194.546 40.069 194.101C40.069 193.651 39.9362 193.306 39.6706 193.063C39.405 192.821 39.0105 192.7 38.487 192.7H37.6491V191.575ZM48.3835 192.899C48.3835 194.126 48.153 195.052 47.6921 195.677C47.2351 196.298 46.5378 196.608 45.6003 196.608C44.6784 196.608 43.9831 196.306 43.5144 195.7C43.0495 195.091 42.8112 194.19 42.7995 192.999V191.522C42.7995 190.296 43.028 189.376 43.4851 188.763C43.946 188.149 44.6472 187.843 45.5886 187.843C46.5222 187.843 47.2175 188.142 47.6745 188.739C48.1355 189.337 48.3718 190.231 48.3835 191.423V192.899ZM46.9597 191.306C46.9597 190.505 46.8503 189.919 46.6315 189.548C46.4128 189.173 46.0651 188.985 45.5886 188.985C45.1237 188.985 44.7819 189.163 44.5632 189.519C44.3444 189.87 44.2292 190.421 44.2175 191.171V193.104C44.2175 193.901 44.3288 194.495 44.5515 194.886C44.7741 195.276 45.1237 195.472 45.6003 195.472C46.0573 195.472 46.3952 195.292 46.614 194.933C46.8327 194.569 46.948 194.003 46.9597 193.233V191.306ZM55.2038 192.899C55.2038 194.126 54.9733 195.052 54.5124 195.677C54.0554 196.298 53.3581 196.608 52.4206 196.608C51.4987 196.608 50.8034 196.306 50.3347 195.7C49.8698 195.091 49.6315 194.19 49.6198 192.999V191.522C49.6198 190.296 49.8483 189.376 50.3054 188.763C50.7663 188.149 51.4675 187.843 52.4089 187.843C53.3425 187.843 54.0378 188.142 54.4948 188.739C54.9558 189.337 55.1921 190.231 55.2038 191.423V192.899ZM53.78 191.306C53.78 190.505 53.6706 189.919 53.4519 189.548C53.2331 189.173 52.8855 188.985 52.4089 188.985C51.944 188.985 51.6022 189.163 51.3835 189.519C51.1647 189.87 51.0495 190.421 51.0378 191.171V193.104C51.0378 193.901 51.1491 194.495 51.3718 194.886C51.5944 195.276 51.944 195.472 52.4206 195.472C52.8776 195.472 53.2155 195.292 53.4343 194.933C53.653 194.569 53.7683 194.003 53.78 193.233V191.306Z" fill="#8087A3"/>
<path d="M41.739 226.491H36.0026V225.513L38.8444 222.413C39.2546 221.956 39.5456 221.575 39.7175 221.271C39.8933 220.962 39.9812 220.653 39.9812 220.345C39.9812 219.938 39.8659 219.61 39.6355 219.36C39.4089 219.11 39.1022 218.985 38.7155 218.985C38.2546 218.985 37.8972 219.126 37.6433 219.407C37.3894 219.688 37.2624 220.073 37.2624 220.562H35.8386C35.8386 220.042 35.9558 219.575 36.1901 219.161C36.4284 218.743 36.7663 218.419 37.2038 218.188C37.6452 217.958 38.153 217.843 38.7272 217.843C39.5554 217.843 40.2077 218.052 40.6843 218.47C41.1647 218.884 41.405 219.458 41.405 220.192C41.405 220.618 41.2839 221.065 41.0417 221.534C40.8034 221.999 40.4108 222.528 39.864 223.122L37.778 225.354H41.739V226.491ZM48.3835 222.899C48.3835 224.126 48.153 225.052 47.6921 225.677C47.2351 226.298 46.5378 226.608 45.6003 226.608C44.6784 226.608 43.9831 226.306 43.5144 225.7C43.0495 225.091 42.8112 224.19 42.7995 222.999V221.522C42.7995 220.296 43.028 219.376 43.4851 218.763C43.946 218.149 44.6472 217.843 45.5886 217.843C46.5222 217.843 47.2175 218.142 47.6745 218.739C48.1355 219.337 48.3718 220.231 48.3835 221.423V222.899ZM46.9597 221.306C46.9597 220.505 46.8503 219.919 46.6315 219.548C46.4128 219.173 46.0651 218.985 45.5886 218.985C45.1237 218.985 44.7819 219.163 44.5632 219.519C44.3444 219.87 44.2292 220.421 44.2175 221.171V223.104C44.2175 223.901 44.3288 224.495 44.5515 224.886C44.7741 225.276 45.1237 225.472 45.6003 225.472C46.0573 225.472 46.3952 225.292 46.614 224.933C46.8327 224.569 46.948 224.003 46.9597 223.233V221.306ZM55.2038 222.899C55.2038 224.126 54.9733 225.052 54.5124 225.677C54.0554 226.298 53.3581 226.608 52.4206 226.608C51.4987 226.608 50.8034 226.306 50.3347 225.7C49.8698 225.091 49.6315 224.19 49.6198 222.999V221.522C49.6198 220.296 49.8483 219.376 50.3054 218.763C50.7663 218.149 51.4675 217.843 52.4089 217.843C53.3425 217.843 54.0378 218.142 54.4948 218.739C54.9558 219.337 55.1921 220.231 55.2038 221.423V222.899ZM53.78 221.306C53.78 220.505 53.6706 219.919 53.4519 219.548C53.2331 219.173 52.8855 218.985 52.4089 218.985C51.944 218.985 51.6022 219.163 51.3835 219.519C51.1647 219.87 51.0495 220.421 51.0378 221.171V223.104C51.0378 223.901 51.1491 224.495 51.3718 224.886C51.5944 225.276 51.944 225.472 52.4206 225.472C52.8776 225.472 53.2155 225.292 53.4343 224.933C53.653 224.569 53.7683 224.003 53.78 223.233V221.306Z" fill="#8087A3"/>
<path d="M39.8581 256.491H38.4401V249.642L36.3483 250.356V249.155L39.6765 247.931H39.8581V256.491ZM48.3835 252.899C48.3835 254.126 48.153 255.052 47.6921 255.677C47.2351 256.298 46.5378 256.608 45.6003 256.608C44.6784 256.608 43.9831 256.306 43.5144 255.7C43.0495 255.091 42.8112 254.19 42.7995 252.999V251.522C42.7995 250.296 43.028 249.376 43.4851 248.763C43.946 248.149 44.6472 247.843 45.5886 247.843C46.5222 247.843 47.2175 248.142 47.6745 248.739C48.1355 249.337 48.3718 250.231 48.3835 251.423V252.899ZM46.9597 251.306C46.9597 250.505 46.8503 249.919 46.6315 249.548C46.4128 249.173 46.0651 248.985 45.5886 248.985C45.1237 248.985 44.7819 249.163 44.5632 249.519C44.3444 249.87 44.2292 250.421 44.2175 251.171V253.104C44.2175 253.901 44.3288 254.495 44.5515 254.886C44.7741 255.276 45.1237 255.472 45.6003 255.472C46.0573 255.472 46.3952 255.292 46.614 254.933C46.8327 254.569 46.948 254.003 46.9597 253.233V251.306ZM55.2038 252.899C55.2038 254.126 54.9733 255.052 54.5124 255.677C54.0554 256.298 53.3581 256.608 52.4206 256.608C51.4987 256.608 50.8034 256.306 50.3347 255.7C49.8698 255.091 49.6315 254.19 49.6198 252.999V251.522C49.6198 250.296 49.8483 249.376 50.3054 248.763C50.7663 248.149 51.4675 247.843 52.4089 247.843C53.3425 247.843 54.0378 248.142 54.4948 248.739C54.9558 249.337 55.1921 250.231 55.2038 251.423V252.899ZM53.78 251.306C53.78 250.505 53.6706 249.919 53.4519 249.548C53.2331 249.173 52.8855 248.985 52.4089 248.985C51.944 248.985 51.6022 249.163 51.3835 249.519C51.1647 249.87 51.0495 250.421 51.0378 251.171V253.104C51.0378 253.901 51.1491 254.495 51.3718 254.886C51.5944 255.276 51.944 255.472 52.4206 255.472C52.8776 255.472 53.2155 255.292 53.4343 254.933C53.653 254.569 53.7683 254.003 53.78 253.233V251.306Z" fill="#8087A3"/>
</g>
<g clip-path="url(#clip6_33_799)">
<path opacity="0.6" d="M75.5728 273.896C75.5728 275.123 75.3423 276.049 74.8813 276.674C74.4243 277.295 73.7271 277.605 72.7896 277.605C71.8677 277.605 71.1724 277.303 70.7036 276.697C70.2388 276.088 70.0005 275.188 69.9888 273.996V272.52C69.9888 271.293 70.2173 270.373 70.6743 269.76C71.1353 269.146 71.8364 268.84 72.7778 268.84C73.7114 268.84 74.4067 269.139 74.8638 269.736C75.3247 270.334 75.561 271.229 75.5728 272.42V273.896ZM74.1489 272.303C74.1489 271.502 74.0396 270.916 73.8208 270.545C73.6021 270.17 73.2544 269.982 72.7778 269.982C72.313 269.982 71.9712 270.16 71.7524 270.516C71.5337 270.867 71.4185 271.418 71.4067 272.168V274.102C71.4067 274.898 71.5181 275.492 71.7407 275.883C71.9634 276.273 72.313 276.469 72.7896 276.469C73.2466 276.469 73.5845 276.289 73.8032 275.93C74.022 275.566 74.1372 275 74.1489 274.23V272.303ZM80.688 277.488H79.27V270.639L77.1782 271.354V270.152L80.5063 268.928H80.688V277.488Z" fill="black"/>
<path opacity="0.6" d="M112.267 273.896C112.267 275.123 112.037 276.049 111.576 276.674C111.119 277.295 110.421 277.605 109.484 277.605C108.562 277.605 107.867 277.303 107.398 276.697C106.933 276.088 106.695 275.188 106.683 273.996V272.52C106.683 271.293 106.912 270.373 107.369 269.76C107.83 269.146 108.531 268.84 109.472 268.84C110.406 268.84 111.101 269.139 111.558 269.736C112.019 270.334 112.255 271.229 112.267 272.42V273.896ZM110.843 272.303C110.843 271.502 110.734 270.916 110.515 270.545C110.296 270.17 109.949 269.982 109.472 269.982C109.007 269.982 108.666 270.16 108.447 270.516C108.228 270.867 108.113 271.418 108.101 272.168V274.102C108.101 274.898 108.212 275.492 108.435 275.883C108.658 276.273 109.007 276.469 109.484 276.469C109.941 276.469 110.279 276.289 110.498 275.93C110.716 275.566 110.832 275 110.843 274.23V272.303ZM119.263 277.488H113.527V276.51L116.369 273.41C116.779 272.953 117.07 272.572 117.242 272.268C117.417 271.959 117.505 271.65 117.505 271.342C117.505 270.936 117.39 270.607 117.16 270.357C116.933 270.107 116.626 269.982 116.24 269.982C115.779 269.982 115.421 270.123 115.167 270.404C114.914 270.686 114.787 271.07 114.787 271.559H113.363C113.363 271.039 113.48 270.572 113.714 270.158C113.953 269.74 114.291 269.416 114.728 269.186C115.169 268.955 115.677 268.84 116.251 268.84C117.08 268.84 117.732 269.049 118.208 269.467C118.689 269.881 118.929 270.455 118.929 271.189C118.929 271.615 118.808 272.062 118.566 272.531C118.328 272.996 117.935 273.525 117.388 274.119L115.302 276.352H119.263V277.488Z" fill="black"/>
<path opacity="0.6" d="M148.256 273.896C148.256 275.123 148.025 276.049 147.564 276.674C147.107 277.295 146.41 277.605 145.473 277.605C144.551 277.605 143.855 277.303 143.387 276.697C142.922 276.088 142.684 275.188 142.672 273.996V272.52C142.672 271.293 142.9 270.373 143.357 269.76C143.818 269.146 144.52 268.84 145.461 268.84C146.395 268.84 147.09 269.139 147.547 269.736C148.008 270.334 148.244 271.229 148.256 272.42V273.896ZM146.832 272.303C146.832 271.502 146.723 270.916 146.504 270.545C146.285 270.17 145.938 269.982 145.461 269.982C144.996 269.982 144.654 270.16 144.436 270.516C144.217 270.867 144.102 271.418 144.09 272.168V274.102C144.09 274.898 144.201 275.492 144.424 275.883C144.646 276.273 144.996 276.469 145.473 276.469C145.93 276.469 146.268 276.289 146.486 275.93C146.705 275.566 146.82 275 146.832 274.23V272.303ZM151.162 272.572H152.029C152.467 272.568 152.812 272.455 153.066 272.232C153.324 272.01 153.453 271.688 153.453 271.266C153.453 270.859 153.346 270.545 153.131 270.322C152.92 270.096 152.596 269.982 152.158 269.982C151.775 269.982 151.461 270.094 151.215 270.316C150.969 270.535 150.846 270.822 150.846 271.178H149.422C149.422 270.74 149.537 270.342 149.768 269.982C150.002 269.623 150.326 269.344 150.74 269.145C151.158 268.941 151.625 268.84 152.141 268.84C152.992 268.84 153.66 269.055 154.145 269.484C154.633 269.91 154.877 270.504 154.877 271.266C154.877 271.648 154.754 272.01 154.508 272.35C154.266 272.686 153.951 272.939 153.564 273.111C154.033 273.271 154.389 273.523 154.631 273.867C154.877 274.211 155 274.621 155 275.098C155 275.863 154.736 276.473 154.209 276.926C153.686 277.379 152.996 277.605 152.141 277.605C151.32 277.605 150.648 277.387 150.125 276.949C149.602 276.512 149.34 275.93 149.34 275.203H150.764C150.764 275.578 150.889 275.883 151.139 276.117C151.393 276.352 151.732 276.469 152.158 276.469C152.6 276.469 152.947 276.352 153.201 276.117C153.455 275.883 153.582 275.543 153.582 275.098C153.582 274.648 153.449 274.303 153.184 274.061C152.918 273.818 152.523 273.697 152 273.697H151.162V272.572Z" fill="black"/>
<path opacity="0.6" d="M184.95 273.896C184.95 275.123 184.72 276.049 184.259 276.674C183.802 277.295 183.104 277.605 182.167 277.605C181.245 277.605 180.55 277.303 180.081 276.697C179.616 276.088 179.378 275.188 179.366 273.996V272.52C179.366 271.293 179.595 270.373 180.052 269.76C180.513 269.146 181.214 268.84 182.155 268.84C183.089 268.84 183.784 269.139 184.241 269.736C184.702 270.334 184.938 271.229 184.95 272.42V273.896ZM183.526 272.303C183.526 271.502 183.417 270.916 183.198 270.545C182.979 270.17 182.632 269.982 182.155 269.982C181.69 269.982 181.349 270.16 181.13 270.516C180.911 270.867 180.796 271.418 180.784 272.168V274.102C180.784 274.898 180.896 275.492 181.118 275.883C181.341 276.273 181.69 276.469 182.167 276.469C182.624 276.469 182.962 276.289 183.181 275.93C183.399 275.566 183.515 275 183.526 274.23V272.303ZM191.026 274.447H192.087V275.59H191.026V277.488H189.603V275.59H185.917L185.876 274.723L189.556 268.957H191.026V274.447ZM187.37 274.447H189.603V270.885L189.497 271.072L187.37 274.447Z" fill="black"/>
<path opacity="0.6" d="M220.939 273.896C220.939 275.123 220.708 276.049 220.247 276.674C219.79 277.295 219.093 277.605 218.156 277.605C217.234 277.605 216.538 277.303 216.07 276.697C215.605 276.088 215.366 275.188 215.355 273.996V272.52C215.355 271.293 215.583 270.373 216.04 269.76C216.501 269.146 217.202 268.84 218.144 268.84C219.077 268.84 219.773 269.139 220.23 269.736C220.691 270.334 220.927 271.229 220.939 272.42V273.896ZM219.515 272.303C219.515 271.502 219.406 270.916 219.187 270.545C218.968 270.17 218.62 269.982 218.144 269.982C217.679 269.982 217.337 270.16 217.118 270.516C216.9 270.867 216.784 271.418 216.773 272.168V274.102C216.773 274.898 216.884 275.492 217.107 275.883C217.329 276.273 217.679 276.469 218.156 276.469C218.613 276.469 218.95 276.289 219.169 275.93C219.388 275.566 219.503 275 219.515 274.23V272.303ZM222.579 273.258L223.042 268.957H227.624V270.188H224.226L223.991 272.227C224.386 272 224.831 271.887 225.327 271.887C226.14 271.887 226.771 272.146 227.22 272.666C227.673 273.186 227.9 273.885 227.9 274.764C227.9 275.631 227.65 276.322 227.15 276.838C226.65 277.35 225.964 277.605 225.093 277.605C224.312 277.605 223.663 277.385 223.148 276.943C222.636 276.498 222.359 275.912 222.316 275.186H223.693C223.747 275.6 223.896 275.918 224.138 276.141C224.38 276.359 224.697 276.469 225.087 276.469C225.525 276.469 225.865 276.312 226.107 276C226.353 275.688 226.476 275.262 226.476 274.723C226.476 274.203 226.341 273.793 226.072 273.492C225.802 273.188 225.431 273.035 224.958 273.035C224.7 273.035 224.482 273.07 224.302 273.141C224.122 273.207 223.927 273.34 223.716 273.539L222.579 273.258Z" fill="black"/>
<path opacity="0.6" d="M257.633 273.896C257.633 275.123 257.403 276.049 256.942 276.674C256.485 277.295 255.787 277.605 254.85 277.605C253.928 277.605 253.233 277.303 252.764 276.697C252.299 276.088 252.061 275.188 252.049 273.996V272.52C252.049 271.293 252.278 270.373 252.735 269.76C253.196 269.146 253.897 268.84 254.838 268.84C255.772 268.84 256.467 269.139 256.924 269.736C257.385 270.334 257.621 271.229 257.633 272.42V273.896ZM256.209 272.303C256.209 271.502 256.1 270.916 255.881 270.545C255.662 270.17 255.315 269.982 254.838 269.982C254.373 269.982 254.031 270.16 253.813 270.516C253.594 270.867 253.479 271.418 253.467 272.168V274.102C253.467 274.898 253.578 275.492 253.801 275.883C254.024 276.273 254.373 276.469 254.85 276.469C255.307 276.469 255.645 276.289 255.864 275.93C256.082 275.566 256.198 275 256.209 274.23V272.303ZM263.323 268.916V270.094H263.147C262.35 270.105 261.713 270.324 261.237 270.75C260.76 271.176 260.477 271.779 260.387 272.561C260.844 272.08 261.428 271.84 262.139 271.84C262.893 271.84 263.487 272.105 263.92 272.637C264.358 273.168 264.576 273.854 264.576 274.693C264.576 275.561 264.321 276.264 263.809 276.803C263.301 277.338 262.633 277.605 261.805 277.605C260.953 277.605 260.262 277.291 259.731 276.662C259.203 276.033 258.94 275.209 258.94 274.189V273.703C258.94 272.207 259.303 271.035 260.03 270.188C260.76 269.34 261.809 268.916 263.176 268.916H263.323ZM261.793 272.988C261.481 272.988 261.194 273.076 260.932 273.252C260.674 273.428 260.485 273.662 260.364 273.955V274.389C260.364 275.021 260.496 275.525 260.762 275.9C261.028 276.271 261.371 276.457 261.793 276.457C262.215 276.457 262.549 276.299 262.795 275.982C263.041 275.666 263.164 275.25 263.164 274.734C263.164 274.219 263.039 273.799 262.789 273.475C262.539 273.15 262.207 272.988 261.793 272.988Z" fill="black"/>
<path opacity="0.6" d="M233.529 293.957L235.99 300.496L238.445 293.957H240.361V302.488H238.884V299.676L239.031 295.914L236.511 302.488H235.451L232.937 295.92L233.084 299.676V302.488H231.607V293.957H233.529ZM241.714 299.26C241.714 298.639 241.838 298.08 242.084 297.584C242.33 297.084 242.675 296.701 243.121 296.436C243.566 296.166 244.078 296.031 244.656 296.031C245.511 296.031 246.205 296.307 246.736 296.857C247.271 297.408 247.56 298.139 247.603 299.049L247.609 299.383C247.609 300.008 247.488 300.566 247.246 301.059C247.007 301.551 246.664 301.932 246.214 302.201C245.769 302.471 245.254 302.605 244.668 302.605C243.773 302.605 243.056 302.309 242.517 301.715C241.982 301.117 241.714 300.322 241.714 299.33V299.26ZM243.138 299.383C243.138 300.035 243.273 300.547 243.543 300.918C243.812 301.285 244.187 301.469 244.668 301.469C245.148 301.469 245.521 301.281 245.787 300.906C246.056 300.531 246.191 299.982 246.191 299.26C246.191 298.619 246.052 298.111 245.775 297.736C245.502 297.361 245.129 297.174 244.656 297.174C244.191 297.174 243.822 297.359 243.548 297.73C243.275 298.098 243.138 298.648 243.138 299.383ZM250.134 296.148L250.175 296.881C250.644 296.314 251.259 296.031 252.021 296.031C253.341 296.031 254.013 296.787 254.037 298.299V302.488H252.613V298.381C252.613 297.979 252.525 297.682 252.349 297.49C252.177 297.295 251.894 297.197 251.5 297.197C250.925 297.197 250.498 297.457 250.216 297.977V302.488H248.793V296.148H250.134ZM257.277 294.607V296.148H258.396V297.203H257.277V300.742C257.277 300.984 257.324 301.16 257.418 301.27C257.515 301.375 257.687 301.428 257.933 301.428C258.097 301.428 258.263 301.408 258.431 301.369V302.471C258.107 302.561 257.795 302.605 257.494 302.605C256.4 302.605 255.853 302.002 255.853 300.795V297.203H254.81V296.148H255.853V294.607H257.277ZM260.892 296.84C261.357 296.301 261.945 296.031 262.656 296.031C264.007 296.031 264.693 296.803 264.713 298.346V302.488H263.289V298.398C263.289 297.961 263.193 297.652 263.002 297.473C262.814 297.289 262.537 297.197 262.17 297.197C261.599 297.197 261.173 297.451 260.892 297.959V302.488H259.468V293.488H260.892V296.84Z" fill="black"/>
</g>
</g>
<defs>
<filter id="filter0_d_33_799" x="0" y="0" width="304" height="385" filterUnits="userSpaceOnUse" color-interpolation-filters="sRGB">
<feFlood flood-opacity="0" result="BackgroundImageFix"/>
<feColorMatrix in="SourceAlpha" type="matrix" values="0 0 0 0 0 0 0 0 0 0 0 0 0 0 0 0 0 0 127 0" result="hardAlpha"/>
<feOffset dy="4"/>
<feGaussianBlur stdDeviation="8"/>
<feComposite in2="hardAlpha" operator="out"/>
<feColorMatrix type="matrix" values="0 0 0 0 0 0 0 0 0 0 0 0 0 0 0 0 0 0 0.06 0"/>
<feBlend mode="normal" in2="BackgroundImageFix" result="effect1_dropShadow_33_799"/>
<feBlend mode="normal" in="SourceGraphic" in2="effect1_dropShadow_33_799" result="shape"/>
</filter>
<filter id="filter1_d_33_799" x="-3.07935" y="0" width="305.026" height="385" filterUnits="userSpaceOnUse" color-interpolation-filters="sRGB">
<feFlood flood-opacity="0" result="BackgroundImageFix"/>
<feColorMatrix in="SourceAlpha" type="matrix" values="0 0 0 0 0 0 0 0 0 0 0 0 0 0 0 0 0 0 127 0" result="hardAlpha"/>
<feOffset dy="4"/>
<feGaussianBlur stdDeviation="8"/>
<feColorMatrix type="matrix" values="0 0 0 0 0 0 0 0 0 0 0 0 0 0 0 0 0 0 0.06 0"/>
<feBlend mode="normal" in2="BackgroundImageFix" result="effect1_dropShadow_33_799"/>
<feBlend mode="normal" in="SourceGraphic" in2="effect1_dropShadow_33_799" result="shape"/>
</filter>
<clipPath id="clip0_33_799">
<rect width="272" height="353" fill="white" transform="translate(16 12)"/>
</clipPath>
<clipPath id="clip1_33_799">
<rect width="61.378" height="9.88403" fill="white" transform="translate(60.8943 317.698)"/>
</clipPath>
<clipPath id="clip2_33_799">
<rect width="61.378" height="9.88403" fill="white" transform="translate(177.301 317.698)"/>
</clipPath>
<clipPath id="clip3_33_799">
<rect width="61.378" height="9.88403" fill="white" transform="translate(60.8943 334.642)"/>
</clipPath>
<clipPath id="clip4_33_799">
<rect width="61.378" height="9.88403" fill="white" transform="translate(177.301 334.642)"/>
</clipPath>
<clipPath id="clip5_33_799">
<rect width="52.3472" height="195.997" fill="white" transform="translate(31.3962 70.4912)"/>
</clipPath>
<clipPath id="clip6_33_799">
<rect width="201.177" height="40.0204" fill="white" transform="translate(69.3735 266.488)"/>
</clipPath>
</defs>
</svg>
