<svg width="304" height="142" viewBox="0 0 304 142" fill="none" xmlns="http://www.w3.org/2000/svg">
<g filter="url(#filter0_d_33_334)">
<path d="M16 15C16 13.3431 17.3431 12 19 12H285C286.657 12 288 13.3431 288 15V119C288 120.657 286.657 122 285 122H19C17.3431 122 16 120.657 16 119V15Z" fill="white"/>
<rect x="229" y="37" width="36" height="36" rx="18" fill="#F4F6F9"/>
<path d="M254.702 54.5207C254.438 54.5207 254.223 54.7353 254.223 55.0001C254.223 58.9829 250.983 62.2231 247 62.2231C243.017 62.2231 239.777 58.9829 239.777 55.0001C239.777 51.0173 243.017 47.7771 247 47.7771C248.214 47.7771 249.396 48.0786 250.45 48.6532L249.851 49.2526C249.714 49.3897 249.673 49.5958 249.747 49.775C249.821 49.9541 249.996 50.071 250.19 50.071H252.484C252.749 50.071 252.963 49.8563 252.963 49.5916V47.2977C252.963 47.1038 252.846 46.929 252.667 46.8548C252.488 46.7805 252.282 46.8216 252.145 46.9587L251.154 47.95C249.898 47.2086 248.47 46.8183 247 46.8183C244.814 46.8183 242.76 47.6694 241.214 49.2147C239.669 50.7601 238.818 52.8147 238.818 55.0001C238.818 57.1856 239.669 59.2402 241.214 60.7855C242.76 62.3309 244.814 63.182 247 63.182C249.185 63.182 251.24 62.3309 252.785 60.7855C254.331 59.2402 255.182 57.1856 255.182 55.0001C255.182 54.7353 254.967 54.5207 254.702 54.5207Z" fill="black"/>
<path d="M250.081 54.5207H247.479V51.9191C247.479 51.6543 247.265 51.4397 247 51.4397C246.735 51.4397 246.521 51.6543 246.521 51.9191V55.0001C246.521 55.2648 246.735 55.4795 247 55.4795H250.081C250.346 55.4795 250.56 55.2648 250.56 55.0001C250.56 54.7353 250.346 54.5207 250.081 54.5207Z" fill="black"/>
<path d="M45.5703 63.168H47.3047C48.1797 63.1602 48.8711 62.9336 49.3789 62.4883C49.8945 62.043 50.1523 61.3984 50.1523 60.5547C50.1523 59.7422 49.9375 59.1133 49.5078 58.668C49.0859 58.2148 48.4375 57.9883 47.5625 57.9883C46.7969 57.9883 46.168 58.2109 45.6758 58.6562C45.1836 59.0938 44.9375 59.668 44.9375 60.3789H42.0898C42.0898 59.5039 42.3203 58.707 42.7812 57.9883C43.25 57.2695 43.8984 56.7109 44.7266 56.3125C45.5625 55.9062 46.4961 55.7031 47.5273 55.7031C49.2305 55.7031 50.5664 56.1328 51.5352 56.9922C52.5117 57.8438 53 59.0312 53 60.5547C53 61.3203 52.7539 62.043 52.2617 62.7227C51.7773 63.3945 51.1484 63.9023 50.375 64.2461C51.3125 64.5664 52.0234 65.0703 52.5078 65.7578C53 66.4453 53.2461 67.2656 53.2461 68.2188C53.2461 69.75 52.7188 70.9688 51.6641 71.875C50.6172 72.7812 49.2383 73.2344 47.5273 73.2344C45.8867 73.2344 44.543 72.7969 43.4961 71.9219C42.4492 71.0469 41.9258 69.8828 41.9258 68.4297H44.7734C44.7734 69.1797 45.0234 69.7891 45.5234 70.2578C46.0312 70.7266 46.7109 70.9609 47.5625 70.9609C48.4453 70.9609 49.1406 70.7266 49.6484 70.2578C50.1562 69.7891 50.4102 69.1094 50.4102 68.2188C50.4102 67.3203 50.1445 66.6289 49.6133 66.1445C49.082 65.6602 48.293 65.418 47.2461 65.418H45.5703V63.168ZM67.0391 65.8164C67.0391 68.2695 66.5781 70.1211 65.6562 71.3711C64.7422 72.6133 63.3477 73.2344 61.4727 73.2344C59.6289 73.2344 58.2383 72.6289 57.3008 71.418C56.3711 70.1992 55.8945 68.3984 55.8711 66.0156V63.0625C55.8711 60.6094 56.3281 58.7695 57.2422 57.543C58.1641 56.3164 59.5664 55.7031 61.4492 55.7031C63.3164 55.7031 64.707 56.3008 65.6211 57.4961C66.543 58.6914 67.0156 60.4805 67.0391 62.8633V65.8164ZM64.1914 62.6289C64.1914 61.0273 63.9727 59.8555 63.5352 59.1133C63.0977 58.3633 62.4023 57.9883 61.4492 57.9883C60.5195 57.9883 59.8359 58.3438 59.3984 59.0547C58.9609 59.7578 58.7305 60.8594 58.707 62.3594V66.2266C58.707 67.8203 58.9297 69.0078 59.375 69.7891C59.8203 70.5703 60.5195 70.9609 61.4727 70.9609C62.3867 70.9609 63.0625 70.6016 63.5 69.8828C63.9375 69.1562 64.168 68.0234 64.1914 66.4844V62.6289ZM78.3945 60.3203L78.4766 61.6445C79.3672 60.6055 80.5859 60.0859 82.1328 60.0859C83.8281 60.0859 84.9883 60.7344 85.6133 62.0312C86.5352 60.7344 87.832 60.0859 89.5039 60.0859C90.9023 60.0859 91.9414 60.4727 92.6211 61.2461C93.3086 62.0195 93.6602 63.1602 93.6758 64.668V73H90.8281V64.75C90.8281 63.9453 90.6523 63.3555 90.3008 62.9805C89.9492 62.6055 89.3672 62.418 88.5547 62.418C87.9062 62.418 87.375 62.5938 86.9609 62.9453C86.5547 63.2891 86.2695 63.7422 86.1055 64.3047L86.1172 73H83.2695V64.6562C83.2305 63.1641 82.4688 62.418 80.9844 62.418C79.8438 62.418 79.0352 62.8828 78.5586 63.8125V73H75.7109V60.3203H78.3945ZM99.6289 73H96.7812V60.3203H99.6289V73ZM96.6055 57.0273C96.6055 56.5898 96.7422 56.2266 97.0156 55.9375C97.2969 55.6484 97.6953 55.5039 98.2109 55.5039C98.7266 55.5039 99.125 55.6484 99.4062 55.9375C99.6875 56.2266 99.8281 56.5898 99.8281 57.0273C99.8281 57.457 99.6875 57.8164 99.4062 58.1055C99.125 58.3867 98.7266 58.5273 98.2109 58.5273C97.6953 58.5273 97.2969 58.3867 97.0156 58.1055C96.7422 57.8164 96.6055 57.457 96.6055 57.0273ZM105.383 60.3203L105.465 61.7852C106.402 60.6523 107.633 60.0859 109.156 60.0859C111.797 60.0859 113.141 61.5977 113.188 64.6211V73H110.34V64.7852C110.34 63.9805 110.164 63.3867 109.812 63.0039C109.469 62.6133 108.902 62.418 108.113 62.418C106.965 62.418 106.109 62.9375 105.547 63.9766V73H102.699V60.3203H105.383Z" fill="black"/>
<path d="M45.7681 40.1323L48.8149 31.3359H50.353L46.3979 42H45.1528L41.2051 31.3359H42.7358L45.7681 40.1323ZM53.0483 42H51.6934V34.0752H53.0483V42ZM51.5835 31.9731C51.5835 31.7534 51.6494 31.5679 51.7812 31.4165C51.918 31.2651 52.1182 31.1895 52.3818 31.1895C52.6455 31.1895 52.8457 31.2651 52.9824 31.4165C53.1191 31.5679 53.1875 31.7534 53.1875 31.9731C53.1875 32.1929 53.1191 32.376 52.9824 32.5225C52.8457 32.6689 52.6455 32.7422 52.3818 32.7422C52.1182 32.7422 51.918 32.6689 51.7812 32.5225C51.6494 32.376 51.5835 32.1929 51.5835 31.9731ZM59.8379 39.8979C59.8379 39.5317 59.6987 39.2485 59.4204 39.0483C59.147 38.8433 58.666 38.6675 57.9775 38.521C57.2939 38.3745 56.7495 38.1987 56.3442 37.9937C55.9438 37.7886 55.646 37.5444 55.4507 37.2612C55.2603 36.978 55.165 36.6411 55.165 36.2505C55.165 35.6011 55.4385 35.0518 55.9854 34.6025C56.5371 34.1533 57.2402 33.9287 58.0947 33.9287C58.9932 33.9287 59.7207 34.1606 60.2773 34.6245C60.8389 35.0884 61.1196 35.6816 61.1196 36.4043H59.7573C59.7573 36.0332 59.5986 35.7134 59.2812 35.4448C58.9688 35.1763 58.5732 35.042 58.0947 35.042C57.6016 35.042 57.2158 35.1494 56.9375 35.3643C56.6592 35.5791 56.52 35.8599 56.52 36.2065C56.52 36.5337 56.6494 36.7803 56.9082 36.9463C57.167 37.1123 57.6333 37.271 58.3071 37.4224C58.9858 37.5737 59.5352 37.7544 59.9551 37.9644C60.375 38.1743 60.6851 38.4282 60.8853 38.7261C61.0903 39.019 61.1929 39.3779 61.1929 39.8027C61.1929 40.5107 60.9097 41.0796 60.3433 41.5093C59.7769 41.9341 59.042 42.1465 58.1387 42.1465C57.5039 42.1465 56.9424 42.0342 56.4541 41.8096C55.9658 41.585 55.5825 41.2725 55.3042 40.8721C55.0308 40.4668 54.894 40.0298 54.894 39.561H56.249C56.2734 40.0151 56.4541 40.3765 56.791 40.645C57.1328 40.9087 57.582 41.0405 58.1387 41.0405C58.6514 41.0405 59.0615 40.938 59.3691 40.7329C59.6816 40.5229 59.8379 40.2446 59.8379 39.8979ZM64.4302 42H63.0752V34.0752H64.4302V42ZM62.9653 31.9731C62.9653 31.7534 63.0312 31.5679 63.1631 31.4165C63.2998 31.2651 63.5 31.1895 63.7637 31.1895C64.0273 31.1895 64.2275 31.2651 64.3643 31.4165C64.501 31.5679 64.5693 31.7534 64.5693 31.9731C64.5693 32.1929 64.501 32.376 64.3643 32.5225C64.2275 32.6689 64.0273 32.7422 63.7637 32.7422C63.5 32.7422 63.2998 32.6689 63.1631 32.5225C63.0312 32.376 62.9653 32.1929 62.9653 31.9731ZM68.4438 32.1562V34.0752H69.9233V35.1226H68.4438V40.0371C68.4438 40.3545 68.5098 40.5938 68.6416 40.7549C68.7734 40.9111 68.998 40.9893 69.3154 40.9893C69.4717 40.9893 69.6865 40.96 69.96 40.9014V42C69.6035 42.0977 69.2568 42.1465 68.9199 42.1465C68.3145 42.1465 67.8579 41.9634 67.5503 41.5972C67.2427 41.231 67.0889 40.7109 67.0889 40.0371V35.1226H65.646V34.0752H67.0889V32.1562H68.4438ZM75.4458 42V31.3359H78.4561C79.3838 31.3359 80.2041 31.541 80.917 31.9512C81.6299 32.3613 82.1792 32.9448 82.5649 33.7017C82.9556 34.4585 83.1533 35.3276 83.1582 36.3091V36.9902C83.1582 37.9961 82.9629 38.8774 82.5723 39.6343C82.1865 40.3911 81.6323 40.9722 80.9097 41.3774C80.1919 41.7827 79.3545 41.9902 78.3975 42H75.4458ZM76.8521 32.4932V40.8501H78.3315C79.4155 40.8501 80.2578 40.5132 80.8584 39.8394C81.4639 39.1655 81.7666 38.2061 81.7666 36.9609V36.3384C81.7666 35.1274 81.481 34.1875 80.9097 33.5186C80.3433 32.8447 79.5376 32.5029 78.4927 32.4932H76.8521ZM89.9697 41.2163C89.4424 41.8364 88.6685 42.1465 87.6479 42.1465C86.8032 42.1465 86.1587 41.9023 85.7144 41.4141C85.2749 40.9209 85.0527 40.1934 85.0479 39.2314V34.0752H86.4028V39.1948C86.4028 40.396 86.8911 40.9966 87.8677 40.9966C88.9028 40.9966 89.5913 40.6108 89.9331 39.8394V34.0752H91.2881V42H89.999L89.9697 41.2163ZM97.1841 35.291C96.979 35.2568 96.7568 35.2397 96.5176 35.2397C95.6289 35.2397 95.0259 35.6182 94.7085 36.375V42H93.3535V34.0752H94.6719L94.6938 34.9907C95.1382 34.2827 95.7681 33.9287 96.5835 33.9287C96.8472 33.9287 97.0474 33.9629 97.1841 34.0312V35.291ZM103.036 42C102.958 41.8438 102.895 41.5654 102.846 41.165C102.216 41.8193 101.464 42.1465 100.59 42.1465C99.8086 42.1465 99.1665 41.9268 98.6636 41.4873C98.1655 41.043 97.9165 40.4814 97.9165 39.8027C97.9165 38.9775 98.229 38.3379 98.854 37.8838C99.4839 37.4248 100.368 37.1953 101.505 37.1953H102.824V36.5728C102.824 36.0991 102.682 35.7231 102.399 35.4448C102.116 35.1616 101.698 35.02 101.146 35.02C100.663 35.02 100.258 35.1421 99.9307 35.3862C99.6035 35.6304 99.4399 35.9258 99.4399 36.2725H98.0776C98.0776 35.877 98.2168 35.4961 98.4951 35.1299C98.7783 34.7588 99.1592 34.4658 99.6377 34.251C100.121 34.0361 100.651 33.9287 101.227 33.9287C102.14 33.9287 102.855 34.1582 103.373 34.6172C103.891 35.0713 104.159 35.6987 104.179 36.4995V40.147C104.179 40.8745 104.271 41.4531 104.457 41.8828V42H103.036ZM100.788 40.9673C101.212 40.9673 101.615 40.8574 101.996 40.6377C102.377 40.418 102.653 40.1323 102.824 39.7808V38.1548H101.762C100.102 38.1548 99.2715 38.6406 99.2715 39.6123C99.2715 40.0371 99.4131 40.3691 99.6963 40.6084C99.9795 40.8477 100.343 40.9673 100.788 40.9673ZM108.141 32.1562V34.0752H109.621V35.1226H108.141V40.0371C108.141 40.3545 108.207 40.5938 108.339 40.7549C108.471 40.9111 108.695 40.9893 109.013 40.9893C109.169 40.9893 109.384 40.96 109.657 40.9014V42C109.301 42.0977 108.954 42.1465 108.617 42.1465C108.012 42.1465 107.555 41.9634 107.248 41.5972C106.94 41.231 106.786 40.7109 106.786 40.0371V35.1226H105.343V34.0752H106.786V32.1562H108.141ZM112.682 42H111.327V34.0752H112.682V42ZM111.217 31.9731C111.217 31.7534 111.283 31.5679 111.415 31.4165C111.552 31.2651 111.752 31.1895 112.016 31.1895C112.279 31.1895 112.479 31.2651 112.616 31.4165C112.753 31.5679 112.821 31.7534 112.821 31.9731C112.821 32.1929 112.753 32.376 112.616 32.5225C112.479 32.6689 112.279 32.7422 112.016 32.7422C111.752 32.7422 111.552 32.6689 111.415 32.5225C111.283 32.376 111.217 32.1929 111.217 31.9731ZM114.499 37.9644C114.499 37.188 114.65 36.4897 114.953 35.8696C115.26 35.2495 115.685 34.771 116.227 34.4341C116.774 34.0972 117.396 33.9287 118.095 33.9287C119.174 33.9287 120.045 34.3022 120.709 35.0493C121.378 35.7964 121.713 36.79 121.713 38.0303V38.1255C121.713 38.897 121.564 39.5903 121.266 40.2056C120.973 40.8159 120.551 41.292 119.999 41.6338C119.452 41.9756 118.822 42.1465 118.109 42.1465C117.035 42.1465 116.164 41.7729 115.495 41.0259C114.831 40.2788 114.499 39.29 114.499 38.0596V37.9644ZM115.861 38.1255C115.861 39.0044 116.063 39.71 116.469 40.2422C116.879 40.7744 117.426 41.0405 118.109 41.0405C118.798 41.0405 119.345 40.772 119.75 40.2349C120.155 39.6929 120.358 38.936 120.358 37.9644C120.358 37.0952 120.15 36.3921 119.735 35.855C119.325 35.313 118.778 35.042 118.095 35.042C117.426 35.042 116.886 35.3081 116.476 35.8403C116.066 36.3726 115.861 37.1343 115.861 38.1255ZM124.694 34.0752L124.738 35.0713C125.343 34.3096 126.134 33.9287 127.111 33.9287C128.786 33.9287 129.63 34.8735 129.645 36.7632V42H128.29V36.7559C128.285 36.1846 128.153 35.7622 127.895 35.4888C127.641 35.2153 127.243 35.0786 126.701 35.0786C126.261 35.0786 125.875 35.1958 125.543 35.4302C125.211 35.6646 124.953 35.9722 124.767 36.353V42H123.412V34.0752H124.694Z" fill="#666666"/>
<path d="M40.6072 92.4916L40.2978 92.0988L41.0834 91.48L41.3928 91.8728L40.6072 92.4916ZM45.1981 97.5117L45.4599 97.9376L45.0807 98.1707L44.8054 97.8211L45.1981 97.5117ZM52.5956 92.9655L52.3338 92.5395L52.6073 92.3714L52.8739 92.5501L52.5956 92.9655ZM63.32 100.151L57.5593 99.766L60.773 94.9696L63.32 100.151ZM41.3928 91.8728L45.5909 97.2023L44.8054 97.8211L40.6072 92.4916L41.3928 91.8728ZM44.9363 97.0857L52.3338 92.5395L52.8574 93.3915L45.4599 97.9376L44.9363 97.0857ZM52.8739 92.5501L59.8599 97.2307L59.3032 98.0615L52.3173 93.3809L52.8739 92.5501Z" fill="#DB0E00"/>
<path d="M70.8564 92.855H71.9404C72.4873 92.8501 72.9194 92.7085 73.2368 92.4302C73.5591 92.1519 73.7202 91.749 73.7202 91.2217C73.7202 90.7139 73.5859 90.3208 73.3174 90.0425C73.0537 89.7593 72.6484 89.6177 72.1016 89.6177C71.623 89.6177 71.23 89.7568 70.9224 90.0352C70.6147 90.3086 70.4609 90.6675 70.4609 91.1118H68.6812C68.6812 90.5649 68.8252 90.0669 69.1133 89.6177C69.4062 89.1685 69.8115 88.8193 70.3291 88.5703C70.8516 88.3164 71.4351 88.1895 72.0796 88.1895C73.144 88.1895 73.979 88.458 74.5845 88.9951C75.1948 89.5273 75.5 90.2695 75.5 91.2217C75.5 91.7002 75.3462 92.1519 75.0386 92.5767C74.7358 92.9966 74.3428 93.314 73.8594 93.5288C74.4453 93.729 74.8896 94.0439 75.1924 94.4736C75.5 94.9033 75.6538 95.416 75.6538 96.0117C75.6538 96.9688 75.3242 97.7305 74.665 98.2969C74.0107 98.8633 73.1489 99.1465 72.0796 99.1465C71.0542 99.1465 70.2144 98.873 69.5601 98.3262C68.9058 97.7793 68.5786 97.0518 68.5786 96.1436H70.3584C70.3584 96.6123 70.5146 96.9932 70.8271 97.2861C71.1445 97.5791 71.5693 97.7256 72.1016 97.7256C72.6533 97.7256 73.0879 97.5791 73.4053 97.2861C73.7227 96.9932 73.8813 96.5684 73.8813 96.0117C73.8813 95.4502 73.7153 95.0181 73.3833 94.7153C73.0513 94.4126 72.5581 94.2612 71.9038 94.2612H70.8564V92.855ZM78.5469 97.125C78.8789 97.125 79.1353 97.2202 79.3159 97.4106C79.4966 97.5962 79.5869 97.8306 79.5869 98.1138C79.5869 98.3921 79.4966 98.624 79.3159 98.8096C79.1353 98.9902 78.8789 99.0806 78.5469 99.0806C78.2295 99.0806 77.978 98.9902 77.7925 98.8096C77.6069 98.6289 77.5142 98.397 77.5142 98.1138C77.5142 97.8306 77.6045 97.5962 77.7852 97.4106C77.9658 97.2202 78.2197 97.125 78.5469 97.125ZM88.4639 94.5103C88.4639 96.0435 88.1758 97.2007 87.5996 97.9819C87.0283 98.7583 86.1567 99.1465 84.9849 99.1465C83.8325 99.1465 82.9634 98.7681 82.3774 98.0112C81.7964 97.2495 81.4985 96.124 81.4839 94.6348V92.7891C81.4839 91.2559 81.7695 90.106 82.3408 89.3394C82.917 88.5728 83.7935 88.1895 84.9702 88.1895C86.1372 88.1895 87.0063 88.563 87.5776 89.3101C88.1538 90.0571 88.4492 91.1753 88.4639 92.6646V94.5103ZM86.6841 92.5181C86.6841 91.5171 86.5474 90.7847 86.2739 90.3208C86.0005 89.8521 85.5659 89.6177 84.9702 89.6177C84.3892 89.6177 83.9619 89.8398 83.6885 90.2842C83.415 90.7236 83.271 91.4121 83.2563 92.3496V94.7666C83.2563 95.7627 83.3955 96.5049 83.6738 96.9932C83.9521 97.4814 84.3892 97.7256 84.9849 97.7256C85.5562 97.7256 85.9785 97.501 86.252 97.0518C86.5254 96.5977 86.6694 95.8896 86.6841 94.9277V92.5181ZM89.9653 90.3867C89.9653 89.7422 90.1729 89.2148 90.5879 88.8047C91.0029 88.3896 91.5474 88.1821 92.2212 88.1821C92.9048 88.1821 93.4517 88.3896 93.8618 88.8047C94.2769 89.2148 94.4844 89.7544 94.4844 90.4233V90.9507C94.4844 91.5903 94.2769 92.1152 93.8618 92.5254C93.4517 92.9355 92.9097 93.1406 92.2358 93.1406C91.5767 93.1406 91.0322 92.9404 90.6025 92.54C90.1777 92.1348 89.9653 91.5903 89.9653 90.9067V90.3867ZM91.2104 90.9507C91.2104 91.2876 91.3032 91.561 91.4888 91.771C91.6792 91.9761 91.9282 92.0786 92.2358 92.0786C92.5386 92.0786 92.7827 91.9761 92.9683 91.771C93.1538 91.561 93.2466 91.2778 93.2466 90.9214V90.3867C93.2466 90.0498 93.1514 89.7764 92.9609 89.5664C92.7754 89.3564 92.5288 89.2515 92.2212 89.2515C91.9136 89.2515 91.667 89.3589 91.4814 89.5737C91.3008 89.7837 91.2104 90.062 91.2104 90.4087V90.9507ZM95.0923 96.3853C95.0923 95.731 95.3047 95.2012 95.7295 94.7959C96.1543 94.3906 96.6963 94.188 97.3555 94.188C98.0195 94.188 98.5615 94.3906 98.9814 94.7959C99.4062 95.2012 99.6187 95.748 99.6187 96.4365V96.9565C99.6187 97.5913 99.4136 98.1162 99.0034 98.5312C98.5981 98.9414 98.0537 99.1465 97.3701 99.1465C96.6865 99.1465 96.1348 98.9438 95.7148 98.5386C95.2998 98.1284 95.0923 97.5889 95.0923 96.9199V96.3853ZM96.3374 96.9565C96.3374 97.2886 96.4326 97.562 96.623 97.7769C96.8184 97.9868 97.0674 98.0918 97.3701 98.0918C97.6826 98.0918 97.9268 97.9917 98.1025 97.7915C98.2832 97.5864 98.3735 97.3008 98.3735 96.9346V96.3853C98.3735 96.0435 98.2783 95.77 98.0879 95.5649C97.8975 95.3599 97.6533 95.2573 97.3555 95.2573C97.0527 95.2573 96.8062 95.3599 96.6157 95.5649C96.4302 95.77 96.3374 96.0532 96.3374 96.4146V96.9565ZM92.6021 98.2017L91.6865 97.6743L96.894 89.3394L97.8096 89.8667L92.6021 98.2017Z" fill="#DB0E00"/>
<path d="M111.768 97.1323L114.815 88.3359H116.353L112.398 99H111.153L107.205 88.3359H108.736L111.768 97.1323ZM119.048 99H117.693V91.0752H119.048V99ZM117.583 88.9731C117.583 88.7534 117.649 88.5679 117.781 88.4165C117.918 88.2651 118.118 88.1895 118.382 88.1895C118.646 88.1895 118.846 88.2651 118.982 88.4165C119.119 88.5679 119.188 88.7534 119.188 88.9731C119.188 89.1929 119.119 89.376 118.982 89.5225C118.846 89.6689 118.646 89.7422 118.382 89.7422C118.118 89.7422 117.918 89.6689 117.781 89.5225C117.649 89.376 117.583 89.1929 117.583 88.9731ZM125.838 96.8979C125.838 96.5317 125.699 96.2485 125.42 96.0483C125.147 95.8433 124.666 95.6675 123.978 95.521C123.294 95.3745 122.75 95.1987 122.344 94.9937C121.944 94.7886 121.646 94.5444 121.451 94.2612C121.26 93.978 121.165 93.6411 121.165 93.2505C121.165 92.6011 121.438 92.0518 121.985 91.6025C122.537 91.1533 123.24 90.9287 124.095 90.9287C124.993 90.9287 125.721 91.1606 126.277 91.6245C126.839 92.0884 127.12 92.6816 127.12 93.4043H125.757C125.757 93.0332 125.599 92.7134 125.281 92.4448C124.969 92.1763 124.573 92.042 124.095 92.042C123.602 92.042 123.216 92.1494 122.938 92.3643C122.659 92.5791 122.52 92.8599 122.52 93.2065C122.52 93.5337 122.649 93.7803 122.908 93.9463C123.167 94.1123 123.633 94.271 124.307 94.4224C124.986 94.5737 125.535 94.7544 125.955 94.9644C126.375 95.1743 126.685 95.4282 126.885 95.7261C127.09 96.019 127.193 96.3779 127.193 96.8027C127.193 97.5107 126.91 98.0796 126.343 98.5093C125.777 98.9341 125.042 99.1465 124.139 99.1465C123.504 99.1465 122.942 99.0342 122.454 98.8096C121.966 98.585 121.583 98.2725 121.304 97.8721C121.031 97.4668 120.894 97.0298 120.894 96.561H122.249C122.273 97.0151 122.454 97.3765 122.791 97.645C123.133 97.9087 123.582 98.0405 124.139 98.0405C124.651 98.0405 125.062 97.938 125.369 97.7329C125.682 97.5229 125.838 97.2446 125.838 96.8979ZM130.43 99H129.075V91.0752H130.43V99ZM128.965 88.9731C128.965 88.7534 129.031 88.5679 129.163 88.4165C129.3 88.2651 129.5 88.1895 129.764 88.1895C130.027 88.1895 130.228 88.2651 130.364 88.4165C130.501 88.5679 130.569 88.7534 130.569 88.9731C130.569 89.1929 130.501 89.376 130.364 89.5225C130.228 89.6689 130.027 89.7422 129.764 89.7422C129.5 89.7422 129.3 89.6689 129.163 89.5225C129.031 89.376 128.965 89.1929 128.965 88.9731ZM134.444 89.1562V91.0752H135.923V92.1226H134.444V97.0371C134.444 97.3545 134.51 97.5938 134.642 97.7549C134.773 97.9111 134.998 97.9893 135.315 97.9893C135.472 97.9893 135.687 97.96 135.96 97.9014V99C135.604 99.0977 135.257 99.1465 134.92 99.1465C134.314 99.1465 133.858 98.9634 133.55 98.5972C133.243 98.231 133.089 97.7109 133.089 97.0371V92.1226H131.646V91.0752H133.089V89.1562H134.444ZM141.446 99V88.3359H144.456C145.384 88.3359 146.204 88.541 146.917 88.9512C147.63 89.3613 148.179 89.9448 148.565 90.7017C148.956 91.4585 149.153 92.3276 149.158 93.3091V93.9902C149.158 94.9961 148.963 95.8774 148.572 96.6343C148.187 97.3911 147.632 97.9722 146.91 98.3774C146.192 98.7827 145.354 98.9902 144.397 99H141.446ZM142.852 89.4932V97.8501H144.332C145.416 97.8501 146.258 97.5132 146.858 96.8394C147.464 96.1655 147.767 95.2061 147.767 93.9609V93.3384C147.767 92.1274 147.481 91.1875 146.91 90.5186C146.343 89.8447 145.538 89.5029 144.493 89.4932H142.852ZM155.97 98.2163C155.442 98.8364 154.668 99.1465 153.648 99.1465C152.803 99.1465 152.159 98.9023 151.714 98.4141C151.275 97.9209 151.053 97.1934 151.048 96.2314V91.0752H152.403V96.1948C152.403 97.396 152.891 97.9966 153.868 97.9966C154.903 97.9966 155.591 97.6108 155.933 96.8394V91.0752H157.288V99H155.999L155.97 98.2163ZM163.184 92.291C162.979 92.2568 162.757 92.2397 162.518 92.2397C161.629 92.2397 161.026 92.6182 160.708 93.375V99H159.354V91.0752H160.672L160.694 91.9907C161.138 91.2827 161.768 90.9287 162.583 90.9287C162.847 90.9287 163.047 90.9629 163.184 91.0312V92.291ZM169.036 99C168.958 98.8438 168.895 98.5654 168.846 98.165C168.216 98.8193 167.464 99.1465 166.59 99.1465C165.809 99.1465 165.167 98.9268 164.664 98.4873C164.166 98.043 163.917 97.4814 163.917 96.8027C163.917 95.9775 164.229 95.3379 164.854 94.8838C165.484 94.4248 166.368 94.1953 167.505 94.1953H168.824V93.5728C168.824 93.0991 168.682 92.7231 168.399 92.4448C168.116 92.1616 167.698 92.02 167.146 92.02C166.663 92.02 166.258 92.1421 165.931 92.3862C165.604 92.6304 165.44 92.9258 165.44 93.2725H164.078C164.078 92.877 164.217 92.4961 164.495 92.1299C164.778 91.7588 165.159 91.4658 165.638 91.251C166.121 91.0361 166.651 90.9287 167.227 90.9287C168.14 90.9287 168.855 91.1582 169.373 91.6172C169.891 92.0713 170.159 92.6987 170.179 93.4995V97.147C170.179 97.8745 170.271 98.4531 170.457 98.8828V99H169.036ZM166.788 97.9673C167.212 97.9673 167.615 97.8574 167.996 97.6377C168.377 97.418 168.653 97.1323 168.824 96.7808V95.1548H167.762C166.102 95.1548 165.271 95.6406 165.271 96.6123C165.271 97.0371 165.413 97.3691 165.696 97.6084C165.979 97.8477 166.343 97.9673 166.788 97.9673ZM174.141 89.1562V91.0752H175.621V92.1226H174.141V97.0371C174.141 97.3545 174.207 97.5938 174.339 97.7549C174.471 97.9111 174.695 97.9893 175.013 97.9893C175.169 97.9893 175.384 97.96 175.657 97.9014V99C175.301 99.0977 174.954 99.1465 174.617 99.1465C174.012 99.1465 173.555 98.9634 173.248 98.5972C172.94 98.231 172.786 97.7109 172.786 97.0371V92.1226H171.343V91.0752H172.786V89.1562H174.141ZM178.682 99H177.327V91.0752H178.682V99ZM177.217 88.9731C177.217 88.7534 177.283 88.5679 177.415 88.4165C177.552 88.2651 177.752 88.1895 178.016 88.1895C178.279 88.1895 178.479 88.2651 178.616 88.4165C178.753 88.5679 178.821 88.7534 178.821 88.9731C178.821 89.1929 178.753 89.376 178.616 89.5225C178.479 89.6689 178.279 89.7422 178.016 89.7422C177.752 89.7422 177.552 89.6689 177.415 89.5225C177.283 89.376 177.217 89.1929 177.217 88.9731ZM180.499 94.9644C180.499 94.188 180.65 93.4897 180.953 92.8696C181.26 92.2495 181.685 91.771 182.227 91.4341C182.774 91.0972 183.396 90.9287 184.095 90.9287C185.174 90.9287 186.045 91.3022 186.709 92.0493C187.378 92.7964 187.713 93.79 187.713 95.0303V95.1255C187.713 95.897 187.564 96.5903 187.266 97.2056C186.973 97.8159 186.551 98.292 185.999 98.6338C185.452 98.9756 184.822 99.1465 184.109 99.1465C183.035 99.1465 182.164 98.7729 181.495 98.0259C180.831 97.2788 180.499 96.29 180.499 95.0596V94.9644ZM181.861 95.1255C181.861 96.0044 182.063 96.71 182.469 97.2422C182.879 97.7744 183.426 98.0405 184.109 98.0405C184.798 98.0405 185.345 97.772 185.75 97.2349C186.155 96.6929 186.358 95.936 186.358 94.9644C186.358 94.0952 186.15 93.3921 185.735 92.855C185.325 92.313 184.778 92.042 184.095 92.042C183.426 92.042 182.886 92.3081 182.476 92.8403C182.066 93.3726 181.861 94.1343 181.861 95.1255ZM190.694 91.0752L190.738 92.0713C191.343 91.3096 192.134 90.9287 193.111 90.9287C194.786 90.9287 195.63 91.8735 195.645 93.7632V99H194.29V93.7559C194.285 93.1846 194.153 92.7622 193.895 92.4888C193.641 92.2153 193.243 92.0786 192.701 92.0786C192.261 92.0786 191.875 92.1958 191.543 92.4302C191.211 92.6646 190.953 92.9722 190.767 93.353V99H189.412V91.0752H190.694ZM208.697 89.4932H205.269V99H203.87V89.4932H200.45V88.3359H208.697V89.4932ZM208.975 94.9644C208.975 94.188 209.126 93.4897 209.429 92.8696C209.737 92.2495 210.162 91.771 210.704 91.4341C211.25 91.0972 211.873 90.9287 212.571 90.9287C213.65 90.9287 214.522 91.3022 215.186 92.0493C215.855 92.7964 216.189 93.79 216.189 95.0303V95.1255C216.189 95.897 216.041 96.5903 215.743 97.2056C215.45 97.8159 215.027 98.292 214.476 98.6338C213.929 98.9756 213.299 99.1465 212.586 99.1465C211.512 99.1465 210.64 98.7729 209.971 98.0259C209.307 97.2788 208.975 96.29 208.975 95.0596V94.9644ZM210.337 95.1255C210.337 96.0044 210.54 96.71 210.945 97.2422C211.355 97.7744 211.902 98.0405 212.586 98.0405C213.274 98.0405 213.821 97.772 214.227 97.2349C214.632 96.6929 214.834 95.936 214.834 94.9644C214.834 94.0952 214.627 93.3921 214.212 92.855C213.802 92.313 213.255 92.042 212.571 92.042C211.902 92.042 211.363 92.3081 210.953 92.8403C210.542 93.3726 210.337 94.1343 210.337 95.1255ZM217.559 94.9717C217.559 93.7559 217.847 92.7793 218.423 92.042C219 91.2998 219.754 90.9287 220.687 90.9287C221.614 90.9287 222.349 91.2461 222.891 91.8809V87.75H224.246V99H223.001L222.935 98.1504C222.393 98.8145 221.639 99.1465 220.672 99.1465C219.754 99.1465 219.004 98.7705 218.423 98.0186C217.847 97.2666 217.559 96.2852 217.559 95.0742V94.9717ZM218.914 95.1255C218.914 96.0239 219.1 96.7271 219.471 97.2349C219.842 97.7427 220.354 97.9966 221.009 97.9966C221.868 97.9966 222.496 97.6108 222.891 96.8394V93.1992C222.486 92.4521 221.863 92.0786 221.023 92.0786C220.359 92.0786 219.842 92.335 219.471 92.8477C219.1 93.3604 218.914 94.1196 218.914 95.1255ZM231.248 99C231.17 98.8438 231.106 98.5654 231.058 98.165C230.428 98.8193 229.676 99.1465 228.802 99.1465C228.021 99.1465 227.378 98.9268 226.875 98.4873C226.377 98.043 226.128 97.4814 226.128 96.8027C226.128 95.9775 226.441 95.3379 227.066 94.8838C227.696 94.4248 228.58 94.1953 229.717 94.1953H231.036V93.5728C231.036 93.0991 230.894 92.7231 230.611 92.4448C230.328 92.1616 229.91 92.02 229.358 92.02C228.875 92.02 228.47 92.1421 228.143 92.3862C227.815 92.6304 227.652 92.9258 227.652 93.2725H226.29C226.29 92.877 226.429 92.4961 226.707 92.1299C226.99 91.7588 227.371 91.4658 227.85 91.251C228.333 91.0361 228.863 90.9287 229.439 90.9287C230.352 90.9287 231.067 91.1582 231.585 91.6172C232.103 92.0713 232.371 92.6987 232.391 93.4995V97.147C232.391 97.8745 232.483 98.4531 232.669 98.8828V99H231.248ZM229 97.9673C229.424 97.9673 229.827 97.8574 230.208 97.6377C230.589 97.418 230.865 97.1323 231.036 96.7808V95.1548H229.974C228.313 95.1548 227.483 95.6406 227.483 96.6123C227.483 97.0371 227.625 97.3691 227.908 97.6084C228.191 97.8477 228.555 97.9673 229 97.9673ZM236.99 97.0151L238.836 91.0752H240.286L237.1 100.223C236.607 101.542 235.823 102.201 234.749 102.201L234.493 102.179L233.987 102.083V100.985L234.354 101.014C234.812 101.014 235.169 100.921 235.423 100.736C235.682 100.55 235.894 100.211 236.06 99.7178L236.36 98.9121L233.533 91.0752H235.013L236.99 97.0151Z" fill="#666666"/>
</g>
<defs>
<filter id="filter0_d_33_334" x="0" y="0" width="304" height="142" filterUnits="userSpaceOnUse" color-interpolation-filters="sRGB">
<feFlood flood-opacity="0" result="BackgroundImageFix"/>
<feColorMatrix in="SourceAlpha" type="matrix" values="0 0 0 0 0 0 0 0 0 0 0 0 0 0 0 0 0 0 127 0" result="hardAlpha"/>
<feOffset dy="4"/>
<feGaussianBlur stdDeviation="8"/>
<feColorMatrix type="matrix" values="0 0 0 0 0 0 0 0 0 0 0 0 0 0 0 0 0 0 0.06 0"/>
<feBlend mode="normal" in2="BackgroundImageFix" result="effect1_dropShadow_33_334"/>
<feBlend mode="normal" in="SourceGraphic" in2="effect1_dropShadow_33_334" result="shape"/>
</filter>
</defs>
</svg>
