<svg width="304" height="142" viewBox="0 0 304 142" fill="none" xmlns="http://www.w3.org/2000/svg">
<g filter="url(#filter0_d_33_365)">
<path d="M16 15C16 13.3431 17.3431 12 19 12H285C286.657 12 288 13.3431 288 15V119C288 120.657 286.657 122 285 122H19C17.3431 122 16 120.657 16 119V15Z" fill="white"/>
<rect x="229" y="37" width="36" height="36" rx="18" fill="#F4F6F9"/>
<path d="M243.65 57.9743V58.2757C243.65 58.354 243.689 58.4274 243.753 58.4722C244.03 58.6657 244.326 58.8348 244.631 58.9749C244.752 59.0301 244.894 58.9772 244.949 58.8569C245.004 58.7365 244.952 58.5942 244.831 58.5391C244.589 58.428 244.353 58.297 244.13 58.1488V57.9743C244.13 56.3921 245.417 55.1049 247 55.1049C247.766 55.1049 248.487 55.4033 249.03 55.9452C249.571 56.4871 249.87 57.2077 249.87 57.9743V58.1489C249.019 58.7133 248.029 59.0111 247 59.0111C246.604 59.0111 246.21 58.9666 245.83 58.8788C245.701 58.849 245.572 58.9295 245.542 59.0585C245.513 59.1875 245.593 59.3162 245.722 59.3459C246.138 59.4418 246.568 59.4905 247 59.4905C248.17 59.4905 249.292 59.1384 250.247 58.4722C250.311 58.4274 250.349 58.354 250.349 58.2757V57.9743C250.349 57.0797 250.001 56.2387 249.368 55.6062C249.009 55.2473 248.583 54.98 248.118 54.8158C248.662 54.5136 249.075 53.9942 249.231 53.3551C249.263 53.2265 249.184 53.0967 249.056 53.0653C248.927 53.0339 248.797 53.1126 248.766 53.2412C248.567 54.0561 247.84 54.6252 247 54.6252C245.997 54.6252 245.182 53.8097 245.182 52.8073C245.182 51.8047 245.997 50.989 247 50.989C247.813 50.989 248.533 51.5354 248.751 52.3178C248.787 52.4453 248.919 52.5199 249.047 52.4843C249.174 52.4487 249.249 52.3165 249.213 52.189C248.937 51.2002 248.027 50.5096 247 50.5096C245.733 50.5096 244.702 51.5404 244.702 52.8073C244.702 53.6703 245.181 54.4234 245.886 54.8159C244.585 55.2758 243.65 56.5178 243.65 57.9743Z" fill="black"/>
<path fill-rule="evenodd" clip-rule="evenodd" d="M254.463 54.281H253.593C253.431 52.7841 252.76 51.3815 251.689 50.3107C250.619 49.2399 249.216 48.5694 247.719 48.4072V47.5373C247.719 47.1408 247.396 46.8182 247 46.8182C246.603 46.8182 246.281 47.1408 246.281 47.5373V48.4071C244.356 48.6142 242.633 49.6421 241.528 51.2523C241.453 51.3615 241.481 51.5107 241.59 51.5856C241.631 51.614 241.679 51.6276 241.725 51.6276C241.802 51.6276 241.877 51.5912 241.923 51.5236C242.938 50.044 244.516 49.0946 246.281 48.8897V49.455C246.281 49.8515 246.603 50.1741 247 50.1741C247.396 50.1741 247.719 49.8515 247.719 49.455V48.8895C250.525 49.2186 252.781 51.4747 253.111 54.281H252.545C252.149 54.281 251.826 54.6035 251.826 55.0001C251.826 55.3966 252.149 55.7192 252.545 55.7192H253.111C252.781 58.5255 250.525 60.7815 247.719 61.1106V60.5452C247.719 60.1486 247.396 59.8261 247 59.8261C246.603 59.8261 246.281 60.1486 246.281 60.5452V61.1106C243.475 60.7815 241.218 58.5255 240.889 55.7192H241.455C241.851 55.7192 242.174 55.3966 242.174 55.0001C242.174 54.6035 241.851 54.281 241.455 54.281H240.889C240.959 53.6754 241.119 53.0871 241.364 52.5288C241.417 52.4076 241.362 52.2661 241.241 52.2129C241.12 52.1596 240.978 52.2148 240.925 52.336C240.653 52.9551 240.479 53.6084 240.407 54.281H239.537C239.141 54.281 238.818 54.6035 238.818 55.0001C238.818 55.3966 239.141 55.7192 239.537 55.7192H240.407C240.569 57.216 241.24 58.6186 242.311 59.6894C243.381 60.7602 244.784 61.4307 246.281 61.5929V62.4628C246.281 62.8593 246.603 63.1819 247 63.1819C247.396 63.1819 247.719 62.8593 247.719 62.4628V61.5929C249.216 61.4307 250.619 60.7602 251.689 59.6894C252.76 58.6187 253.431 57.2161 253.593 55.7192H254.463C254.859 55.7192 255.182 55.3966 255.182 55.0001C255.182 54.6035 254.859 54.281 254.463 54.281ZM247.24 49.455C247.24 49.5871 247.132 49.6947 247 49.6947C246.868 49.6947 246.76 49.5871 246.76 49.455V47.5373C246.76 47.4052 246.868 47.2976 247 47.2976C247.132 47.2976 247.24 47.4052 247.24 47.5373V49.455ZM239.537 54.7604C239.405 54.7604 239.298 54.8679 239.298 55.0001C239.298 55.1322 239.405 55.2398 239.537 55.2398H241.455C241.587 55.2398 241.695 55.1322 241.695 55.0001C241.695 54.8679 241.587 54.7604 241.455 54.7604H240.626H240.626H240.625H239.537ZM247.24 62.4628C247.24 62.595 247.132 62.7025 247 62.7025C246.868 62.7025 246.76 62.595 246.76 62.4628V60.5452C246.76 60.413 246.868 60.3055 247 60.3055C247.132 60.3055 247.24 60.413 247.24 60.5452V62.4628ZM252.545 55.2398H254.463C254.595 55.2398 254.702 55.1322 254.702 55.0001C254.702 54.8679 254.595 54.7604 254.463 54.7604H253.375H253.374H253.374H252.545C252.413 54.7604 252.305 54.8679 252.305 55.0001C252.305 55.1322 252.413 55.2398 252.545 55.2398Z" fill="black"/>
<path d="M50.3516 65.8633C49.3984 66.8711 48.2852 67.375 47.0117 67.375C45.5117 67.375 44.3164 66.8516 43.4258 65.8047C42.5352 64.75 42.0898 63.3672 42.0898 61.6562C42.0898 60.5312 42.3164 59.5117 42.7695 58.5977C43.2227 57.6836 43.8672 56.9727 44.7031 56.4648C45.5391 55.957 46.5078 55.7031 47.6094 55.7031C49.3281 55.7031 50.6914 56.3438 51.6992 57.625C52.707 58.9062 53.2109 60.6211 53.2109 62.7695V63.5664C53.2109 66.6445 52.5156 68.9922 51.125 70.6094C49.7344 72.2266 47.6602 73.0469 44.9023 73.0703H44.5625V70.7148H44.9727C46.6523 70.6914 47.9414 70.2891 48.8398 69.5078C49.7383 68.7188 50.2422 67.5039 50.3516 65.8633ZM47.6094 65.1484C48.1797 65.1484 48.7148 64.9844 49.2148 64.6562C49.7148 64.3281 50.1016 63.875 50.375 63.2969V62.1836C50.375 60.9258 50.1172 59.9141 49.6016 59.1484C49.0859 58.3828 48.418 58 47.5977 58C46.7773 58 46.1211 58.3398 45.6289 59.0195C45.1445 59.6914 44.9023 60.543 44.9023 61.5742C44.9023 62.6445 45.1484 63.5078 45.6406 64.1641C46.1328 64.8203 46.7891 65.1484 47.6094 65.1484ZM67.0391 65.8164C67.0391 68.2695 66.5781 70.1211 65.6562 71.3711C64.7422 72.6133 63.3477 73.2344 61.4727 73.2344C59.6289 73.2344 58.2383 72.6289 57.3008 71.418C56.3711 70.1992 55.8945 68.3984 55.8711 66.0156V63.0625C55.8711 60.6094 56.3281 58.7695 57.2422 57.543C58.1641 56.3164 59.5664 55.7031 61.4492 55.7031C63.3164 55.7031 64.707 56.3008 65.6211 57.4961C66.543 58.6914 67.0156 60.4805 67.0391 62.8633V65.8164ZM64.1914 62.6289C64.1914 61.0273 63.9727 59.8555 63.5352 59.1133C63.0977 58.3633 62.4023 57.9883 61.4492 57.9883C60.5195 57.9883 59.8359 58.3438 59.3984 59.0547C58.9609 59.7578 58.7305 60.8594 58.707 62.3594V66.2266C58.707 67.8203 58.9297 69.0078 59.375 69.7891C59.8203 70.5703 60.5195 70.9609 61.4727 70.9609C62.3867 70.9609 63.0625 70.6016 63.5 69.8828C63.9375 69.1562 64.168 68.0234 64.1914 66.4844V62.6289ZM80.6797 65.8164C80.6797 68.2695 80.2188 70.1211 79.2969 71.3711C78.3828 72.6133 76.9883 73.2344 75.1133 73.2344C73.2695 73.2344 71.8789 72.6289 70.9414 71.418C70.0117 70.1992 69.5352 68.3984 69.5117 66.0156V63.0625C69.5117 60.6094 69.9688 58.7695 70.8828 57.543C71.8047 56.3164 73.207 55.7031 75.0898 55.7031C76.957 55.7031 78.3477 56.3008 79.2617 57.4961C80.1836 58.6914 80.6562 60.4805 80.6797 62.8633V65.8164ZM77.832 62.6289C77.832 61.0273 77.6133 59.8555 77.1758 59.1133C76.7383 58.3633 76.043 57.9883 75.0898 57.9883C74.1602 57.9883 73.4766 58.3438 73.0391 59.0547C72.6016 59.7578 72.3711 60.8594 72.3477 62.3594V66.2266C72.3477 67.8203 72.5703 69.0078 73.0156 69.7891C73.4609 70.5703 74.1602 70.9609 75.1133 70.9609C76.0273 70.9609 76.7031 70.6016 77.1406 69.8828C77.5781 69.1562 77.8086 68.0234 77.832 66.4844V62.6289Z" fill="black"/>
<path d="M49.606 32.4932H46.1782V42H44.7793V32.4932H41.3589V31.3359H49.606V32.4932ZM49.8843 37.9644C49.8843 37.188 50.0356 36.4897 50.3384 35.8696C50.646 35.2495 51.0708 34.771 51.6128 34.4341C52.1597 34.0972 52.7822 33.9287 53.4805 33.9287C54.5596 33.9287 55.4312 34.3022 56.0952 35.0493C56.7642 35.7964 57.0986 36.79 57.0986 38.0303V38.1255C57.0986 38.897 56.9497 39.5903 56.6519 40.2056C56.3589 40.8159 55.9365 41.292 55.3848 41.6338C54.8379 41.9756 54.208 42.1465 53.4951 42.1465C52.4209 42.1465 51.5493 41.7729 50.8804 41.0259C50.2163 40.2788 49.8843 39.29 49.8843 38.0596V37.9644ZM51.2466 38.1255C51.2466 39.0044 51.4492 39.71 51.8545 40.2422C52.2646 40.7744 52.8115 41.0405 53.4951 41.0405C54.1836 41.0405 54.7305 40.772 55.1357 40.2349C55.541 39.6929 55.7437 38.936 55.7437 37.9644C55.7437 37.0952 55.5361 36.3921 55.1211 35.855C54.7109 35.313 54.1641 35.042 53.4805 35.042C52.8115 35.042 52.272 35.3081 51.8618 35.8403C51.4517 36.3726 51.2466 37.1343 51.2466 38.1255ZM60.6362 32.1562V34.0752H62.1157V35.1226H60.6362V40.0371C60.6362 40.3545 60.7021 40.5938 60.834 40.7549C60.9658 40.9111 61.1904 40.9893 61.5078 40.9893C61.6641 40.9893 61.8789 40.96 62.1523 40.9014V42C61.7959 42.0977 61.4492 42.1465 61.1123 42.1465C60.5068 42.1465 60.0503 41.9634 59.7427 41.5972C59.4351 41.231 59.2812 40.7109 59.2812 40.0371V35.1226H57.8384V34.0752H59.2812V32.1562H60.6362ZM68.5977 42C68.5195 41.8438 68.4561 41.5654 68.4072 41.165C67.7773 41.8193 67.0254 42.1465 66.1514 42.1465C65.3701 42.1465 64.728 41.9268 64.2251 41.4873C63.7271 41.043 63.478 40.4814 63.478 39.8027C63.478 38.9775 63.7905 38.3379 64.4155 37.8838C65.0454 37.4248 65.9292 37.1953 67.0669 37.1953H68.3853V36.5728C68.3853 36.0991 68.2437 35.7231 67.9604 35.4448C67.6772 35.1616 67.2598 35.02 66.708 35.02C66.2246 35.02 65.8193 35.1421 65.4922 35.3862C65.165 35.6304 65.0015 35.9258 65.0015 36.2725H63.6392C63.6392 35.877 63.7783 35.4961 64.0566 35.1299C64.3398 34.7588 64.7207 34.4658 65.1992 34.251C65.6826 34.0361 66.2124 33.9287 66.7886 33.9287C67.7017 33.9287 68.417 34.1582 68.9346 34.6172C69.4521 35.0713 69.7207 35.6987 69.7402 36.4995V40.147C69.7402 40.8745 69.833 41.4531 70.0186 41.8828V42H68.5977ZM66.3491 40.9673C66.7739 40.9673 67.1768 40.8574 67.5576 40.6377C67.9385 40.418 68.2144 40.1323 68.3853 39.7808V38.1548H67.3232C65.6631 38.1548 64.833 38.6406 64.833 39.6123C64.833 40.0371 64.9746 40.3691 65.2578 40.6084C65.541 40.8477 65.9048 40.9673 66.3491 40.9673ZM73.3364 42H71.9814V30.75H73.3364V42ZM87.2891 38.6162C87.1572 39.7441 86.7397 40.6157 86.0366 41.231C85.3384 41.8413 84.4082 42.1465 83.2461 42.1465C81.9863 42.1465 80.9756 41.6948 80.2139 40.7915C79.457 39.8882 79.0786 38.6797 79.0786 37.166V36.1406C79.0786 35.1494 79.2544 34.2778 79.606 33.5259C79.9624 32.7739 80.4653 32.1978 81.1147 31.7974C81.7642 31.3921 82.5161 31.1895 83.3706 31.1895C84.5034 31.1895 85.4116 31.5068 86.0952 32.1416C86.7788 32.7715 87.1768 33.6455 87.2891 34.7637H85.8755C85.7534 33.9141 85.4873 33.2988 85.0771 32.918C84.6719 32.5371 84.103 32.3467 83.3706 32.3467C82.4722 32.3467 81.7666 32.6787 81.2539 33.3428C80.7461 34.0068 80.4922 34.9517 80.4922 36.1772V37.21C80.4922 38.3672 80.7339 39.2876 81.2173 39.9712C81.7007 40.6548 82.377 40.9966 83.2461 40.9966C84.0273 40.9966 84.6255 40.8208 85.0405 40.4692C85.4604 40.1128 85.7388 39.4951 85.8755 38.6162H87.2891ZM93.8955 41.2163C93.3682 41.8364 92.5942 42.1465 91.5737 42.1465C90.729 42.1465 90.0845 41.9023 89.6401 41.4141C89.2007 40.9209 88.9785 40.1934 88.9736 39.2314V34.0752H90.3286V39.1948C90.3286 40.396 90.8169 40.9966 91.7935 40.9966C92.8286 40.9966 93.5171 40.6108 93.8589 39.8394V34.0752H95.2139V42H93.9248L93.8955 41.2163ZM101.894 39.8979C101.894 39.5317 101.754 39.2485 101.476 39.0483C101.203 38.8433 100.722 38.6675 100.033 38.521C99.3496 38.3745 98.8052 38.1987 98.3999 37.9937C97.9995 37.7886 97.7017 37.5444 97.5063 37.2612C97.3159 36.978 97.2207 36.6411 97.2207 36.2505C97.2207 35.6011 97.4941 35.0518 98.041 34.6025C98.5928 34.1533 99.2959 33.9287 100.15 33.9287C101.049 33.9287 101.776 34.1606 102.333 34.6245C102.895 35.0884 103.175 35.6816 103.175 36.4043H101.813C101.813 36.0332 101.654 35.7134 101.337 35.4448C101.024 35.1763 100.629 35.042 100.15 35.042C99.6572 35.042 99.2715 35.1494 98.9932 35.3643C98.7148 35.5791 98.5757 35.8599 98.5757 36.2065C98.5757 36.5337 98.7051 36.7803 98.9639 36.9463C99.2227 37.1123 99.689 37.271 100.363 37.4224C101.042 37.5737 101.591 37.7544 102.011 37.9644C102.431 38.1743 102.741 38.4282 102.941 38.7261C103.146 39.019 103.249 39.3779 103.249 39.8027C103.249 40.5107 102.965 41.0796 102.399 41.5093C101.833 41.9341 101.098 42.1465 100.194 42.1465C99.5596 42.1465 98.998 42.0342 98.5098 41.8096C98.0215 41.585 97.6382 41.2725 97.3599 40.8721C97.0864 40.4668 96.9497 40.0298 96.9497 39.561H98.3047C98.3291 40.0151 98.5098 40.3765 98.8467 40.645C99.1885 40.9087 99.6377 41.0405 100.194 41.0405C100.707 41.0405 101.117 40.938 101.425 40.7329C101.737 40.5229 101.894 40.2446 101.894 39.8979ZM106.852 32.1562V34.0752H108.332V35.1226H106.852V40.0371C106.852 40.3545 106.918 40.5938 107.05 40.7549C107.182 40.9111 107.406 40.9893 107.724 40.9893C107.88 40.9893 108.095 40.96 108.368 40.9014V42C108.012 42.0977 107.665 42.1465 107.328 42.1465C106.723 42.1465 106.266 41.9634 105.958 41.5972C105.651 41.231 105.497 40.7109 105.497 40.0371V35.1226H104.054V34.0752H105.497V32.1562H106.852ZM109.416 37.9644C109.416 37.188 109.567 36.4897 109.87 35.8696C110.177 35.2495 110.602 34.771 111.144 34.4341C111.691 34.0972 112.313 33.9287 113.012 33.9287C114.091 33.9287 114.962 34.3022 115.626 35.0493C116.295 35.7964 116.63 36.79 116.63 38.0303V38.1255C116.63 38.897 116.481 39.5903 116.183 40.2056C115.89 40.8159 115.468 41.292 114.916 41.6338C114.369 41.9756 113.739 42.1465 113.026 42.1465C111.952 42.1465 111.081 41.7729 110.412 41.0259C109.748 40.2788 109.416 39.29 109.416 38.0596V37.9644ZM110.778 38.1255C110.778 39.0044 110.98 39.71 111.386 40.2422C111.796 40.7744 112.343 41.0405 113.026 41.0405C113.715 41.0405 114.262 40.772 114.667 40.2349C115.072 39.6929 115.275 38.936 115.275 37.9644C115.275 37.0952 115.067 36.3921 114.652 35.855C114.242 35.313 113.695 35.042 113.012 35.042C112.343 35.042 111.803 35.3081 111.393 35.8403C110.983 36.3726 110.778 37.1343 110.778 38.1255ZM119.604 34.0752L119.64 34.9541C120.221 34.2705 121.005 33.9287 121.991 33.9287C123.1 33.9287 123.854 34.3535 124.254 35.2031C124.518 34.8223 124.86 34.5146 125.28 34.2803C125.705 34.0459 126.205 33.9287 126.781 33.9287C128.52 33.9287 129.403 34.8491 129.433 36.6899V42H128.078V36.7705C128.078 36.2041 127.948 35.7817 127.689 35.5034C127.431 35.2202 126.996 35.0786 126.386 35.0786C125.883 35.0786 125.465 35.23 125.133 35.5327C124.801 35.8306 124.608 36.2334 124.555 36.7412V42H123.192V36.8071C123.192 35.6548 122.628 35.0786 121.5 35.0786C120.612 35.0786 120.004 35.457 119.677 36.2139V42H118.322V34.0752H119.604ZM134.772 42.1465C133.698 42.1465 132.824 41.7949 132.15 41.0918C131.476 40.3838 131.139 39.439 131.139 38.2573V38.0083C131.139 37.2222 131.288 36.5215 131.586 35.9062C131.889 35.2861 132.309 34.8027 132.846 34.4561C133.388 34.1045 133.974 33.9287 134.604 33.9287C135.634 33.9287 136.435 34.2681 137.006 34.9468C137.577 35.6255 137.863 36.5972 137.863 37.8618V38.4258H132.494C132.514 39.207 132.741 39.8394 133.175 40.3228C133.615 40.8013 134.171 41.0405 134.845 41.0405C135.324 41.0405 135.729 40.9429 136.061 40.7476C136.393 40.5522 136.684 40.2935 136.933 39.9712L137.76 40.6157C137.096 41.6362 136.1 42.1465 134.772 42.1465ZM134.604 35.042C134.057 35.042 133.598 35.2422 133.227 35.6426C132.855 36.0381 132.626 36.5947 132.538 37.3125H136.508V37.21C136.469 36.5215 136.283 35.9893 135.951 35.6133C135.619 35.2324 135.17 35.042 134.604 35.042ZM143.268 35.291C143.063 35.2568 142.841 35.2397 142.602 35.2397C141.713 35.2397 141.11 35.6182 140.792 36.375V42H139.438V34.0752H140.756L140.778 34.9907C141.222 34.2827 141.852 33.9287 142.667 33.9287C142.931 33.9287 143.131 33.9629 143.268 34.0312V35.291Z" fill="#666666"/>
<path d="M40.6072 97.6602L40.2978 98.0529L41.0834 98.6717L41.3928 98.279L40.6072 97.6602ZM45.1986 92.6395L45.4604 92.2135L45.0812 91.9805L44.8058 92.3301L45.1986 92.6395ZM52.5968 97.1862L52.335 97.6122L52.6085 97.7802L52.8752 97.6016L52.5968 97.1862ZM63.3224 90L57.5617 90.3849L60.7753 95.1813L63.3224 90ZM41.3928 98.279L45.5913 92.9489L44.8058 92.3301L40.6072 97.6602L41.3928 98.279ZM44.9368 93.0655L52.335 97.6122L52.8586 96.7602L45.4604 92.2135L44.9368 93.0655ZM52.8752 97.6016L59.8622 92.9202L59.3056 92.0894L52.3185 96.7708L52.8752 97.6016Z" fill="#00A560"/>
<path d="M75.5146 91.1484C75.5146 91.6709 75.3804 92.1372 75.1118 92.5474C74.8433 92.9526 74.4771 93.2725 74.0132 93.5068C74.5698 93.7656 74.9971 94.1196 75.2949 94.5688C75.5977 95.0181 75.749 95.5259 75.749 96.0923C75.749 97.0298 75.4316 97.7744 74.7969 98.3262C74.1621 98.873 73.3174 99.1465 72.2627 99.1465C71.2031 99.1465 70.3535 98.8706 69.7139 98.3188C69.0791 97.7671 68.7617 97.0249 68.7617 96.0923C68.7617 95.521 68.9131 95.0083 69.2158 94.5542C69.5186 94.1001 69.9434 93.751 70.4902 93.5068C70.0312 93.2725 69.6675 92.9526 69.3989 92.5474C69.1353 92.1372 69.0034 91.6709 69.0034 91.1484C69.0034 90.2402 69.2964 89.52 69.8823 88.9878C70.4683 88.4556 71.2593 88.1895 72.2554 88.1895C73.2563 88.1895 74.0498 88.4556 74.6357 88.9878C75.2217 89.52 75.5146 90.2402 75.5146 91.1484ZM73.9692 96.0044C73.9692 95.4771 73.8105 95.0522 73.4932 94.73C73.1807 94.4028 72.7656 94.2393 72.248 94.2393C71.7305 94.2393 71.3154 94.4004 71.0029 94.7227C70.6953 95.0449 70.5415 95.4722 70.5415 96.0044C70.5415 96.5269 70.6929 96.9443 70.9956 97.2568C71.3032 97.5693 71.7256 97.7256 72.2627 97.7256C72.7998 97.7256 73.2173 97.5742 73.5151 97.2715C73.8179 96.9688 73.9692 96.5464 73.9692 96.0044ZM73.7422 91.2144C73.7422 90.7505 73.6079 90.3696 73.3394 90.0718C73.0708 89.769 72.7095 89.6177 72.2554 89.6177C71.8013 89.6177 71.4424 89.7617 71.1787 90.0498C70.915 90.333 70.7832 90.7212 70.7832 91.2144C70.7832 91.7026 70.915 92.0908 71.1787 92.3789C71.4473 92.667 71.8086 92.811 72.2627 92.811C72.7168 92.811 73.0757 92.667 73.3394 92.3789C73.6079 92.0908 73.7422 91.7026 73.7422 91.2144ZM78.5469 97.125C78.8789 97.125 79.1353 97.2202 79.3159 97.4106C79.4966 97.5962 79.5869 97.8306 79.5869 98.1138C79.5869 98.3921 79.4966 98.624 79.3159 98.8096C79.1353 98.9902 78.8789 99.0806 78.5469 99.0806C78.2295 99.0806 77.978 98.9902 77.7925 98.8096C77.6069 98.6289 77.5142 98.397 77.5142 98.1138C77.5142 97.8306 77.6045 97.5962 77.7852 97.4106C77.9658 97.2202 78.2197 97.125 78.5469 97.125ZM88.4639 94.5103C88.4639 96.0435 88.1758 97.2007 87.5996 97.9819C87.0283 98.7583 86.1567 99.1465 84.9849 99.1465C83.8325 99.1465 82.9634 98.7681 82.3774 98.0112C81.7964 97.2495 81.4985 96.124 81.4839 94.6348V92.7891C81.4839 91.2559 81.7695 90.106 82.3408 89.3394C82.917 88.5728 83.7935 88.1895 84.9702 88.1895C86.1372 88.1895 87.0063 88.563 87.5776 89.3101C88.1538 90.0571 88.4492 91.1753 88.4639 92.6646V94.5103ZM86.6841 92.5181C86.6841 91.5171 86.5474 90.7847 86.2739 90.3208C86.0005 89.8521 85.5659 89.6177 84.9702 89.6177C84.3892 89.6177 83.9619 89.8398 83.6885 90.2842C83.415 90.7236 83.271 91.4121 83.2563 92.3496V94.7666C83.2563 95.7627 83.3955 96.5049 83.6738 96.9932C83.9521 97.4814 84.3892 97.7256 84.9849 97.7256C85.5562 97.7256 85.9785 97.501 86.252 97.0518C86.5254 96.5977 86.6694 95.8896 86.6841 94.9277V92.5181ZM89.9653 90.3867C89.9653 89.7422 90.1729 89.2148 90.5879 88.8047C91.0029 88.3896 91.5474 88.1821 92.2212 88.1821C92.9048 88.1821 93.4517 88.3896 93.8618 88.8047C94.2769 89.2148 94.4844 89.7544 94.4844 90.4233V90.9507C94.4844 91.5903 94.2769 92.1152 93.8618 92.5254C93.4517 92.9355 92.9097 93.1406 92.2358 93.1406C91.5767 93.1406 91.0322 92.9404 90.6025 92.54C90.1777 92.1348 89.9653 91.5903 89.9653 90.9067V90.3867ZM91.2104 90.9507C91.2104 91.2876 91.3032 91.561 91.4888 91.771C91.6792 91.9761 91.9282 92.0786 92.2358 92.0786C92.5386 92.0786 92.7827 91.9761 92.9683 91.771C93.1538 91.561 93.2466 91.2778 93.2466 90.9214V90.3867C93.2466 90.0498 93.1514 89.7764 92.9609 89.5664C92.7754 89.3564 92.5288 89.2515 92.2212 89.2515C91.9136 89.2515 91.667 89.3589 91.4814 89.5737C91.3008 89.7837 91.2104 90.062 91.2104 90.4087V90.9507ZM95.0923 96.3853C95.0923 95.731 95.3047 95.2012 95.7295 94.7959C96.1543 94.3906 96.6963 94.188 97.3555 94.188C98.0195 94.188 98.5615 94.3906 98.9814 94.7959C99.4062 95.2012 99.6187 95.748 99.6187 96.4365V96.9565C99.6187 97.5913 99.4136 98.1162 99.0034 98.5312C98.5981 98.9414 98.0537 99.1465 97.3701 99.1465C96.6865 99.1465 96.1348 98.9438 95.7148 98.5386C95.2998 98.1284 95.0923 97.5889 95.0923 96.9199V96.3853ZM96.3374 96.9565C96.3374 97.2886 96.4326 97.562 96.623 97.7769C96.8184 97.9868 97.0674 98.0918 97.3701 98.0918C97.6826 98.0918 97.9268 97.9917 98.1025 97.7915C98.2832 97.5864 98.3735 97.3008 98.3735 96.9346V96.3853C98.3735 96.0435 98.2783 95.77 98.0879 95.5649C97.8975 95.3599 97.6533 95.2573 97.3555 95.2573C97.0527 95.2573 96.8062 95.3599 96.6157 95.5649C96.4302 95.77 96.3374 96.0532 96.3374 96.4146V96.9565ZM92.6021 98.2017L91.6865 97.6743L96.894 89.3394L97.8096 89.8667L92.6021 98.2017Z" fill="#00A560"/>
<path d="M116.434 99H115.02L109.651 90.7822V99H108.238V88.3359H109.651L115.035 96.5903V88.3359H116.434V99ZM122.007 99.1465C120.933 99.1465 120.059 98.7949 119.385 98.0918C118.711 97.3838 118.375 96.439 118.375 95.2573V95.0083C118.375 94.2222 118.523 93.5215 118.821 92.9062C119.124 92.2861 119.544 91.8027 120.081 91.4561C120.623 91.1045 121.209 90.9287 121.839 90.9287C122.869 90.9287 123.67 91.2681 124.241 91.9468C124.812 92.6255 125.098 93.5972 125.098 94.8618V95.4258H119.729C119.749 96.207 119.976 96.8394 120.411 97.3228C120.85 97.8013 121.407 98.0405 122.081 98.0405C122.559 98.0405 122.964 97.9429 123.296 97.7476C123.628 97.5522 123.919 97.2935 124.168 96.9712L124.996 97.6157C124.332 98.6362 123.335 99.1465 122.007 99.1465ZM121.839 92.042C121.292 92.042 120.833 92.2422 120.462 92.6426C120.091 93.0381 119.861 93.5947 119.773 94.3125H123.743V94.21C123.704 93.5215 123.519 92.9893 123.187 92.6133C122.854 92.2324 122.405 92.042 121.839 92.042ZM133.689 97.1323L135.213 91.0752H136.568L134.261 99H133.162L131.236 92.9941L129.361 99H128.262L125.962 91.0752H127.31L128.87 97.0078L130.716 91.0752H131.807L133.689 97.1323ZM149.729 95.6162C149.598 96.7441 149.18 97.6157 148.477 98.231C147.779 98.8413 146.849 99.1465 145.687 99.1465C144.427 99.1465 143.416 98.6948 142.654 97.7915C141.897 96.8882 141.519 95.6797 141.519 94.166V93.1406C141.519 92.1494 141.695 91.2778 142.046 90.5259C142.403 89.7739 142.906 89.1978 143.555 88.7974C144.205 88.3921 144.957 88.1895 145.811 88.1895C146.944 88.1895 147.852 88.5068 148.536 89.1416C149.219 89.7715 149.617 90.6455 149.729 91.7637H148.316C148.194 90.9141 147.928 90.2988 147.518 89.918C147.112 89.5371 146.543 89.3467 145.811 89.3467C144.913 89.3467 144.207 89.6787 143.694 90.3428C143.187 91.0068 142.933 91.9517 142.933 93.1772V94.21C142.933 95.3672 143.174 96.2876 143.658 96.9712C144.141 97.6548 144.817 97.9966 145.687 97.9966C146.468 97.9966 147.066 97.8208 147.481 97.4692C147.901 97.1128 148.179 96.4951 148.316 95.6162H149.729ZM156.336 98.2163C155.809 98.8364 155.035 99.1465 154.014 99.1465C153.169 99.1465 152.525 98.9023 152.081 98.4141C151.641 97.9209 151.419 97.1934 151.414 96.2314V91.0752H152.769V96.1948C152.769 97.396 153.257 97.9966 154.234 97.9966C155.269 97.9966 155.958 97.6108 156.299 96.8394V91.0752H157.654V99H156.365L156.336 98.2163ZM164.334 96.8979C164.334 96.5317 164.195 96.2485 163.917 96.0483C163.643 95.8433 163.162 95.6675 162.474 95.521C161.79 95.3745 161.246 95.1987 160.84 94.9937C160.44 94.7886 160.142 94.5444 159.947 94.2612C159.756 93.978 159.661 93.6411 159.661 93.2505C159.661 92.6011 159.935 92.0518 160.481 91.6025C161.033 91.1533 161.736 90.9287 162.591 90.9287C163.489 90.9287 164.217 91.1606 164.773 91.6245C165.335 92.0884 165.616 92.6816 165.616 93.4043H164.253C164.253 93.0332 164.095 92.7134 163.777 92.4448C163.465 92.1763 163.069 92.042 162.591 92.042C162.098 92.042 161.712 92.1494 161.434 92.3643C161.155 92.5791 161.016 92.8599 161.016 93.2065C161.016 93.5337 161.146 93.7803 161.404 93.9463C161.663 94.1123 162.129 94.271 162.803 94.4224C163.482 94.5737 164.031 94.7544 164.451 94.9644C164.871 95.1743 165.181 95.4282 165.381 95.7261C165.586 96.019 165.689 96.3779 165.689 96.8027C165.689 97.5107 165.406 98.0796 164.839 98.5093C164.273 98.9341 163.538 99.1465 162.635 99.1465C162 99.1465 161.438 99.0342 160.95 98.8096C160.462 98.585 160.079 98.2725 159.8 97.8721C159.527 97.4668 159.39 97.0298 159.39 96.561H160.745C160.77 97.0151 160.95 97.3765 161.287 97.645C161.629 97.9087 162.078 98.0405 162.635 98.0405C163.147 98.0405 163.558 97.938 163.865 97.7329C164.178 97.5229 164.334 97.2446 164.334 96.8979ZM169.292 89.1562V91.0752H170.772V92.1226H169.292V97.0371C169.292 97.3545 169.358 97.5938 169.49 97.7549C169.622 97.9111 169.847 97.9893 170.164 97.9893C170.32 97.9893 170.535 97.96 170.809 97.9014V99C170.452 99.0977 170.105 99.1465 169.769 99.1465C169.163 99.1465 168.707 98.9634 168.399 98.5972C168.091 98.231 167.938 97.7109 167.938 97.0371V92.1226H166.495V91.0752H167.938V89.1562H169.292ZM171.856 94.9644C171.856 94.188 172.007 93.4897 172.31 92.8696C172.618 92.2495 173.042 91.771 173.584 91.4341C174.131 91.0972 174.754 90.9287 175.452 90.9287C176.531 90.9287 177.403 91.3022 178.067 92.0493C178.736 92.7964 179.07 93.79 179.07 95.0303V95.1255C179.07 95.897 178.921 96.5903 178.624 97.2056C178.331 97.8159 177.908 98.292 177.356 98.6338C176.81 98.9756 176.18 99.1465 175.467 99.1465C174.393 99.1465 173.521 98.7729 172.852 98.0259C172.188 97.2788 171.856 96.29 171.856 95.0596V94.9644ZM173.218 95.1255C173.218 96.0044 173.421 96.71 173.826 97.2422C174.236 97.7744 174.783 98.0405 175.467 98.0405C176.155 98.0405 176.702 97.772 177.107 97.2349C177.513 96.6929 177.715 95.936 177.715 94.9644C177.715 94.0952 177.508 93.3921 177.093 92.855C176.683 92.313 176.136 92.042 175.452 92.042C174.783 92.042 174.244 92.3081 173.833 92.8403C173.423 93.3726 173.218 94.1343 173.218 95.1255ZM182.044 91.0752L182.081 91.9541C182.662 91.2705 183.445 90.9287 184.432 90.9287C185.54 90.9287 186.294 91.3535 186.695 92.2031C186.958 91.8223 187.3 91.5146 187.72 91.2803C188.145 91.0459 188.646 90.9287 189.222 90.9287C190.96 90.9287 191.844 91.8491 191.873 93.6899V99H190.518V93.7705C190.518 93.2041 190.389 92.7817 190.13 92.5034C189.871 92.2202 189.437 92.0786 188.826 92.0786C188.323 92.0786 187.906 92.23 187.574 92.5327C187.242 92.8306 187.049 93.2334 186.995 93.7412V99H185.633V93.8071C185.633 92.6548 185.069 92.0786 183.941 92.0786C183.052 92.0786 182.444 92.457 182.117 93.2139V99H180.762V91.0752H182.044ZM197.212 99.1465C196.138 99.1465 195.264 98.7949 194.59 98.0918C193.917 97.3838 193.58 96.439 193.58 95.2573V95.0083C193.58 94.2222 193.729 93.5215 194.026 92.9062C194.329 92.2861 194.749 91.8027 195.286 91.4561C195.828 91.1045 196.414 90.9287 197.044 90.9287C198.074 90.9287 198.875 91.2681 199.446 91.9468C200.018 92.6255 200.303 93.5972 200.303 94.8618V95.4258H194.935C194.954 96.207 195.181 96.8394 195.616 97.3228C196.055 97.8013 196.612 98.0405 197.286 98.0405C197.764 98.0405 198.169 97.9429 198.501 97.7476C198.833 97.5522 199.124 97.2935 199.373 96.9712L200.201 97.6157C199.537 98.6362 198.541 99.1465 197.212 99.1465ZM197.044 92.042C196.497 92.042 196.038 92.2422 195.667 92.6426C195.296 93.0381 195.066 93.5947 194.979 94.3125H198.948V94.21C198.909 93.5215 198.724 92.9893 198.392 92.6133C198.06 92.2324 197.61 92.042 197.044 92.042ZM205.708 92.291C205.503 92.2568 205.281 92.2397 205.042 92.2397C204.153 92.2397 203.55 92.6182 203.233 93.375V99H201.878V91.0752H203.196L203.218 91.9907C203.663 91.2827 204.292 90.9287 205.108 90.9287C205.372 90.9287 205.572 90.9629 205.708 91.0312V92.291ZM217.969 89.4932H214.542V99H213.143V89.4932H209.722V88.3359H217.969V89.4932ZM218.248 94.9644C218.248 94.188 218.399 93.4897 218.702 92.8696C219.009 92.2495 219.434 91.771 219.976 91.4341C220.523 91.0972 221.146 90.9287 221.844 90.9287C222.923 90.9287 223.794 91.3022 224.458 92.0493C225.127 92.7964 225.462 93.79 225.462 95.0303V95.1255C225.462 95.897 225.313 96.5903 225.015 97.2056C224.722 97.8159 224.3 98.292 223.748 98.6338C223.201 98.9756 222.571 99.1465 221.858 99.1465C220.784 99.1465 219.913 98.7729 219.244 98.0259C218.58 97.2788 218.248 96.29 218.248 95.0596V94.9644ZM219.61 95.1255C219.61 96.0044 219.812 96.71 220.218 97.2422C220.628 97.7744 221.175 98.0405 221.858 98.0405C222.547 98.0405 223.094 97.772 223.499 97.2349C223.904 96.6929 224.107 95.936 224.107 94.9644C224.107 94.0952 223.899 93.3921 223.484 92.855C223.074 92.313 222.527 92.042 221.844 92.042C221.175 92.042 220.635 92.3081 220.225 92.8403C219.815 93.3726 219.61 94.1343 219.61 95.1255ZM226.832 94.9717C226.832 93.7559 227.12 92.7793 227.696 92.042C228.272 91.2998 229.026 90.9287 229.959 90.9287C230.887 90.9287 231.622 91.2461 232.164 91.8809V87.75H233.519V99H232.273L232.208 98.1504C231.666 98.8145 230.911 99.1465 229.944 99.1465C229.026 99.1465 228.277 98.7705 227.696 98.0186C227.12 97.2666 226.832 96.2852 226.832 95.0742V94.9717ZM228.187 95.1255C228.187 96.0239 228.372 96.7271 228.743 97.2349C229.114 97.7427 229.627 97.9966 230.281 97.9966C231.141 97.9966 231.768 97.6108 232.164 96.8394V93.1992C231.758 92.4521 231.136 92.0786 230.296 92.0786C229.632 92.0786 229.114 92.335 228.743 92.8477C228.372 93.3604 228.187 94.1196 228.187 95.1255ZM240.521 99C240.442 98.8438 240.379 98.5654 240.33 98.165C239.7 98.8193 238.948 99.1465 238.074 99.1465C237.293 99.1465 236.651 98.9268 236.148 98.4873C235.65 98.043 235.401 97.4814 235.401 96.8027C235.401 95.9775 235.713 95.3379 236.338 94.8838C236.968 94.4248 237.852 94.1953 238.99 94.1953H240.308V93.5728C240.308 93.0991 240.167 92.7231 239.883 92.4448C239.6 92.1616 239.183 92.02 238.631 92.02C238.147 92.02 237.742 92.1421 237.415 92.3862C237.088 92.6304 236.924 92.9258 236.924 93.2725H235.562C235.562 92.877 235.701 92.4961 235.979 92.1299C236.263 91.7588 236.644 91.4658 237.122 91.251C237.605 91.0361 238.135 90.9287 238.711 90.9287C239.625 90.9287 240.34 91.1582 240.857 91.6172C241.375 92.0713 241.644 92.6987 241.663 93.4995V97.147C241.663 97.8745 241.756 98.4531 241.941 98.8828V99H240.521ZM238.272 97.9673C238.697 97.9673 239.1 97.8574 239.48 97.6377C239.861 97.418 240.137 97.1323 240.308 96.7808V95.1548H239.246C237.586 95.1548 236.756 95.6406 236.756 96.6123C236.756 97.0371 236.897 97.3691 237.181 97.6084C237.464 97.8477 237.828 97.9673 238.272 97.9673ZM246.263 97.0151L248.108 91.0752H249.559L246.373 100.223C245.879 101.542 245.096 102.201 244.021 102.201L243.765 102.179L243.26 102.083V100.985L243.626 101.014C244.085 101.014 244.441 100.921 244.695 100.736C244.954 100.55 245.167 100.211 245.333 99.7178L245.633 98.9121L242.806 91.0752H244.285L246.263 97.0151Z" fill="#666666"/>
</g>
<defs>
<filter id="filter0_d_33_365" x="0" y="0" width="304" height="142" filterUnits="userSpaceOnUse" color-interpolation-filters="sRGB">
<feFlood flood-opacity="0" result="BackgroundImageFix"/>
<feColorMatrix in="SourceAlpha" type="matrix" values="0 0 0 0 0 0 0 0 0 0 0 0 0 0 0 0 0 0 127 0" result="hardAlpha"/>
<feOffset dy="4"/>
<feGaussianBlur stdDeviation="8"/>
<feColorMatrix type="matrix" values="0 0 0 0 0 0 0 0 0 0 0 0 0 0 0 0 0 0 0.06 0"/>
<feBlend mode="normal" in2="BackgroundImageFix" result="effect1_dropShadow_33_365"/>
<feBlend mode="normal" in="SourceGraphic" in2="effect1_dropShadow_33_365" result="shape"/>
</filter>
</defs>
</svg>
