<svg width="591" height="337" viewBox="0 0 591 337" fill="none" xmlns="http://www.w3.org/2000/svg">
<g filter="url(#filter0_d_33_608)">
<rect x="16" y="12" width="559" height="305" rx="3" fill="white"/>
<mask id="mask0_33_608" style="mask-type:alpha" maskUnits="userSpaceOnUse" x="90" y="67" width="454" height="165">
<rect x="90.0598" y="67.731" width="453.49" height="163.368" fill="white"/>
</mask>
<g mask="url(#mask0_33_608)">
<path fill-rule="evenodd" clip-rule="evenodd" d="M90.0091 229.337L98.4563 218.998L110.652 217.004L111.67 211.823L116.692 206.664L135.044 195.155L152.979 183.645H168.045L190.979 178.463L212.524 185.962L227.59 178.463L238.921 168.042L254.134 162.943L281.67 166.953L316.22 161.224L332.929 153.277L352.419 150.86L367.485 153.224L372.507 143.457L379.681 140.019L386.855 133.714C386.855 133.714 401.203 131.422 401.203 130.276C401.203 129.129 435.639 140.541 435.639 140.541L449.225 136.669L462.015 137.194L485.557 134.496L501.915 126.242L525.439 125.619L535.989 122.782L546.714 131.022L553.753 126.757L562.054 125.864L577.03 137.468L589.164 128.491V232.161L105.339 231.528L89.5549 231.481" fill="url(#paint0_linear_33_608)"/>
<path d="M90.0091 229.337L98.4563 218.998L110.652 217.004L111.67 211.823L116.692 206.664L135.044 195.155L152.979 183.645H168.045L190.979 178.463L212.524 185.962L227.59 178.463L238.921 168.042L254.134 162.943L281.67 166.953L316.22 161.224L332.929 153.277L352.419 150.86L367.485 153.224L372.507 143.457L379.681 140.019L386.855 133.714C386.855 133.714 401.203 131.422 401.203 130.276C401.203 129.129 435.639 140.541 435.639 140.541L449.225 136.669L462.015 137.194L485.557 134.496L501.915 126.242L525.439 125.619L535.989 122.782L546.714 131.022L553.753 126.757L562.054 125.864L577.03 137.468L589.164 128.491V232.161L105.339 231.528L89.5549 231.481" stroke="#344CE9"/>
<path fill-rule="evenodd" clip-rule="evenodd" d="M90.0091 228.866L98.4563 216.804L110.652 214.477L111.67 208.433L116.692 202.415L135.044 188.988L152.979 175.559L167.592 164.5L181.01 150.477L199.825 143.936L224.912 146.27L238.921 157.356L262.594 159.592L281.67 156.085L301.613 141.012L321.261 134.287L332.929 124.661L349.643 107.862L374.624 110.512L386.855 117.306C386.855 117.306 401.203 114.632 401.203 113.295C401.203 111.957 440.164 111.213 440.164 111.213L452.599 117.172H469.709L485.557 118.218L501.915 108.588L525.439 107.862L532.309 117.172L546.714 114.166L553.753 109.19L562.054 108.148L577.03 121.686L589.164 122.782V232.161L105.339 231.423L89.5549 231.367" fill="url(#paint1_linear_33_608)"/>
<path d="M90.0091 228.866L98.4563 216.804L110.652 214.477L111.67 208.433L116.692 202.415L135.044 188.988L152.979 175.559L167.592 164.5L181.01 150.477L199.825 143.936L224.912 146.27L238.921 157.356L262.594 159.592L281.67 156.085L301.613 141.012L321.261 134.287L332.929 124.661L349.643 107.862L374.624 110.512L386.855 117.306C386.855 117.306 401.203 114.632 401.203 113.295C401.203 111.957 440.164 111.213 440.164 111.213L452.599 117.172H469.709L485.557 118.218L501.915 108.588L525.439 107.862L532.309 117.172L546.714 114.166L553.753 109.19L562.054 108.148L577.03 121.686L589.164 122.782V232.161L105.339 231.423L89.5549 231.367" stroke="#00A560"/>
<path fill-rule="evenodd" clip-rule="evenodd" d="M89.2871 143.877L93.3291 140.308L99.9226 137.538L104.538 138.807L113.769 139.387L118.384 130.686H126.956L132.231 128.657L143.439 130.106L150.692 123.017L157.286 122.437L165.198 120.988L174.429 123.119L181.682 122.437L198.165 120.988L203.44 122.437H212.012L231.23 110.852L254.614 110.009L268.056 121.858H281.902L293.771 120.988L300.987 114.935L310.238 116.674L318.166 120.988L326.738 117.989L333.991 122.47L340.584 118.992L345.2 116.674L351.793 114.935L358.386 111.747H362.343H367.617C367.617 111.747 371.573 110.588 371.573 110.009C371.573 109.429 373.551 106.821 373.551 106.821L379.486 105.372L387.398 102.474L391.354 103.923L393.332 105.372L403.222 106.241L408.497 101.605L415.09 97.8372L428.277 97.2576L430.915 89.1107L435.53 85.6331H440.805L447.398 82.4454L453.332 79.8372L457.948 85.1187L465.693 84.7003L473.605 80.1922L481.518 77.8738L497.509 74.0413L504.102 75.4902L512.014 83.3205L520.586 79.9715L531.135 90.0184L533.773 90.8878L544.322 107.53V147.662" fill="url(#paint2_linear_33_608)"/>
<path d="M89.2871 143.877L93.3291 140.308L99.9226 137.538L104.538 138.807L113.769 139.387L118.384 130.686H126.956L132.231 128.657L143.439 130.106L150.692 123.017L157.286 122.437L165.198 120.988L174.429 123.119L181.682 122.437L198.165 120.988L203.44 122.437H212.012L231.23 110.852L254.614 110.009L268.056 121.858H281.902L293.771 120.988L300.987 114.935L310.238 116.674L318.166 120.988L326.738 117.989L333.991 122.47L340.584 118.992L345.2 116.674L351.793 114.935L358.386 111.747H362.343H367.617C367.617 111.747 371.573 110.588 371.573 110.009C371.573 109.429 373.551 106.821 373.551 106.821L379.486 105.372L387.398 102.474L391.354 103.923L393.332 105.372L403.222 106.241L408.497 101.605L415.09 97.8372L428.277 97.2576L430.915 89.1107L435.53 85.6331H440.805L447.398 82.4454L453.332 79.8372L457.948 85.1187L465.693 84.7003L473.606 80.1922L481.518 77.8738L497.509 74.0413L504.102 75.4902L512.014 83.3205L520.586 79.9715L531.135 90.0184L533.773 90.8878L544.322 107.53V147.662" stroke="url(#paint3_linear_33_608)" stroke-linecap="round" stroke-linejoin="round"/>
<path fill-rule="evenodd" clip-rule="evenodd" d="M89.2871 210.486L93.3291 206.917L99.9226 204.147L113.769 185.602L123.735 180.589L134.924 181.544L140.297 189.079L144.334 195.214L150.692 199.547H160.362L168.088 197.204L184.311 199.547L206.072 209.363L236.238 204.806L250.751 195.214L268.056 188.467L285.337 183.283L301.208 178.357L316.805 176.059L333.415 175.708L341.14 185.602L359.802 188.467L371.573 183.283L404.955 177.811L415.09 164.446L428.277 163.867L430.915 155.72L435.53 152.242H440.805L447.398 149.055L453.332 146.446L457.948 151.728L465.693 151.31L473.606 146.801L481.518 144.483L497.509 140.651L504.102 142.099L512.014 149.93L520.586 146.581L531.135 156.628L533.773 157.497L545.867 152.242L544.322 214.271" fill="url(#paint4_linear_33_608)"/>
<path d="M89.2871 210.486L93.3291 206.917L99.9226 204.147L113.769 185.602L123.735 180.589L134.924 181.544L140.297 189.079L144.334 195.214L150.692 199.547H160.362L168.088 197.204L184.311 199.547L206.072 209.363L236.238 204.806L250.751 195.214L268.056 188.467L285.337 183.283L301.208 178.357L316.805 176.059L333.415 175.708L341.14 185.602L359.802 188.467L371.573 183.283L404.955 177.811L415.09 164.446L428.277 163.867L430.915 155.72L435.53 152.242H440.805L447.398 149.055L453.332 146.446L457.948 151.728L465.693 151.31L473.606 146.801L481.518 144.483L497.509 140.651L504.102 142.099L512.014 149.93L520.586 146.581L531.135 156.628L533.773 157.497L545.867 152.242L544.322 214.271" stroke="url(#paint5_linear_33_608)"/>
</g>
<g clip-path="url(#clip0_33_608)">
<path opacity="0.6" d="M96.1992 252.408C96.1992 253.635 95.9688 254.561 95.5078 255.186C95.0508 255.807 94.3535 256.117 93.416 256.117C92.4941 256.117 91.7988 255.814 91.3301 255.209C90.8652 254.6 90.627 253.699 90.6152 252.508V251.031C90.6152 249.805 90.8438 248.885 91.3008 248.271C91.7617 247.658 92.4629 247.352 93.4043 247.352C94.3379 247.352 95.0332 247.65 95.4902 248.248C95.9512 248.846 96.1875 249.74 96.1992 250.932V252.408ZM94.7754 250.814C94.7754 250.014 94.666 249.428 94.4473 249.057C94.2285 248.682 93.8809 248.494 93.4043 248.494C92.9395 248.494 92.5977 248.672 92.3789 249.027C92.1602 249.379 92.0449 249.93 92.0332 250.68V252.613C92.0332 253.41 92.1445 254.004 92.3672 254.395C92.5898 254.785 92.9395 254.98 93.416 254.98C93.873 254.98 94.2109 254.801 94.4297 254.441C94.6484 254.078 94.7637 253.512 94.7754 252.742V250.814ZM94.4941 270H93.0762V263.15L90.9844 263.865V262.664L94.3125 261.439H94.4941V270Z" fill="black"/>
<path opacity="0.6" d="M169.935 252.408C169.935 253.635 169.704 254.561 169.243 255.186C168.786 255.807 168.089 256.117 167.151 256.117C166.229 256.117 165.534 255.814 165.065 255.209C164.601 254.6 164.362 253.699 164.351 252.508V251.031C164.351 249.805 164.579 248.885 165.036 248.271C165.497 247.658 166.198 247.352 167.14 247.352C168.073 247.352 168.769 247.65 169.226 248.248C169.687 248.846 169.923 249.74 169.935 250.932V252.408ZM168.511 250.814C168.511 250.014 168.401 249.428 168.183 249.057C167.964 248.682 167.616 248.494 167.14 248.494C166.675 248.494 166.333 248.672 166.114 249.027C165.896 249.379 165.78 249.93 165.769 250.68V252.613C165.769 253.41 165.88 254.004 166.103 254.395C166.325 254.785 166.675 254.98 167.151 254.98C167.608 254.98 167.946 254.801 168.165 254.441C168.384 254.078 168.499 253.512 168.511 252.742V250.814ZM170.11 270H164.374V269.021L167.216 265.922C167.626 265.465 167.917 265.084 168.089 264.779C168.265 264.471 168.353 264.162 168.353 263.854C168.353 263.447 168.237 263.119 168.007 262.869C167.78 262.619 167.474 262.494 167.087 262.494C166.626 262.494 166.269 262.635 166.015 262.916C165.761 263.197 165.634 263.582 165.634 264.07H164.21C164.21 263.551 164.327 263.084 164.562 262.67C164.8 262.252 165.138 261.928 165.575 261.697C166.017 261.467 166.524 261.352 167.099 261.352C167.927 261.352 168.579 261.561 169.056 261.979C169.536 262.393 169.776 262.967 169.776 263.701C169.776 264.127 169.655 264.574 169.413 265.043C169.175 265.508 168.782 266.037 168.235 266.631L166.149 268.863H170.11V270Z" fill="black"/>
<path opacity="0.6" d="M242.968 252.408C242.968 253.635 242.738 254.561 242.277 255.186C241.82 255.807 241.123 256.117 240.185 256.117C239.263 256.117 238.568 255.814 238.099 255.209C237.634 254.6 237.396 253.699 237.384 252.508V251.031C237.384 249.805 237.613 248.885 238.07 248.271C238.531 247.658 239.232 247.352 240.173 247.352C241.107 247.352 241.802 247.65 242.259 248.248C242.72 248.846 242.957 249.74 242.968 250.932V252.408ZM241.544 250.814C241.544 250.014 241.435 249.428 241.216 249.057C240.998 248.682 240.65 248.494 240.173 248.494C239.708 248.494 239.367 248.672 239.148 249.027C238.929 249.379 238.814 249.93 238.802 250.68V252.613C238.802 253.41 238.914 254.004 239.136 254.395C239.359 254.785 239.708 254.98 240.185 254.98C240.642 254.98 240.98 254.801 241.199 254.441C241.417 254.078 241.533 253.512 241.544 252.742V250.814ZM239.054 265.084H239.921C240.359 265.08 240.705 264.967 240.958 264.744C241.216 264.521 241.345 264.199 241.345 263.777C241.345 263.371 241.238 263.057 241.023 262.834C240.812 262.607 240.488 262.494 240.05 262.494C239.667 262.494 239.353 262.605 239.107 262.828C238.861 263.047 238.738 263.334 238.738 263.689H237.314C237.314 263.252 237.429 262.854 237.66 262.494C237.894 262.135 238.218 261.855 238.632 261.656C239.05 261.453 239.517 261.352 240.033 261.352C240.884 261.352 241.552 261.566 242.037 261.996C242.525 262.422 242.769 263.016 242.769 263.777C242.769 264.16 242.646 264.521 242.4 264.861C242.158 265.197 241.843 265.451 241.457 265.623C241.925 265.783 242.281 266.035 242.523 266.379C242.769 266.723 242.892 267.133 242.892 267.609C242.892 268.375 242.628 268.984 242.101 269.438C241.578 269.891 240.888 270.117 240.033 270.117C239.212 270.117 238.541 269.898 238.017 269.461C237.494 269.023 237.232 268.441 237.232 267.715H238.656C238.656 268.09 238.781 268.395 239.031 268.629C239.285 268.863 239.625 268.98 240.05 268.98C240.492 268.98 240.839 268.863 241.093 268.629C241.347 268.395 241.474 268.055 241.474 267.609C241.474 267.16 241.341 266.814 241.076 266.572C240.81 266.33 240.416 266.209 239.892 266.209H239.054V265.084Z" fill="black"/>
<path opacity="0.6" d="M316.001 252.408C316.001 253.635 315.771 254.561 315.31 255.186C314.853 255.807 314.156 256.117 313.218 256.117C312.296 256.117 311.601 255.814 311.132 255.209C310.667 254.6 310.429 253.699 310.417 252.508V251.031C310.417 249.805 310.646 248.885 311.103 248.271C311.564 247.658 312.265 247.352 313.207 247.352C314.14 247.352 314.835 247.65 315.292 248.248C315.753 248.846 315.99 249.74 316.001 250.932V252.408ZM314.578 250.814C314.578 250.014 314.468 249.428 314.25 249.057C314.031 248.682 313.683 248.494 313.207 248.494C312.742 248.494 312.4 248.672 312.181 249.027C311.962 249.379 311.847 249.93 311.835 250.68V252.613C311.835 253.41 311.947 254.004 312.169 254.395C312.392 254.785 312.742 254.98 313.218 254.98C313.675 254.98 314.013 254.801 314.232 254.441C314.451 254.078 314.566 253.512 314.578 252.742V250.814ZM315.257 266.959H316.318V268.102H315.257V270H313.833V268.102H310.148L310.107 267.234L313.787 261.469H315.257V266.959ZM311.601 266.959H313.833V263.396L313.728 263.584L311.601 266.959Z" fill="black"/>
<path opacity="0.6" d="M389.035 252.408C389.035 253.635 388.804 254.561 388.344 255.186C387.886 255.807 387.189 256.117 386.252 256.117C385.33 256.117 384.635 255.814 384.166 255.209C383.701 254.6 383.463 253.699 383.451 252.508V251.031C383.451 249.805 383.679 248.885 384.136 248.271C384.597 247.658 385.299 247.352 386.24 247.352C387.174 247.352 387.869 247.65 388.326 248.248C388.787 248.846 389.023 249.74 389.035 250.932V252.408ZM387.611 250.814C387.611 250.014 387.502 249.428 387.283 249.057C387.064 248.682 386.717 248.494 386.24 248.494C385.775 248.494 385.433 248.672 385.215 249.027C384.996 249.379 384.881 249.93 384.869 250.68V252.613C384.869 253.41 384.98 254.004 385.203 254.395C385.426 254.785 385.775 254.98 386.252 254.98C386.709 254.98 387.047 254.801 387.265 254.441C387.484 254.078 387.599 253.512 387.611 252.742V250.814ZM383.855 265.77L384.318 261.469H388.9V262.699H385.502L385.267 264.738C385.662 264.512 386.107 264.398 386.603 264.398C387.416 264.398 388.047 264.658 388.496 265.178C388.949 265.697 389.176 266.396 389.176 267.275C389.176 268.143 388.926 268.834 388.426 269.35C387.926 269.861 387.24 270.117 386.369 270.117C385.588 270.117 384.939 269.896 384.424 269.455C383.912 269.01 383.635 268.424 383.592 267.697H384.969C385.023 268.111 385.172 268.43 385.414 268.652C385.656 268.871 385.972 268.98 386.363 268.98C386.801 268.98 387.14 268.824 387.383 268.512C387.629 268.199 387.752 267.773 387.752 267.234C387.752 266.715 387.617 266.305 387.347 266.004C387.078 265.699 386.707 265.547 386.234 265.547C385.976 265.547 385.758 265.582 385.578 265.652C385.398 265.719 385.203 265.852 384.992 266.051L383.855 265.77Z" fill="black"/>
<path opacity="0.6" d="M462.069 252.408C462.069 253.635 461.838 254.561 461.377 255.186C460.92 255.807 460.223 256.117 459.285 256.117C458.364 256.117 457.668 255.814 457.199 255.209C456.735 254.6 456.496 253.699 456.485 252.508V251.031C456.485 249.805 456.713 248.885 457.17 248.271C457.631 247.658 458.332 247.352 459.274 247.352C460.207 247.352 460.903 247.65 461.36 248.248C461.821 248.846 462.057 249.74 462.069 250.932V252.408ZM460.645 250.814C460.645 250.014 460.535 249.428 460.317 249.057C460.098 248.682 459.75 248.494 459.274 248.494C458.809 248.494 458.467 248.672 458.248 249.027C458.03 249.379 457.914 249.93 457.903 250.68V252.613C457.903 253.41 458.014 254.004 458.237 254.395C458.459 254.785 458.809 254.98 459.285 254.98C459.742 254.98 460.08 254.801 460.299 254.441C460.518 254.078 460.633 253.512 460.645 252.742V250.814ZM460.938 261.428V262.605H460.762C459.965 262.617 459.328 262.836 458.852 263.262C458.375 263.688 458.092 264.291 458.002 265.072C458.459 264.592 459.043 264.352 459.754 264.352C460.508 264.352 461.102 264.617 461.535 265.148C461.973 265.68 462.192 266.365 462.192 267.205C462.192 268.072 461.936 268.775 461.424 269.314C460.916 269.85 460.248 270.117 459.42 270.117C458.569 270.117 457.877 269.803 457.346 269.174C456.819 268.545 456.555 267.721 456.555 266.701V266.215C456.555 264.719 456.918 263.547 457.645 262.699C458.375 261.852 459.424 261.428 460.791 261.428H460.938ZM459.408 265.5C459.096 265.5 458.809 265.588 458.547 265.764C458.289 265.939 458.1 266.174 457.979 266.467V266.9C457.979 267.533 458.112 268.037 458.377 268.412C458.643 268.783 458.987 268.969 459.408 268.969C459.83 268.969 460.164 268.811 460.41 268.494C460.656 268.178 460.78 267.762 460.78 267.246C460.78 266.73 460.655 266.311 460.405 265.986C460.155 265.662 459.823 265.5 459.408 265.5Z" fill="black"/>
<path opacity="0.6" d="M542.744 252.604C542.744 253.83 542.514 254.756 542.053 255.381C541.596 256.002 540.898 256.313 539.961 256.313C539.039 256.313 538.344 256.01 537.875 255.404C537.41 254.795 537.172 253.895 537.16 252.703V251.227C537.16 250 537.389 249.08 537.846 248.467C538.307 247.854 539.008 247.547 539.949 247.547C540.883 247.547 541.578 247.846 542.035 248.443C542.496 249.041 542.732 249.936 542.744 251.127V252.604ZM541.32 251.01C541.32 250.209 541.211 249.623 540.992 249.252C540.773 248.877 540.426 248.69 539.949 248.69C539.484 248.69 539.143 248.867 538.924 249.223C538.705 249.574 538.59 250.125 538.578 250.875V252.809C538.578 253.606 538.69 254.199 538.912 254.59C539.135 254.981 539.484 255.176 539.961 255.176C540.418 255.176 540.756 254.996 540.975 254.637C541.193 254.274 541.309 253.707 541.32 252.938V251.01Z" fill="black"/>
</g>
<path d="M60.8406 142.175H556.558" stroke="#4A4A4A" stroke-dasharray="1 10"/>
<path d="M60.8406 81.2706H556.558" stroke="#4A4A4A" stroke-dasharray="1 10"/>
<path d="M60.8406 172.993H556.558" stroke="#4A4A4A" stroke-dasharray="1 10"/>
<path d="M60.8406 112.089H556.558" stroke="#4A4A4A" stroke-dasharray="1 10"/>
<path d="M60.8406 203.079H556.558" stroke="#4A4A4A" stroke-dasharray="1 10"/>
<path d="M60.8406 233.898H556.558" stroke="#4A4A4A" stroke-dasharray="1 10"/>
<g clip-path="url(#clip1_33_608)">
<path opacity="0.6" d="M54.6638 230.139C54.6638 231.366 54.4333 232.292 53.9724 232.917C53.5154 233.538 52.8181 233.848 51.8806 233.848C50.9587 233.848 50.2634 233.545 49.7947 232.94C49.3298 232.331 49.0916 231.43 49.0798 230.239V228.762C49.0798 227.536 49.3083 226.616 49.7654 226.002C50.2263 225.389 50.9275 225.083 51.8689 225.083C52.8025 225.083 53.4978 225.381 53.9548 225.979C54.4158 226.577 54.6521 227.471 54.6638 228.663V230.139ZM53.24 228.545C53.24 227.745 53.1306 227.159 52.9119 226.788C52.6931 226.413 52.3455 226.225 51.8689 226.225C51.4041 226.225 51.0623 226.403 50.8435 226.758C50.6248 227.11 50.5095 227.661 50.4978 228.411V230.344C50.4978 231.141 50.6091 231.735 50.8318 232.125C51.0544 232.516 51.4041 232.711 51.8806 232.711C52.3376 232.711 52.6755 232.532 52.8943 232.172C53.113 231.809 53.2283 231.243 53.24 230.473V228.545Z" fill="black"/>
<path opacity="0.6" d="M54.8396 203.731H49.1033V202.752L51.9451 199.653C52.3552 199.196 52.6462 198.815 52.8181 198.51C52.9939 198.202 53.0818 197.893 53.0818 197.584C53.0818 197.178 52.9666 196.85 52.7361 196.6C52.5095 196.35 52.2029 196.225 51.8162 196.225C51.3552 196.225 50.9978 196.366 50.7439 196.647C50.49 196.928 50.363 197.313 50.363 197.801H48.9392C48.9392 197.282 49.0564 196.815 49.2908 196.401C49.5291 195.983 49.8669 195.659 50.3044 195.428C50.7458 195.198 51.2537 195.083 51.8279 195.083C52.656 195.083 53.3083 195.292 53.7849 195.709C54.2654 196.124 54.5056 196.698 54.5056 197.432C54.5056 197.858 54.3845 198.305 54.1423 198.774C53.9041 199.239 53.5115 199.768 52.9646 200.362L50.8787 202.594H54.8396V203.731Z" fill="black"/>
<path opacity="0.6" d="M53.9197 170.69H54.9802V171.833H53.9197V173.731H52.4958V171.833H48.8103L48.7693 170.965L52.449 165.2H53.9197V170.69ZM50.2634 170.69H52.4958V167.127L52.3904 167.315L50.2634 170.69Z" fill="black"/>
<path opacity="0.6" d="M53.533 135.159V136.336H53.3572C52.5603 136.348 51.9236 136.567 51.447 136.993C50.9705 137.418 50.6873 138.022 50.5974 138.803C51.0544 138.323 51.6384 138.083 52.3494 138.083C53.1033 138.083 53.697 138.348 54.1306 138.879C54.5681 139.411 54.7869 140.096 54.7869 140.936C54.7869 141.803 54.531 142.506 54.0193 143.045C53.5115 143.581 52.8435 143.848 52.0154 143.848C51.1638 143.848 50.4724 143.534 49.9412 142.905C49.4138 142.276 49.1501 141.452 49.1501 140.432V139.946C49.1501 138.45 49.5134 137.278 50.24 136.43C50.9705 135.583 52.0193 135.159 53.3865 135.159H53.533ZM52.0037 139.231C51.6912 139.231 51.4041 139.319 51.1423 139.495C50.8845 139.67 50.6951 139.905 50.574 140.198V140.631C50.574 141.264 50.7068 141.768 50.9724 142.143C51.238 142.514 51.5818 142.7 52.0037 142.7C52.4255 142.7 52.7595 142.542 53.0056 142.225C53.2517 141.909 53.3748 141.493 53.3748 140.977C53.3748 140.461 53.2498 140.042 52.9998 139.717C52.7498 139.393 52.4177 139.231 52.0037 139.231Z" fill="black"/>
<path opacity="0.6" d="M54.4763 107.45C54.4763 107.868 54.3689 108.241 54.1541 108.569C53.9392 108.893 53.6462 109.149 53.2751 109.336C53.7205 109.543 54.0623 109.827 54.3005 110.186C54.5427 110.545 54.6638 110.952 54.6638 111.405C54.6638 112.155 54.4099 112.75 53.9021 113.192C53.3943 113.629 52.7185 113.848 51.8748 113.848C51.0271 113.848 50.3474 113.627 49.8357 113.186C49.3279 112.745 49.074 112.151 49.074 111.405C49.074 110.948 49.1951 110.538 49.4373 110.174C49.6794 109.811 50.0193 109.532 50.4568 109.336C50.0896 109.149 49.7986 108.893 49.5837 108.569C49.3728 108.241 49.2673 107.868 49.2673 107.45C49.2673 106.723 49.5017 106.147 49.9705 105.721C50.4392 105.295 51.072 105.083 51.8689 105.083C52.6697 105.083 53.3044 105.295 53.7732 105.721C54.2419 106.147 54.4763 106.723 54.4763 107.45ZM53.24 111.334C53.24 110.913 53.113 110.573 52.8591 110.315C52.6091 110.053 52.2771 109.922 51.863 109.922C51.449 109.922 51.1169 110.051 50.8669 110.309C50.6208 110.567 50.4978 110.909 50.4978 111.334C50.4978 111.752 50.6189 112.086 50.8611 112.336C51.1072 112.586 51.4451 112.711 51.8748 112.711C52.3044 112.711 52.6384 112.59 52.8767 112.348C53.1189 112.106 53.24 111.768 53.24 111.334ZM53.0583 107.502C53.0583 107.131 52.9509 106.827 52.7361 106.588C52.5212 106.346 52.2322 106.225 51.8689 106.225C51.5056 106.225 51.2185 106.34 51.0076 106.571C50.7966 106.797 50.6912 107.108 50.6912 107.502C50.6912 107.893 50.7966 108.204 51.0076 108.434C51.2224 108.665 51.5115 108.78 51.8748 108.78C52.238 108.78 52.5251 108.665 52.7361 108.434C52.9509 108.204 53.0583 107.893 53.0583 107.502Z" fill="black"/>
<path opacity="0.6" d="M47.8862 83.731H46.4683V76.8813L44.3765 77.5962V76.395L47.7046 75.1704H47.8862V83.731ZM56.4116 80.1392C56.4116 81.3657 56.1812 82.2915 55.7202 82.9165C55.2632 83.5376 54.5659 83.8481 53.6284 83.8481C52.7065 83.8481 52.0112 83.5454 51.5425 82.9399C51.0776 82.3306 50.8394 81.4302 50.8276 80.2388V78.7622C50.8276 77.5356 51.0562 76.6157 51.5132 76.0024C51.9741 75.3892 52.6753 75.0825 53.6167 75.0825C54.5503 75.0825 55.2456 75.3813 55.7026 75.979C56.1636 76.5767 56.3999 77.4712 56.4116 78.6626V80.1392ZM54.9878 78.5454C54.9878 77.7446 54.8784 77.1587 54.6597 76.7876C54.4409 76.4126 54.0933 76.2251 53.6167 76.2251C53.1519 76.2251 52.8101 76.4028 52.5913 76.7583C52.3726 77.1099 52.2573 77.6606 52.2456 78.4106V80.3442C52.2456 81.1411 52.3569 81.7349 52.5796 82.1255C52.8022 82.5161 53.1519 82.7114 53.6284 82.7114C54.0854 82.7114 54.4233 82.5317 54.6421 82.1724C54.8608 81.8091 54.9761 81.2427 54.9878 80.4731V78.5454Z" fill="black"/>
</g>
<g clip-path="url(#clip2_33_608)">
<rect x="146.785" y="282.644" width="7.03145" height="7.01148" rx="1" fill="#0C213A"/>
<path d="M160.836 286.439C159.871 286.161 159.168 285.822 158.727 285.419C158.289 285.013 158.07 284.513 158.07 283.919C158.07 283.247 158.338 282.693 158.873 282.255C159.412 281.814 160.111 281.593 160.971 281.593C161.557 281.593 162.078 281.706 162.535 281.933C162.996 282.159 163.352 282.472 163.602 282.87C163.855 283.269 163.982 283.704 163.982 284.177H162.852C162.852 283.661 162.688 283.257 162.359 282.964C162.031 282.667 161.568 282.519 160.971 282.519C160.416 282.519 159.982 282.642 159.67 282.888C159.361 283.13 159.207 283.468 159.207 283.902C159.207 284.249 159.354 284.544 159.646 284.786C159.943 285.025 160.445 285.243 161.152 285.443C161.863 285.642 162.418 285.863 162.816 286.105C163.219 286.343 163.516 286.622 163.707 286.943C163.902 287.263 164 287.64 164 288.073C164 288.765 163.73 289.32 163.191 289.738C162.652 290.152 161.932 290.359 161.029 290.359C160.443 290.359 159.896 290.247 159.389 290.025C158.881 289.798 158.488 289.49 158.211 289.099C157.938 288.708 157.801 288.265 157.801 287.769H158.932C158.932 288.284 159.121 288.693 159.5 288.993C159.883 289.29 160.393 289.439 161.029 289.439C161.623 289.439 162.078 289.318 162.395 289.075C162.711 288.833 162.869 288.503 162.869 288.085C162.869 287.667 162.723 287.345 162.43 287.118C162.137 286.888 161.605 286.661 160.836 286.439ZM166.748 282.366V283.902H167.932V284.74H166.748V288.671C166.748 288.925 166.801 289.116 166.906 289.245C167.012 289.37 167.191 289.433 167.445 289.433C167.57 289.433 167.742 289.409 167.961 289.363V290.241C167.676 290.32 167.398 290.359 167.129 290.359C166.645 290.359 166.279 290.212 166.033 289.919C165.787 289.626 165.664 289.21 165.664 288.671V284.74H164.51V283.902H165.664V282.366H166.748ZM168.799 287.013C168.799 286.392 168.92 285.833 169.162 285.337C169.408 284.841 169.748 284.458 170.182 284.189C170.619 283.919 171.117 283.784 171.676 283.784C172.539 283.784 173.236 284.083 173.768 284.681C174.303 285.279 174.57 286.073 174.57 287.066V287.142C174.57 287.759 174.451 288.314 174.213 288.806C173.979 289.294 173.641 289.675 173.199 289.948C172.762 290.222 172.258 290.359 171.688 290.359C170.828 290.359 170.131 290.06 169.596 289.462C169.064 288.865 168.799 288.073 168.799 287.089V287.013ZM169.889 287.142C169.889 287.845 170.051 288.409 170.375 288.835C170.703 289.261 171.141 289.474 171.688 289.474C172.238 289.474 172.676 289.259 173 288.829C173.324 288.396 173.486 287.79 173.486 287.013C173.486 286.318 173.32 285.755 172.988 285.325C172.66 284.892 172.223 284.675 171.676 284.675C171.141 284.675 170.709 284.888 170.381 285.314C170.053 285.74 169.889 286.349 169.889 287.142ZM178.994 284.874C178.83 284.847 178.652 284.833 178.461 284.833C177.75 284.833 177.268 285.136 177.014 285.741V290.241H175.93V283.902H176.984L177.002 284.634C177.357 284.068 177.861 283.784 178.514 283.784C178.725 283.784 178.885 283.812 178.994 283.866V284.874ZM182.51 290.359C181.65 290.359 180.951 290.077 180.412 289.515C179.873 288.948 179.604 288.193 179.604 287.247V287.048C179.604 286.419 179.723 285.859 179.961 285.366C180.203 284.87 180.539 284.484 180.969 284.206C181.402 283.925 181.871 283.784 182.375 283.784C183.199 283.784 183.84 284.056 184.297 284.599C184.754 285.142 184.982 285.919 184.982 286.931V287.382H180.688C180.703 288.007 180.885 288.513 181.232 288.9C181.584 289.282 182.029 289.474 182.568 289.474C182.951 289.474 183.275 289.396 183.541 289.24C183.807 289.083 184.039 288.876 184.238 288.618L184.9 289.134C184.369 289.95 183.572 290.359 182.51 290.359ZM182.375 284.675C181.938 284.675 181.57 284.835 181.273 285.156C180.977 285.472 180.793 285.917 180.723 286.491H183.898V286.409C183.867 285.859 183.719 285.433 183.453 285.132C183.188 284.827 182.828 284.675 182.375 284.675ZM159.178 297.902L159.213 298.698C159.697 298.089 160.33 297.784 161.111 297.784C162.451 297.784 163.127 298.54 163.139 300.052V304.241H162.055V300.046C162.051 299.589 161.945 299.251 161.738 299.032C161.535 298.814 161.217 298.704 160.783 298.704C160.432 298.704 160.123 298.798 159.857 298.986C159.592 299.173 159.385 299.419 159.236 299.724V304.241H158.152V297.902H159.178ZM168.688 304.241C168.625 304.116 168.574 303.894 168.535 303.573C168.031 304.097 167.43 304.359 166.73 304.359C166.105 304.359 165.592 304.183 165.189 303.831C164.791 303.476 164.592 303.027 164.592 302.484C164.592 301.823 164.842 301.312 165.342 300.948C165.846 300.581 166.553 300.398 167.463 300.398H168.518V299.9C168.518 299.521 168.404 299.22 168.178 298.997C167.951 298.771 167.617 298.657 167.176 298.657C166.789 298.657 166.465 298.755 166.203 298.95C165.941 299.146 165.811 299.382 165.811 299.659H164.721C164.721 299.343 164.832 299.038 165.055 298.745C165.281 298.448 165.586 298.214 165.969 298.042C166.355 297.87 166.779 297.784 167.24 297.784C167.971 297.784 168.543 297.968 168.957 298.335C169.371 298.698 169.586 299.2 169.602 299.841V302.759C169.602 303.341 169.676 303.804 169.824 304.148V304.241H168.688ZM166.889 303.415C167.229 303.415 167.551 303.327 167.855 303.152C168.16 302.976 168.381 302.747 168.518 302.466V301.165H167.668C166.34 301.165 165.676 301.554 165.676 302.331C165.676 302.671 165.789 302.937 166.016 303.128C166.242 303.32 166.533 303.415 166.889 303.415ZM172.32 297.902L172.35 298.605C172.814 298.058 173.441 297.784 174.23 297.784C175.117 297.784 175.721 298.124 176.041 298.804C176.252 298.499 176.525 298.253 176.861 298.066C177.201 297.878 177.602 297.784 178.062 297.784C179.453 297.784 180.16 298.521 180.184 299.993V304.241H179.1V300.058C179.1 299.605 178.996 299.267 178.789 299.044C178.582 298.818 178.234 298.704 177.746 298.704C177.344 298.704 177.01 298.825 176.744 299.068C176.479 299.306 176.324 299.628 176.281 300.034V304.241H175.191V300.087C175.191 299.165 174.74 298.704 173.838 298.704C173.127 298.704 172.641 299.007 172.379 299.613V304.241H171.295V297.902H172.32ZM184.455 304.359C183.596 304.359 182.896 304.077 182.357 303.515C181.818 302.948 181.549 302.193 181.549 301.247V301.048C181.549 300.419 181.668 299.859 181.906 299.366C182.148 298.87 182.484 298.484 182.914 298.206C183.348 297.925 183.816 297.784 184.32 297.784C185.145 297.784 185.785 298.056 186.242 298.599C186.699 299.142 186.928 299.919 186.928 300.931V301.382H182.633C182.648 302.007 182.83 302.513 183.178 302.9C183.529 303.282 183.975 303.474 184.514 303.474C184.896 303.474 185.221 303.396 185.486 303.24C185.752 303.083 185.984 302.876 186.184 302.618L186.846 303.134C186.314 303.95 185.518 304.359 184.455 304.359ZM184.32 298.675C183.883 298.675 183.516 298.835 183.219 299.156C182.922 299.472 182.738 299.917 182.668 300.491H185.844V300.409C185.812 299.859 185.664 299.433 185.398 299.132C185.133 298.827 184.773 298.675 184.32 298.675ZM194.615 304.241H193.525V297.017L191.34 297.82V296.835L194.445 295.669H194.615V304.241Z" fill="black"/>
<rect x="225.537" y="282.644" width="7.03145" height="7.01148" rx="1" fill="#F8B849"/>
<path d="M239.588 286.439C238.623 286.161 237.92 285.822 237.479 285.419C237.041 285.013 236.823 284.513 236.823 283.919C236.823 283.247 237.09 282.693 237.625 282.255C238.164 281.814 238.864 281.593 239.723 281.593C240.309 281.593 240.83 281.706 241.287 281.933C241.748 282.159 242.104 282.472 242.354 282.87C242.608 283.269 242.735 283.704 242.735 284.177H241.604C241.604 283.661 241.44 283.257 241.112 282.964C240.783 282.667 240.321 282.519 239.723 282.519C239.168 282.519 238.735 282.642 238.422 282.888C238.114 283.13 237.959 283.468 237.959 283.902C237.959 284.249 238.106 284.544 238.399 284.786C238.696 285.025 239.198 285.243 239.905 285.443C240.615 285.642 241.17 285.863 241.569 286.105C241.971 286.343 242.268 286.622 242.459 286.943C242.655 287.263 242.752 287.64 242.752 288.073C242.752 288.765 242.483 289.32 241.944 289.738C241.405 290.152 240.684 290.359 239.781 290.359C239.196 290.359 238.649 290.247 238.141 290.025C237.633 289.798 237.24 289.49 236.963 289.099C236.69 288.708 236.553 288.265 236.553 287.769H237.684C237.684 288.284 237.873 288.693 238.252 288.993C238.635 289.29 239.145 289.439 239.781 289.439C240.375 289.439 240.83 289.318 241.147 289.075C241.463 288.833 241.621 288.503 241.621 288.085C241.621 287.667 241.475 287.345 241.182 287.118C240.889 286.888 240.358 286.661 239.588 286.439ZM245.5 282.366V283.902H246.684V284.74H245.5V288.671C245.5 288.925 245.553 289.116 245.658 289.245C245.764 289.37 245.944 289.433 246.198 289.433C246.323 289.433 246.494 289.409 246.713 289.363V290.241C246.428 290.32 246.151 290.359 245.881 290.359C245.397 290.359 245.031 290.212 244.785 289.919C244.539 289.626 244.416 289.21 244.416 288.671V284.74H243.262V283.902H244.416V282.366H245.5ZM247.551 287.013C247.551 286.392 247.672 285.833 247.914 285.337C248.16 284.841 248.5 284.458 248.934 284.189C249.371 283.919 249.869 283.784 250.428 283.784C251.291 283.784 251.989 284.083 252.52 284.681C253.055 285.279 253.323 286.073 253.323 287.066V287.142C253.323 287.759 253.203 288.314 252.965 288.806C252.731 289.294 252.393 289.675 251.951 289.948C251.514 290.222 251.01 290.359 250.44 290.359C249.58 290.359 248.883 290.06 248.348 289.462C247.817 288.865 247.551 288.073 247.551 287.089V287.013ZM248.641 287.142C248.641 287.845 248.803 288.409 249.127 288.835C249.455 289.261 249.893 289.474 250.44 289.474C250.99 289.474 251.428 289.259 251.752 288.829C252.076 288.396 252.239 287.79 252.239 287.013C252.239 286.318 252.073 285.755 251.74 285.325C251.412 284.892 250.975 284.675 250.428 284.675C249.893 284.675 249.461 284.888 249.133 285.314C248.805 285.74 248.641 286.349 248.641 287.142ZM257.746 284.874C257.582 284.847 257.405 284.833 257.213 284.833C256.502 284.833 256.02 285.136 255.766 285.741V290.241H254.682V283.902H255.737L255.754 284.634C256.11 284.068 256.614 283.784 257.266 283.784C257.477 283.784 257.637 283.812 257.746 283.866V284.874ZM261.262 290.359C260.403 290.359 259.703 290.077 259.164 289.515C258.625 288.948 258.356 288.193 258.356 287.247V287.048C258.356 286.419 258.475 285.859 258.713 285.366C258.955 284.87 259.291 284.484 259.721 284.206C260.155 283.925 260.623 283.784 261.127 283.784C261.951 283.784 262.592 284.056 263.049 284.599C263.506 285.142 263.735 285.919 263.735 286.931V287.382H259.44C259.455 288.007 259.637 288.513 259.985 288.9C260.336 289.282 260.781 289.474 261.321 289.474C261.703 289.474 262.028 289.396 262.293 289.24C262.559 289.083 262.791 288.876 262.99 288.618L263.653 289.134C263.121 289.95 262.324 290.359 261.262 290.359ZM261.127 284.675C260.69 284.675 260.323 284.835 260.026 285.156C259.729 285.472 259.545 285.917 259.475 286.491H262.651V286.409C262.619 285.859 262.471 285.433 262.205 285.132C261.94 284.827 261.58 284.675 261.127 284.675ZM237.93 297.902L237.965 298.698C238.449 298.089 239.082 297.784 239.864 297.784C241.203 297.784 241.879 298.54 241.891 300.052V304.241H240.807V300.046C240.803 299.589 240.698 299.251 240.49 299.032C240.287 298.814 239.969 298.704 239.535 298.704C239.184 298.704 238.875 298.798 238.61 298.986C238.344 299.173 238.137 299.419 237.989 299.724V304.241H236.905V297.902H237.93ZM247.44 304.241C247.377 304.116 247.326 303.894 247.287 303.573C246.783 304.097 246.182 304.359 245.483 304.359C244.858 304.359 244.344 304.183 243.942 303.831C243.543 303.476 243.344 303.027 243.344 302.484C243.344 301.823 243.594 301.312 244.094 300.948C244.598 300.581 245.305 300.398 246.215 300.398H247.27V299.9C247.27 299.521 247.156 299.22 246.93 298.997C246.703 298.771 246.369 298.657 245.928 298.657C245.541 298.657 245.217 298.755 244.955 298.95C244.694 299.146 244.563 299.382 244.563 299.659H243.473C243.473 299.343 243.584 299.038 243.807 298.745C244.033 298.448 244.338 298.214 244.721 298.042C245.108 297.87 245.531 297.784 245.992 297.784C246.723 297.784 247.295 297.968 247.709 298.335C248.123 298.698 248.338 299.2 248.354 299.841V302.759C248.354 303.341 248.428 303.804 248.576 304.148V304.241H247.44ZM245.641 303.415C245.981 303.415 246.303 303.327 246.608 303.152C246.912 302.976 247.133 302.747 247.27 302.466V301.165H246.42C245.092 301.165 244.428 301.554 244.428 302.331C244.428 302.671 244.541 302.937 244.768 303.128C244.994 303.32 245.285 303.415 245.641 303.415ZM251.073 297.902L251.102 298.605C251.567 298.058 252.194 297.784 252.983 297.784C253.869 297.784 254.473 298.124 254.793 298.804C255.004 298.499 255.278 298.253 255.614 298.066C255.953 297.878 256.354 297.784 256.815 297.784C258.205 297.784 258.912 298.521 258.936 299.993V304.241H257.852V300.058C257.852 299.605 257.748 299.267 257.541 299.044C257.334 298.818 256.987 298.704 256.498 298.704C256.096 298.704 255.762 298.825 255.496 299.068C255.231 299.306 255.076 299.628 255.033 300.034V304.241H253.944V300.087C253.944 299.165 253.492 298.704 252.59 298.704C251.879 298.704 251.393 299.007 251.131 299.613V304.241H250.047V297.902H251.073ZM263.207 304.359C262.348 304.359 261.649 304.077 261.11 303.515C260.571 302.948 260.301 302.193 260.301 301.247V301.048C260.301 300.419 260.42 299.859 260.658 299.366C260.901 298.87 261.237 298.484 261.666 298.206C262.1 297.925 262.569 297.784 263.073 297.784C263.897 297.784 264.537 298.056 264.994 298.599C265.451 299.142 265.68 299.919 265.68 300.931V301.382H261.385C261.401 302.007 261.582 302.513 261.93 302.9C262.281 303.282 262.727 303.474 263.266 303.474C263.649 303.474 263.973 303.396 264.239 303.24C264.504 303.083 264.737 302.876 264.936 302.618L265.598 303.134C265.067 303.95 264.27 304.359 263.207 304.359ZM263.073 298.675C262.635 298.675 262.268 298.835 261.971 299.156C261.674 299.472 261.49 299.917 261.42 300.491H264.596V300.409C264.565 299.859 264.416 299.433 264.151 299.132C263.885 298.827 263.526 298.675 263.073 298.675ZM275.395 304.241H269.805V303.462L272.758 300.181C273.196 299.685 273.496 299.282 273.66 298.974C273.828 298.661 273.912 298.339 273.912 298.007C273.912 297.562 273.778 297.197 273.508 296.911C273.239 296.626 272.879 296.484 272.43 296.484C271.891 296.484 271.471 296.638 271.17 296.947C270.873 297.251 270.725 297.677 270.725 298.224H269.641C269.641 297.439 269.893 296.804 270.397 296.32C270.905 295.835 271.582 295.593 272.43 295.593C273.223 295.593 273.85 295.802 274.311 296.22C274.772 296.634 275.002 297.187 275.002 297.878C275.002 298.718 274.467 299.718 273.397 300.878L271.112 303.357H275.395V304.241Z" fill="black"/>
<rect x="304.289" y="282.644" width="7.03145" height="7.01148" rx="1" fill="#00A560"/>
<path d="M318.34 286.439C317.375 286.161 316.672 285.822 316.231 285.419C315.793 285.013 315.575 284.513 315.575 283.919C315.575 283.247 315.842 282.693 316.377 282.255C316.917 281.814 317.616 281.593 318.475 281.593C319.061 281.593 319.583 281.706 320.04 281.933C320.5 282.159 320.856 282.472 321.106 282.87C321.36 283.269 321.487 283.704 321.487 284.177H320.356C320.356 283.661 320.192 283.257 319.864 282.964C319.536 282.667 319.073 282.519 318.475 282.519C317.92 282.519 317.487 282.642 317.174 282.888C316.866 283.13 316.711 283.468 316.711 283.902C316.711 284.249 316.858 284.544 317.151 284.786C317.448 285.025 317.95 285.243 318.657 285.443C319.368 285.642 319.922 285.863 320.321 286.105C320.723 286.343 321.02 286.622 321.211 286.943C321.407 287.263 321.504 287.64 321.504 288.073C321.504 288.765 321.235 289.32 320.696 289.738C320.157 290.152 319.436 290.359 318.534 290.359C317.948 290.359 317.401 290.247 316.893 290.025C316.385 289.798 315.993 289.49 315.715 289.099C315.442 288.708 315.305 288.265 315.305 287.769H316.436C316.436 288.284 316.625 288.693 317.004 288.993C317.387 289.29 317.897 289.439 318.534 289.439C319.127 289.439 319.583 289.318 319.899 289.075C320.215 288.833 320.374 288.503 320.374 288.085C320.374 287.667 320.227 287.345 319.934 287.118C319.641 286.888 319.11 286.661 318.34 286.439ZM324.252 282.366V283.902H325.436V284.74H324.252V288.671C324.252 288.925 324.305 289.116 324.411 289.245C324.516 289.37 324.696 289.433 324.95 289.433C325.075 289.433 325.247 289.409 325.465 289.363V290.241C325.18 290.32 324.903 290.359 324.633 290.359C324.149 290.359 323.784 290.212 323.538 289.919C323.292 289.626 323.168 289.21 323.168 288.671V284.74H322.014V283.902H323.168V282.366H324.252ZM326.303 287.013C326.303 286.392 326.424 285.833 326.667 285.337C326.913 284.841 327.252 284.458 327.686 284.189C328.124 283.919 328.622 283.784 329.18 283.784C330.043 283.784 330.741 284.083 331.272 284.681C331.807 285.279 332.075 286.073 332.075 287.066V287.142C332.075 287.759 331.956 288.314 331.717 288.806C331.483 289.294 331.145 289.675 330.704 289.948C330.266 290.222 329.762 290.359 329.192 290.359C328.333 290.359 327.635 290.06 327.1 289.462C326.569 288.865 326.303 288.073 326.303 287.089V287.013ZM327.393 287.142C327.393 287.845 327.555 288.409 327.879 288.835C328.208 289.261 328.645 289.474 329.192 289.474C329.743 289.474 330.18 289.259 330.504 288.829C330.829 288.396 330.991 287.79 330.991 287.013C330.991 286.318 330.825 285.755 330.493 285.325C330.165 284.892 329.727 284.675 329.18 284.675C328.645 284.675 328.213 284.888 327.885 285.314C327.557 285.74 327.393 286.349 327.393 287.142ZM336.499 284.874C336.334 284.847 336.157 284.833 335.965 284.833C335.254 284.833 334.772 285.136 334.518 285.741V290.241H333.434V283.902H334.489L334.506 284.634C334.862 284.068 335.366 283.784 336.018 283.784C336.229 283.784 336.389 283.812 336.499 283.866V284.874ZM340.014 290.359C339.155 290.359 338.456 290.077 337.917 289.515C337.377 288.948 337.108 288.193 337.108 287.247V287.048C337.108 286.419 337.227 285.859 337.465 285.366C337.708 284.87 338.043 284.484 338.473 284.206C338.907 283.925 339.375 283.784 339.879 283.784C340.704 283.784 341.344 284.056 341.801 284.599C342.258 285.142 342.487 285.919 342.487 286.931V287.382H338.192C338.208 288.007 338.389 288.513 338.737 288.9C339.088 289.282 339.534 289.474 340.073 289.474C340.456 289.474 340.78 289.396 341.045 289.24C341.311 289.083 341.543 288.876 341.743 288.618L342.405 289.134C341.874 289.95 341.077 290.359 340.014 290.359ZM339.879 284.675C339.442 284.675 339.075 284.835 338.778 285.156C338.481 285.472 338.297 285.917 338.227 286.491H341.403V286.409C341.372 285.859 341.223 285.433 340.958 285.132C340.692 284.827 340.333 284.675 339.879 284.675ZM316.682 297.902L316.717 298.698C317.202 298.089 317.834 297.784 318.616 297.784C319.956 297.784 320.631 298.54 320.643 300.052V304.241H319.559V300.046C319.555 299.589 319.45 299.251 319.243 299.032C319.04 298.814 318.721 298.704 318.288 298.704C317.936 298.704 317.627 298.798 317.362 298.986C317.096 299.173 316.889 299.419 316.741 299.724V304.241H315.657V297.902H316.682ZM326.192 304.241C326.129 304.116 326.079 303.894 326.04 303.573C325.536 304.097 324.934 304.359 324.235 304.359C323.61 304.359 323.096 304.183 322.694 303.831C322.295 303.476 322.096 303.027 322.096 302.484C322.096 301.823 322.346 301.312 322.846 300.948C323.35 300.581 324.057 300.398 324.967 300.398H326.022V299.9C326.022 299.521 325.909 299.22 325.682 298.997C325.456 298.771 325.122 298.657 324.68 298.657C324.293 298.657 323.969 298.755 323.708 298.95C323.446 299.146 323.315 299.382 323.315 299.659H322.225C322.225 299.343 322.336 299.038 322.559 298.745C322.786 298.448 323.09 298.214 323.473 298.042C323.86 297.87 324.284 297.784 324.745 297.784C325.475 297.784 326.047 297.968 326.461 298.335C326.875 298.698 327.09 299.2 327.106 299.841V302.759C327.106 303.341 327.18 303.804 327.329 304.148V304.241H326.192ZM324.393 303.415C324.733 303.415 325.055 303.327 325.36 303.152C325.665 302.976 325.885 302.747 326.022 302.466V301.165H325.172C323.844 301.165 323.18 301.554 323.18 302.331C323.18 302.671 323.293 302.937 323.52 303.128C323.747 303.32 324.038 303.415 324.393 303.415ZM329.825 297.902L329.854 298.605C330.319 298.058 330.946 297.784 331.735 297.784C332.622 297.784 333.225 298.124 333.545 298.804C333.756 298.499 334.03 298.253 334.366 298.066C334.706 297.878 335.106 297.784 335.567 297.784C336.958 297.784 337.665 298.521 337.688 299.993V304.241H336.604V300.058C336.604 299.605 336.5 299.267 336.293 299.044C336.086 298.818 335.739 298.704 335.25 298.704C334.848 298.704 334.514 298.825 334.249 299.068C333.983 299.306 333.829 299.628 333.786 300.034V304.241H332.696V300.087C332.696 299.165 332.245 298.704 331.342 298.704C330.631 298.704 330.145 299.007 329.883 299.613V304.241H328.799V297.902H329.825ZM341.959 304.359C341.1 304.359 340.401 304.077 339.862 303.515C339.323 302.948 339.053 302.193 339.053 301.247V301.048C339.053 300.419 339.172 299.859 339.411 299.366C339.653 298.87 339.989 298.484 340.418 298.206C340.852 297.925 341.321 297.784 341.825 297.784C342.649 297.784 343.29 298.056 343.747 298.599C344.204 299.142 344.432 299.919 344.432 300.931V301.382H340.137C340.153 302.007 340.334 302.513 340.682 302.9C341.034 303.282 341.479 303.474 342.018 303.474C342.401 303.474 342.725 303.396 342.991 303.24C343.256 303.083 343.489 302.876 343.688 302.618L344.35 303.134C343.819 303.95 343.022 304.359 341.959 304.359ZM341.825 298.675C341.387 298.675 341.02 298.835 340.723 299.156C340.426 299.472 340.243 299.917 340.172 300.491H343.348V300.409C343.317 299.859 343.168 299.433 342.903 299.132C342.637 298.827 342.278 298.675 341.825 298.675ZM350.133 299.448H350.948C351.459 299.441 351.862 299.306 352.155 299.044C352.448 298.782 352.594 298.429 352.594 297.984C352.594 296.984 352.096 296.484 351.1 296.484C350.631 296.484 350.256 296.618 349.975 296.888C349.698 297.154 349.559 297.507 349.559 297.948H348.475C348.475 297.273 348.721 296.712 349.213 296.267C349.709 295.818 350.338 295.593 351.1 295.593C351.905 295.593 352.536 295.806 352.993 296.232C353.45 296.657 353.678 297.249 353.678 298.007C353.678 298.378 353.557 298.738 353.315 299.085C353.077 299.433 352.75 299.693 352.336 299.865C352.805 300.013 353.167 300.259 353.42 300.603C353.678 300.947 353.807 301.366 353.807 301.863C353.807 302.628 353.557 303.236 353.057 303.685C352.557 304.134 351.907 304.359 351.106 304.359C350.305 304.359 349.653 304.142 349.149 303.708C348.649 303.275 348.399 302.702 348.399 301.991H349.489C349.489 302.441 349.635 302.8 349.928 303.07C350.221 303.339 350.614 303.474 351.106 303.474C351.629 303.474 352.03 303.337 352.307 303.064C352.584 302.79 352.723 302.398 352.723 301.886C352.723 301.39 352.571 301.009 352.266 300.743C351.961 300.478 351.522 300.341 350.948 300.333H350.133V299.448Z" fill="black"/>
<rect x="383.042" y="282.644" width="7.03143" height="7.01148" rx="1" fill="#DB0E00"/>
<path d="M397.093 286.439C396.128 286.161 395.425 285.822 394.983 285.419C394.546 285.013 394.327 284.513 394.327 283.919C394.327 283.247 394.594 282.693 395.13 282.255C395.669 281.814 396.368 281.593 397.227 281.593C397.813 281.593 398.335 281.706 398.792 281.933C399.253 282.159 399.608 282.472 399.858 282.87C400.112 283.269 400.239 283.704 400.239 284.177H399.108C399.108 283.661 398.944 283.257 398.616 282.964C398.288 282.667 397.825 282.519 397.227 282.519C396.673 282.519 396.239 282.642 395.927 282.888C395.618 283.13 395.464 283.468 395.464 283.902C395.464 284.249 395.61 284.544 395.903 284.786C396.2 285.025 396.702 285.243 397.409 285.443C398.12 285.642 398.675 285.863 399.073 286.105C399.475 286.343 399.772 286.622 399.964 286.943C400.159 287.263 400.257 287.64 400.257 288.073C400.257 288.765 399.987 289.32 399.448 289.738C398.909 290.152 398.188 290.359 397.286 290.359C396.7 290.359 396.153 290.247 395.645 290.025C395.137 289.798 394.745 289.49 394.468 289.099C394.194 288.708 394.057 288.265 394.057 287.769H395.188C395.188 288.284 395.378 288.693 395.757 288.993C396.139 289.29 396.649 289.439 397.286 289.439C397.88 289.439 398.335 289.318 398.651 289.075C398.968 288.833 399.126 288.503 399.126 288.085C399.126 287.667 398.979 287.345 398.686 287.118C398.393 286.888 397.862 286.661 397.093 286.439ZM403.005 282.366V283.902H404.188V284.74H403.005V288.671C403.005 288.925 403.057 289.116 403.163 289.245C403.268 289.37 403.448 289.433 403.702 289.433C403.827 289.433 403.999 289.409 404.218 289.363V290.241C403.932 290.32 403.655 290.359 403.385 290.359C402.901 290.359 402.536 290.212 402.29 289.919C402.044 289.626 401.921 289.21 401.921 288.671V284.74H400.766V283.902H401.921V282.366H403.005ZM405.055 287.013C405.055 286.392 405.177 285.833 405.419 285.337C405.665 284.841 406.005 284.458 406.438 284.189C406.876 283.919 407.374 283.784 407.932 283.784C408.796 283.784 409.493 284.083 410.024 284.681C410.559 285.279 410.827 286.073 410.827 287.066V287.142C410.827 287.759 410.708 288.314 410.469 288.806C410.235 289.294 409.897 289.675 409.456 289.948C409.018 290.222 408.514 290.359 407.944 290.359C407.085 290.359 406.387 290.06 405.852 289.462C405.321 288.865 405.055 288.073 405.055 287.089V287.013ZM406.145 287.142C406.145 287.845 406.307 288.409 406.632 288.835C406.96 289.261 407.397 289.474 407.944 289.474C408.495 289.474 408.932 289.259 409.257 288.829C409.581 288.396 409.743 287.79 409.743 287.013C409.743 286.318 409.577 285.755 409.245 285.325C408.917 284.892 408.479 284.675 407.932 284.675C407.397 284.675 406.966 284.888 406.637 285.314C406.309 285.74 406.145 286.349 406.145 287.142ZM415.251 284.874C415.087 284.847 414.909 284.833 414.718 284.833C414.007 284.833 413.524 285.136 413.27 285.741V290.241H412.186V283.902H413.241L413.259 284.634C413.614 284.068 414.118 283.784 414.77 283.784C414.981 283.784 415.141 283.812 415.251 283.866V284.874ZM418.766 290.359C417.907 290.359 417.208 290.077 416.669 289.515C416.13 288.948 415.86 288.193 415.86 287.247V287.048C415.86 286.419 415.979 285.859 416.218 285.366C416.46 284.87 416.796 284.484 417.225 284.206C417.659 283.925 418.128 283.784 418.632 283.784C419.456 283.784 420.096 284.056 420.553 284.599C421.01 285.142 421.239 285.919 421.239 286.931V287.382H416.944C416.96 288.007 417.141 288.513 417.489 288.9C417.841 289.282 418.286 289.474 418.825 289.474C419.208 289.474 419.532 289.396 419.798 289.24C420.063 289.083 420.296 288.876 420.495 288.618L421.157 289.134C420.626 289.95 419.829 290.359 418.766 290.359ZM418.632 284.675C418.194 284.675 417.827 284.835 417.53 285.156C417.233 285.472 417.05 285.917 416.979 286.491H420.155V286.409C420.124 285.859 419.975 285.433 419.71 285.132C419.444 284.827 419.085 284.675 418.632 284.675ZM395.434 297.902L395.469 298.698C395.954 298.089 396.587 297.784 397.368 297.784C398.708 297.784 399.384 298.54 399.395 300.052V304.241H398.311V300.046C398.307 299.589 398.202 299.251 397.995 299.032C397.792 298.814 397.473 298.704 397.04 298.704C396.688 298.704 396.38 298.798 396.114 298.986C395.848 299.173 395.641 299.419 395.493 299.724V304.241H394.409V297.902H395.434ZM404.944 304.241C404.882 304.116 404.831 303.894 404.792 303.573C404.288 304.097 403.686 304.359 402.987 304.359C402.362 304.359 401.848 304.183 401.446 303.831C401.048 303.476 400.848 303.027 400.848 302.484C400.848 301.823 401.098 301.312 401.598 300.948C402.102 300.581 402.809 300.398 403.719 300.398H404.774V299.9C404.774 299.521 404.661 299.22 404.434 298.997C404.208 298.771 403.874 298.657 403.432 298.657C403.046 298.657 402.721 298.755 402.46 298.95C402.198 299.146 402.067 299.382 402.067 299.659H400.977C400.977 299.343 401.089 299.038 401.311 298.745C401.538 298.448 401.843 298.214 402.225 298.042C402.612 297.87 403.036 297.784 403.497 297.784C404.227 297.784 404.8 297.968 405.214 298.335C405.628 298.698 405.843 299.2 405.858 299.841V302.759C405.858 303.341 405.932 303.804 406.081 304.148V304.241H404.944ZM403.145 303.415C403.485 303.415 403.807 303.327 404.112 303.152C404.417 302.976 404.637 302.747 404.774 302.466V301.165H403.925C402.596 301.165 401.932 301.554 401.932 302.331C401.932 302.671 402.046 302.937 402.272 303.128C402.499 303.32 402.79 303.415 403.145 303.415ZM408.577 297.902L408.606 298.605C409.071 298.058 409.698 297.784 410.487 297.784C411.374 297.784 411.977 298.124 412.298 298.804C412.509 298.499 412.782 298.253 413.118 298.066C413.458 297.878 413.858 297.784 414.319 297.784C415.71 297.784 416.417 298.521 416.44 299.993V304.241H415.356V300.058C415.356 299.605 415.253 299.267 415.046 299.044C414.839 298.818 414.491 298.704 414.003 298.704C413.6 298.704 413.266 298.825 413.001 299.068C412.735 299.306 412.581 299.628 412.538 300.034V304.241H411.448V300.087C411.448 299.165 410.997 298.704 410.094 298.704C409.384 298.704 408.897 299.007 408.635 299.613V304.241H407.552V297.902H408.577ZM420.712 304.359C419.852 304.359 419.153 304.077 418.614 303.515C418.075 302.948 417.805 302.193 417.805 301.247V301.048C417.805 300.419 417.925 299.859 418.163 299.366C418.405 298.87 418.741 298.484 419.171 298.206C419.604 297.925 420.073 297.784 420.577 297.784C421.401 297.784 422.042 298.056 422.499 298.599C422.956 299.142 423.184 299.919 423.184 300.931V301.382H418.889C418.905 302.007 419.087 302.513 419.434 302.9C419.786 303.282 420.231 303.474 420.77 303.474C421.153 303.474 421.477 303.396 421.743 303.24C422.009 303.083 422.241 302.876 422.44 302.618L423.102 303.134C422.571 303.95 421.774 304.359 420.712 304.359ZM420.577 298.675C420.139 298.675 419.772 298.835 419.475 299.156C419.178 299.472 418.995 299.917 418.925 300.491H422.1V300.409C422.069 299.859 421.921 299.433 421.655 299.132C421.389 298.827 421.03 298.675 420.577 298.675ZM431.885 301.376H433.069V302.261H431.885V304.241H430.796V302.261H426.911V301.622L430.731 295.71H431.885V301.376ZM428.141 301.376H430.796V297.193L430.667 297.427L428.141 301.376Z" fill="black"/>
</g>
<path opacity="0.6" d="M46.7832 43.0205H41.8262L40.7891 46H38.4775L43.3115 33.2031H45.3066L50.1494 46H47.8291L46.7832 43.0205ZM42.4502 41.2275H46.1592L44.3047 35.9189L42.4502 41.2275ZM55.4316 43.2139L58.6836 33.2031H61.127L56.5215 46H54.3682L49.7803 33.2031H52.2148L55.4316 43.2139ZM72.2627 44.3389C71.7998 44.9424 71.1582 45.3994 70.3379 45.71C69.5176 46.0205 68.5859 46.1758 67.543 46.1758C66.4707 46.1758 65.5215 45.9326 64.6953 45.4463C63.8691 44.96 63.2305 44.2656 62.7793 43.3633C62.334 42.4551 62.1025 41.3975 62.085 40.1904V39.1885C62.085 37.2549 62.5479 35.7461 63.4736 34.6621C64.3994 33.5723 65.6914 33.0273 67.3496 33.0273C68.7734 33.0273 69.9043 33.3789 70.7422 34.082C71.5801 34.7852 72.084 35.7988 72.2539 37.123H70.0742C69.8281 35.582 68.9346 34.8115 67.3936 34.8115C66.3975 34.8115 65.6387 35.1719 65.1172 35.8926C64.6016 36.6074 64.335 37.6592 64.3174 39.0479V40.0322C64.3174 41.415 64.6074 42.4902 65.1875 43.2578C65.7734 44.0195 66.585 44.4004 67.6221 44.4004C68.7588 44.4004 69.5674 44.1426 70.0479 43.627V41.1221H67.4111V39.4346H72.2627V44.3389ZM75.8311 43.75C76.2295 43.75 76.5371 43.8643 76.7539 44.0928C76.9707 44.3154 77.0791 44.5967 77.0791 44.9365C77.0791 45.2705 76.9707 45.5488 76.7539 45.7715C76.5371 45.9883 76.2295 46.0967 75.8311 46.0967C75.4502 46.0967 75.1484 45.9883 74.9258 45.7715C74.7031 45.5547 74.5918 45.2764 74.5918 44.9365C74.5918 44.5967 74.7002 44.3154 74.917 44.0928C75.1338 43.8643 75.4385 43.75 75.8311 43.75ZM88.7246 43.2139L91.9766 33.2031H94.4199L89.8145 46H87.6611L83.0732 33.2031H85.5078L88.7246 43.2139ZM98.2168 46H96.002V33.2031H98.2168V46ZM107.639 42.7041C107.639 42.1416 107.439 41.708 107.041 41.4033C106.648 41.0986 105.937 40.791 104.905 40.4805C103.874 40.1699 103.054 39.8242 102.444 39.4434C101.278 38.7109 100.695 37.7559 100.695 36.5781C100.695 35.5469 101.114 34.6973 101.952 34.0293C102.796 33.3613 103.889 33.0273 105.23 33.0273C106.121 33.0273 106.915 33.1914 107.612 33.5195C108.31 33.8477 108.857 34.3164 109.256 34.9258C109.654 35.5293 109.854 36.2002 109.854 36.9385H107.639C107.639 36.2705 107.428 35.749 107.006 35.374C106.59 34.9932 105.992 34.8027 105.213 34.8027C104.486 34.8027 103.921 34.958 103.517 35.2686C103.118 35.5791 102.919 36.0127 102.919 36.5693C102.919 37.0381 103.136 37.4307 103.569 37.7471C104.003 38.0576 104.718 38.3623 105.714 38.6611C106.71 38.9541 107.51 39.291 108.113 39.6719C108.717 40.0469 109.159 40.4805 109.44 40.9727C109.722 41.459 109.862 42.0303 109.862 42.6865C109.862 43.7529 109.452 44.6025 108.632 45.2354C107.817 45.8623 106.71 46.1758 105.31 46.1758C104.384 46.1758 103.531 46.0059 102.752 45.666C101.979 45.3203 101.375 44.8457 100.941 44.2422C100.514 43.6387 100.3 42.9355 100.3 42.1328H102.523C102.523 42.8594 102.764 43.4219 103.244 43.8203C103.725 44.2188 104.413 44.418 105.31 44.418C106.083 44.418 106.663 44.2627 107.05 43.9521C107.442 43.6357 107.639 43.2197 107.639 42.7041ZM114.16 46H111.945V33.2031H114.16V46ZM125.876 34.9961H121.886V46H119.68V34.9961H115.725V33.2031H125.876V34.9961ZM131.519 46V33.2031H135.298C136.429 33.2031 137.431 33.4551 138.304 33.959C139.183 34.4629 139.862 35.1777 140.343 36.1035C140.823 37.0293 141.063 38.0898 141.063 39.2852V39.9268C141.063 41.1396 140.82 42.2061 140.334 43.126C139.854 44.0459 139.165 44.7549 138.269 45.2529C137.378 45.751 136.355 46 135.201 46H131.519ZM133.742 34.9961V44.2246H135.192C136.358 44.2246 137.252 43.8613 137.873 43.1348C138.5 42.4023 138.819 41.3535 138.831 39.9883V39.2764C138.831 37.8877 138.529 36.8271 137.926 36.0947C137.322 35.3623 136.446 34.9961 135.298 34.9961H133.742ZM152.639 33.2031V41.7549C152.639 43.1143 152.202 44.1924 151.329 44.9893C150.462 45.7803 149.305 46.1758 147.857 46.1758C146.393 46.1758 145.229 45.7861 144.368 45.0068C143.507 44.2217 143.076 43.1348 143.076 41.7461V33.2031H145.291V41.7637C145.291 42.6191 145.508 43.2725 145.941 43.7236C146.375 44.1748 147.014 44.4004 147.857 44.4004C149.568 44.4004 150.424 43.498 150.424 41.6934V33.2031H152.639ZM159.723 41.0693H157.244V46H155.021V33.2031H159.521C160.997 33.2031 162.137 33.5342 162.939 34.1963C163.742 34.8584 164.144 35.8164 164.144 37.0703C164.144 37.9258 163.936 38.6436 163.52 39.2236C163.109 39.7979 162.535 40.2402 161.797 40.5508L164.671 45.8857V46H162.289L159.723 41.0693ZM157.244 39.2852H159.529C160.279 39.2852 160.865 39.0977 161.287 38.7227C161.709 38.3418 161.92 37.8232 161.92 37.167C161.92 36.4814 161.724 35.9512 161.331 35.5762C160.944 35.2012 160.364 35.0078 159.591 34.9961H157.244V39.2852ZM173.416 43.0205H168.459L167.422 46H165.11L169.944 33.2031H171.939L176.782 46H174.462L173.416 43.0205ZM169.083 41.2275H172.792L170.938 35.9189L169.083 41.2275ZM186.433 34.9961H182.442V46H180.236V34.9961H176.281V33.2031H186.433V34.9961ZM190.467 46H188.252V33.2031H190.467V46ZM203.413 39.9355C203.413 41.1895 203.196 42.291 202.763 43.2402C202.329 44.1836 201.708 44.9102 200.899 45.4199C200.097 45.9238 199.171 46.1758 198.122 46.1758C197.085 46.1758 196.159 45.9238 195.345 45.4199C194.536 44.9102 193.909 44.1865 193.464 43.249C193.024 42.3115 192.802 41.2305 192.796 40.0059V39.2852C192.796 38.0371 193.016 36.9355 193.455 35.9805C193.9 35.0254 194.524 34.2959 195.327 33.792C196.136 33.2822 197.062 33.0273 198.104 33.0273C199.147 33.0273 200.07 33.2793 200.873 33.7832C201.682 34.2812 202.306 35.002 202.745 35.9453C203.185 36.8828 203.407 37.9756 203.413 39.2236V39.9355ZM201.189 39.2676C201.189 37.8496 200.92 36.7627 200.381 36.0068C199.848 35.251 199.089 34.873 198.104 34.873C197.144 34.873 196.391 35.251 195.846 36.0068C195.307 36.7568 195.031 37.8203 195.02 39.1973V39.9355C195.02 41.3418 195.292 42.4287 195.837 43.1963C196.388 43.9639 197.149 44.3477 198.122 44.3477C199.106 44.3477 199.862 43.9727 200.39 43.2227C200.923 42.4727 201.189 41.377 201.189 39.9355V39.2676ZM215.779 46H213.556L207.852 36.9209V46H205.628V33.2031H207.852L213.573 42.3174V33.2031H215.779V46Z" fill="black"/>
</g>
<defs>
<filter id="filter0_d_33_608" x="0" y="0" width="591" height="337" filterUnits="userSpaceOnUse" color-interpolation-filters="sRGB">
<feFlood flood-opacity="0" result="BackgroundImageFix"/>
<feColorMatrix in="SourceAlpha" type="matrix" values="0 0 0 0 0 0 0 0 0 0 0 0 0 0 0 0 0 0 127 0" result="hardAlpha"/>
<feOffset dy="4"/>
<feGaussianBlur stdDeviation="8"/>
<feComposite in2="hardAlpha" operator="out"/>
<feColorMatrix type="matrix" values="0 0 0 0 0 0 0 0 0 0 0 0 0 0 0 0 0 0 0.06 0"/>
<feBlend mode="normal" in2="BackgroundImageFix" result="effect1_dropShadow_33_608"/>
<feBlend mode="normal" in="SourceGraphic" in2="effect1_dropShadow_33_608" result="shape"/>
</filter>
<linearGradient id="paint0_linear_33_608" x1="170.617" y1="122.782" x2="170.617" y2="196.667" gradientUnits="userSpaceOnUse">
<stop stop-color="#344CE9" stop-opacity="0.1"/>
<stop offset="1" stop-color="#344CE9" stop-opacity="0.01"/>
</linearGradient>
<linearGradient id="paint1_linear_33_608" x1="170.617" y1="107.862" x2="170.617" y2="191.826" gradientUnits="userSpaceOnUse">
<stop stop-color="#00A560" stop-opacity="0.09"/>
<stop offset="1" stop-color="#344CE9" stop-opacity="0.01"/>
</linearGradient>
<linearGradient id="paint2_linear_33_608" x1="89.2871" y1="74.0413" x2="89.2871" y2="147.662" gradientUnits="userSpaceOnUse">
<stop stop-color="#FF6D02" stop-opacity="0.09"/>
<stop offset="1" stop-color="#FF6D02" stop-opacity="0.01"/>
</linearGradient>
<linearGradient id="paint3_linear_33_608" x1="89.2871" y1="74.0413" x2="89.2871" y2="147.662" gradientUnits="userSpaceOnUse">
<stop stop-color="#F8B849"/>
<stop offset="1" stop-color="#FF6D02"/>
</linearGradient>
<linearGradient id="paint4_linear_33_608" x1="89.2871" y1="140.651" x2="89.2871" y2="214.271" gradientUnits="userSpaceOnUse">
<stop stop-color="#DB0E00" stop-opacity="0.09"/>
<stop offset="1" stop-color="#FF6D02" stop-opacity="0.01"/>
</linearGradient>
<linearGradient id="paint5_linear_33_608" x1="89.2871" y1="140.651" x2="89.2871" y2="214.271" gradientUnits="userSpaceOnUse">
<stop stop-color="#DB0E00"/>
<stop offset="1" stop-color="#FF6D02"/>
</linearGradient>
<clipPath id="clip0_33_608">
<rect width="464" height="10" fill="white" transform="translate(90 247)"/>
</clipPath>
<clipPath id="clip1_33_608">
<rect width="34.4936" height="174.286" fill="white" transform="translate(35.2759 67.731)"/>
</clipPath>
<clipPath id="clip2_33_608">
<rect width="297.43" height="9.81607" fill="white" transform="translate(146.785 281.241)"/>
</clipPath>
</defs>
</svg>
