<svg width="304" height="385" viewBox="0 0 304 385" fill="none" xmlns="http://www.w3.org/2000/svg">
<g clip-path="url(#clip0_33_656)" filter="url(#filter0_d_33_656)">
<g filter="url(#filter1_d_33_656)">
<rect x="16" y="12" width="272" height="353" rx="3" fill="white"/>
</g>
<rect x="19.5142" y="237.756" width="264.972" height="118.608" stroke="#EAEAEA"/>
<mask id="mask0_33_656" style="mask-type:alpha" maskUnits="userSpaceOnUse" x="19" y="237" width="266" height="120">
<rect x="19.5142" y="237.756" width="264.972" height="118.608" fill="white" stroke="white"/>
</mask>
<g mask="url(#mask0_33_656)">
<g clip-path="url(#clip1_33_656)">
<rect x="19.5142" y="265.996" width="91.3695" height="28.24" fill="white"/>
<rect x="19.5142" y="265.996" width="91.3695" height="28.24" stroke="#EAEAEA"/>
<path d="M50.0181 282.193C49.0532 281.916 48.3501 281.576 47.9087 281.174C47.4712 280.767 47.2524 280.267 47.2524 279.674C47.2524 279.002 47.52 278.447 48.0552 278.01C48.5942 277.568 49.2935 277.347 50.1528 277.347C50.7388 277.347 51.2603 277.461 51.7173 277.687C52.1782 277.914 52.5337 278.226 52.7837 278.625C53.0376 279.023 53.1646 279.459 53.1646 279.931H52.0337C52.0337 279.416 51.8696 279.011 51.5415 278.719C51.2134 278.422 50.7505 278.273 50.1528 278.273C49.5981 278.273 49.1646 278.396 48.8521 278.642C48.5435 278.885 48.3892 279.222 48.3892 279.656C48.3892 280.004 48.5356 280.299 48.8286 280.541C49.1255 280.779 49.6274 280.998 50.3345 281.197C51.0454 281.396 51.6001 281.617 51.9985 281.859C52.4009 282.097 52.6978 282.377 52.8892 282.697C53.0845 283.017 53.1821 283.394 53.1821 283.828C53.1821 284.519 52.9126 285.074 52.3735 285.492C51.8345 285.906 51.1138 286.113 50.2114 286.113C49.6255 286.113 49.0786 286.002 48.5708 285.779C48.063 285.552 47.6704 285.244 47.3931 284.853C47.1196 284.463 46.9829 284.019 46.9829 283.523H48.1138C48.1138 284.039 48.3032 284.447 48.6821 284.748C49.0649 285.045 49.5747 285.193 50.2114 285.193C50.8052 285.193 51.2603 285.072 51.5767 284.83C51.8931 284.588 52.0513 284.258 52.0513 283.84C52.0513 283.422 51.9048 283.099 51.6118 282.873C51.3188 282.642 50.7876 282.416 50.0181 282.193ZM55.9302 278.121V279.656H57.1138V280.494H55.9302V284.426C55.9302 284.679 55.9829 284.871 56.0884 285C56.1938 285.125 56.3735 285.187 56.6274 285.187C56.7524 285.187 56.9243 285.164 57.1431 285.117V285.996C56.8579 286.074 56.5806 286.113 56.311 286.113C55.8267 286.113 55.4614 285.967 55.2153 285.674C54.9692 285.381 54.8462 284.965 54.8462 284.426V280.494H53.6919V279.656H54.8462V278.121H55.9302ZM57.981 282.767C57.981 282.146 58.1021 281.588 58.3442 281.092C58.5903 280.595 58.9302 280.213 59.3638 279.943C59.8013 279.674 60.2993 279.539 60.8579 279.539C61.7212 279.539 62.4185 279.838 62.9497 280.435C63.4849 281.033 63.7524 281.828 63.7524 282.82V282.896C63.7524 283.513 63.6333 284.068 63.395 284.56C63.1606 285.049 62.8228 285.429 62.3813 285.703C61.9438 285.976 61.4399 286.113 60.8696 286.113C60.0103 286.113 59.313 285.814 58.7778 285.217C58.2466 284.619 57.981 283.828 57.981 282.844V282.767ZM59.0708 282.896C59.0708 283.599 59.2329 284.164 59.5571 284.59C59.8853 285.015 60.3228 285.228 60.8696 285.228C61.4204 285.228 61.8579 285.013 62.1821 284.584C62.5063 284.15 62.6685 283.545 62.6685 282.767C62.6685 282.072 62.5024 281.51 62.1704 281.08C61.8423 280.646 61.4048 280.429 60.8579 280.429C60.3228 280.429 59.8911 280.642 59.563 281.068C59.2349 281.494 59.0708 282.103 59.0708 282.896ZM68.1763 280.629C68.0122 280.601 67.8345 280.588 67.6431 280.588C66.9321 280.588 66.4497 280.89 66.1958 281.496V285.996H65.1118V279.656H66.1665L66.1841 280.388C66.5396 279.822 67.0435 279.539 67.6958 279.539C67.9067 279.539 68.0669 279.566 68.1763 279.621V280.629ZM71.6919 286.113C70.8325 286.113 70.1333 285.832 69.5942 285.269C69.0552 284.703 68.7856 283.947 68.7856 283.002V282.802C68.7856 282.174 68.9048 281.613 69.1431 281.121C69.3853 280.625 69.7212 280.238 70.1509 279.961C70.5845 279.679 71.0532 279.539 71.5571 279.539C72.3813 279.539 73.022 279.81 73.479 280.353C73.936 280.896 74.1646 281.674 74.1646 282.685V283.136H69.8696C69.8853 283.761 70.0669 284.267 70.4146 284.654C70.7661 285.037 71.2114 285.228 71.7505 285.228C72.1333 285.228 72.4575 285.15 72.7231 284.994C72.9888 284.838 73.2212 284.631 73.4204 284.373L74.0825 284.888C73.5513 285.705 72.7544 286.113 71.6919 286.113ZM71.5571 280.429C71.1196 280.429 70.7524 280.59 70.4556 280.91C70.1587 281.226 69.9751 281.672 69.9048 282.246H73.0806V282.164C73.0493 281.613 72.9009 281.187 72.6353 280.886C72.3696 280.582 72.0103 280.429 71.5571 280.429ZM81.8521 285.996H80.7622V278.771L78.5767 279.574V278.59L81.6821 277.424H81.8521V285.996Z" fill="black"/>
<rect x="25.6462" y="275.703" width="6.13218" height="8.82501" rx="1" fill="#0C213A"/>
</g>
<g clip-path="url(#clip2_33_656)">
<rect x="19.5142" y="288.588" width="91.3695" height="28.24" fill="white"/>
<rect x="26.2822" y="298.295" width="6.76811" height="8.825" rx="1" fill="#00A560"/>
<rect x="19.5142" y="288.588" width="91.3695" height="28.24" stroke="#EAEAEA"/>
<path d="M50.0181 304.785C49.0532 304.508 48.3501 304.168 47.9087 303.766C47.4712 303.359 47.2524 302.859 47.2524 302.266C47.2524 301.594 47.52 301.039 48.0552 300.602C48.5942 300.16 49.2935 299.939 50.1528 299.939C50.7388 299.939 51.2603 300.053 51.7173 300.279C52.1782 300.506 52.5337 300.818 52.7837 301.217C53.0376 301.615 53.1646 302.051 53.1646 302.523H52.0337C52.0337 302.008 51.8696 301.604 51.5415 301.311C51.2134 301.014 50.7505 300.865 50.1528 300.865C49.5981 300.865 49.1646 300.988 48.8521 301.234C48.5435 301.477 48.3892 301.814 48.3892 302.248C48.3892 302.596 48.5356 302.891 48.8286 303.133C49.1255 303.371 49.6274 303.59 50.3345 303.789C51.0454 303.988 51.6001 304.209 51.9985 304.451C52.4009 304.689 52.6978 304.969 52.8892 305.289C53.0845 305.609 53.1821 305.986 53.1821 306.42C53.1821 307.111 52.9126 307.666 52.3735 308.084C51.8345 308.498 51.1138 308.705 50.2114 308.705C49.6255 308.705 49.0786 308.594 48.5708 308.371C48.063 308.145 47.6704 307.836 47.3931 307.445C47.1196 307.055 46.9829 306.611 46.9829 306.115H48.1138C48.1138 306.631 48.3032 307.039 48.6821 307.34C49.0649 307.637 49.5747 307.785 50.2114 307.785C50.8052 307.785 51.2603 307.664 51.5767 307.422C51.8931 307.18 52.0513 306.85 52.0513 306.432C52.0513 306.014 51.9048 305.691 51.6118 305.465C51.3188 305.234 50.7876 305.008 50.0181 304.785ZM55.9302 300.713V302.248H57.1138V303.086H55.9302V307.018C55.9302 307.271 55.9829 307.463 56.0884 307.592C56.1938 307.717 56.3735 307.779 56.6274 307.779C56.7524 307.779 56.9243 307.756 57.1431 307.709V308.588C56.8579 308.666 56.5806 308.705 56.311 308.705C55.8267 308.705 55.4614 308.559 55.2153 308.266C54.9692 307.973 54.8462 307.557 54.8462 307.018V303.086H53.6919V302.248H54.8462V300.713H55.9302ZM57.981 305.359C57.981 304.738 58.1021 304.18 58.3442 303.684C58.5903 303.188 58.9302 302.805 59.3638 302.535C59.8013 302.266 60.2993 302.131 60.8579 302.131C61.7212 302.131 62.4185 302.43 62.9497 303.027C63.4849 303.625 63.7524 304.42 63.7524 305.412V305.488C63.7524 306.105 63.6333 306.66 63.395 307.152C63.1606 307.641 62.8228 308.021 62.3813 308.295C61.9438 308.568 61.4399 308.705 60.8696 308.705C60.0103 308.705 59.313 308.406 58.7778 307.809C58.2466 307.211 57.981 306.42 57.981 305.436V305.359ZM59.0708 305.488C59.0708 306.191 59.2329 306.756 59.5571 307.182C59.8853 307.607 60.3228 307.82 60.8696 307.82C61.4204 307.82 61.8579 307.605 62.1821 307.176C62.5063 306.742 62.6685 306.137 62.6685 305.359C62.6685 304.664 62.5024 304.102 62.1704 303.672C61.8423 303.238 61.4048 303.021 60.8579 303.021C60.3228 303.021 59.8911 303.234 59.563 303.66C59.2349 304.086 59.0708 304.695 59.0708 305.488ZM68.1763 303.221C68.0122 303.193 67.8345 303.18 67.6431 303.18C66.9321 303.18 66.4497 303.482 66.1958 304.088V308.588H65.1118V302.248H66.1665L66.1841 302.98C66.5396 302.414 67.0435 302.131 67.6958 302.131C67.9067 302.131 68.0669 302.158 68.1763 302.213V303.221ZM71.6919 308.705C70.8325 308.705 70.1333 308.424 69.5942 307.861C69.0552 307.295 68.7856 306.539 68.7856 305.594V305.395C68.7856 304.766 68.9048 304.205 69.1431 303.713C69.3853 303.217 69.7212 302.83 70.1509 302.553C70.5845 302.271 71.0532 302.131 71.5571 302.131C72.3813 302.131 73.022 302.402 73.479 302.945C73.936 303.488 74.1646 304.266 74.1646 305.277V305.729H69.8696C69.8853 306.354 70.0669 306.859 70.4146 307.246C70.7661 307.629 71.2114 307.82 71.7505 307.82C72.1333 307.82 72.4575 307.742 72.7231 307.586C72.9888 307.43 73.2212 307.223 73.4204 306.965L74.0825 307.48C73.5513 308.297 72.7544 308.705 71.6919 308.705ZM71.5571 303.021C71.1196 303.021 70.7524 303.182 70.4556 303.502C70.1587 303.818 69.9751 304.264 69.9048 304.838H73.0806V304.756C73.0493 304.205 72.9009 303.779 72.6353 303.479C72.3696 303.174 72.0103 303.021 71.5571 303.021ZM83.8794 308.588H78.2896V307.809L81.2427 304.527C81.6802 304.031 81.981 303.629 82.145 303.32C82.313 303.008 82.397 302.686 82.397 302.354C82.397 301.908 82.2622 301.543 81.9927 301.258C81.7231 300.973 81.3638 300.83 80.9146 300.83C80.3755 300.83 79.9556 300.984 79.6548 301.293C79.3579 301.598 79.2095 302.023 79.2095 302.57H78.1255C78.1255 301.785 78.3774 301.15 78.8813 300.666C79.3892 300.182 80.0669 299.939 80.9146 299.939C81.7075 299.939 82.3345 300.148 82.7954 300.566C83.2563 300.98 83.4868 301.533 83.4868 302.225C83.4868 303.064 82.9517 304.064 81.8813 305.225L79.5962 307.703H83.8794V308.588Z" fill="black"/>
</g>
<g clip-path="url(#clip3_33_656)">
<rect x="19.5142" y="311.18" width="91.3695" height="28.24" fill="white"/>
<rect x="19.5142" y="311.18" width="91.3695" height="28.24" stroke="#EAEAEA"/>
<path d="M50.0181 327.377C49.0532 327.1 48.3501 326.76 47.9087 326.358C47.4712 325.951 47.2524 325.451 47.2524 324.858C47.2524 324.186 47.52 323.631 48.0552 323.194C48.5942 322.752 49.2935 322.531 50.1528 322.531C50.7388 322.531 51.2603 322.645 51.7173 322.871C52.1782 323.098 52.5337 323.41 52.7837 323.809C53.0376 324.207 53.1646 324.643 53.1646 325.115H52.0337C52.0337 324.6 51.8696 324.196 51.5415 323.903C51.2134 323.606 50.7505 323.457 50.1528 323.457C49.5981 323.457 49.1646 323.58 48.8521 323.826C48.5435 324.069 48.3892 324.406 48.3892 324.84C48.3892 325.188 48.5356 325.483 48.8286 325.725C49.1255 325.963 49.6274 326.182 50.3345 326.381C51.0454 326.58 51.6001 326.801 51.9985 327.043C52.4009 327.281 52.6978 327.561 52.8892 327.881C53.0845 328.201 53.1821 328.578 53.1821 329.012C53.1821 329.703 52.9126 330.258 52.3735 330.676C51.8345 331.09 51.1138 331.297 50.2114 331.297C49.6255 331.297 49.0786 331.186 48.5708 330.963C48.063 330.737 47.6704 330.428 47.3931 330.037C47.1196 329.647 46.9829 329.203 46.9829 328.707H48.1138C48.1138 329.223 48.3032 329.631 48.6821 329.932C49.0649 330.229 49.5747 330.377 50.2114 330.377C50.8052 330.377 51.2603 330.256 51.5767 330.014C51.8931 329.772 52.0513 329.442 52.0513 329.024C52.0513 328.606 51.9048 328.283 51.6118 328.057C51.3188 327.826 50.7876 327.6 50.0181 327.377ZM55.9302 323.305V324.84H57.1138V325.678H55.9302V329.61C55.9302 329.864 55.9829 330.055 56.0884 330.184C56.1938 330.309 56.3735 330.371 56.6274 330.371C56.7524 330.371 56.9243 330.348 57.1431 330.301V331.18C56.8579 331.258 56.5806 331.297 56.311 331.297C55.8267 331.297 55.4614 331.151 55.2153 330.858C54.9692 330.565 54.8462 330.149 54.8462 329.61V325.678H53.6919V324.84H54.8462V323.305H55.9302ZM57.981 327.951C57.981 327.33 58.1021 326.772 58.3442 326.276C58.5903 325.78 58.9302 325.397 59.3638 325.127C59.8013 324.858 60.2993 324.723 60.8579 324.723C61.7212 324.723 62.4185 325.022 62.9497 325.619C63.4849 326.217 63.7524 327.012 63.7524 328.004V328.08C63.7524 328.698 63.6333 329.252 63.395 329.744C63.1606 330.233 62.8228 330.614 62.3813 330.887C61.9438 331.16 61.4399 331.297 60.8696 331.297C60.0103 331.297 59.313 330.998 58.7778 330.401C58.2466 329.803 57.981 329.012 57.981 328.028V327.951ZM59.0708 328.08C59.0708 328.783 59.2329 329.348 59.5571 329.774C59.8853 330.199 60.3228 330.412 60.8696 330.412C61.4204 330.412 61.8579 330.198 62.1821 329.768C62.5063 329.334 62.6685 328.729 62.6685 327.951C62.6685 327.256 62.5024 326.694 62.1704 326.264C61.8423 325.83 61.4048 325.614 60.8579 325.614C60.3228 325.614 59.8911 325.826 59.563 326.252C59.2349 326.678 59.0708 327.287 59.0708 328.08ZM68.1763 325.813C68.0122 325.785 67.8345 325.772 67.6431 325.772C66.9321 325.772 66.4497 326.074 66.1958 326.68V331.18H65.1118V324.84H66.1665L66.1841 325.573C66.5396 325.006 67.0435 324.723 67.6958 324.723C67.9067 324.723 68.0669 324.75 68.1763 324.805V325.813ZM71.6919 331.297C70.8325 331.297 70.1333 331.016 69.5942 330.453C69.0552 329.887 68.7856 329.131 68.7856 328.186V327.987C68.7856 327.358 68.9048 326.797 69.1431 326.305C69.3853 325.809 69.7212 325.422 70.1509 325.145C70.5845 324.864 71.0532 324.723 71.5571 324.723C72.3813 324.723 73.022 324.994 73.479 325.537C73.936 326.08 74.1646 326.858 74.1646 327.869V328.321H69.8696C69.8853 328.946 70.0669 329.451 70.4146 329.838C70.7661 330.221 71.2114 330.412 71.7505 330.412C72.1333 330.412 72.4575 330.334 72.7231 330.178C72.9888 330.022 73.2212 329.815 73.4204 329.557L74.0825 330.073C73.5513 330.889 72.7544 331.297 71.6919 331.297ZM71.5571 325.614C71.1196 325.614 70.7524 325.774 70.4556 326.094C70.1587 326.41 69.9751 326.856 69.9048 327.43H73.0806V327.348C73.0493 326.797 72.9009 326.371 72.6353 326.071C72.3696 325.766 72.0103 325.614 71.5571 325.614ZM79.8657 326.387H80.6802C81.1919 326.379 81.5942 326.244 81.8872 325.983C82.1802 325.721 82.3267 325.367 82.3267 324.922C82.3267 323.922 81.8286 323.422 80.8325 323.422C80.3638 323.422 79.9888 323.557 79.7075 323.826C79.4302 324.092 79.2915 324.446 79.2915 324.887H78.2075C78.2075 324.211 78.4536 323.651 78.9458 323.205C79.4419 322.756 80.0708 322.531 80.8325 322.531C81.6372 322.531 82.2681 322.744 82.7251 323.17C83.1821 323.596 83.4106 324.188 83.4106 324.946C83.4106 325.317 83.2896 325.676 83.0474 326.024C82.8091 326.371 82.4829 326.631 82.0688 326.803C82.5376 326.951 82.8989 327.198 83.1528 327.541C83.4106 327.885 83.5396 328.305 83.5396 328.801C83.5396 329.567 83.2896 330.174 82.7896 330.623C82.2896 331.073 81.6392 331.297 80.8384 331.297C80.0376 331.297 79.3853 331.08 78.8813 330.647C78.3813 330.213 78.1313 329.641 78.1313 328.93H79.2212C79.2212 329.379 79.3677 329.739 79.6606 330.008C79.9536 330.278 80.3462 330.412 80.8384 330.412C81.3618 330.412 81.7622 330.276 82.0396 330.002C82.3169 329.729 82.4556 329.336 82.4556 328.824C82.4556 328.328 82.3032 327.948 81.9985 327.682C81.6938 327.416 81.2544 327.28 80.6802 327.272H79.8657V326.387Z" fill="black"/>
<rect x="26.2822" y="320.887" width="6.76811" height="8.825" rx="1" fill="#F8B849"/>
</g>
<g clip-path="url(#clip4_33_656)">
<rect x="19.5142" y="333.772" width="91.3695" height="28.24" fill="white"/>
<rect x="19.5142" y="333.772" width="91.3695" height="28.24" stroke="#EAEAEA"/>
<path d="M50.0181 349.969C49.0532 349.692 48.3501 349.352 47.9087 348.949C47.4712 348.543 47.2524 348.043 47.2524 347.449C47.2524 346.778 47.52 346.223 48.0552 345.785C48.5942 345.344 49.2935 345.123 50.1528 345.123C50.7388 345.123 51.2603 345.237 51.7173 345.463C52.1782 345.69 52.5337 346.002 52.7837 346.401C53.0376 346.799 53.1646 347.235 53.1646 347.707H52.0337C52.0337 347.192 51.8696 346.787 51.5415 346.494C51.2134 346.198 50.7505 346.049 50.1528 346.049C49.5981 346.049 49.1646 346.172 48.8521 346.418C48.5435 346.66 48.3892 346.998 48.3892 347.432C48.3892 347.78 48.5356 348.074 48.8286 348.317C49.1255 348.555 49.6274 348.774 50.3345 348.973C51.0454 349.172 51.6001 349.393 51.9985 349.635C52.4009 349.873 52.6978 350.153 52.8892 350.473C53.0845 350.793 53.1821 351.17 53.1821 351.604C53.1821 352.295 52.9126 352.85 52.3735 353.268C51.8345 353.682 51.1138 353.889 50.2114 353.889C49.6255 353.889 49.0786 353.778 48.5708 353.555C48.063 353.328 47.6704 353.02 47.3931 352.629C47.1196 352.239 46.9829 351.795 46.9829 351.299H48.1138C48.1138 351.815 48.3032 352.223 48.6821 352.524C49.0649 352.821 49.5747 352.969 50.2114 352.969C50.8052 352.969 51.2603 352.848 51.5767 352.606C51.8931 352.364 52.0513 352.033 52.0513 351.615C52.0513 351.198 51.9048 350.875 51.6118 350.649C51.3188 350.418 50.7876 350.192 50.0181 349.969ZM55.9302 345.897V347.432H57.1138V348.27H55.9302V352.201C55.9302 352.455 55.9829 352.647 56.0884 352.776C56.1938 352.901 56.3735 352.963 56.6274 352.963C56.7524 352.963 56.9243 352.94 57.1431 352.893V353.772C56.8579 353.85 56.5806 353.889 56.311 353.889C55.8267 353.889 55.4614 353.742 55.2153 353.449C54.9692 353.156 54.8462 352.74 54.8462 352.201V348.27H53.6919V347.432H54.8462V345.897H55.9302ZM57.981 350.543C57.981 349.922 58.1021 349.364 58.3442 348.867C58.5903 348.371 58.9302 347.989 59.3638 347.719C59.8013 347.449 60.2993 347.315 60.8579 347.315C61.7212 347.315 62.4185 347.614 62.9497 348.211C63.4849 348.809 63.7524 349.604 63.7524 350.596V350.672C63.7524 351.289 63.6333 351.844 63.395 352.336C63.1606 352.824 62.8228 353.205 62.3813 353.479C61.9438 353.752 61.4399 353.889 60.8696 353.889C60.0103 353.889 59.313 353.59 58.7778 352.992C58.2466 352.395 57.981 351.604 57.981 350.619V350.543ZM59.0708 350.672C59.0708 351.375 59.2329 351.94 59.5571 352.365C59.8853 352.791 60.3228 353.004 60.8696 353.004C61.4204 353.004 61.8579 352.789 62.1821 352.36C62.5063 351.926 62.6685 351.321 62.6685 350.543C62.6685 349.848 62.5024 349.285 62.1704 348.856C61.8423 348.422 61.4048 348.205 60.8579 348.205C60.3228 348.205 59.8911 348.418 59.563 348.844C59.2349 349.27 59.0708 349.879 59.0708 350.672ZM68.1763 348.405C68.0122 348.377 67.8345 348.364 67.6431 348.364C66.9321 348.364 66.4497 348.666 66.1958 349.272V353.772H65.1118V347.432H66.1665L66.1841 348.164C66.5396 347.598 67.0435 347.315 67.6958 347.315C67.9067 347.315 68.0669 347.342 68.1763 347.397V348.405ZM71.6919 353.889C70.8325 353.889 70.1333 353.608 69.5942 353.045C69.0552 352.479 68.7856 351.723 68.7856 350.778V350.578C68.7856 349.949 68.9048 349.389 69.1431 348.897C69.3853 348.401 69.7212 348.014 70.1509 347.737C70.5845 347.455 71.0532 347.315 71.5571 347.315C72.3813 347.315 73.022 347.586 73.479 348.129C73.936 348.672 74.1646 349.449 74.1646 350.461V350.912H69.8696C69.8853 351.537 70.0669 352.043 70.4146 352.43C70.7661 352.813 71.2114 353.004 71.7505 353.004C72.1333 353.004 72.4575 352.926 72.7231 352.77C72.9888 352.614 73.2212 352.406 73.4204 352.149L74.0825 352.664C73.5513 353.481 72.7544 353.889 71.6919 353.889ZM71.5571 348.205C71.1196 348.205 70.7524 348.365 70.4556 348.686C70.1587 349.002 69.9751 349.448 69.9048 350.022H73.0806V349.94C73.0493 349.389 72.9009 348.963 72.6353 348.662C72.3696 348.358 72.0103 348.205 71.5571 348.205ZM82.8657 350.906H84.0493V351.791H82.8657V353.772H81.7759V351.791H77.8911V351.153L81.7114 345.24H82.8657V350.906ZM79.1216 350.906H81.7759V346.723L81.647 346.957L79.1216 350.906Z" fill="black"/>
<rect x="26.2822" y="343.479" width="6.76811" height="8.825" rx="1" fill="#DB0E00"/>
</g>
<rect x="110.884" y="265.996" width="63.2558" height="22.592" fill="#FAFAFA"/>
<rect x="110.884" y="265.996" width="63.2558" height="22.592" stroke="#EAEAEA"/>
<path d="M142.874 285.996H137.284V285.217L140.237 281.935C140.675 281.439 140.976 281.037 141.14 280.728C141.308 280.416 141.392 280.094 141.392 279.761C141.392 279.316 141.257 278.951 140.987 278.666C140.718 278.381 140.358 278.238 139.909 278.238C139.37 278.238 138.95 278.392 138.649 278.701C138.353 279.006 138.204 279.431 138.204 279.978H137.12C137.12 279.193 137.372 278.558 137.876 278.074C138.384 277.59 139.062 277.347 139.909 277.347C140.702 277.347 141.329 277.556 141.79 277.974C142.251 278.388 142.481 278.941 142.481 279.633C142.481 280.472 141.946 281.472 140.876 282.633L138.591 285.111H142.874V285.996ZM144.099 287.695L143.483 287.273C143.851 286.761 144.042 286.234 144.058 285.691V284.713H145.118V285.562C145.118 285.957 145.021 286.351 144.825 286.746C144.634 287.14 144.392 287.457 144.099 287.695ZM151.728 282.357C151.728 283.627 151.511 284.57 151.077 285.187C150.644 285.804 149.966 286.113 149.044 286.113C148.134 286.113 147.46 285.812 147.022 285.211C146.585 284.605 146.358 283.703 146.343 282.504V281.056C146.343 279.802 146.56 278.871 146.993 278.261C147.427 277.652 148.106 277.347 149.032 277.347C149.95 277.347 150.626 277.642 151.06 278.232C151.493 278.818 151.716 279.724 151.728 280.951V282.357ZM150.644 280.875C150.644 279.957 150.515 279.289 150.257 278.871C149.999 278.449 149.591 278.238 149.032 278.238C148.478 278.238 148.073 278.447 147.819 278.865C147.565 279.283 147.435 279.926 147.427 280.793V282.527C147.427 283.449 147.56 284.131 147.825 284.572C148.095 285.01 148.501 285.228 149.044 285.228C149.579 285.228 149.976 285.021 150.233 284.607C150.495 284.193 150.632 283.541 150.644 282.65V280.875ZM158.466 282.357C158.466 283.627 158.249 284.57 157.815 285.187C157.382 285.804 156.704 286.113 155.782 286.113C154.872 286.113 154.198 285.812 153.761 285.211C153.323 284.605 153.097 283.703 153.081 282.504V281.056C153.081 279.802 153.298 278.871 153.731 278.261C154.165 277.652 154.845 277.347 155.771 277.347C156.688 277.347 157.364 277.642 157.798 278.232C158.231 278.818 158.454 279.724 158.466 280.951V282.357ZM157.382 280.875C157.382 279.957 157.253 279.289 156.995 278.871C156.737 278.449 156.329 278.238 155.771 278.238C155.216 278.238 154.812 278.447 154.558 278.865C154.304 279.283 154.173 279.926 154.165 280.793V282.527C154.165 283.449 154.298 284.131 154.563 284.572C154.833 285.01 155.239 285.228 155.782 285.228C156.317 285.228 156.714 285.021 156.972 284.607C157.233 284.193 157.37 283.541 157.382 282.65V280.875ZM165.204 282.357C165.204 283.627 164.987 284.57 164.554 285.187C164.12 285.804 163.442 286.113 162.521 286.113C161.61 286.113 160.937 285.812 160.499 285.211C160.062 284.605 159.835 283.703 159.819 282.504V281.056C159.819 279.802 160.036 278.871 160.47 278.261C160.903 277.652 161.583 277.347 162.509 277.347C163.427 277.347 164.103 277.642 164.536 278.232C164.97 278.818 165.192 279.724 165.204 280.951V282.357ZM164.12 280.875C164.12 279.957 163.991 279.289 163.733 278.871C163.476 278.449 163.067 278.238 162.509 278.238C161.954 278.238 161.55 278.447 161.296 278.865C161.042 279.283 160.911 279.926 160.903 280.793V282.527C160.903 283.449 161.036 284.131 161.302 284.572C161.571 285.01 161.978 285.228 162.521 285.228C163.056 285.228 163.452 285.021 163.71 284.607C163.972 284.193 164.108 283.541 164.12 282.65V280.875Z" fill="black"/>
<rect x="110.884" y="288.588" width="63.2558" height="22.592" fill="white"/>
<rect x="110.884" y="288.588" width="63.2558" height="22.592" stroke="#EAEAEA"/>
<path d="M149.94 308.588H148.851V301.363L146.665 302.166V301.182L149.771 300.016H149.94V308.588ZM157.271 304.838C157.044 305.107 156.772 305.324 156.456 305.488C156.144 305.652 155.8 305.734 155.425 305.734C154.933 305.734 154.503 305.613 154.136 305.371C153.772 305.129 153.491 304.789 153.292 304.352C153.093 303.91 152.993 303.424 152.993 302.893C152.993 302.322 153.101 301.809 153.315 301.352C153.534 300.895 153.843 300.545 154.241 300.303C154.64 300.061 155.104 299.939 155.636 299.939C156.479 299.939 157.144 300.256 157.628 300.889C158.116 301.518 158.36 302.377 158.36 303.467V303.783C158.36 305.443 158.032 306.656 157.376 307.422C156.72 308.184 155.729 308.574 154.405 308.594H154.194V307.68H154.423C155.317 307.664 156.005 307.432 156.485 306.982C156.966 306.529 157.228 305.814 157.271 304.838ZM155.601 304.838C155.964 304.838 156.298 304.727 156.603 304.504C156.911 304.281 157.136 304.006 157.276 303.678V303.244C157.276 302.533 157.122 301.955 156.813 301.51C156.505 301.064 156.114 300.842 155.642 300.842C155.165 300.842 154.782 301.025 154.493 301.393C154.204 301.756 154.06 302.236 154.06 302.834C154.06 303.416 154.198 303.896 154.476 304.275C154.757 304.65 155.132 304.838 155.601 304.838ZM165.028 302.283C165.028 302.709 164.915 303.088 164.688 303.42C164.466 303.752 164.163 304.012 163.78 304.199C164.226 304.391 164.577 304.67 164.835 305.037C165.097 305.404 165.228 305.82 165.228 306.285C165.228 307.023 164.978 307.611 164.478 308.049C163.981 308.486 163.327 308.705 162.515 308.705C161.694 308.705 161.036 308.486 160.54 308.049C160.048 307.607 159.802 307.02 159.802 306.285C159.802 305.824 159.927 305.408 160.177 305.037C160.431 304.666 160.78 304.385 161.226 304.193C160.847 304.006 160.548 303.746 160.329 303.414C160.11 303.082 160.001 302.705 160.001 302.283C160.001 301.564 160.231 300.994 160.692 300.572C161.153 300.15 161.761 299.939 162.515 299.939C163.265 299.939 163.87 300.15 164.331 300.572C164.796 300.994 165.028 301.564 165.028 302.283ZM164.144 306.262C164.144 305.785 163.991 305.396 163.687 305.096C163.386 304.795 162.991 304.645 162.503 304.645C162.015 304.645 161.622 304.793 161.325 305.09C161.032 305.387 160.886 305.777 160.886 306.262C160.886 306.746 161.028 307.127 161.313 307.404C161.603 307.682 162.003 307.82 162.515 307.82C163.022 307.82 163.421 307.682 163.71 307.404C163.999 307.123 164.144 306.742 164.144 306.262ZM162.515 300.83C162.089 300.83 161.743 300.963 161.478 301.229C161.216 301.49 161.085 301.848 161.085 302.301C161.085 302.734 161.214 303.086 161.472 303.355C161.733 303.621 162.081 303.754 162.515 303.754C162.948 303.754 163.294 303.621 163.552 303.355C163.813 303.086 163.944 302.734 163.944 302.301C163.944 301.867 163.81 301.514 163.54 301.24C163.271 300.967 162.929 300.83 162.515 300.83Z" fill="black"/>
<rect x="110.884" y="311.18" width="63.2558" height="22.592" fill="#FAFAFA"/>
<rect x="110.884" y="311.18" width="63.2558" height="22.592" stroke="#EAEAEA"/>
<path d="M140.847 331.18H139.757V323.955L137.571 324.758V323.774L140.677 322.608H140.847V331.18ZM144.099 332.879L143.483 332.457C143.851 331.946 144.042 331.418 144.058 330.875V329.897H145.118V330.746C145.118 331.141 145.021 331.535 144.825 331.93C144.634 332.324 144.392 332.641 144.099 332.879ZM151.728 327.541C151.728 328.811 151.511 329.754 151.077 330.371C150.644 330.989 149.966 331.297 149.044 331.297C148.134 331.297 147.46 330.996 147.022 330.395C146.585 329.789 146.358 328.887 146.343 327.688V326.24C146.343 324.987 146.56 324.055 146.993 323.446C147.427 322.836 148.106 322.531 149.032 322.531C149.95 322.531 150.626 322.826 151.06 323.416C151.493 324.002 151.716 324.908 151.728 326.135V327.541ZM150.644 326.059C150.644 325.141 150.515 324.473 150.257 324.055C149.999 323.633 149.591 323.422 149.032 323.422C148.478 323.422 148.073 323.631 147.819 324.049C147.565 324.467 147.435 325.11 147.427 325.977V327.711C147.427 328.633 147.56 329.315 147.825 329.756C148.095 330.194 148.501 330.412 149.044 330.412C149.579 330.412 149.976 330.205 150.233 329.791C150.495 329.377 150.632 328.725 150.644 327.834V326.059ZM158.466 327.541C158.466 328.811 158.249 329.754 157.815 330.371C157.382 330.989 156.704 331.297 155.782 331.297C154.872 331.297 154.198 330.996 153.761 330.395C153.323 329.789 153.097 328.887 153.081 327.688V326.24C153.081 324.987 153.298 324.055 153.731 323.446C154.165 322.836 154.845 322.531 155.771 322.531C156.688 322.531 157.364 322.826 157.798 323.416C158.231 324.002 158.454 324.908 158.466 326.135V327.541ZM157.382 326.059C157.382 325.141 157.253 324.473 156.995 324.055C156.737 323.633 156.329 323.422 155.771 323.422C155.216 323.422 154.812 323.631 154.558 324.049C154.304 324.467 154.173 325.11 154.165 325.977V327.711C154.165 328.633 154.298 329.315 154.563 329.756C154.833 330.194 155.239 330.412 155.782 330.412C156.317 330.412 156.714 330.205 156.972 329.791C157.233 329.377 157.37 328.725 157.382 327.834V326.059ZM165.204 327.541C165.204 328.811 164.987 329.754 164.554 330.371C164.12 330.989 163.442 331.297 162.521 331.297C161.61 331.297 160.937 330.996 160.499 330.395C160.062 329.789 159.835 328.887 159.819 327.688V326.24C159.819 324.987 160.036 324.055 160.47 323.446C160.903 322.836 161.583 322.531 162.509 322.531C163.427 322.531 164.103 322.826 164.536 323.416C164.97 324.002 165.192 324.908 165.204 326.135V327.541ZM164.12 326.059C164.12 325.141 163.991 324.473 163.733 324.055C163.476 323.633 163.067 323.422 162.509 323.422C161.954 323.422 161.55 323.631 161.296 324.049C161.042 324.467 160.911 325.11 160.903 325.977V327.711C160.903 328.633 161.036 329.315 161.302 329.756C161.571 330.194 161.978 330.412 162.521 330.412C163.056 330.412 163.452 330.205 163.71 329.791C163.972 329.377 164.108 328.725 164.12 327.834V326.059Z" fill="black"/>
<rect x="110.884" y="333.772" width="63.2558" height="22.592" fill="white"/>
<rect x="110.884" y="333.772" width="63.2558" height="22.592" stroke="#EAEAEA"/>
<path d="M151.552 347.467C151.552 347.893 151.438 348.272 151.212 348.604C150.989 348.936 150.687 349.196 150.304 349.383C150.749 349.574 151.101 349.854 151.358 350.221C151.62 350.588 151.751 351.004 151.751 351.469C151.751 352.207 151.501 352.795 151.001 353.233C150.505 353.67 149.851 353.889 149.038 353.889C148.218 353.889 147.56 353.67 147.063 353.233C146.571 352.791 146.325 352.203 146.325 351.469C146.325 351.008 146.45 350.592 146.7 350.221C146.954 349.85 147.304 349.569 147.749 349.377C147.37 349.19 147.071 348.93 146.853 348.598C146.634 348.266 146.524 347.889 146.524 347.467C146.524 346.748 146.755 346.178 147.216 345.756C147.677 345.334 148.284 345.123 149.038 345.123C149.788 345.123 150.394 345.334 150.854 345.756C151.319 346.178 151.552 346.748 151.552 347.467ZM150.667 351.446C150.667 350.969 150.515 350.58 150.21 350.28C149.909 349.979 149.515 349.828 149.026 349.828C148.538 349.828 148.146 349.977 147.849 350.274C147.556 350.571 147.409 350.961 147.409 351.446C147.409 351.93 147.552 352.311 147.837 352.588C148.126 352.865 148.526 353.004 149.038 353.004C149.546 353.004 149.944 352.865 150.233 352.588C150.522 352.307 150.667 351.926 150.667 351.446ZM149.038 346.014C148.612 346.014 148.267 346.147 148.001 346.412C147.739 346.674 147.608 347.031 147.608 347.485C147.608 347.918 147.737 348.27 147.995 348.539C148.257 348.805 148.604 348.938 149.038 348.938C149.472 348.938 149.817 348.805 150.075 348.539C150.337 348.27 150.468 347.918 150.468 347.485C150.468 347.051 150.333 346.698 150.063 346.424C149.794 346.151 149.452 346.014 149.038 346.014ZM158.466 350.133C158.466 351.403 158.249 352.346 157.815 352.963C157.382 353.58 156.704 353.889 155.782 353.889C154.872 353.889 154.198 353.588 153.761 352.987C153.323 352.381 153.097 351.479 153.081 350.28V348.832C153.081 347.578 153.298 346.647 153.731 346.037C154.165 345.428 154.845 345.123 155.771 345.123C156.688 345.123 157.364 345.418 157.798 346.008C158.231 346.594 158.454 347.5 158.466 348.727V350.133ZM157.382 348.651C157.382 347.733 157.253 347.065 156.995 346.647C156.737 346.225 156.329 346.014 155.771 346.014C155.216 346.014 154.812 346.223 154.558 346.641C154.304 347.059 154.173 347.701 154.165 348.569V350.303C154.165 351.225 154.298 351.906 154.563 352.348C154.833 352.785 155.239 353.004 155.782 353.004C156.317 353.004 156.714 352.797 156.972 352.383C157.233 351.969 157.37 351.317 157.382 350.426V348.651ZM165.204 350.133C165.204 351.403 164.987 352.346 164.554 352.963C164.12 353.58 163.442 353.889 162.521 353.889C161.61 353.889 160.937 353.588 160.499 352.987C160.062 352.381 159.835 351.479 159.819 350.28V348.832C159.819 347.578 160.036 346.647 160.47 346.037C160.903 345.428 161.583 345.123 162.509 345.123C163.427 345.123 164.103 345.418 164.536 346.008C164.97 346.594 165.192 347.5 165.204 348.727V350.133ZM164.12 348.651C164.12 347.733 163.991 347.065 163.733 346.647C163.476 346.225 163.067 346.014 162.509 346.014C161.954 346.014 161.55 346.223 161.296 346.641C161.042 347.059 160.911 347.701 160.903 348.569V350.303C160.903 351.225 161.036 351.906 161.302 352.348C161.571 352.785 161.978 353.004 162.521 353.004C163.056 353.004 163.452 352.797 163.71 352.383C163.972 351.969 164.108 351.317 164.12 350.426V348.651Z" fill="black"/>
<rect x="174.139" y="265.996" width="56.2274" height="22.592" fill="#FAFAFA"/>
<rect x="174.139" y="265.996" width="56.2274" height="22.592" stroke="#EAEAEA"/>
<path d="M205.159 283.131H206.343V284.015H205.159V285.996H204.069V284.015H200.184V283.377L204.005 277.465H205.159V283.131ZM201.415 283.131H204.069V278.947L203.94 279.181L201.415 283.131ZM212.911 285.996H207.321V285.217L210.274 281.935C210.712 281.439 211.012 281.037 211.177 280.728C211.344 280.416 211.428 280.094 211.428 279.761C211.428 279.316 211.294 278.951 211.024 278.666C210.755 278.381 210.395 278.238 209.946 278.238C209.407 278.238 208.987 278.392 208.686 278.701C208.389 279.006 208.241 279.431 208.241 279.978H207.157C207.157 279.193 207.409 278.558 207.913 278.074C208.421 277.59 209.098 277.347 209.946 277.347C210.739 277.347 211.366 277.556 211.827 277.974C212.288 278.388 212.518 278.941 212.518 279.633C212.518 280.472 211.983 281.472 210.913 282.633L208.628 285.111H212.911V285.996ZM213.966 279.105C213.966 278.594 214.128 278.172 214.452 277.84C214.78 277.508 215.2 277.342 215.712 277.342C216.231 277.342 216.651 277.51 216.971 277.845C217.296 278.177 217.458 278.609 217.458 279.14V279.556C217.458 280.072 217.294 280.494 216.966 280.822C216.641 281.146 216.227 281.308 215.723 281.308C215.216 281.308 214.796 281.146 214.464 280.822C214.132 280.494 213.966 280.058 213.966 279.515V279.105ZM214.774 279.556C214.774 279.861 214.86 280.113 215.032 280.312C215.204 280.508 215.434 280.605 215.723 280.605C216.001 280.605 216.223 280.51 216.391 280.318C216.563 280.127 216.649 279.865 216.649 279.533V279.105C216.649 278.801 216.565 278.549 216.397 278.349C216.229 278.15 216.001 278.051 215.712 278.051C215.423 278.051 215.194 278.15 215.026 278.349C214.858 278.549 214.774 278.808 214.774 279.129V279.556ZM218.12 283.904C218.12 283.392 218.282 282.972 218.606 282.644C218.934 282.312 219.354 282.146 219.866 282.146C220.378 282.146 220.798 282.31 221.126 282.638C221.454 282.967 221.618 283.402 221.618 283.945V284.361C221.618 284.873 221.454 285.295 221.126 285.627C220.802 285.955 220.385 286.119 219.878 286.119C219.37 286.119 218.95 285.957 218.618 285.633C218.286 285.304 218.12 284.869 218.12 284.326V283.904ZM218.928 284.361C218.928 284.67 219.014 284.924 219.186 285.123C219.358 285.318 219.589 285.416 219.878 285.416C220.159 285.416 220.384 285.32 220.552 285.129C220.719 284.933 220.803 284.67 220.803 284.338V283.904C220.803 283.595 220.718 283.344 220.546 283.148C220.378 282.953 220.151 282.855 219.866 282.855C219.589 282.855 219.362 282.953 219.186 283.148C219.014 283.34 218.928 283.599 218.928 283.927V284.361ZM215.969 285.351L215.354 284.965L219.52 278.297L220.135 278.683L215.969 285.351Z" fill="black"/>
<rect x="174.139" y="288.588" width="56.2274" height="22.592" fill="white"/>
<rect x="174.139" y="288.588" width="56.2274" height="22.592" stroke="#EAEAEA"/>
<path d="M212.495 302.283C212.495 302.709 212.382 303.088 212.155 303.42C211.932 303.752 211.63 304.012 211.247 304.199C211.692 304.391 212.044 304.67 212.302 305.037C212.563 305.404 212.694 305.82 212.694 306.285C212.694 307.023 212.444 307.611 211.944 308.049C211.448 308.486 210.794 308.705 209.981 308.705C209.161 308.705 208.503 308.486 208.007 308.049C207.514 307.607 207.268 307.02 207.268 306.285C207.268 305.824 207.393 305.408 207.643 305.037C207.897 304.666 208.247 304.385 208.692 304.193C208.313 304.006 208.014 303.746 207.796 303.414C207.577 303.082 207.468 302.705 207.468 302.283C207.468 301.564 207.698 300.994 208.159 300.572C208.62 300.15 209.227 299.939 209.981 299.939C210.731 299.939 211.337 300.15 211.798 300.572C212.262 300.994 212.495 301.564 212.495 302.283ZM211.61 306.262C211.61 305.785 211.458 305.396 211.153 305.096C210.852 304.795 210.458 304.645 209.969 304.645C209.481 304.645 209.089 304.793 208.792 305.09C208.499 305.387 208.352 305.777 208.352 306.262C208.352 306.746 208.495 307.127 208.78 307.404C209.069 307.682 209.469 307.82 209.981 307.82C210.489 307.82 210.887 307.682 211.177 307.404C211.466 307.123 211.61 306.742 211.61 306.262ZM209.981 300.83C209.555 300.83 209.21 300.963 208.944 301.229C208.682 301.49 208.552 301.848 208.552 302.301C208.552 302.734 208.68 303.086 208.938 303.355C209.2 303.621 209.548 303.754 209.981 303.754C210.415 303.754 210.76 303.621 211.018 303.355C211.28 303.086 211.411 302.734 211.411 302.301C211.411 301.867 211.276 301.514 211.007 301.24C210.737 300.967 210.395 300.83 209.981 300.83ZM213.966 301.697C213.966 301.186 214.128 300.764 214.452 300.432C214.78 300.1 215.2 299.934 215.712 299.934C216.231 299.934 216.651 300.102 216.971 300.438C217.296 300.77 217.458 301.201 217.458 301.732V302.148C217.458 302.664 217.294 303.086 216.966 303.414C216.641 303.738 216.227 303.9 215.723 303.9C215.216 303.9 214.796 303.738 214.464 303.414C214.132 303.086 213.966 302.65 213.966 302.107V301.697ZM214.774 302.148C214.774 302.453 214.86 302.705 215.032 302.904C215.204 303.1 215.434 303.197 215.723 303.197C216.001 303.197 216.223 303.102 216.391 302.91C216.563 302.719 216.649 302.457 216.649 302.125V301.697C216.649 301.393 216.565 301.141 216.397 300.941C216.229 300.742 216.001 300.643 215.712 300.643C215.423 300.643 215.194 300.742 215.026 300.941C214.858 301.141 214.774 301.4 214.774 301.721V302.148ZM218.12 306.496C218.12 305.984 218.282 305.564 218.606 305.236C218.934 304.904 219.354 304.738 219.866 304.738C220.378 304.738 220.798 304.902 221.126 305.23C221.454 305.559 221.618 305.994 221.618 306.537V306.953C221.618 307.465 221.454 307.887 221.126 308.219C220.802 308.547 220.385 308.711 219.878 308.711C219.37 308.711 218.95 308.549 218.618 308.225C218.286 307.896 218.12 307.461 218.12 306.918V306.496ZM218.928 306.953C218.928 307.262 219.014 307.516 219.186 307.715C219.358 307.91 219.589 308.008 219.878 308.008C220.159 308.008 220.384 307.912 220.552 307.721C220.719 307.525 220.803 307.262 220.803 306.93V306.496C220.803 306.188 220.718 305.936 220.546 305.74C220.378 305.545 220.151 305.447 219.866 305.447C219.589 305.447 219.362 305.545 219.186 305.74C219.014 305.932 218.928 306.191 218.928 306.52V306.953ZM215.969 307.943L215.354 307.557L219.52 300.889L220.135 301.275L215.969 307.943Z" fill="black"/>
<rect x="174.139" y="311.18" width="56.2274" height="22.592" fill="#FAFAFA"/>
<rect x="174.139" y="311.18" width="56.2274" height="22.592" stroke="#EAEAEA"/>
<path d="M206.173 331.18H200.583V330.401L203.536 327.119C203.973 326.623 204.274 326.221 204.438 325.912C204.606 325.6 204.69 325.278 204.69 324.946C204.69 324.5 204.555 324.135 204.286 323.85C204.016 323.565 203.657 323.422 203.208 323.422C202.669 323.422 202.249 323.576 201.948 323.885C201.651 324.19 201.503 324.615 201.503 325.162H200.419C200.419 324.377 200.671 323.742 201.175 323.258C201.682 322.774 202.36 322.531 203.208 322.531C204.001 322.531 204.628 322.74 205.089 323.158C205.55 323.573 205.78 324.125 205.78 324.817C205.78 325.656 205.245 326.656 204.175 327.817L201.889 330.295H206.173V331.18ZM212.671 327.541C212.671 328.811 212.454 329.754 212.02 330.371C211.587 330.989 210.909 331.297 209.987 331.297C209.077 331.297 208.403 330.996 207.966 330.395C207.528 329.789 207.302 328.887 207.286 327.688V326.24C207.286 324.987 207.503 324.055 207.936 323.446C208.37 322.836 209.05 322.531 209.975 322.531C210.893 322.531 211.569 322.826 212.003 323.416C212.436 324.002 212.659 324.908 212.671 326.135V327.541ZM211.587 326.059C211.587 325.141 211.458 324.473 211.2 324.055C210.942 323.633 210.534 323.422 209.975 323.422C209.421 323.422 209.016 323.631 208.762 324.049C208.509 324.467 208.378 325.11 208.37 325.977V327.711C208.37 328.633 208.503 329.315 208.768 329.756C209.038 330.194 209.444 330.412 209.987 330.412C210.522 330.412 210.919 330.205 211.177 329.791C211.438 329.377 211.575 328.725 211.587 327.834V326.059ZM213.966 324.289C213.966 323.778 214.128 323.356 214.452 323.024C214.78 322.692 215.2 322.526 215.712 322.526C216.231 322.526 216.651 322.694 216.971 323.03C217.296 323.362 217.458 323.793 217.458 324.324V324.74C217.458 325.256 217.294 325.678 216.966 326.006C216.641 326.33 216.227 326.492 215.723 326.492C215.216 326.492 214.796 326.33 214.464 326.006C214.132 325.678 213.966 325.242 213.966 324.699V324.289ZM214.774 324.74C214.774 325.045 214.86 325.297 215.032 325.496C215.204 325.692 215.434 325.789 215.723 325.789C216.001 325.789 216.223 325.694 216.391 325.502C216.563 325.311 216.649 325.049 216.649 324.717V324.289C216.649 323.985 216.565 323.733 216.397 323.533C216.229 323.334 216.001 323.235 215.712 323.235C215.423 323.235 215.194 323.334 215.026 323.533C214.858 323.733 214.774 323.992 214.774 324.313V324.74ZM218.12 329.088C218.12 328.576 218.282 328.156 218.606 327.828C218.934 327.496 219.354 327.33 219.866 327.33C220.378 327.33 220.798 327.494 221.126 327.823C221.454 328.151 221.618 328.586 221.618 329.129V329.545C221.618 330.057 221.454 330.479 221.126 330.811C220.802 331.139 220.385 331.303 219.878 331.303C219.37 331.303 218.95 331.141 218.618 330.817C218.286 330.489 218.12 330.053 218.12 329.51V329.088ZM218.928 329.545C218.928 329.854 219.014 330.108 219.186 330.307C219.358 330.502 219.589 330.6 219.878 330.6C220.159 330.6 220.384 330.504 220.552 330.313C220.719 330.117 220.803 329.854 220.803 329.522V329.088C220.803 328.78 220.718 328.528 220.546 328.332C220.378 328.137 220.151 328.039 219.866 328.039C219.589 328.039 219.362 328.137 219.186 328.332C219.014 328.524 218.928 328.783 218.928 329.112V329.545ZM215.969 330.535L215.354 330.149L219.52 323.481L220.135 323.867L215.969 330.535Z" fill="black"/>
<rect x="174.139" y="333.772" width="56.2274" height="22.592" fill="white"/>
<rect x="174.139" y="333.772" width="56.2274" height="22.592" stroke="#EAEAEA"/>
<path d="M202.159 348.979H202.973C203.485 348.971 203.887 348.836 204.18 348.574C204.473 348.313 204.62 347.959 204.62 347.514C204.62 346.514 204.122 346.014 203.126 346.014C202.657 346.014 202.282 346.149 202.001 346.418C201.723 346.684 201.585 347.037 201.585 347.479H200.501C200.501 346.803 200.747 346.242 201.239 345.797C201.735 345.348 202.364 345.123 203.126 345.123C203.93 345.123 204.561 345.336 205.018 345.762C205.475 346.188 205.704 346.78 205.704 347.537C205.704 347.908 205.583 348.268 205.341 348.615C205.102 348.963 204.776 349.223 204.362 349.395C204.831 349.543 205.192 349.789 205.446 350.133C205.704 350.477 205.833 350.897 205.833 351.393C205.833 352.158 205.583 352.766 205.083 353.215C204.583 353.664 203.932 353.889 203.132 353.889C202.331 353.889 201.678 353.672 201.175 353.239C200.675 352.805 200.425 352.233 200.425 351.522H201.514C201.514 351.971 201.661 352.33 201.954 352.6C202.247 352.869 202.639 353.004 203.132 353.004C203.655 353.004 204.055 352.867 204.333 352.594C204.61 352.321 204.749 351.928 204.749 351.416C204.749 350.92 204.596 350.539 204.292 350.274C203.987 350.008 203.548 349.871 202.973 349.864H202.159V348.979ZM212.671 350.133C212.671 351.403 212.454 352.346 212.02 352.963C211.587 353.58 210.909 353.889 209.987 353.889C209.077 353.889 208.403 353.588 207.966 352.987C207.528 352.381 207.302 351.479 207.286 350.28V348.832C207.286 347.578 207.503 346.647 207.936 346.037C208.37 345.428 209.05 345.123 209.975 345.123C210.893 345.123 211.569 345.418 212.003 346.008C212.436 346.594 212.659 347.5 212.671 348.727V350.133ZM211.587 348.651C211.587 347.733 211.458 347.065 211.2 346.647C210.942 346.225 210.534 346.014 209.975 346.014C209.421 346.014 209.016 346.223 208.762 346.641C208.509 347.059 208.378 347.701 208.37 348.569V350.303C208.37 351.225 208.503 351.906 208.768 352.348C209.038 352.785 209.444 353.004 209.987 353.004C210.522 353.004 210.919 352.797 211.177 352.383C211.438 351.969 211.575 351.317 211.587 350.426V348.651ZM213.966 346.881C213.966 346.369 214.128 345.948 214.452 345.615C214.78 345.283 215.2 345.117 215.712 345.117C216.231 345.117 216.651 345.285 216.971 345.621C217.296 345.953 217.458 346.385 217.458 346.916V347.332C217.458 347.848 217.294 348.27 216.966 348.598C216.641 348.922 216.227 349.084 215.723 349.084C215.216 349.084 214.796 348.922 214.464 348.598C214.132 348.27 213.966 347.834 213.966 347.291V346.881ZM214.774 347.332C214.774 347.637 214.86 347.889 215.032 348.088C215.204 348.283 215.434 348.381 215.723 348.381C216.001 348.381 216.223 348.285 216.391 348.094C216.563 347.903 216.649 347.641 216.649 347.309V346.881C216.649 346.576 216.565 346.324 216.397 346.125C216.229 345.926 216.001 345.826 215.712 345.826C215.423 345.826 215.194 345.926 215.026 346.125C214.858 346.324 214.774 346.584 214.774 346.905V347.332ZM218.12 351.68C218.12 351.168 218.282 350.748 218.606 350.42C218.934 350.088 219.354 349.922 219.866 349.922C220.378 349.922 220.798 350.086 221.126 350.414C221.454 350.742 221.618 351.178 221.618 351.721V352.137C221.618 352.649 221.454 353.071 221.126 353.403C220.802 353.731 220.385 353.895 219.878 353.895C219.37 353.895 218.95 353.733 218.618 353.408C218.286 353.08 218.12 352.645 218.12 352.102V351.68ZM218.928 352.137C218.928 352.446 219.014 352.699 219.186 352.899C219.358 353.094 219.589 353.192 219.878 353.192C220.159 353.192 220.384 353.096 220.552 352.905C220.719 352.709 220.803 352.446 220.803 352.114V351.68C220.803 351.371 220.718 351.119 220.546 350.924C220.378 350.729 220.151 350.631 219.866 350.631C219.589 350.631 219.362 350.729 219.186 350.924C219.014 351.115 218.928 351.375 218.928 351.703V352.137ZM215.969 353.127L215.354 352.74L219.52 346.073L220.135 346.459L215.969 353.127Z" fill="black"/>
<rect x="230.367" y="265.996" width="54.1189" height="22.592" fill="#FAFAFA"/>
<g clip-path="url(#clip5_33_656)">
<path d="M236.222 280.569L235.969 281.001L236.832 281.506L237.085 281.075L236.222 280.569ZM239.694 275.628L240.012 275.243L239.559 274.868L239.262 275.375L239.694 275.628ZM245.052 280.059L244.733 280.444L245.066 280.719L245.386 280.43L245.052 280.059ZM252.819 273.056L247.172 274.26L251.038 278.548L252.819 273.056ZM237.085 281.075L240.125 275.881L239.262 275.375L236.222 280.569L237.085 281.075ZM239.375 276.013L244.733 280.444L245.37 279.673L240.012 275.243L239.375 276.013ZM245.386 280.43L249.811 276.44L249.142 275.698L244.717 279.687L245.386 280.43Z" fill="#00A560"/>
<path d="M264.241 275.288C264.241 275.785 264.109 276.227 263.844 276.615C263.584 277.002 263.231 277.305 262.785 277.524C263.304 277.747 263.714 278.073 264.015 278.501C264.32 278.93 264.473 279.415 264.473 279.957C264.473 280.819 264.181 281.504 263.598 282.015C263.019 282.525 262.256 282.781 261.308 282.781C260.351 282.781 259.583 282.525 259.004 282.015C258.43 281.5 258.143 280.814 258.143 279.957C258.143 279.42 258.289 278.934 258.581 278.501C258.877 278.068 259.285 277.74 259.804 277.517C259.362 277.298 259.014 276.995 258.758 276.608C258.503 276.22 258.375 275.781 258.375 275.288C258.375 274.45 258.644 273.784 259.182 273.292C259.72 272.8 260.429 272.554 261.308 272.554C262.183 272.554 262.889 272.8 263.427 273.292C263.97 273.784 264.241 274.45 264.241 275.288ZM263.208 279.93C263.208 279.374 263.031 278.92 262.675 278.57C262.324 278.219 261.864 278.043 261.294 278.043C260.725 278.043 260.267 278.216 259.92 278.563C259.579 278.909 259.408 279.365 259.408 279.93C259.408 280.495 259.574 280.939 259.907 281.263C260.244 281.587 260.711 281.748 261.308 281.748C261.901 281.748 262.365 281.587 262.703 281.263C263.04 280.935 263.208 280.49 263.208 279.93ZM261.308 273.593C260.811 273.593 260.408 273.748 260.098 274.058C259.793 274.363 259.64 274.78 259.64 275.309C259.64 275.815 259.791 276.225 260.091 276.539C260.397 276.849 260.802 277.004 261.308 277.004C261.814 277.004 262.217 276.849 262.518 276.539C262.823 276.225 262.976 275.815 262.976 275.309C262.976 274.803 262.819 274.391 262.504 274.072C262.19 273.753 261.791 273.593 261.308 273.593ZM266.223 281.981C266.223 281.762 266.287 281.58 266.415 281.434C266.547 281.288 266.743 281.215 267.002 281.215C267.262 281.215 267.458 281.288 267.59 281.434C267.727 281.58 267.795 281.762 267.795 281.981C267.795 282.19 267.727 282.366 267.59 282.507C267.458 282.648 267.262 282.719 267.002 282.719C266.743 282.719 266.547 282.648 266.415 282.507C266.287 282.366 266.223 282.19 266.223 281.981ZM275.999 278.399C275.999 279.88 275.746 280.98 275.24 281.7C274.734 282.42 273.943 282.781 272.868 282.781C271.806 282.781 271.02 282.43 270.509 281.728C269.999 281.021 269.735 279.969 269.716 278.57V276.881C269.716 275.418 269.969 274.331 270.475 273.62C270.981 272.909 271.774 272.554 272.854 272.554C273.925 272.554 274.713 272.898 275.219 273.586C275.725 274.27 275.985 275.327 275.999 276.758V278.399ZM274.734 276.669C274.734 275.598 274.583 274.819 274.283 274.331C273.982 273.839 273.506 273.593 272.854 273.593C272.207 273.593 271.735 273.837 271.439 274.324C271.143 274.812 270.99 275.562 270.981 276.573V278.597C270.981 279.672 271.136 280.468 271.446 280.983C271.76 281.493 272.234 281.748 272.868 281.748C273.492 281.748 273.955 281.507 274.255 281.024C274.561 280.541 274.72 279.78 274.734 278.74V276.669ZM258.095 290.605C258.095 290.008 258.284 289.516 258.663 289.128C259.045 288.741 259.535 288.547 260.132 288.547C260.738 288.547 261.228 288.743 261.602 289.135C261.98 289.522 262.169 290.026 262.169 290.646V291.131C262.169 291.733 261.978 292.225 261.595 292.608C261.217 292.986 260.734 293.175 260.146 293.175C259.554 293.175 259.064 292.986 258.676 292.608C258.289 292.225 258.095 291.717 258.095 291.083V290.605ZM259.039 291.131C259.039 291.487 259.139 291.781 259.339 292.013C259.54 292.241 259.809 292.355 260.146 292.355C260.47 292.355 260.729 292.243 260.925 292.02C261.126 291.796 261.226 291.491 261.226 291.104V290.605C261.226 290.249 261.128 289.955 260.932 289.723C260.736 289.49 260.47 289.374 260.132 289.374C259.795 289.374 259.528 289.49 259.333 289.723C259.137 289.955 259.039 290.258 259.039 290.632V291.131ZM262.942 296.203C262.942 295.606 263.131 295.116 263.509 294.734C263.892 294.346 264.382 294.153 264.979 294.153C265.576 294.153 266.066 294.344 266.449 294.727C266.832 295.11 267.023 295.618 267.023 296.251V296.737C267.023 297.334 266.832 297.826 266.449 298.213C266.07 298.596 265.585 298.787 264.993 298.787C264.4 298.787 263.91 298.598 263.523 298.22C263.136 297.837 262.942 297.329 262.942 296.696V296.203ZM263.885 296.737C263.885 297.097 263.986 297.393 264.186 297.625C264.387 297.853 264.655 297.967 264.993 297.967C265.321 297.967 265.583 297.855 265.779 297.632C265.975 297.404 266.073 297.097 266.073 296.709V296.203C266.073 295.843 265.972 295.549 265.772 295.322C265.576 295.094 265.312 294.98 264.979 294.98C264.655 294.98 264.391 295.094 264.186 295.322C263.986 295.545 263.885 295.848 263.885 296.231V296.737ZM260.433 297.892L259.715 297.441L264.576 289.661L265.293 290.113L260.433 297.892Z" fill="#00A560"/>
</g>
<rect x="230.367" y="265.996" width="54.1189" height="22.592" stroke="#EAEAEA"/>
<rect x="230.367" y="288.588" width="54.1189" height="22.592" fill="white"/>
<g clip-path="url(#clip6_33_656)">
<path d="M236.222 295.9L235.969 295.469L236.832 294.964L237.085 295.395L236.222 295.9ZM239.694 300.842L240.012 301.227L239.559 301.602L239.262 301.094L239.694 300.842ZM245.052 296.411L244.733 296.026L245.066 295.751L245.386 296.04L245.052 296.411ZM252.819 303.414L247.172 302.21L251.038 297.922L252.819 303.414ZM237.085 295.395L240.125 300.589L239.262 301.094L236.222 295.9L237.085 295.395ZM239.375 300.456L244.733 296.026L245.37 296.796L240.012 301.227L239.375 300.456ZM245.386 296.04L249.811 300.029L249.142 300.772L244.717 296.783L245.386 296.04Z" fill="#DB0E00"/>
<path d="M262.361 305.236H261.089V296.807L258.54 297.744V296.595L262.163 295.235H262.361V305.236ZM266.223 304.573C266.223 304.354 266.287 304.172 266.415 304.026C266.547 303.88 266.743 303.807 267.002 303.807C267.262 303.807 267.458 303.88 267.59 304.026C267.727 304.172 267.795 304.354 267.795 304.573C267.795 304.782 267.727 304.958 267.59 305.099C267.458 305.24 267.262 305.311 267.002 305.311C266.743 305.311 266.547 305.24 266.415 305.099C266.287 304.958 266.223 304.782 266.223 304.573ZM275.999 300.991C275.999 302.472 275.746 303.572 275.24 304.292C274.734 305.013 273.943 305.373 272.868 305.373C271.806 305.373 271.02 305.022 270.509 304.32C269.999 303.613 269.735 302.561 269.716 301.162V299.473C269.716 298.01 269.969 296.923 270.475 296.212C270.981 295.501 271.774 295.146 272.854 295.146C273.925 295.146 274.713 295.49 275.219 296.178C275.725 296.862 275.985 297.919 275.999 299.35V300.991ZM274.734 299.261C274.734 298.19 274.583 297.411 274.283 296.923C273.982 296.431 273.506 296.185 272.854 296.185C272.207 296.185 271.735 296.429 271.439 296.917C271.143 297.404 270.99 298.154 270.981 299.166V301.189C270.981 302.264 271.136 303.06 271.446 303.575C271.76 304.085 272.234 304.34 272.868 304.34C273.492 304.34 273.955 304.099 274.255 303.616C274.561 303.133 274.72 302.372 274.734 301.333V299.261ZM258.095 313.197C258.095 312.6 258.284 312.108 258.663 311.72C259.045 311.333 259.535 311.139 260.132 311.139C260.738 311.139 261.228 311.335 261.602 311.727C261.98 312.114 262.169 312.618 262.169 313.238V313.723C262.169 314.325 261.978 314.817 261.595 315.2C261.217 315.578 260.734 315.767 260.146 315.767C259.554 315.767 259.064 315.578 258.676 315.2C258.289 314.817 258.095 314.309 258.095 313.675V313.197ZM259.039 313.723C259.039 314.079 259.139 314.373 259.339 314.605C259.54 314.833 259.809 314.947 260.146 314.947C260.47 314.947 260.729 314.835 260.925 314.612C261.126 314.389 261.226 314.083 261.226 313.696V313.197C261.226 312.841 261.128 312.547 260.932 312.315C260.736 312.083 260.47 311.966 260.132 311.966C259.795 311.966 259.528 312.083 259.333 312.315C259.137 312.547 259.039 312.85 259.039 313.224V313.723ZM262.942 318.795C262.942 318.198 263.131 317.708 263.509 317.326C263.892 316.938 264.382 316.745 264.979 316.745C265.576 316.745 266.066 316.936 266.449 317.319C266.832 317.702 267.023 318.21 267.023 318.843V319.329C267.023 319.926 266.832 320.418 266.449 320.805C266.07 321.188 265.585 321.379 264.993 321.379C264.4 321.379 263.91 321.19 263.523 320.812C263.136 320.429 262.942 319.921 262.942 319.288V318.795ZM263.885 319.329C263.885 319.689 263.986 319.985 264.186 320.217C264.387 320.445 264.655 320.559 264.993 320.559C265.321 320.559 265.583 320.447 265.779 320.224C265.975 319.996 266.073 319.689 266.073 319.301V318.795C266.073 318.435 265.972 318.141 265.772 317.914C265.576 317.686 265.312 317.572 264.979 317.572C264.655 317.572 264.391 317.686 264.186 317.914C263.986 318.137 263.885 318.44 263.885 318.823V319.329ZM260.433 320.484L259.715 320.033L264.576 312.253L265.293 312.705L260.433 320.484Z" fill="#DB0E00"/>
</g>
<rect x="230.367" y="288.588" width="54.1189" height="22.592" stroke="#EAEAEA"/>
<rect x="230.367" y="311.18" width="54.1189" height="22.592" fill="#FAFAFA"/>
<g clip-path="url(#clip7_33_656)">
<path d="M236.222 325.048L235.969 325.479L236.832 325.984L237.085 325.553L236.222 325.048ZM239.694 320.106L240.012 319.721L239.559 319.346L239.262 319.854L239.694 320.106ZM245.052 324.537L244.733 324.922L245.066 325.197L245.386 324.908L245.052 324.537ZM252.819 317.534L247.172 318.738L251.038 323.026L252.819 317.534ZM237.085 325.553L240.125 320.359L239.262 319.854L236.222 325.048L237.085 325.553ZM239.375 320.492L244.733 324.922L245.37 324.151L240.012 319.721L239.375 320.492ZM245.386 324.908L249.811 320.919L249.142 320.176L244.717 324.165L245.386 324.908Z" fill="#00A560"/>
<path d="M264.726 327.122H258.205V326.213L261.65 322.385C262.16 321.806 262.511 321.337 262.703 320.977C262.899 320.612 262.997 320.236 262.997 319.849C262.997 319.329 262.839 318.903 262.525 318.57C262.21 318.238 261.791 318.071 261.267 318.071C260.638 318.071 260.148 318.251 259.797 318.611C259.451 318.967 259.278 319.464 259.278 320.102H258.013C258.013 319.186 258.307 318.445 258.895 317.88C259.487 317.315 260.278 317.032 261.267 317.032C262.192 317.032 262.924 317.276 263.461 317.764C263.999 318.247 264.268 318.892 264.268 319.698C264.268 320.678 263.644 321.845 262.395 323.198L259.729 326.09H264.726V327.122ZM266.223 326.459C266.223 326.24 266.287 326.058 266.415 325.912C266.547 325.766 266.743 325.693 267.002 325.693C267.262 325.693 267.458 325.766 267.59 325.912C267.727 326.058 267.795 326.24 267.795 326.459C267.795 326.669 267.727 326.844 267.59 326.985C267.458 327.127 267.262 327.197 267.002 327.197C266.743 327.197 266.547 327.127 266.415 326.985C266.287 326.844 266.223 326.669 266.223 326.459ZM271.596 321.53H272.546C273.143 321.521 273.613 321.364 273.955 321.059C274.296 320.753 274.467 320.341 274.467 319.821C274.467 318.655 273.886 318.071 272.724 318.071C272.177 318.071 271.74 318.229 271.412 318.543C271.088 318.853 270.926 319.265 270.926 319.78H269.662C269.662 318.992 269.949 318.338 270.523 317.818C271.102 317.294 271.835 317.032 272.724 317.032C273.663 317.032 274.399 317.281 274.932 317.777C275.465 318.274 275.732 318.965 275.732 319.849C275.732 320.282 275.591 320.701 275.308 321.106C275.03 321.512 274.65 321.815 274.167 322.016C274.713 322.189 275.135 322.476 275.431 322.877C275.732 323.278 275.882 323.768 275.882 324.347C275.882 325.24 275.591 325.949 275.007 326.473C274.424 326.997 273.665 327.259 272.731 327.259C271.797 327.259 271.036 327.006 270.448 326.5C269.864 325.994 269.573 325.326 269.573 324.497H270.844C270.844 325.021 271.015 325.44 271.357 325.755C271.699 326.069 272.157 326.227 272.731 326.227C273.342 326.227 273.809 326.067 274.132 325.748C274.456 325.429 274.618 324.971 274.618 324.374C274.618 323.795 274.44 323.351 274.084 323.041C273.729 322.731 273.216 322.572 272.546 322.562H271.596V321.53ZM258.095 335.083C258.095 334.486 258.284 333.994 258.663 333.606C259.045 333.219 259.535 333.025 260.132 333.025C260.738 333.025 261.228 333.221 261.602 333.613C261.98 334.001 262.169 334.504 262.169 335.124V335.609C262.169 336.211 261.978 336.703 261.595 337.086C261.217 337.464 260.734 337.653 260.146 337.653C259.554 337.653 259.064 337.464 258.676 337.086C258.289 336.703 258.095 336.195 258.095 335.562V335.083ZM259.039 335.609C259.039 335.965 259.139 336.259 259.339 336.491C259.54 336.719 259.809 336.833 260.146 336.833C260.47 336.833 260.729 336.721 260.925 336.498C261.126 336.275 261.226 335.969 261.226 335.582V335.083C261.226 334.728 261.128 334.434 260.932 334.201C260.736 333.969 260.47 333.853 260.132 333.853C259.795 333.853 259.528 333.969 259.333 334.201C259.137 334.434 259.039 334.737 259.039 335.11V335.609ZM262.942 340.682C262.942 340.085 263.131 339.595 263.509 339.212C263.892 338.825 264.382 338.631 264.979 338.631C265.576 338.631 266.066 338.822 266.449 339.205C266.832 339.588 267.023 340.096 267.023 340.729V341.215C267.023 341.812 266.832 342.304 266.449 342.691C266.07 343.074 265.585 343.266 264.993 343.266C264.4 343.266 263.91 343.076 263.523 342.698C263.136 342.315 262.942 341.807 262.942 341.174V340.682ZM263.885 341.215C263.885 341.575 263.986 341.871 264.186 342.104C264.387 342.331 264.655 342.445 264.993 342.445C265.321 342.445 265.583 342.334 265.779 342.11C265.975 341.882 266.073 341.575 266.073 341.188V340.682C266.073 340.322 265.972 340.028 265.772 339.8C265.576 339.572 265.312 339.458 264.979 339.458C264.655 339.458 264.391 339.572 264.186 339.8C263.986 340.023 263.885 340.326 263.885 340.709V341.215ZM260.433 342.37L259.715 341.919L264.576 334.14L265.293 334.591L260.433 342.37Z" fill="#00A560"/>
</g>
<rect x="230.367" y="311.18" width="54.1189" height="22.592" stroke="#EAEAEA"/>
<rect x="230.367" y="333.772" width="54.1189" height="22.592" fill="white"/>
<rect x="230.367" y="333.772" width="54.1189" height="22.592" stroke="#EAEAEA"/>
<g clip-path="url(#clip8_33_656)">
<path d="M235.519 341.084L235.266 340.653L236.129 340.148L236.382 340.579L235.519 341.084ZM238.991 346.026L239.31 346.411L238.856 346.786L238.559 346.278L238.991 346.026ZM244.349 341.595L244.03 341.21L244.363 340.935L244.683 341.224L244.349 341.595ZM252.116 348.598L246.469 347.394L250.335 343.106L252.116 348.598ZM236.382 340.579L239.422 345.773L238.559 346.278L235.519 341.084L236.382 340.579ZM238.672 345.64L244.03 341.21L244.667 341.98L239.31 346.411L238.672 345.64ZM244.683 341.224L249.108 345.213L248.439 345.956L244.014 341.966L244.683 341.224Z" fill="#DB0E00"/>
<path d="M261.658 350.42H260.386V341.991L257.837 342.927V341.779L261.46 340.419H261.658V350.42ZM265.52 349.757C265.52 349.538 265.584 349.356 265.712 349.21C265.844 349.064 266.04 348.991 266.3 348.991C266.559 348.991 266.755 349.064 266.887 349.21C267.024 349.356 267.093 349.538 267.093 349.757C267.093 349.966 267.024 350.142 266.887 350.283C266.755 350.424 266.559 350.495 266.3 350.495C266.04 350.495 265.844 350.424 265.712 350.283C265.584 350.142 265.52 349.966 265.52 349.757ZM275.091 343.064C275.091 343.561 274.958 344.003 274.694 344.39C274.434 344.778 274.081 345.081 273.635 345.3C274.154 345.523 274.564 345.849 274.865 346.277C275.17 346.705 275.323 347.191 275.323 347.733C275.323 348.594 275.031 349.28 274.448 349.791C273.869 350.301 273.106 350.556 272.158 350.556C271.201 350.556 270.433 350.301 269.854 349.791C269.28 349.276 268.993 348.59 268.993 347.733C268.993 347.195 269.139 346.71 269.43 346.277C269.727 345.844 270.135 345.516 270.654 345.293C270.212 345.074 269.863 344.771 269.608 344.384C269.353 343.996 269.225 343.556 269.225 343.064C269.225 342.226 269.494 341.56 270.032 341.068C270.57 340.576 271.278 340.33 272.158 340.33C273.033 340.33 273.739 340.576 274.277 341.068C274.819 341.56 275.091 342.226 275.091 343.064ZM274.058 347.706C274.058 347.15 273.881 346.696 273.525 346.345C273.174 345.995 272.714 345.819 272.144 345.819C271.575 345.819 271.117 345.992 270.77 346.339C270.428 346.685 270.258 347.141 270.258 347.706C270.258 348.271 270.424 348.715 270.757 349.039C271.094 349.362 271.561 349.524 272.158 349.524C272.75 349.524 273.215 349.362 273.552 349.039C273.89 348.711 274.058 348.266 274.058 347.706ZM272.158 341.369C271.661 341.369 271.258 341.524 270.948 341.834C270.643 342.139 270.49 342.556 270.49 343.085C270.49 343.591 270.64 344.001 270.941 344.315C271.247 344.625 271.652 344.78 272.158 344.78C272.664 344.78 273.067 344.625 273.368 344.315C273.673 344.001 273.826 343.591 273.826 343.085C273.826 342.579 273.669 342.166 273.354 341.847C273.04 341.528 272.641 341.369 272.158 341.369ZM257.392 358.381C257.392 357.784 257.581 357.291 257.96 356.904C258.343 356.517 258.832 356.323 259.429 356.323C260.036 356.323 260.525 356.519 260.899 356.911C261.277 357.298 261.467 357.802 261.467 358.422V358.907C261.467 359.509 261.275 360.001 260.892 360.384C260.514 360.762 260.031 360.951 259.443 360.951C258.851 360.951 258.361 360.762 257.973 360.384C257.586 360.001 257.392 359.493 257.392 358.859V358.381ZM258.336 358.907C258.336 359.262 258.436 359.556 258.636 359.789C258.837 360.017 259.106 360.131 259.443 360.131C259.767 360.131 260.026 360.019 260.222 359.796C260.423 359.572 260.523 359.267 260.523 358.88V358.381C260.523 358.025 260.425 357.731 260.229 357.499C260.033 357.266 259.767 357.15 259.429 357.15C259.092 357.15 258.826 357.266 258.63 357.499C258.434 357.731 258.336 358.034 258.336 358.408V358.907ZM262.239 363.979C262.239 363.382 262.428 362.892 262.806 362.51C263.189 362.122 263.679 361.928 264.276 361.928C264.873 361.928 265.363 362.12 265.746 362.503C266.129 362.885 266.32 363.394 266.32 364.027V364.512C266.32 365.109 266.129 365.602 265.746 365.989C265.368 366.372 264.882 366.563 264.29 366.563C263.697 366.563 263.207 366.374 262.82 365.996C262.433 365.613 262.239 365.105 262.239 364.471V363.979ZM263.182 364.512C263.182 364.872 263.283 365.169 263.483 365.401C263.684 365.629 263.953 365.743 264.29 365.743C264.618 365.743 264.88 365.631 265.076 365.408C265.272 365.18 265.37 364.872 265.37 364.485V363.979C265.37 363.619 265.27 363.325 265.069 363.097C264.873 362.87 264.609 362.756 264.276 362.756C263.953 362.756 263.688 362.87 263.483 363.097C263.283 363.321 263.182 363.624 263.182 364.007V364.512ZM259.73 365.668L259.012 365.217L263.873 357.437L264.591 357.888L259.73 365.668Z" fill="#DB0E00"/>
</g>
<g clip-path="url(#clip9_33_656)">
<rect x="19.5142" y="237.756" width="8.52782" height="28.24" fill="white"/>
<rect x="19.5142" y="237.756" width="91.3695" height="28.24" stroke="#EAEAEA"/>
<path d="M32.8403 253.559C32.8403 253.184 32.7075 252.895 32.4419 252.691C32.1802 252.488 31.7056 252.283 31.0181 252.076C30.3306 251.869 29.7837 251.639 29.3774 251.385C28.6001 250.896 28.2114 250.26 28.2114 249.475C28.2114 248.787 28.4907 248.221 29.0493 247.775C29.6118 247.33 30.3403 247.107 31.2349 247.107C31.8286 247.107 32.3579 247.217 32.8228 247.436C33.2876 247.654 33.6528 247.967 33.9185 248.373C34.1841 248.775 34.3169 249.223 34.3169 249.715H32.8403C32.8403 249.27 32.6997 248.922 32.4185 248.672C32.1411 248.418 31.7427 248.291 31.2231 248.291C30.7388 248.291 30.3618 248.395 30.0923 248.602C29.8267 248.809 29.6938 249.098 29.6938 249.469C29.6938 249.781 29.8384 250.043 30.1274 250.254C30.4165 250.461 30.8931 250.664 31.5571 250.863C32.2212 251.059 32.7544 251.283 33.1567 251.537C33.5591 251.787 33.854 252.076 34.0415 252.404C34.229 252.729 34.3228 253.109 34.3228 253.547C34.3228 254.258 34.0493 254.824 33.5024 255.246C32.9595 255.664 32.2212 255.873 31.2876 255.873C30.6704 255.873 30.1021 255.76 29.5825 255.533C29.0669 255.303 28.6646 254.986 28.3755 254.584C28.0903 254.182 27.9478 253.713 27.9478 253.178H29.4302C29.4302 253.662 29.5903 254.037 29.9106 254.303C30.231 254.568 30.6899 254.701 31.2876 254.701C31.8032 254.701 32.1899 254.598 32.4478 254.391C32.7095 254.18 32.8403 253.902 32.8403 253.559ZM37.27 247.875V249.416H38.3892V250.471H37.27V254.01C37.27 254.252 37.3169 254.428 37.4106 254.537C37.5083 254.643 37.6802 254.695 37.9263 254.695C38.0903 254.695 38.2563 254.676 38.4243 254.637V255.738C38.1001 255.828 37.7876 255.873 37.4868 255.873C36.3931 255.873 35.8462 255.27 35.8462 254.062V250.471H34.8032V249.416H35.8462V247.875H37.27ZM39.0396 252.527C39.0396 251.906 39.1626 251.348 39.4087 250.852C39.6548 250.352 40.0005 249.969 40.4458 249.703C40.8911 249.434 41.4028 249.299 41.981 249.299C42.8364 249.299 43.5298 249.574 44.061 250.125C44.5962 250.676 44.8853 251.406 44.9282 252.316L44.9341 252.65C44.9341 253.275 44.813 253.834 44.5708 254.326C44.3325 254.818 43.9888 255.199 43.5396 255.469C43.0942 255.738 42.5786 255.873 41.9927 255.873C41.0981 255.873 40.3813 255.576 39.8423 254.982C39.3071 254.385 39.0396 253.59 39.0396 252.598V252.527ZM40.4634 252.65C40.4634 253.303 40.5981 253.814 40.8677 254.186C41.1372 254.553 41.5122 254.736 41.9927 254.736C42.4731 254.736 42.8462 254.549 43.1118 254.174C43.3813 253.799 43.5161 253.25 43.5161 252.527C43.5161 251.887 43.3774 251.379 43.1001 251.004C42.8267 250.629 42.4536 250.441 41.981 250.441C41.5161 250.441 41.147 250.627 40.8735 250.998C40.6001 251.365 40.4634 251.916 40.4634 252.65ZM49.4575 250.717C49.27 250.686 49.0767 250.67 48.8774 250.67C48.2251 250.67 47.7856 250.92 47.5591 251.42V255.756H46.1353V249.416H47.4946L47.5298 250.125C47.8735 249.574 48.3501 249.299 48.9595 249.299C49.1626 249.299 49.3306 249.326 49.4634 249.381L49.4575 250.717ZM53.0317 255.873C52.1294 255.873 51.397 255.59 50.8345 255.023C50.2759 254.453 49.9966 253.695 49.9966 252.75V252.574C49.9966 251.941 50.1177 251.377 50.3599 250.881C50.606 250.381 50.9497 249.992 51.3911 249.715C51.8325 249.438 52.3247 249.299 52.8677 249.299C53.731 249.299 54.397 249.574 54.8657 250.125C55.3384 250.676 55.5747 251.455 55.5747 252.463V253.037H51.4321C51.4751 253.561 51.6489 253.975 51.9536 254.279C52.2622 254.584 52.6489 254.736 53.1138 254.736C53.7661 254.736 54.2974 254.473 54.7075 253.945L55.4751 254.678C55.2212 255.057 54.8813 255.352 54.4556 255.562C54.0337 255.77 53.5591 255.873 53.0317 255.873ZM52.8618 250.441C52.4712 250.441 52.1548 250.578 51.9126 250.852C51.6743 251.125 51.522 251.506 51.4556 251.994H54.1685V251.889C54.1372 251.412 54.0103 251.053 53.7876 250.811C53.5649 250.564 53.2563 250.441 52.8618 250.441Z" fill="black"/>
</g>
<g clip-path="url(#clip10_33_656)">
<rect x="110.884" y="237.756" width="63.2558" height="28.24" stroke="#EAEAEA"/>
<path d="M126.549 256.78H125.067L121.264 250.727V256.78H119.782V248.249H121.264L125.079 254.325V248.249H126.549V256.78ZM132.004 256.159C131.586 256.651 130.993 256.897 130.223 256.897C129.536 256.897 129.014 256.696 128.659 256.293C128.307 255.891 128.131 255.309 128.131 254.547V250.44H129.555V254.53C129.555 255.334 129.889 255.737 130.557 255.737C131.249 255.737 131.715 255.489 131.958 254.993V250.44H133.381V256.78H132.04L132.004 256.159ZM136.17 250.44L136.211 251.102C136.657 250.583 137.266 250.323 138.04 250.323C138.887 250.323 139.467 250.647 139.78 251.295C140.241 250.647 140.889 250.323 141.725 250.323C142.424 250.323 142.944 250.516 143.284 250.903C143.627 251.29 143.803 251.86 143.811 252.614V256.78H142.387V252.655C142.387 252.252 142.299 251.958 142.124 251.77C141.948 251.583 141.657 251.489 141.25 251.489C140.926 251.489 140.661 251.577 140.454 251.752C140.25 251.924 140.108 252.151 140.026 252.432L140.032 256.78H138.608V252.608C138.588 251.862 138.208 251.489 137.465 251.489C136.895 251.489 136.491 251.721 136.252 252.186V256.78H134.829V250.44H136.17ZM150.836 253.674C150.836 254.659 150.616 255.442 150.174 256.024C149.737 256.606 149.133 256.897 148.364 256.897C147.622 256.897 147.043 256.629 146.629 256.094L146.559 256.78H145.27V247.78H146.694V251.049C147.104 250.565 147.657 250.323 148.352 250.323C149.125 250.323 149.733 250.61 150.174 251.184C150.616 251.758 150.836 252.561 150.836 253.592V253.674ZM149.413 253.551C149.413 252.864 149.292 252.348 149.049 252.004C148.807 251.661 148.456 251.489 147.995 251.489C147.377 251.489 146.944 251.758 146.694 252.297V254.911C146.948 255.461 147.385 255.737 148.006 255.737C148.452 255.737 148.795 255.571 149.038 255.239C149.28 254.907 149.405 254.405 149.413 253.733V253.551ZM154.827 256.897C153.924 256.897 153.192 256.614 152.629 256.047C152.071 255.477 151.792 254.719 151.792 253.774V253.598C151.792 252.965 151.913 252.401 152.155 251.905C152.401 251.405 152.745 251.016 153.186 250.739C153.627 250.461 154.12 250.323 154.663 250.323C155.526 250.323 156.192 250.598 156.661 251.149C157.133 251.7 157.37 252.479 157.37 253.487V254.061H153.227C153.27 254.584 153.444 254.999 153.749 255.303C154.057 255.608 154.444 255.76 154.909 255.76C155.561 255.76 156.092 255.497 156.502 254.969L157.27 255.702C157.016 256.081 156.676 256.375 156.25 256.586C155.829 256.793 155.354 256.897 154.827 256.897ZM154.657 251.465C154.266 251.465 153.95 251.602 153.708 251.875C153.469 252.149 153.317 252.53 153.25 253.018H155.963V252.913C155.932 252.436 155.805 252.077 155.583 251.834C155.36 251.588 155.051 251.465 154.657 251.465ZM161.799 251.741C161.612 251.709 161.418 251.694 161.219 251.694C160.567 251.694 160.127 251.944 159.901 252.444V256.78H158.477V250.44H159.836L159.872 251.149C160.215 250.598 160.692 250.323 161.301 250.323C161.504 250.323 161.672 250.35 161.805 250.405L161.799 251.741Z" fill="black"/>
</g>
<g clip-path="url(#clip11_33_656)">
<rect x="174.139" y="237.756" width="56.2274" height="28.24" stroke="#EAEAEA"/>
<path d="M183.648 252.61V255.78H182.165V247.249H185.429C186.382 247.249 187.138 247.497 187.697 247.993C188.259 248.489 188.54 249.145 188.54 249.961C188.54 250.797 188.265 251.448 187.714 251.913C187.167 252.377 186.4 252.61 185.411 252.61H183.648ZM183.648 251.42H185.429C185.956 251.42 186.359 251.297 186.636 251.051C186.913 250.801 187.052 250.442 187.052 249.973C187.052 249.512 186.911 249.145 186.63 248.872C186.349 248.594 185.962 248.452 185.47 248.444H183.648V251.42ZM192.413 255.897C191.511 255.897 190.779 255.614 190.216 255.047C189.657 254.477 189.378 253.719 189.378 252.774V252.598C189.378 251.965 189.499 251.401 189.741 250.905C189.988 250.405 190.331 250.016 190.773 249.739C191.214 249.461 191.706 249.323 192.249 249.323C193.113 249.323 193.779 249.598 194.247 250.149C194.72 250.7 194.956 251.479 194.956 252.487V253.061H190.814C190.857 253.584 191.031 253.999 191.335 254.303C191.644 254.608 192.031 254.76 192.495 254.76C193.148 254.76 193.679 254.497 194.089 253.969L194.857 254.702C194.603 255.081 194.263 255.375 193.837 255.586C193.415 255.793 192.941 255.897 192.413 255.897ZM192.243 250.465C191.853 250.465 191.536 250.602 191.294 250.875C191.056 251.149 190.904 251.53 190.837 252.018H193.55V251.913C193.519 251.436 193.392 251.077 193.169 250.834C192.947 250.588 192.638 250.465 192.243 250.465ZM199.386 250.741C199.198 250.709 199.005 250.694 198.806 250.694C198.154 250.694 197.714 250.944 197.488 251.444V255.78H196.064V249.44H197.423L197.458 250.149C197.802 249.598 198.279 249.323 198.888 249.323C199.091 249.323 199.259 249.35 199.392 249.405L199.386 250.741ZM202.773 254.76C203.128 254.76 203.423 254.657 203.657 254.45C203.892 254.243 204.017 253.987 204.032 253.682H205.374C205.359 254.077 205.236 254.446 205.005 254.79C204.775 255.129 204.462 255.399 204.068 255.598C203.673 255.797 203.247 255.897 202.79 255.897C201.904 255.897 201.2 255.61 200.681 255.036C200.161 254.461 199.902 253.668 199.902 252.657V252.51C199.902 251.545 200.159 250.774 200.675 250.196C201.191 249.614 201.894 249.323 202.784 249.323C203.538 249.323 204.152 249.543 204.624 249.985C205.101 250.422 205.351 250.999 205.374 251.713H204.032C204.017 251.35 203.892 251.051 203.657 250.817C203.427 250.583 203.132 250.465 202.773 250.465C202.312 250.465 201.956 250.633 201.706 250.969C201.456 251.301 201.329 251.807 201.325 252.487V252.715C201.325 253.403 201.448 253.917 201.695 254.256C201.945 254.592 202.304 254.76 202.773 254.76ZM209.241 255.897C208.339 255.897 207.607 255.614 207.044 255.047C206.486 254.477 206.206 253.719 206.206 252.774V252.598C206.206 251.965 206.327 251.401 206.57 250.905C206.816 250.405 207.159 250.016 207.601 249.739C208.042 249.461 208.534 249.323 209.077 249.323C209.941 249.323 210.607 249.598 211.075 250.149C211.548 250.7 211.784 251.479 211.784 252.487V253.061H207.642C207.685 253.584 207.859 253.999 208.163 254.303C208.472 254.608 208.859 254.76 209.323 254.76C209.976 254.76 210.507 254.497 210.917 253.969L211.685 254.702C211.431 255.081 211.091 255.375 210.665 255.586C210.243 255.793 209.769 255.897 209.241 255.897ZM209.072 250.465C208.681 250.465 208.365 250.602 208.122 250.875C207.884 251.149 207.732 251.53 207.665 252.018H210.378V251.913C210.347 251.436 210.22 251.077 209.997 250.834C209.775 250.588 209.466 250.465 209.072 250.465ZM214.216 249.44L214.257 250.172C214.726 249.606 215.341 249.323 216.103 249.323C217.423 249.323 218.095 250.079 218.118 251.59V255.78H216.695V251.672C216.695 251.27 216.607 250.973 216.431 250.782C216.259 250.586 215.976 250.489 215.581 250.489C215.007 250.489 214.579 250.749 214.298 251.268V255.78H212.874V249.44H214.216ZM221.359 247.899V249.44H222.478V250.495H221.359V254.034C221.359 254.276 221.406 254.452 221.499 254.561C221.597 254.667 221.769 254.719 222.015 254.719C222.179 254.719 222.345 254.7 222.513 254.661V255.762C222.189 255.852 221.876 255.897 221.575 255.897C220.482 255.897 219.935 255.293 219.935 254.086V250.495H218.892V249.44H219.935V247.899H221.359Z" fill="black"/>
</g>
</g>
<path opacity="0.6" d="M42.9695 38.9961H38.9792V50H36.7732V38.9961H32.8181V37.2031H42.9695V38.9961ZM54.6238 43.9355C54.6238 45.1895 54.407 46.291 53.9734 47.2402C53.5398 48.1836 52.9187 48.9102 52.1101 49.4199C51.3074 49.9238 50.3816 50.1758 49.3328 50.1758C48.2957 50.1758 47.3699 49.9238 46.5554 49.4199C45.7468 48.9102 45.1199 48.1865 44.6746 47.249C44.2351 46.3115 44.0125 45.2305 44.0066 44.0059V43.2852C44.0066 42.0371 44.2263 40.9355 44.6658 39.9805C45.1111 39.0254 45.7351 38.2959 46.5378 37.792C47.3464 37.2822 48.2722 37.0273 49.3152 37.0273C50.3582 37.0273 51.281 37.2793 52.0837 37.7832C52.8923 38.2812 53.5164 39.002 53.9558 39.9453C54.3953 40.8828 54.6179 41.9756 54.6238 43.2236V43.9355ZM52.4001 43.2676C52.4001 41.8496 52.1306 40.7627 51.5916 40.0068C51.0583 39.251 50.2996 38.873 49.3152 38.873C48.3542 38.873 47.6013 39.251 47.0564 40.0068C46.5173 40.7568 46.2419 41.8203 46.2302 43.1973V43.9355C46.2302 45.3418 46.5027 46.4287 47.0476 47.1963C47.5984 47.9639 48.3601 48.3477 49.3328 48.3477C50.3171 48.3477 51.073 47.9727 51.6003 47.2227C52.1335 46.4727 52.4001 45.377 52.4001 43.9355V43.2676ZM65.3289 38.9961H61.3386V50H59.1326V38.9961H55.1775V37.2031H65.3289V38.9961ZM73.1248 47.0205H68.1677L67.1306 50H64.8191L69.6531 37.2031H71.6482L76.491 50H74.1707L73.1248 47.0205ZM68.7917 45.2275H72.5007L70.6462 39.9189L68.7917 45.2275ZM80.1736 48.2246H85.9832V50H77.95V37.2031H80.1736V48.2246ZM101.935 45.834C101.806 47.1992 101.302 48.2656 100.424 49.0332C99.5447 49.7949 98.3757 50.1758 96.9167 50.1758C95.8972 50.1758 94.9978 49.9355 94.2185 49.4551C93.4451 48.9688 92.8474 48.2803 92.4255 47.3896C92.0037 46.499 91.7839 45.4648 91.7664 44.2871V43.0918C91.7664 41.8848 91.9802 40.8213 92.408 39.9014C92.8357 38.9814 93.448 38.2725 94.2449 37.7744C95.0476 37.2764 95.9734 37.0273 97.0222 37.0273C98.4343 37.0273 99.571 37.4111 100.432 38.1787C101.294 38.9463 101.795 40.0303 101.935 41.4307H99.7205C99.615 40.5107 99.3455 39.8486 98.9119 39.4443C98.4841 39.0342 97.8542 38.8291 97.0222 38.8291C96.0554 38.8291 95.3113 39.1836 94.7898 39.8926C94.2742 40.5957 94.0105 41.6299 93.9988 42.9951V44.1289C93.9988 45.5117 94.2449 46.5664 94.7371 47.293C95.2351 48.0195 95.9617 48.3828 96.9167 48.3828C97.7898 48.3828 98.446 48.1865 98.8855 47.7939C99.325 47.4014 99.6033 46.748 99.7205 45.834H101.935ZM113.291 37.2031V45.7549C113.291 47.1143 112.854 48.1924 111.981 48.9893C111.114 49.7803 109.957 50.1758 108.51 50.1758C107.045 50.1758 105.882 49.7861 105.02 49.0068C104.159 48.2217 103.728 47.1348 103.728 45.7461V37.2031H105.943V45.7637C105.943 46.6191 106.16 47.2725 106.594 47.7236C107.027 48.1748 107.666 48.4004 108.51 48.4004C110.22 48.4004 111.076 47.498 111.076 45.6934V37.2031H113.291ZM122.361 46.7041C122.361 46.1416 122.162 45.708 121.763 45.4033C121.371 45.0986 120.659 44.791 119.628 44.4805C118.596 44.1699 117.776 43.8242 117.167 43.4434C116.001 42.7109 115.418 41.7559 115.418 40.5781C115.418 39.5469 115.837 38.6973 116.675 38.0293C117.518 37.3613 118.611 37.0273 119.953 37.0273C120.844 37.0273 121.637 37.1914 122.335 37.5195C123.032 37.8477 123.58 38.3164 123.978 38.9258C124.377 39.5293 124.576 40.2002 124.576 40.9385H122.361C122.361 40.2705 122.15 39.749 121.728 39.374C121.312 38.9932 120.715 38.8027 119.935 38.8027C119.209 38.8027 118.643 38.958 118.239 39.2686C117.841 39.5791 117.641 40.0127 117.641 40.5693C117.641 41.0381 117.858 41.4307 118.292 41.7471C118.725 42.0576 119.44 42.3623 120.436 42.6611C121.432 42.9541 122.232 43.291 122.836 43.6719C123.439 44.0469 123.882 44.4805 124.163 44.9727C124.444 45.459 124.585 46.0303 124.585 46.6865C124.585 47.7529 124.175 48.6025 123.354 49.2354C122.54 49.8623 121.432 50.1758 120.032 50.1758C119.106 50.1758 118.254 50.0059 117.474 49.666C116.701 49.3203 116.097 48.8457 115.664 48.2422C115.236 47.6387 115.022 46.9355 115.022 46.1328H117.246C117.246 46.8594 117.486 47.4219 117.967 47.8203C118.447 48.2188 119.135 48.418 120.032 48.418C120.805 48.418 121.385 48.2627 121.772 47.9521C122.165 47.6357 122.361 47.2197 122.361 46.7041ZM135.782 38.9961H131.792V50H129.586V38.9961H125.631V37.2031H135.782V38.9961ZM147.436 43.9355C147.436 45.1895 147.219 46.291 146.786 47.2402C146.352 48.1836 145.731 48.9102 144.923 49.4199C144.12 49.9238 143.194 50.1758 142.145 50.1758C141.108 50.1758 140.182 49.9238 139.368 49.4199C138.559 48.9102 137.932 48.1865 137.487 47.249C137.048 46.3115 136.825 45.2305 136.819 44.0059V43.2852C136.819 42.0371 137.039 40.9355 137.478 39.9805C137.924 39.0254 138.548 38.2959 139.35 37.792C140.159 37.2822 141.085 37.0273 142.128 37.0273C143.171 37.0273 144.094 37.2793 144.896 37.7832C145.705 38.2812 146.329 39.002 146.768 39.9453C147.208 40.8828 147.43 41.9756 147.436 43.2236V43.9355ZM145.213 43.2676C145.213 41.8496 144.943 40.7627 144.404 40.0068C143.871 39.251 143.112 38.873 142.128 38.873C141.167 38.873 140.414 39.251 139.869 40.0068C139.33 40.7568 139.054 41.8203 139.043 43.1973V43.9355C139.043 45.3418 139.315 46.4287 139.86 47.1963C140.411 47.9639 141.173 48.3477 142.145 48.3477C143.13 48.3477 143.885 47.9727 144.413 47.2227C144.946 46.4727 145.213 45.377 145.213 43.9355V43.2676ZM152.534 37.2031L156.225 47.0117L159.908 37.2031H162.782V50H160.567V45.7812L160.787 40.1387L157.008 50H155.417L151.646 40.1475L151.866 45.7812V50H149.651V37.2031H152.534ZM172.898 44.2871H167.642V48.2246H173.786V50H165.419V37.2031H173.724V38.9961H167.642V42.5293H172.898V44.2871ZM180.299 45.0693H177.82V50H175.596V37.2031H180.096C181.573 37.2031 182.713 37.5342 183.515 38.1963C184.318 38.8584 184.719 39.8164 184.719 41.0703C184.719 41.9258 184.511 42.6436 184.095 43.2236C183.685 43.7979 183.111 44.2402 182.373 44.5508L185.247 49.8857V50H182.865L180.299 45.0693ZM177.82 43.2852H180.105C180.855 43.2852 181.441 43.0977 181.863 42.7227C182.285 42.3418 182.496 41.8232 182.496 41.167C182.496 40.4814 182.3 39.9512 181.907 39.5762C181.52 39.2012 180.94 39.0078 180.167 38.9961H177.82V43.2852Z" fill="black"/>
<path d="M212 132C212 166.794 183.794 195 149 195C114.206 195 86 166.794 86 132C86 97.2061 114.206 69 149 69C183.794 69 212 97.2061 212 132ZM111.2 132C111.2 152.876 128.124 169.8 149 169.8C169.876 169.8 186.8 152.876 186.8 132C186.8 111.124 169.876 94.2 149 94.2C128.124 94.2 111.2 111.124 111.2 132Z" fill="#EF7752"/>
<path d="M149 195C157.273 195 165.466 193.37 173.109 190.204C180.753 187.038 187.698 182.398 193.548 176.548L175.729 158.729C172.219 162.239 168.052 165.023 163.465 166.923C158.879 168.822 153.964 169.8 149 169.8L149 195Z" fill="#00A560"/>
<path d="M193.548 176.548C202.358 167.737 208.359 156.511 210.789 144.291C213.22 132.07 211.973 119.403 207.204 107.891C202.436 96.3792 194.361 86.5399 184.001 79.6174C173.641 72.6949 161.46 69 149 69V94.2C156.476 94.2 163.784 96.4169 170.001 100.57C176.217 104.724 181.062 110.628 183.923 117.535C186.784 124.442 187.532 132.042 186.074 139.374C184.615 146.707 181.015 153.442 175.729 158.729L193.548 176.548Z" fill="#0C213A"/>
<path d="M149 69C140.727 69 132.534 70.6295 124.891 73.7956C117.247 76.9616 110.302 81.6022 104.452 87.4523C98.6022 93.3024 93.9616 100.247 90.7956 107.891C87.6295 115.534 86 123.727 86 132L111.2 132C111.2 127.036 112.178 122.121 114.077 117.535C115.977 112.948 118.761 108.781 122.271 105.271C125.781 101.761 129.948 98.977 134.535 97.0774C139.121 95.1777 144.036 94.2 149 94.2V69Z" fill="#DB0E00"/>
</g>
<defs>
<filter id="filter0_d_33_656" x="0" y="0" width="304" height="385" filterUnits="userSpaceOnUse" color-interpolation-filters="sRGB">
<feFlood flood-opacity="0" result="BackgroundImageFix"/>
<feColorMatrix in="SourceAlpha" type="matrix" values="0 0 0 0 0 0 0 0 0 0 0 0 0 0 0 0 0 0 127 0" result="hardAlpha"/>
<feOffset dy="4"/>
<feGaussianBlur stdDeviation="8"/>
<feComposite in2="hardAlpha" operator="out"/>
<feColorMatrix type="matrix" values="0 0 0 0 0 0 0 0 0 0 0 0 0 0 0 0 0 0 0.06 0"/>
<feBlend mode="normal" in2="BackgroundImageFix" result="effect1_dropShadow_33_656"/>
<feBlend mode="normal" in="SourceGraphic" in2="effect1_dropShadow_33_656" result="shape"/>
</filter>
<filter id="filter1_d_33_656" x="0" y="0" width="304" height="385" filterUnits="userSpaceOnUse" color-interpolation-filters="sRGB">
<feFlood flood-opacity="0" result="BackgroundImageFix"/>
<feColorMatrix in="SourceAlpha" type="matrix" values="0 0 0 0 0 0 0 0 0 0 0 0 0 0 0 0 0 0 127 0" result="hardAlpha"/>
<feOffset dy="4"/>
<feGaussianBlur stdDeviation="8"/>
<feColorMatrix type="matrix" values="0 0 0 0 0 0 0 0 0 0 0 0 0 0 0 0 0 0 0.06 0"/>
<feBlend mode="normal" in2="BackgroundImageFix" result="effect1_dropShadow_33_656"/>
<feBlend mode="normal" in="SourceGraphic" in2="effect1_dropShadow_33_656" result="shape"/>
</filter>
<clipPath id="clip0_33_656">
<rect width="272" height="353" fill="white" transform="translate(16 12)"/>
</clipPath>
<clipPath id="clip1_33_656">
<rect width="91.3695" height="28.24" fill="white" transform="translate(19.5142 265.996)"/>
</clipPath>
<clipPath id="clip2_33_656">
<rect width="91.3695" height="28.24" fill="white" transform="translate(19.5142 288.588)"/>
</clipPath>
<clipPath id="clip3_33_656">
<rect width="91.3695" height="28.24" fill="white" transform="translate(19.5142 311.18)"/>
</clipPath>
<clipPath id="clip4_33_656">
<rect width="91.3695" height="28.24" fill="white" transform="translate(19.5142 333.772)"/>
</clipPath>
<clipPath id="clip5_33_656">
<rect width="42.1705" height="11.296" fill="white" transform="translate(236.653 271.644)"/>
</clipPath>
<clipPath id="clip6_33_656">
<rect width="42.1705" height="11.2961" fill="white" transform="translate(236.653 294.236)"/>
</clipPath>
<clipPath id="clip7_33_656">
<rect width="42.1705" height="11.296" fill="white" transform="translate(236.653 316.122)"/>
</clipPath>
<clipPath id="clip8_33_656">
<rect width="42.1706" height="11.296" fill="white" transform="translate(235.95 339.42)"/>
</clipPath>
<clipPath id="clip9_33_656">
<rect width="91.3695" height="28.24" fill="white" transform="translate(19.5142 237.756)"/>
</clipPath>
<clipPath id="clip10_33_656">
<rect width="63.2558" height="28.24" fill="white" transform="translate(110.884 237.756)"/>
</clipPath>
<clipPath id="clip11_33_656">
<rect width="56.2274" height="28.24" fill="white" transform="translate(174.139 237.756)"/>
</clipPath>
</defs>
</svg>
