<svg width="304" height="385" viewBox="0 0 304 385" fill="none" xmlns="http://www.w3.org/2000/svg">
<g clip-path="url(#clip0_33_835)" filter="url(#filter0_d_33_835)">
<g filter="url(#filter1_d_33_835)">
<rect x="14.9736" y="12" width="273.026" height="353" rx="3" fill="white"/>
</g>
<g clip-path="url(#clip1_33_835)">
<path d="M38.0105 112.57H36.5925V105.72L34.5007 106.435V105.234L37.8288 104.009H38.0105V112.57ZM46.5358 108.978C46.5358 110.205 46.3054 111.13 45.8444 111.755C45.3874 112.376 44.6901 112.687 43.7526 112.687C42.8308 112.687 42.1355 112.384 41.6667 111.779C41.2019 111.169 40.9636 110.269 40.9519 109.078V107.601C40.9519 106.375 41.1804 105.455 41.6374 104.841C42.0983 104.228 42.7995 103.921 43.7409 103.921C44.6745 103.921 45.3698 104.22 45.8269 104.818C46.2878 105.416 46.5241 106.31 46.5358 107.501V108.978ZM45.112 107.384C45.112 106.583 45.0026 105.998 44.7839 105.626C44.5651 105.251 44.2175 105.064 43.7409 105.064C43.2761 105.064 42.9343 105.242 42.7155 105.597C42.4968 105.949 42.3815 106.5 42.3698 107.25V109.183C42.3698 109.98 42.4812 110.574 42.7038 110.964C42.9265 111.355 43.2761 111.55 43.7526 111.55C44.2097 111.55 44.5476 111.371 44.7663 111.011C44.9851 110.648 45.1003 110.082 45.112 109.312V107.384ZM53.3562 108.978C53.3562 110.205 53.1257 111.13 52.6647 111.755C52.2077 112.376 51.5105 112.687 50.573 112.687C49.6511 112.687 48.9558 112.384 48.487 111.779C48.0222 111.169 47.7839 110.269 47.7722 109.078V107.601C47.7722 106.375 48.0007 105.455 48.4577 104.841C48.9187 104.228 49.6198 103.921 50.5612 103.921C51.4948 103.921 52.1901 104.22 52.6472 104.818C53.1081 105.416 53.3444 106.31 53.3562 107.501V108.978ZM51.9323 107.384C51.9323 106.583 51.823 105.998 51.6042 105.626C51.3855 105.251 51.0378 105.064 50.5612 105.064C50.0964 105.064 49.7546 105.242 49.5358 105.597C49.3171 105.949 49.2019 106.5 49.1901 107.25V109.183C49.1901 109.98 49.3015 110.574 49.5241 110.964C49.7468 111.355 50.0964 111.55 50.573 111.55C51.03 111.55 51.3679 111.371 51.5866 111.011C51.8054 110.648 51.9206 110.082 51.9323 109.312V107.384Z" fill="#8087A3"/>
<path opacity="0.6" d="M34.7722 86.3999V89.5698H33.2898V81.0386H36.5535C37.5066 81.0386 38.2625 81.2866 38.821 81.7827C39.3835 82.2788 39.6648 82.9351 39.6648 83.7515C39.6648 84.5874 39.3894 85.2378 38.8386 85.7026C38.2917 86.1675 37.5242 86.3999 36.5359 86.3999H34.7722ZM34.7722 85.2104H36.5535C37.0808 85.2104 37.4832 85.0874 37.7605 84.8413C38.0378 84.5913 38.1765 84.2319 38.1765 83.7632C38.1765 83.3022 38.0359 82.9351 37.7546 82.6616C37.4734 82.3843 37.0867 82.2417 36.5945 82.2339H34.7722V85.2104ZM43.5378 89.687C42.6355 89.687 41.9031 89.4038 41.3406 88.8374C40.782 88.2671 40.5027 87.5093 40.5027 86.564V86.3882C40.5027 85.7554 40.6238 85.1909 40.866 84.6948C41.1121 84.1948 41.4558 83.8062 41.8972 83.5288C42.3386 83.2515 42.8308 83.1128 43.3738 83.1128C44.2371 83.1128 44.9031 83.3882 45.3718 83.939C45.8445 84.4897 46.0808 85.269 46.0808 86.2769V86.8511H41.9382C41.9812 87.3745 42.155 87.7886 42.4597 88.0933C42.7683 88.3979 43.155 88.5503 43.6199 88.5503C44.2722 88.5503 44.8035 88.2866 45.2136 87.7593L45.9812 88.4917C45.7273 88.8706 45.3875 89.1655 44.9617 89.3765C44.5398 89.5835 44.0652 89.687 43.5378 89.687ZM43.3679 84.2554C42.9773 84.2554 42.6609 84.3921 42.4187 84.6655C42.1804 84.939 42.0281 85.3198 41.9617 85.8081H44.6746V85.7026C44.6433 85.2261 44.5164 84.8667 44.2937 84.6245C44.071 84.3784 43.7625 84.2554 43.3679 84.2554ZM50.5105 84.5308C50.323 84.4995 50.1296 84.4839 49.9304 84.4839C49.2781 84.4839 48.8386 84.7339 48.6121 85.2339V89.5698H47.1882V83.23H48.5476L48.5828 83.939C48.9265 83.3882 49.4031 83.1128 50.0125 83.1128C50.2156 83.1128 50.3835 83.1401 50.5164 83.1948L50.5105 84.5308ZM53.8972 88.5503C54.2527 88.5503 54.5476 88.4468 54.782 88.2397C55.0164 88.0327 55.1414 87.7769 55.157 87.4722H56.4988C56.4832 87.8667 56.3601 88.2358 56.1296 88.5796C55.8992 88.9194 55.5867 89.189 55.1921 89.3882C54.7976 89.5874 54.3718 89.687 53.9148 89.687C53.0281 89.687 52.325 89.3999 51.8054 88.8257C51.2859 88.2515 51.0261 87.4585 51.0261 86.4468V86.3003C51.0261 85.3354 51.2839 84.564 51.7996 83.9858C52.3152 83.4038 53.0183 83.1128 53.9089 83.1128C54.6628 83.1128 55.2761 83.3335 55.7488 83.7749C56.2253 84.2124 56.4753 84.7886 56.4988 85.5034H55.157C55.1414 85.1401 55.0164 84.8413 54.782 84.6069C54.5515 84.3726 54.2566 84.2554 53.8972 84.2554C53.4363 84.2554 53.0808 84.4233 52.8308 84.7593C52.5808 85.0913 52.4539 85.5972 52.45 86.2769V86.5054C52.45 87.1929 52.573 87.7065 52.8191 88.0464C53.0691 88.3823 53.4285 88.5503 53.8972 88.5503ZM60.366 89.687C59.4636 89.687 58.7312 89.4038 58.1687 88.8374C57.6101 88.2671 57.3308 87.5093 57.3308 86.564V86.3882C57.3308 85.7554 57.4519 85.1909 57.6941 84.6948C57.9402 84.1948 58.2839 83.8062 58.7253 83.5288C59.1667 83.2515 59.6589 83.1128 60.2019 83.1128C61.0652 83.1128 61.7312 83.3882 62.2 83.939C62.6726 84.4897 62.9089 85.269 62.9089 86.2769V86.8511H58.7664C58.8093 87.3745 58.9832 87.7886 59.2878 88.0933C59.5964 88.3979 59.9832 88.5503 60.448 88.5503C61.1003 88.5503 61.6316 88.2866 62.0417 87.7593L62.8093 88.4917C62.5554 88.8706 62.2156 89.1655 61.7898 89.3765C61.3679 89.5835 60.8933 89.687 60.366 89.687ZM60.196 84.2554C59.8054 84.2554 59.489 84.3921 59.2468 84.6655C59.0085 84.939 58.8562 85.3198 58.7898 85.8081H61.5027V85.7026C61.4714 85.2261 61.3445 84.8667 61.1218 84.6245C60.8992 84.3784 60.5906 84.2554 60.196 84.2554ZM65.3406 83.23L65.3816 83.9624C65.8503 83.396 66.4656 83.1128 67.2273 83.1128C68.5476 83.1128 69.2195 83.8687 69.2429 85.3804V89.5698H67.8191V85.4624C67.8191 85.0601 67.7312 84.7632 67.5554 84.5718C67.3835 84.3765 67.1003 84.2788 66.7058 84.2788C66.1316 84.2788 65.7039 84.5386 65.4226 85.0581V89.5698H63.9988V83.23H65.3406ZM72.4832 81.689V83.23H73.6023V84.2847H72.4832V87.8237C72.4832 88.0659 72.53 88.2417 72.6238 88.3511C72.7214 88.4565 72.8933 88.5093 73.1394 88.5093C73.3035 88.5093 73.4695 88.4897 73.6375 88.4507V89.5522C73.3132 89.6421 73.0007 89.687 72.7 89.687C71.6062 89.687 71.0593 89.0835 71.0593 87.8765V84.2847H70.0164V83.23H71.0593V81.689H72.4832Z" fill="black"/>
<path d="M46.3485 138.289C46.3485 138.707 46.2411 139.08 46.0263 139.408C45.8114 139.732 45.5184 139.988 45.1473 140.175C45.5927 140.382 45.9345 140.666 46.1727 141.025C46.4149 141.384 46.536 141.791 46.536 142.244C46.536 142.994 46.2821 143.589 45.7743 144.031C45.2665 144.468 44.5907 144.687 43.747 144.687C42.8993 144.687 42.2196 144.466 41.7079 144.025C41.2001 143.583 40.9462 142.99 40.9462 142.244C40.9462 141.787 41.0673 141.376 41.3095 141.013C41.5516 140.65 41.8915 140.371 42.329 140.175C41.9618 139.988 41.6708 139.732 41.4559 139.408C41.245 139.08 41.1395 138.707 41.1395 138.289C41.1395 137.562 41.3739 136.986 41.8427 136.56C42.3114 136.134 42.9442 135.921 43.7411 135.921C44.5419 135.921 45.1766 136.134 45.6454 136.56C46.1141 136.986 46.3485 137.562 46.3485 138.289ZM45.1122 142.173C45.1122 141.751 44.9852 141.412 44.7313 141.154C44.4813 140.892 44.1493 140.761 43.7352 140.761C43.3212 140.761 42.9891 140.89 42.7391 141.148C42.4931 141.406 42.37 141.748 42.37 142.173C42.37 142.591 42.4911 142.925 42.7333 143.175C42.9794 143.425 43.3173 143.55 43.747 143.55C44.1766 143.55 44.5106 143.429 44.7489 143.187C44.9911 142.945 45.1122 142.607 45.1122 142.173ZM44.9306 138.341C44.9306 137.97 44.8231 137.666 44.6083 137.427C44.3934 137.185 44.1044 137.064 43.7411 137.064C43.3778 137.064 43.0907 137.179 42.8798 137.41C42.6688 137.636 42.5634 137.947 42.5634 138.341C42.5634 138.732 42.6688 139.042 42.8798 139.273C43.0946 139.503 43.3837 139.619 43.747 139.619C44.1102 139.619 44.3973 139.503 44.6083 139.273C44.8231 139.042 44.9306 138.732 44.9306 138.341ZM53.3563 140.978C53.3563 142.205 53.1259 143.13 52.6649 143.755C52.2079 144.376 51.5106 144.687 50.5731 144.687C49.6513 144.687 48.9559 144.384 48.4872 143.779C48.0223 143.169 47.7841 142.269 47.7723 141.078V139.601C47.7723 138.375 48.0009 137.455 48.4579 136.841C48.9188 136.228 49.62 135.921 50.5614 135.921C51.495 135.921 52.1903 136.22 52.6473 136.818C53.1083 137.416 53.3446 138.31 53.3563 139.501V140.978ZM51.9325 139.384C51.9325 138.583 51.8231 137.998 51.6044 137.626C51.3856 137.251 51.038 137.064 50.5614 137.064C50.0966 137.064 49.7548 137.242 49.536 137.597C49.3173 137.949 49.202 138.5 49.1903 139.25V141.183C49.1903 141.98 49.3016 142.574 49.5243 142.964C49.747 143.355 50.0966 143.55 50.5731 143.55C51.0302 143.55 51.3681 143.371 51.5868 143.011C51.8056 142.648 51.9208 142.082 51.9325 141.312V139.384Z" fill="#8087A3"/>
<path d="M45.4052 168.998V170.175H45.2294C44.4325 170.187 43.7958 170.406 43.3192 170.832C42.8427 171.257 42.5595 171.861 42.4696 172.642C42.9266 172.162 43.5106 171.921 44.2216 171.921C44.9755 171.921 45.5692 172.187 46.0028 172.718C46.4403 173.25 46.6591 173.935 46.6591 174.775C46.6591 175.642 46.4032 176.345 45.8915 176.884C45.3837 177.419 44.7157 177.687 43.8876 177.687C43.036 177.687 42.3446 177.373 41.8134 176.744C41.286 176.115 41.0223 175.291 41.0223 174.271V173.785C41.0223 172.289 41.3856 171.117 42.1122 170.269C42.8427 169.421 43.8915 168.998 45.2587 168.998H45.4052ZM43.8759 173.07C43.5634 173.07 43.2763 173.158 43.0145 173.333C42.7567 173.509 42.5673 173.744 42.4462 174.037V174.47C42.4462 175.103 42.579 175.607 42.8446 175.982C43.1102 176.353 43.454 176.539 43.8759 176.539C44.2977 176.539 44.6317 176.38 44.8778 176.064C45.1239 175.748 45.247 175.332 45.247 174.816C45.247 174.3 45.122 173.88 44.872 173.556C44.622 173.232 44.2899 173.07 43.8759 173.07ZM53.3563 173.978C53.3563 175.205 53.1259 176.13 52.6649 176.755C52.2079 177.376 51.5106 177.687 50.5731 177.687C49.6513 177.687 48.9559 177.384 48.4872 176.779C48.0223 176.169 47.7841 175.269 47.7723 174.078V172.601C47.7723 171.375 48.0009 170.455 48.4579 169.841C48.9188 169.228 49.62 168.921 50.5614 168.921C51.495 168.921 52.1903 169.22 52.6473 169.818C53.1083 170.416 53.3446 171.31 53.3563 172.501V173.978ZM51.9325 172.384C51.9325 171.583 51.8231 170.998 51.6044 170.626C51.3856 170.251 51.038 170.064 50.5614 170.064C50.0966 170.064 49.7548 170.242 49.536 170.597C49.3173 170.949 49.202 171.5 49.1903 172.25V174.183C49.1903 174.98 49.3016 175.574 49.5243 175.964C49.747 176.355 50.0966 176.55 50.5731 176.55C51.0302 176.55 51.3681 176.371 51.5868 176.011C51.8056 175.648 51.9208 175.082 51.9325 174.312V172.384Z" fill="#8087A3"/>
<path d="M45.7919 204.529H46.8524V205.671H45.7919V207.57H44.3681V205.671H40.6825L40.6415 204.804L44.3212 199.039H45.7919V204.529ZM42.1356 204.529H44.3681V200.966L44.2626 201.154L42.1356 204.529ZM53.3563 203.978C53.3563 205.205 53.1259 206.13 52.6649 206.755C52.2079 207.376 51.5106 207.687 50.5731 207.687C49.6513 207.687 48.9559 207.384 48.4872 206.779C48.0223 206.169 47.7841 205.269 47.7723 204.078V202.601C47.7723 201.375 48.0009 200.455 48.4579 199.841C48.9188 199.228 49.62 198.921 50.5614 198.921C51.495 198.921 52.1903 199.22 52.6473 199.818C53.1083 200.416 53.3446 201.31 53.3563 202.501V203.978ZM51.9325 202.384C51.9325 201.583 51.8231 200.998 51.6044 200.626C51.3856 200.251 51.038 200.064 50.5614 200.064C50.0966 200.064 49.7548 200.242 49.536 200.597C49.3173 200.949 49.202 201.5 49.1903 202.25V204.183C49.1903 204.98 49.3016 205.574 49.5243 205.964C49.747 206.355 50.0966 206.55 50.5731 206.55C51.0302 206.55 51.3681 206.371 51.5868 206.011C51.8056 205.648 51.9208 205.082 51.9325 204.312V202.384Z" fill="#8087A3"/>
<path d="M46.7118 239.57H40.9755V238.591L43.8173 235.492C44.2274 235.035 44.5184 234.654 44.6903 234.349C44.8661 234.041 44.954 233.732 44.954 233.423C44.954 233.017 44.8388 232.689 44.6083 232.439C44.3817 232.189 44.0751 232.064 43.6884 232.064C43.2274 232.064 42.87 232.205 42.6161 232.486C42.3622 232.767 42.2352 233.152 42.2352 233.64H40.8114C40.8114 233.121 40.9286 232.654 41.163 232.24C41.4013 231.822 41.7391 231.498 42.1766 231.267C42.6181 231.037 43.1259 230.921 43.7001 230.921C44.5282 230.921 45.1806 231.13 45.6571 231.548C46.1376 231.962 46.3778 232.537 46.3778 233.271C46.3778 233.697 46.2567 234.144 46.0145 234.613C45.7763 235.078 45.3837 235.607 44.8368 236.201L42.7509 238.433H46.7118V239.57ZM53.3563 235.978C53.3563 237.205 53.1259 238.13 52.6649 238.755C52.2079 239.376 51.5106 239.687 50.5731 239.687C49.6513 239.687 48.9559 239.384 48.4872 238.779C48.0223 238.169 47.7841 237.269 47.7723 236.078V234.601C47.7723 233.375 48.0009 232.455 48.4579 231.841C48.9188 231.228 49.62 230.921 50.5614 230.921C51.495 230.921 52.1903 231.22 52.6473 231.818C53.1083 232.416 53.3446 233.31 53.3563 234.501V235.978ZM51.9325 234.384C51.9325 233.583 51.8231 232.998 51.6044 232.626C51.3856 232.251 51.038 232.064 50.5614 232.064C50.0966 232.064 49.7548 232.242 49.536 232.597C49.3173 232.949 49.202 233.5 49.1903 234.25V236.183C49.1903 236.98 49.3016 237.574 49.5243 237.964C49.747 238.355 50.0966 238.55 50.5731 238.55C51.0302 238.55 51.3681 238.371 51.5868 238.011C51.8056 237.648 51.9208 237.082 51.9325 236.312V234.384Z" fill="#8087A3"/>
<path d="M53.3563 266.978C53.3563 268.205 53.1258 269.13 52.6649 269.755C52.2078 270.376 51.5106 270.687 50.5731 270.687C49.6512 270.687 48.9559 270.384 48.4871 269.779C48.0223 269.169 47.784 268.269 47.7723 267.078V265.601C47.7723 264.375 48.0008 263.455 48.4578 262.841C48.9188 262.228 49.6199 261.921 50.5613 261.921C51.4949 261.921 52.1903 262.22 52.6473 262.818C53.1082 263.416 53.3445 264.31 53.3563 265.501V266.978ZM51.9324 265.384C51.9324 264.583 51.8231 263.998 51.6043 263.626C51.3856 263.251 51.0379 263.064 50.5613 263.064C50.0965 263.064 49.7547 263.242 49.536 263.597C49.3172 263.949 49.202 264.5 49.1903 265.25V267.183C49.1903 267.98 49.3016 268.574 49.5242 268.964C49.7469 269.355 50.0965 269.55 50.5731 269.55C51.0301 269.55 51.368 269.371 51.5867 269.011C51.8055 268.648 51.9207 268.082 51.9324 267.312V265.384Z" fill="#8087A3"/>
</g>
<g clip-path="url(#clip2_33_835)">
<path opacity="0.6" d="M78.6521 290.045C78.6521 291.271 78.4216 292.197 77.9607 292.822C77.5037 293.443 76.8064 293.754 75.8689 293.754C74.947 293.754 74.2517 293.451 73.783 292.846C73.3181 292.236 73.0798 291.336 73.0681 290.145V288.668C73.0681 287.441 73.2966 286.521 73.7537 285.908C74.2146 285.295 74.9158 284.988 75.8572 284.988C76.7908 284.988 77.4861 285.287 77.9431 285.885C78.4041 286.482 78.6404 287.377 78.6521 288.568V290.045ZM77.2283 288.451C77.2283 287.65 77.1189 287.064 76.9001 286.693C76.6814 286.318 76.3337 286.131 75.8572 286.131C75.3923 286.131 75.0505 286.309 74.8318 286.664C74.613 287.016 74.4978 287.566 74.4861 288.316V290.25C74.4861 291.047 74.5974 291.641 74.8201 292.031C75.0427 292.422 75.3923 292.617 75.8689 292.617C76.3259 292.617 76.6638 292.438 76.8826 292.078C77.1013 291.715 77.2166 291.148 77.2283 290.379V288.451ZM83.7673 293.637H82.3494V286.787L80.2576 287.502V286.301L83.5857 285.076H83.7673V293.637Z" fill="black"/>
<path opacity="0.6" d="M113.927 290.045C113.927 291.271 113.697 292.197 113.236 292.822C112.779 293.443 112.081 293.754 111.144 293.754C110.222 293.754 109.527 293.451 109.058 292.846C108.593 292.236 108.355 291.336 108.343 290.145V288.668C108.343 287.441 108.572 286.521 109.029 285.908C109.49 285.295 110.191 284.988 111.132 284.988C112.066 284.988 112.761 285.287 113.218 285.885C113.679 286.482 113.915 287.377 113.927 288.568V290.045ZM112.503 288.451C112.503 287.65 112.394 287.064 112.175 286.693C111.956 286.318 111.609 286.131 111.132 286.131C110.667 286.131 110.325 286.309 110.107 286.664C109.888 287.016 109.773 287.566 109.761 288.316V290.25C109.761 291.047 109.872 291.641 110.095 292.031C110.318 292.422 110.667 292.617 111.144 292.617C111.601 292.617 111.939 292.438 112.157 292.078C112.376 291.715 112.491 291.148 112.503 290.379V288.451ZM120.923 293.637H115.187V292.658L118.029 289.559C118.439 289.102 118.73 288.721 118.902 288.416C119.077 288.107 119.165 287.799 119.165 287.49C119.165 287.084 119.05 286.756 118.82 286.506C118.593 286.256 118.286 286.131 117.9 286.131C117.439 286.131 117.081 286.271 116.827 286.553C116.573 286.834 116.447 287.219 116.447 287.707H115.023C115.023 287.188 115.14 286.721 115.374 286.307C115.613 285.889 115.95 285.564 116.388 285.334C116.829 285.104 117.337 284.988 117.911 284.988C118.74 284.988 119.392 285.197 119.868 285.615C120.349 286.029 120.589 286.604 120.589 287.338C120.589 287.764 120.468 288.211 120.226 288.68C119.988 289.145 119.595 289.674 119.048 290.268L116.962 292.5H120.923V293.637Z" fill="black"/>
<path opacity="0.6" d="M149.202 290.045C149.202 291.271 148.971 292.197 148.51 292.822C148.053 293.443 147.356 293.754 146.418 293.754C145.497 293.754 144.801 293.451 144.333 292.846C143.868 292.236 143.629 291.336 143.618 290.145V288.668C143.618 287.441 143.846 286.521 144.303 285.908C144.764 285.295 145.465 284.988 146.407 284.988C147.34 284.988 148.036 285.287 148.493 285.885C148.954 286.482 149.19 287.377 149.202 288.568V290.045ZM147.778 288.451C147.778 287.65 147.668 287.064 147.45 286.693C147.231 286.318 146.883 286.131 146.407 286.131C145.942 286.131 145.6 286.309 145.381 286.664C145.163 287.016 145.047 287.566 145.036 288.316V290.25C145.036 291.047 145.147 291.641 145.37 292.031C145.592 292.422 145.942 292.617 146.418 292.617C146.875 292.617 147.213 292.438 147.432 292.078C147.651 291.715 147.766 291.148 147.778 290.379V288.451ZM152.108 288.721H152.975C153.413 288.717 153.758 288.604 154.012 288.381C154.27 288.158 154.399 287.836 154.399 287.414C154.399 287.008 154.292 286.693 154.077 286.471C153.866 286.244 153.542 286.131 153.104 286.131C152.721 286.131 152.407 286.242 152.161 286.465C151.915 286.684 151.792 286.971 151.792 287.326H150.368C150.368 286.889 150.483 286.49 150.713 286.131C150.948 285.771 151.272 285.492 151.686 285.293C152.104 285.09 152.571 284.988 153.086 284.988C153.938 284.988 154.606 285.203 155.09 285.633C155.579 286.059 155.823 286.652 155.823 287.414C155.823 287.797 155.7 288.158 155.454 288.498C155.211 288.834 154.897 289.088 154.51 289.26C154.979 289.42 155.334 289.672 155.577 290.016C155.823 290.359 155.946 290.77 155.946 291.246C155.946 292.012 155.682 292.621 155.155 293.074C154.631 293.527 153.942 293.754 153.086 293.754C152.266 293.754 151.594 293.535 151.071 293.098C150.547 292.66 150.286 292.078 150.286 291.352H151.709C151.709 291.727 151.834 292.031 152.084 292.266C152.338 292.5 152.678 292.617 153.104 292.617C153.545 292.617 153.893 292.5 154.147 292.266C154.401 292.031 154.528 291.691 154.528 291.246C154.528 290.797 154.395 290.451 154.129 290.209C153.864 289.967 153.469 289.846 152.946 289.846H152.108V288.721Z" fill="black"/>
<path opacity="0.6" d="M183.771 290.045C183.771 291.271 183.541 292.197 183.08 292.822C182.623 293.443 181.925 293.754 180.988 293.754C180.066 293.754 179.371 293.451 178.902 292.846C178.437 292.236 178.199 291.336 178.187 290.145V288.668C178.187 287.441 178.416 286.521 178.873 285.908C179.333 285.295 180.035 284.988 180.976 284.988C181.91 284.988 182.605 285.287 183.062 285.885C183.523 286.482 183.759 287.377 183.771 288.568V290.045ZM182.347 288.451C182.347 287.65 182.238 287.064 182.019 286.693C181.8 286.318 181.453 286.131 180.976 286.131C180.511 286.131 180.169 286.309 179.951 286.664C179.732 287.016 179.617 287.566 179.605 288.316V290.25C179.605 291.047 179.716 291.641 179.939 292.031C180.162 292.422 180.511 292.617 180.988 292.617C181.445 292.617 181.783 292.438 182.001 292.078C182.22 291.715 182.335 291.148 182.347 290.379V288.451ZM189.847 290.596H190.908V291.738H189.847V293.637H188.423V291.738H184.738L184.697 290.871L188.376 285.105H189.847V290.596ZM186.191 290.596H188.423V287.033L188.318 287.221L186.191 290.596Z" fill="black"/>
<path opacity="0.6" d="M219.045 290.045C219.045 291.271 218.815 292.197 218.354 292.822C217.897 293.443 217.2 293.754 216.262 293.754C215.34 293.754 214.645 293.451 214.176 292.846C213.711 292.236 213.473 291.336 213.461 290.145V288.668C213.461 287.441 213.69 286.521 214.147 285.908C214.608 285.295 215.309 284.988 216.25 284.988C217.184 284.988 217.879 285.287 218.336 285.885C218.797 286.482 219.034 287.377 219.045 288.568V290.045ZM217.622 288.451C217.622 287.65 217.512 287.064 217.293 286.693C217.075 286.318 216.727 286.131 216.25 286.131C215.786 286.131 215.444 286.309 215.225 286.664C215.006 287.016 214.891 287.566 214.879 288.316V290.25C214.879 291.047 214.991 291.641 215.213 292.031C215.436 292.422 215.786 292.617 216.262 292.617C216.719 292.617 217.057 292.438 217.276 292.078C217.495 291.715 217.61 291.148 217.622 290.379V288.451ZM220.686 289.406L221.149 285.105H225.731V286.336H222.333L222.098 288.375C222.493 288.148 222.938 288.035 223.434 288.035C224.247 288.035 224.877 288.295 225.327 288.814C225.78 289.334 226.006 290.033 226.006 290.912C226.006 291.779 225.756 292.471 225.256 292.986C224.756 293.498 224.071 293.754 223.2 293.754C222.418 293.754 221.77 293.533 221.254 293.092C220.743 292.646 220.465 292.061 220.422 291.334H221.799C221.854 291.748 222.002 292.066 222.245 292.289C222.487 292.508 222.803 292.617 223.194 292.617C223.631 292.617 223.971 292.461 224.213 292.148C224.459 291.836 224.583 291.41 224.583 290.871C224.583 290.352 224.448 289.941 224.178 289.641C223.909 289.336 223.538 289.184 223.065 289.184C222.807 289.184 222.588 289.219 222.409 289.289C222.229 289.355 222.034 289.488 221.823 289.688L220.686 289.406Z" fill="black"/>
<path opacity="0.6" d="M254.32 290.045C254.32 291.271 254.09 292.197 253.629 292.822C253.172 293.443 252.475 293.754 251.537 293.754C250.615 293.754 249.92 293.451 249.451 292.846C248.986 292.236 248.748 291.336 248.736 290.145V288.668C248.736 287.441 248.965 286.521 249.422 285.908C249.883 285.295 250.584 284.988 251.525 284.988C252.459 284.988 253.154 285.287 253.611 285.885C254.072 286.482 254.309 287.377 254.32 288.568V290.045ZM252.896 288.451C252.896 287.65 252.787 287.064 252.568 286.693C252.35 286.318 252.002 286.131 251.525 286.131C251.061 286.131 250.719 286.309 250.5 286.664C250.281 287.016 250.166 287.566 250.154 288.316V290.25C250.154 291.047 250.266 291.641 250.488 292.031C250.711 292.422 251.061 292.617 251.537 292.617C251.994 292.617 252.332 292.438 252.551 292.078C252.77 291.715 252.885 291.148 252.896 290.379V288.451ZM260.01 285.064V286.242H259.834C259.037 286.254 258.4 286.473 257.924 286.898C257.447 287.324 257.164 287.928 257.074 288.709C257.531 288.229 258.115 287.988 258.826 287.988C259.58 287.988 260.174 288.254 260.607 288.785C261.045 289.316 261.264 290.002 261.264 290.842C261.264 291.709 261.008 292.412 260.496 292.951C259.988 293.486 259.32 293.754 258.492 293.754C257.641 293.754 256.949 293.439 256.418 292.811C255.891 292.182 255.627 291.357 255.627 290.338V289.852C255.627 288.355 255.99 287.184 256.717 286.336C257.447 285.488 258.496 285.064 259.863 285.064H260.01ZM258.48 289.137C258.168 289.137 257.881 289.225 257.619 289.4C257.361 289.576 257.172 289.811 257.051 290.104V290.537C257.051 291.17 257.184 291.674 257.449 292.049C257.715 292.42 258.059 292.605 258.48 292.605C258.902 292.605 259.236 292.447 259.482 292.131C259.729 291.814 259.852 291.398 259.852 290.883C259.852 290.367 259.727 289.947 259.477 289.623C259.227 289.299 258.895 289.137 258.48 289.137Z" fill="black"/>
<path opacity="0.6" d="M231.468 299.105L233.929 305.645L236.384 299.105H238.3V307.637H236.823V304.824L236.97 301.062L234.45 307.637H233.39L230.876 301.068L231.022 304.824V307.637H229.546V299.105H231.468ZM239.653 304.408C239.653 303.787 239.776 303.229 240.022 302.732C240.269 302.232 240.614 301.85 241.06 301.584C241.505 301.314 242.017 301.18 242.595 301.18C243.45 301.18 244.144 301.455 244.675 302.006C245.21 302.557 245.499 303.287 245.542 304.197L245.548 304.531C245.548 305.156 245.427 305.715 245.185 306.207C244.946 306.699 244.602 307.08 244.153 307.35C243.708 307.619 243.192 307.754 242.606 307.754C241.712 307.754 240.995 307.457 240.456 306.863C239.921 306.266 239.653 305.471 239.653 304.479V304.408ZM241.077 304.531C241.077 305.184 241.212 305.695 241.481 306.066C241.751 306.434 242.126 306.617 242.606 306.617C243.087 306.617 243.46 306.43 243.726 306.055C243.995 305.68 244.13 305.131 244.13 304.408C244.13 303.768 243.991 303.26 243.714 302.885C243.44 302.51 243.067 302.322 242.595 302.322C242.13 302.322 241.761 302.508 241.487 302.879C241.214 303.246 241.077 303.797 241.077 304.531ZM248.073 301.297L248.114 302.029C248.583 301.463 249.198 301.18 249.96 301.18C251.28 301.18 251.952 301.936 251.976 303.447V307.637H250.552V303.529C250.552 303.127 250.464 302.83 250.288 302.639C250.116 302.443 249.833 302.346 249.438 302.346C248.864 302.346 248.436 302.605 248.155 303.125V307.637H246.731V301.297H248.073ZM255.216 299.756V301.297H256.335V302.352H255.216V305.891C255.216 306.133 255.263 306.309 255.356 306.418C255.454 306.523 255.626 306.576 255.872 306.576C256.036 306.576 256.202 306.557 256.37 306.518V307.619C256.046 307.709 255.733 307.754 255.433 307.754C254.339 307.754 253.792 307.15 253.792 305.943V302.352H252.749V301.297H253.792V299.756H255.216ZM258.831 301.988C259.296 301.449 259.884 301.18 260.595 301.18C261.946 301.18 262.632 301.951 262.651 303.494V307.637H261.227V303.547C261.227 303.109 261.132 302.801 260.94 302.621C260.753 302.438 260.476 302.346 260.108 302.346C259.538 302.346 259.112 302.6 258.831 303.107V307.637H257.407V298.637H258.831V301.988Z" fill="black"/>
<rect x="71.4133" y="213.21" width="2.82198" height="62.834" rx="1" fill="#0C213A"/>
<rect x="77.7627" y="237.92" width="2.82198" height="38.124" rx="1" fill="#F8B849"/>
<rect x="84.1123" y="206.15" width="2.82198" height="69.894" rx="1" fill="#00A560"/>
<rect x="90.4617" y="216.034" width="2.82198" height="60.01" rx="1" fill="#DB0E00"/>
<rect x="107.393" y="254.864" width="2.82198" height="21.18" rx="1" fill="#0C213A"/>
<rect x="113.743" y="208.268" width="2.82198" height="67.776" rx="1" fill="#F8B849"/>
<rect x="120.092" y="154.612" width="2.82198" height="121.432" rx="1" fill="#00A560"/>
<rect x="126.442" y="254.864" width="2.82198" height="21.18" rx="1" fill="#DB0E00"/>
<rect x="142.668" y="268.278" width="2.82198" height="7.766" rx="1" fill="#0C213A"/>
<rect x="149.018" y="247.804" width="2.82198" height="28.24" rx="1" fill="#F8B849"/>
<rect x="155.367" y="227.33" width="2.82198" height="48.714" rx="1" fill="#00A560"/>
<rect x="161.717" y="179.322" width="2.82198" height="96.722" rx="1" fill="#DB0E00"/>
<rect x="177.238" y="234.39" width="2.82198" height="41.654" rx="1" fill="#0C213A"/>
<rect x="183.587" y="208.268" width="2.82199" height="67.776" rx="1" fill="#F8B849"/>
<rect x="189.937" y="194.854" width="2.82198" height="81.19" rx="1" fill="#00A560"/>
<rect x="196.286" y="244.98" width="2.82198" height="31.064" rx="1" fill="#DB0E00"/>
<rect x="211.807" y="199.09" width="2.82196" height="76.954" rx="1" fill="#0C213A"/>
<rect x="218.156" y="235.802" width="2.82198" height="40.242" rx="1" fill="#F8B849"/>
<rect x="224.506" y="216.74" width="2.82196" height="59.304" rx="1" fill="#00A560"/>
<rect x="230.855" y="268.278" width="2.82199" height="7.766" rx="1" fill="#DB0E00"/>
<rect x="246.376" y="234.39" width="2.82196" height="41.654" rx="1" fill="#0C213A"/>
<rect x="252.725" y="256.982" width="2.82199" height="19.062" rx="1" fill="#F8B849"/>
<rect x="259.075" y="235.096" width="2.82196" height="40.948" rx="1" fill="#00A560"/>
<rect x="265.424" y="225.212" width="2.82199" height="50.832" rx="1" fill="#DB0E00"/>
</g>
<g clip-path="url(#clip3_33_835)">
<rect x="62.9473" y="321.934" width="7.05495" height="7.06" rx="1" fill="#0C213A"/>
<path d="M77.0337 325.719C76.0688 325.442 75.3657 325.102 74.9243 324.7C74.4868 324.293 74.2681 323.793 74.2681 323.2C74.2681 322.528 74.5356 321.973 75.0708 321.536C75.6099 321.094 76.3091 320.874 77.1685 320.874C77.7544 320.874 78.2759 320.987 78.7329 321.213C79.1938 321.44 79.5493 321.752 79.7993 322.151C80.0532 322.549 80.1802 322.985 80.1802 323.458H79.0493C79.0493 322.942 78.8853 322.538 78.5571 322.245C78.229 321.948 77.7661 321.799 77.1685 321.799C76.6138 321.799 76.1802 321.922 75.8677 322.168C75.5591 322.411 75.4048 322.749 75.4048 323.182C75.4048 323.53 75.5513 323.825 75.8442 324.067C76.1411 324.305 76.6431 324.524 77.3501 324.723C78.061 324.922 78.6157 325.143 79.0142 325.385C79.4165 325.624 79.7134 325.903 79.9048 326.223C80.1001 326.543 80.1978 326.92 80.1978 327.354C80.1978 328.045 79.9282 328.6 79.3892 329.018C78.8501 329.432 78.1294 329.639 77.2271 329.639C76.6411 329.639 76.0942 329.528 75.5864 329.305C75.0786 329.079 74.686 328.77 74.4087 328.379C74.1353 327.989 73.9985 327.545 73.9985 327.049H75.1294C75.1294 327.565 75.3188 327.973 75.6978 328.274C76.0806 328.571 76.5903 328.719 77.2271 328.719C77.8208 328.719 78.2759 328.598 78.5923 328.356C78.9087 328.114 79.0669 327.784 79.0669 327.366C79.0669 326.948 78.9204 326.625 78.6274 326.399C78.3345 326.168 77.8032 325.942 77.0337 325.719ZM82.9458 321.647V323.182H84.1294V324.02H82.9458V327.952C82.9458 328.206 82.9985 328.397 83.104 328.526C83.2095 328.651 83.3892 328.713 83.6431 328.713C83.7681 328.713 83.9399 328.69 84.1587 328.643V329.522C83.8735 329.6 83.5962 329.639 83.3267 329.639C82.8423 329.639 82.4771 329.493 82.231 329.2C81.9849 328.907 81.8618 328.491 81.8618 327.952V324.02H80.7075V323.182H81.8618V321.647H82.9458ZM84.9966 326.293C84.9966 325.672 85.1177 325.114 85.3599 324.618C85.606 324.122 85.9458 323.739 86.3794 323.469C86.8169 323.2 87.3149 323.065 87.8735 323.065C88.7368 323.065 89.4341 323.364 89.9653 323.961C90.5005 324.559 90.7681 325.354 90.7681 326.346V326.422C90.7681 327.04 90.6489 327.594 90.4106 328.086C90.1763 328.575 89.8384 328.956 89.397 329.229C88.9595 329.502 88.4556 329.639 87.8853 329.639C87.0259 329.639 86.3286 329.34 85.7935 328.743C85.2622 328.145 84.9966 327.354 84.9966 326.37V326.293ZM86.0864 326.422C86.0864 327.125 86.2485 327.69 86.5728 328.116C86.9009 328.542 87.3384 328.754 87.8853 328.754C88.436 328.754 88.8735 328.54 89.1978 328.11C89.522 327.676 89.6841 327.071 89.6841 326.293C89.6841 325.598 89.5181 325.036 89.186 324.606C88.8579 324.172 88.4204 323.956 87.8735 323.956C87.3384 323.956 86.9067 324.168 86.5786 324.594C86.2505 325.02 86.0864 325.629 86.0864 326.422ZM95.1919 324.155C95.0278 324.127 94.8501 324.114 94.6587 324.114C93.9478 324.114 93.4653 324.417 93.2114 325.022V329.522H92.1274V323.182H93.1821L93.1997 323.915C93.5552 323.348 94.0591 323.065 94.7114 323.065C94.9224 323.065 95.0825 323.092 95.1919 323.147V324.155ZM98.7075 329.639C97.8481 329.639 97.1489 329.358 96.6099 328.795C96.0708 328.229 95.8013 327.473 95.8013 326.528V326.329C95.8013 325.7 95.9204 325.139 96.1587 324.647C96.4009 324.151 96.7368 323.764 97.1665 323.487C97.6001 323.206 98.0688 323.065 98.5728 323.065C99.397 323.065 100.038 323.336 100.495 323.879C100.952 324.422 101.18 325.2 101.18 326.211V326.663H96.8853C96.9009 327.288 97.0825 327.793 97.4302 328.18C97.7817 328.563 98.2271 328.754 98.7661 328.754C99.1489 328.754 99.4731 328.676 99.7388 328.52C100.004 328.364 100.237 328.157 100.436 327.899L101.098 328.415C100.567 329.231 99.77 329.639 98.7075 329.639ZM98.5728 323.956C98.1353 323.956 97.7681 324.116 97.4712 324.436C97.1743 324.752 96.9907 325.198 96.9204 325.772H100.096V325.69C100.065 325.139 99.9165 324.713 99.6509 324.413C99.3853 324.108 99.0259 323.956 98.5728 323.956ZM75.3755 337.182L75.4106 337.979C75.895 337.37 76.5278 337.065 77.3091 337.065C78.6489 337.065 79.3247 337.821 79.3364 339.333V343.522H78.2524V339.327C78.2485 338.87 78.1431 338.532 77.936 338.313C77.7329 338.094 77.4146 337.985 76.981 337.985C76.6294 337.985 76.3208 338.079 76.0552 338.266C75.7896 338.454 75.5825 338.7 75.4341 339.004V343.522H74.3501V337.182H75.3755ZM84.8853 343.522C84.8228 343.397 84.772 343.174 84.7329 342.854C84.229 343.377 83.6274 343.639 82.9282 343.639C82.3032 343.639 81.7896 343.463 81.3872 343.112C80.9888 342.756 80.7896 342.307 80.7896 341.764C80.7896 341.104 81.0396 340.592 81.5396 340.229C82.0435 339.862 82.7505 339.678 83.6606 339.678H84.7153V339.18C84.7153 338.801 84.6021 338.5 84.3755 338.278C84.1489 338.051 83.8149 337.938 83.3735 337.938C82.9868 337.938 82.6626 338.036 82.4009 338.231C82.1392 338.426 82.0083 338.663 82.0083 338.94H80.9185C80.9185 338.624 81.0298 338.319 81.2524 338.026C81.479 337.729 81.7837 337.495 82.1665 337.323C82.5532 337.151 82.9771 337.065 83.438 337.065C84.1685 337.065 84.7407 337.249 85.1548 337.616C85.5688 337.979 85.7837 338.481 85.7993 339.122V342.04C85.7993 342.622 85.8735 343.084 86.022 343.428V343.522H84.8853ZM83.0864 342.696C83.4263 342.696 83.7485 342.608 84.0532 342.432C84.3579 342.256 84.5786 342.028 84.7153 341.747V340.446H83.8657C82.5376 340.446 81.8735 340.834 81.8735 341.612C81.8735 341.952 81.9868 342.217 82.2134 342.409C82.4399 342.6 82.731 342.696 83.0864 342.696ZM88.5181 337.182L88.5474 337.885C89.0122 337.338 89.6392 337.065 90.4282 337.065C91.3149 337.065 91.9185 337.405 92.2388 338.084C92.4497 337.78 92.7231 337.534 93.0591 337.346C93.3989 337.159 93.7993 337.065 94.2603 337.065C95.6509 337.065 96.3579 337.801 96.3813 339.274V343.522H95.2974V339.338C95.2974 338.885 95.1938 338.547 94.9868 338.325C94.7798 338.098 94.4321 337.985 93.9438 337.985C93.5415 337.985 93.2075 338.106 92.9419 338.348C92.6763 338.586 92.522 338.909 92.479 339.315V343.522H91.3892V339.368C91.3892 338.446 90.938 337.985 90.0356 337.985C89.3247 337.985 88.8384 338.288 88.5767 338.893V343.522H87.4927V337.182H88.5181ZM100.653 343.639C99.7935 343.639 99.0942 343.358 98.5552 342.795C98.0161 342.229 97.7466 341.473 97.7466 340.528V340.329C97.7466 339.7 97.8657 339.139 98.104 338.647C98.3462 338.151 98.6821 337.764 99.1118 337.487C99.5454 337.206 100.014 337.065 100.518 337.065C101.342 337.065 101.983 337.336 102.44 337.879C102.897 338.422 103.125 339.2 103.125 340.211V340.663H98.8306C98.8462 341.288 99.0278 341.793 99.3755 342.18C99.7271 342.563 100.172 342.754 100.711 342.754C101.094 342.754 101.418 342.676 101.684 342.52C101.95 342.364 102.182 342.157 102.381 341.899L103.043 342.415C102.512 343.231 101.715 343.639 100.653 343.639ZM100.518 337.956C100.081 337.956 99.7134 338.116 99.4165 338.436C99.1196 338.752 98.936 339.198 98.8657 339.772H102.042V339.69C102.01 339.139 101.862 338.713 101.596 338.413C101.331 338.108 100.971 337.956 100.518 337.956ZM110.813 343.522H109.723V336.297L107.538 337.1V336.116L110.643 334.95H110.813V343.522Z" fill="black"/>
</g>
<g clip-path="url(#clip4_33_835)">
<rect x="179.354" y="321.934" width="7.05494" height="7.06" rx="1" fill="#F8B849"/>
<path d="M193.44 325.719C192.476 325.442 191.772 325.102 191.331 324.7C190.894 324.293 190.675 323.793 190.675 323.2C190.675 322.528 190.942 321.973 191.478 321.536C192.017 321.094 192.716 320.874 193.575 320.874C194.161 320.874 194.683 320.987 195.14 321.213C195.601 321.44 195.956 321.752 196.206 322.151C196.46 322.549 196.587 322.985 196.587 323.458H195.456C195.456 322.942 195.292 322.538 194.964 322.245C194.636 321.948 194.173 321.799 193.575 321.799C193.021 321.799 192.587 321.922 192.274 322.168C191.966 322.411 191.812 322.749 191.812 323.182C191.812 323.53 191.958 323.825 192.251 324.067C192.548 324.305 193.05 324.524 193.757 324.723C194.468 324.922 195.022 325.143 195.421 325.385C195.823 325.624 196.12 325.903 196.312 326.223C196.507 326.543 196.604 326.92 196.604 327.354C196.604 328.045 196.335 328.6 195.796 329.018C195.257 329.432 194.536 329.639 193.634 329.639C193.048 329.639 192.501 329.528 191.993 329.305C191.485 329.079 191.093 328.77 190.815 328.379C190.542 327.989 190.405 327.545 190.405 327.049H191.536C191.536 327.565 191.726 327.973 192.104 328.274C192.487 328.571 192.997 328.719 193.634 328.719C194.228 328.719 194.683 328.598 194.999 328.356C195.315 328.114 195.474 327.784 195.474 327.366C195.474 326.948 195.327 326.625 195.034 326.399C194.741 326.168 194.21 325.942 193.44 325.719ZM199.353 321.647V323.182H200.536V324.02H199.353V327.952C199.353 328.206 199.405 328.397 199.511 328.526C199.616 328.651 199.796 328.713 200.05 328.713C200.175 328.713 200.347 328.69 200.565 328.643V329.522C200.28 329.6 200.003 329.639 199.733 329.639C199.249 329.639 198.884 329.493 198.638 329.2C198.392 328.907 198.269 328.491 198.269 327.952V324.02H197.114V323.182H198.269V321.647H199.353ZM201.403 326.293C201.403 325.672 201.524 325.114 201.767 324.618C202.013 324.122 202.353 323.739 202.786 323.469C203.224 323.2 203.722 323.065 204.28 323.065C205.144 323.065 205.841 323.364 206.372 323.961C206.907 324.559 207.175 325.354 207.175 326.346V326.422C207.175 327.04 207.056 327.594 206.817 328.086C206.583 328.575 206.245 328.956 205.804 329.229C205.366 329.502 204.862 329.639 204.292 329.639C203.433 329.639 202.735 329.34 202.2 328.743C201.669 328.145 201.403 327.354 201.403 326.37V326.293ZM202.493 326.422C202.493 327.125 202.655 327.69 202.979 328.116C203.308 328.542 203.745 328.754 204.292 328.754C204.843 328.754 205.28 328.54 205.604 328.11C205.929 327.676 206.091 327.071 206.091 326.293C206.091 325.598 205.925 325.036 205.593 324.606C205.265 324.172 204.827 323.956 204.28 323.956C203.745 323.956 203.313 324.168 202.985 324.594C202.657 325.02 202.493 325.629 202.493 326.422ZM211.599 324.155C211.435 324.127 211.257 324.114 211.065 324.114C210.354 324.114 209.872 324.417 209.618 325.022V329.522H208.534V323.182H209.589L209.606 323.915C209.962 323.348 210.466 323.065 211.118 323.065C211.329 323.065 211.489 323.092 211.599 323.147V324.155ZM215.114 329.639C214.255 329.639 213.556 329.358 213.017 328.795C212.478 328.229 212.208 327.473 212.208 326.528V326.329C212.208 325.7 212.327 325.139 212.565 324.647C212.808 324.151 213.144 323.764 213.573 323.487C214.007 323.206 214.476 323.065 214.979 323.065C215.804 323.065 216.444 323.336 216.901 323.879C217.358 324.422 217.587 325.2 217.587 326.211V326.663H213.292C213.308 327.288 213.489 327.793 213.837 328.18C214.188 328.563 214.634 328.754 215.173 328.754C215.556 328.754 215.88 328.676 216.146 328.52C216.411 328.364 216.644 328.157 216.843 327.899L217.505 328.415C216.974 329.231 216.177 329.639 215.114 329.639ZM214.979 323.956C214.542 323.956 214.175 324.116 213.878 324.436C213.581 324.752 213.397 325.198 213.327 325.772H216.503V325.69C216.472 325.139 216.323 324.713 216.058 324.413C215.792 324.108 215.433 323.956 214.979 323.956ZM191.782 337.182L191.817 337.979C192.302 337.37 192.935 337.065 193.716 337.065C195.056 337.065 195.731 337.821 195.743 339.333V343.522H194.659V339.327C194.655 338.87 194.55 338.532 194.343 338.313C194.14 338.094 193.821 337.985 193.388 337.985C193.036 337.985 192.728 338.079 192.462 338.266C192.196 338.454 191.989 338.7 191.841 339.004V343.522H190.757V337.182H191.782ZM201.292 343.522C201.229 343.397 201.179 343.174 201.14 342.854C200.636 343.377 200.034 343.639 199.335 343.639C198.71 343.639 198.196 343.463 197.794 343.112C197.396 342.756 197.196 342.307 197.196 341.764C197.196 341.104 197.446 340.592 197.946 340.229C198.45 339.862 199.157 339.678 200.067 339.678H201.122V339.18C201.122 338.801 201.009 338.5 200.782 338.278C200.556 338.051 200.222 337.938 199.78 337.938C199.394 337.938 199.069 338.036 198.808 338.231C198.546 338.426 198.415 338.663 198.415 338.94H197.325C197.325 338.624 197.437 338.319 197.659 338.026C197.886 337.729 198.19 337.495 198.573 337.323C198.96 337.151 199.384 337.065 199.845 337.065C200.575 337.065 201.147 337.249 201.562 337.616C201.976 337.979 202.19 338.481 202.206 339.122V342.04C202.206 342.622 202.28 343.084 202.429 343.428V343.522H201.292ZM199.493 342.696C199.833 342.696 200.155 342.608 200.46 342.432C200.765 342.256 200.985 342.028 201.122 341.747V340.446H200.272C198.944 340.446 198.28 340.834 198.28 341.612C198.28 341.952 198.394 342.217 198.62 342.409C198.847 342.6 199.138 342.696 199.493 342.696ZM204.925 337.182L204.954 337.885C205.419 337.338 206.046 337.065 206.835 337.065C207.722 337.065 208.325 337.405 208.646 338.084C208.856 337.78 209.13 337.534 209.466 337.346C209.806 337.159 210.206 337.065 210.667 337.065C212.058 337.065 212.765 337.801 212.788 339.274V343.522H211.704V339.338C211.704 338.885 211.601 338.547 211.394 338.325C211.187 338.098 210.839 337.985 210.351 337.985C209.948 337.985 209.614 338.106 209.349 338.348C209.083 338.586 208.929 338.909 208.886 339.315V343.522H207.796V339.368C207.796 338.446 207.345 337.985 206.442 337.985C205.731 337.985 205.245 338.288 204.983 338.893V343.522H203.899V337.182H204.925ZM217.06 343.639C216.2 343.639 215.501 343.358 214.962 342.795C214.423 342.229 214.153 341.473 214.153 340.528V340.329C214.153 339.7 214.272 339.139 214.511 338.647C214.753 338.151 215.089 337.764 215.519 337.487C215.952 337.206 216.421 337.065 216.925 337.065C217.749 337.065 218.39 337.336 218.847 337.879C219.304 338.422 219.532 339.2 219.532 340.211V340.663H215.237C215.253 341.288 215.435 341.793 215.782 342.18C216.134 342.563 216.579 342.754 217.118 342.754C217.501 342.754 217.825 342.676 218.091 342.52C218.356 342.364 218.589 342.157 218.788 341.899L219.45 342.415C218.919 343.231 218.122 343.639 217.06 343.639ZM216.925 337.956C216.487 337.956 216.12 338.116 215.823 338.436C215.526 338.752 215.343 339.198 215.272 339.772H218.448V339.69C218.417 339.139 218.269 338.713 218.003 338.413C217.737 338.108 217.378 337.956 216.925 337.956ZM229.247 343.522H223.657V342.743L226.61 339.461C227.048 338.965 227.349 338.563 227.513 338.254C227.681 337.942 227.765 337.62 227.765 337.288C227.765 336.842 227.63 336.477 227.36 336.192C227.091 335.907 226.731 335.764 226.282 335.764C225.743 335.764 225.323 335.918 225.022 336.227C224.726 336.532 224.577 336.958 224.577 337.504H223.493C223.493 336.719 223.745 336.084 224.249 335.6C224.757 335.116 225.435 334.874 226.282 334.874C227.075 334.874 227.702 335.083 228.163 335.5C228.624 335.915 228.854 336.467 228.854 337.159C228.854 337.999 228.319 338.999 227.249 340.159L224.964 342.637H229.247V343.522Z" fill="black"/>
</g>
<g clip-path="url(#clip5_33_835)">
<rect x="62.9473" y="338.878" width="7.05495" height="7.05998" rx="1" fill="#00A560"/>
<path d="M77.0337 342.663C76.0688 342.386 75.3657 342.046 74.9243 341.644C74.4868 341.238 74.2681 340.738 74.2681 340.144C74.2681 339.472 74.5356 338.917 75.0708 338.48C75.6099 338.038 76.3091 337.818 77.1685 337.818C77.7544 337.818 78.2759 337.931 78.7329 338.157C79.1938 338.384 79.5493 338.697 79.7993 339.095C80.0532 339.493 80.1802 339.929 80.1802 340.402H79.0493C79.0493 339.886 78.8853 339.482 78.5571 339.189C78.229 338.892 77.7661 338.743 77.1685 338.743C76.6138 338.743 76.1802 338.866 75.8677 339.113C75.5591 339.355 75.4048 339.693 75.4048 340.126C75.4048 340.474 75.5513 340.769 75.8442 341.011C76.1411 341.249 76.6431 341.468 77.3501 341.667C78.061 341.866 78.6157 342.087 79.0142 342.329C79.4165 342.568 79.7134 342.847 79.9048 343.167C80.1001 343.488 80.1978 343.865 80.1978 344.298C80.1978 344.99 79.9282 345.544 79.3892 345.962C78.8501 346.376 78.1294 346.583 77.2271 346.583C76.6411 346.583 76.0942 346.472 75.5864 346.249C75.0786 346.023 74.686 345.714 74.4087 345.323C74.1353 344.933 73.9985 344.49 73.9985 343.993H75.1294C75.1294 344.509 75.3188 344.917 75.6978 345.218C76.0806 345.515 76.5903 345.663 77.2271 345.663C77.8208 345.663 78.2759 345.542 78.5923 345.3C78.9087 345.058 79.0669 344.728 79.0669 344.31C79.0669 343.892 78.9204 343.57 78.6274 343.343C78.3345 343.113 77.8032 342.886 77.0337 342.663ZM82.9458 338.591V340.126H84.1294V340.964H82.9458V344.896C82.9458 345.15 82.9985 345.341 83.104 345.47C83.2095 345.595 83.3892 345.657 83.6431 345.657C83.7681 345.657 83.9399 345.634 84.1587 345.587V346.466C83.8735 346.544 83.5962 346.583 83.3267 346.583C82.8423 346.583 82.4771 346.437 82.231 346.144C81.9849 345.851 81.8618 345.435 81.8618 344.896V340.964H80.7075V340.126H81.8618V338.591H82.9458ZM84.9966 343.238C84.9966 342.616 85.1177 342.058 85.3599 341.562C85.606 341.066 85.9458 340.683 86.3794 340.413C86.8169 340.144 87.3149 340.009 87.8735 340.009C88.7368 340.009 89.4341 340.308 89.9653 340.906C90.5005 341.503 90.7681 342.298 90.7681 343.29V343.366C90.7681 343.984 90.6489 344.538 90.4106 345.031C90.1763 345.519 89.8384 345.9 89.397 346.173C88.9595 346.447 88.4556 346.583 87.8853 346.583C87.0259 346.583 86.3286 346.284 85.7935 345.687C85.2622 345.089 84.9966 344.298 84.9966 343.314V343.238ZM86.0864 343.366C86.0864 344.07 86.2485 344.634 86.5728 345.06C86.9009 345.486 87.3384 345.698 87.8853 345.698C88.436 345.698 88.8735 345.484 89.1978 345.054C89.522 344.62 89.6841 344.015 89.6841 343.238C89.6841 342.542 89.5181 341.98 89.186 341.55C88.8579 341.116 88.4204 340.9 87.8735 340.9C87.3384 340.9 86.9067 341.113 86.5786 341.538C86.2505 341.964 86.0864 342.573 86.0864 343.366ZM95.1919 341.099C95.0278 341.072 94.8501 341.058 94.6587 341.058C93.9478 341.058 93.4653 341.361 93.2114 341.966V346.466H92.1274V340.126H93.1821L93.1997 340.859C93.5552 340.292 94.0591 340.009 94.7114 340.009C94.9224 340.009 95.0825 340.036 95.1919 340.091V341.099ZM98.7075 346.583C97.8481 346.583 97.1489 346.302 96.6099 345.74C96.0708 345.173 95.8013 344.417 95.8013 343.472V343.273C95.8013 342.644 95.9204 342.083 96.1587 341.591C96.4009 341.095 96.7368 340.708 97.1665 340.431C97.6001 340.15 98.0688 340.009 98.5728 340.009C99.397 340.009 100.038 340.281 100.495 340.823C100.952 341.366 101.18 342.144 101.18 343.156V343.607H96.8853C96.9009 344.232 97.0825 344.738 97.4302 345.124C97.7817 345.507 98.2271 345.698 98.7661 345.698C99.1489 345.698 99.4731 345.62 99.7388 345.464C100.004 345.308 100.237 345.101 100.436 344.843L101.098 345.359C100.567 346.175 99.77 346.583 98.7075 346.583ZM98.5728 340.9C98.1353 340.9 97.7681 341.06 97.4712 341.38C97.1743 341.697 96.9907 342.142 96.9204 342.716H100.096V342.634C100.065 342.083 99.9165 341.657 99.6509 341.357C99.3853 341.052 99.0259 340.9 98.5728 340.9ZM75.3755 354.126L75.4106 354.923C75.895 354.314 76.5278 354.009 77.3091 354.009C78.6489 354.009 79.3247 354.765 79.3364 356.277V360.466H78.2524V356.271C78.2485 355.814 78.1431 355.476 77.936 355.257C77.7329 355.038 77.4146 354.929 76.981 354.929C76.6294 354.929 76.3208 355.023 76.0552 355.21C75.7896 355.398 75.5825 355.644 75.4341 355.948V360.466H74.3501V354.126H75.3755ZM84.8853 360.466C84.8228 360.341 84.772 360.118 84.7329 359.798C84.229 360.322 83.6274 360.583 82.9282 360.583C82.3032 360.583 81.7896 360.407 81.3872 360.056C80.9888 359.7 80.7896 359.251 80.7896 358.708C80.7896 358.048 81.0396 357.536 81.5396 357.173C82.0435 356.806 82.7505 356.622 83.6606 356.622H84.7153V356.124C84.7153 355.745 84.6021 355.445 84.3755 355.222C84.1489 354.995 83.8149 354.882 83.3735 354.882C82.9868 354.882 82.6626 354.98 82.4009 355.175C82.1392 355.37 82.0083 355.607 82.0083 355.884H80.9185C80.9185 355.568 81.0298 355.263 81.2524 354.97C81.479 354.673 81.7837 354.439 82.1665 354.267C82.5532 354.095 82.9771 354.009 83.438 354.009C84.1685 354.009 84.7407 354.193 85.1548 354.56C85.5688 354.923 85.7837 355.425 85.7993 356.066V358.984C85.7993 359.566 85.8735 360.029 86.022 360.372V360.466H84.8853ZM83.0864 359.64C83.4263 359.64 83.7485 359.552 84.0532 359.376C84.3579 359.2 84.5786 358.972 84.7153 358.691V357.39H83.8657C82.5376 357.39 81.8735 357.779 81.8735 358.556C81.8735 358.896 81.9868 359.161 82.2134 359.353C82.4399 359.544 82.731 359.64 83.0864 359.64ZM88.5181 354.126L88.5474 354.829C89.0122 354.282 89.6392 354.009 90.4282 354.009C91.3149 354.009 91.9185 354.349 92.2388 355.029C92.4497 354.724 92.7231 354.478 93.0591 354.29C93.3989 354.103 93.7993 354.009 94.2603 354.009C95.6509 354.009 96.3579 354.745 96.3813 356.218V360.466H95.2974V356.282C95.2974 355.829 95.1938 355.491 94.9868 355.269C94.7798 355.042 94.4321 354.929 93.9438 354.929C93.5415 354.929 93.2075 355.05 92.9419 355.292C92.6763 355.531 92.522 355.853 92.479 356.259V360.466H91.3892V356.312C91.3892 355.39 90.938 354.929 90.0356 354.929C89.3247 354.929 88.8384 355.232 88.5767 355.837V360.466H87.4927V354.126H88.5181ZM100.653 360.583C99.7935 360.583 99.0942 360.302 98.5552 359.74C98.0161 359.173 97.7466 358.417 97.7466 357.472V357.273C97.7466 356.644 97.8657 356.083 98.104 355.591C98.3462 355.095 98.6821 354.708 99.1118 354.431C99.5454 354.15 100.014 354.009 100.518 354.009C101.342 354.009 101.983 354.281 102.44 354.823C102.897 355.366 103.125 356.144 103.125 357.156V357.607H98.8306C98.8462 358.232 99.0278 358.738 99.3755 359.124C99.7271 359.507 100.172 359.698 100.711 359.698C101.094 359.698 101.418 359.62 101.684 359.464C101.95 359.308 102.182 359.101 102.381 358.843L103.043 359.359C102.512 360.175 101.715 360.583 100.653 360.583ZM100.518 354.9C100.081 354.9 99.7134 355.06 99.4165 355.38C99.1196 355.697 98.936 356.142 98.8657 356.716H102.042V356.634C102.01 356.083 101.862 355.657 101.596 355.357C101.331 355.052 100.971 354.9 100.518 354.9ZM108.827 355.673H109.641C110.153 355.665 110.555 355.531 110.848 355.269C111.141 355.007 111.288 354.654 111.288 354.208C111.288 353.208 110.79 352.708 109.793 352.708C109.325 352.708 108.95 352.843 108.668 353.113C108.391 353.378 108.252 353.732 108.252 354.173H107.168C107.168 353.497 107.415 352.937 107.907 352.491C108.403 352.042 109.032 351.818 109.793 351.818C110.598 351.818 111.229 352.031 111.686 352.456C112.143 352.882 112.372 353.474 112.372 354.232C112.372 354.603 112.25 354.962 112.008 355.31C111.77 355.657 111.444 355.917 111.03 356.089C111.499 356.238 111.86 356.484 112.114 356.827C112.372 357.171 112.5 357.591 112.5 358.087C112.5 358.853 112.25 359.46 111.75 359.909C111.25 360.359 110.6 360.583 109.799 360.583C108.999 360.583 108.346 360.366 107.842 359.933C107.342 359.499 107.092 358.927 107.092 358.216H108.182C108.182 358.665 108.329 359.025 108.622 359.294C108.915 359.564 109.307 359.698 109.799 359.698C110.323 359.698 110.723 359.562 111 359.288C111.278 359.015 111.417 358.622 111.417 358.111C111.417 357.615 111.264 357.234 110.959 356.968C110.655 356.702 110.215 356.566 109.641 356.558H108.827V355.673Z" fill="black"/>
</g>
<g clip-path="url(#clip6_33_835)">
<rect x="179.354" y="338.878" width="7.05494" height="7.05998" rx="1" fill="#DB0E00"/>
<path d="M193.44 342.663C192.476 342.386 191.772 342.046 191.331 341.644C190.894 341.238 190.675 340.738 190.675 340.144C190.675 339.472 190.942 338.917 191.478 338.48C192.017 338.038 192.716 337.818 193.575 337.818C194.161 337.818 194.683 337.931 195.14 338.157C195.601 338.384 195.956 338.697 196.206 339.095C196.46 339.493 196.587 339.929 196.587 340.402H195.456C195.456 339.886 195.292 339.482 194.964 339.189C194.636 338.892 194.173 338.743 193.575 338.743C193.021 338.743 192.587 338.866 192.274 339.113C191.966 339.355 191.812 339.693 191.812 340.126C191.812 340.474 191.958 340.769 192.251 341.011C192.548 341.249 193.05 341.468 193.757 341.667C194.468 341.866 195.022 342.087 195.421 342.329C195.823 342.568 196.12 342.847 196.312 343.167C196.507 343.488 196.604 343.865 196.604 344.298C196.604 344.99 196.335 345.544 195.796 345.962C195.257 346.376 194.536 346.583 193.634 346.583C193.048 346.583 192.501 346.472 191.993 346.249C191.485 346.023 191.093 345.714 190.815 345.323C190.542 344.933 190.405 344.49 190.405 343.993H191.536C191.536 344.509 191.726 344.917 192.104 345.218C192.487 345.515 192.997 345.663 193.634 345.663C194.228 345.663 194.683 345.542 194.999 345.3C195.315 345.058 195.474 344.728 195.474 344.31C195.474 343.892 195.327 343.57 195.034 343.343C194.741 343.113 194.21 342.886 193.44 342.663ZM199.353 338.591V340.126H200.536V340.964H199.353V344.896C199.353 345.15 199.405 345.341 199.511 345.47C199.616 345.595 199.796 345.657 200.05 345.657C200.175 345.657 200.347 345.634 200.565 345.587V346.466C200.28 346.544 200.003 346.583 199.733 346.583C199.249 346.583 198.884 346.437 198.638 346.144C198.392 345.851 198.269 345.435 198.269 344.896V340.964H197.114V340.126H198.269V338.591H199.353ZM201.403 343.238C201.403 342.616 201.524 342.058 201.767 341.562C202.013 341.066 202.353 340.683 202.786 340.413C203.224 340.144 203.722 340.009 204.28 340.009C205.144 340.009 205.841 340.308 206.372 340.906C206.907 341.503 207.175 342.298 207.175 343.29V343.366C207.175 343.984 207.056 344.538 206.817 345.031C206.583 345.519 206.245 345.9 205.804 346.173C205.366 346.447 204.862 346.583 204.292 346.583C203.433 346.583 202.735 346.284 202.2 345.687C201.669 345.089 201.403 344.298 201.403 343.314V343.238ZM202.493 343.366C202.493 344.07 202.655 344.634 202.979 345.06C203.308 345.486 203.745 345.698 204.292 345.698C204.843 345.698 205.28 345.484 205.604 345.054C205.929 344.62 206.091 344.015 206.091 343.238C206.091 342.542 205.925 341.98 205.593 341.55C205.265 341.116 204.827 340.9 204.28 340.9C203.745 340.9 203.313 341.113 202.985 341.538C202.657 341.964 202.493 342.573 202.493 343.366ZM211.599 341.099C211.435 341.072 211.257 341.058 211.065 341.058C210.354 341.058 209.872 341.361 209.618 341.966V346.466H208.534V340.126H209.589L209.606 340.859C209.962 340.292 210.466 340.009 211.118 340.009C211.329 340.009 211.489 340.036 211.599 340.091V341.099ZM215.114 346.583C214.255 346.583 213.556 346.302 213.017 345.74C212.478 345.173 212.208 344.417 212.208 343.472V343.273C212.208 342.644 212.327 342.083 212.565 341.591C212.808 341.095 213.144 340.708 213.573 340.431C214.007 340.15 214.476 340.009 214.979 340.009C215.804 340.009 216.444 340.281 216.901 340.823C217.358 341.366 217.587 342.144 217.587 343.156V343.607H213.292C213.308 344.232 213.489 344.738 213.837 345.124C214.188 345.507 214.634 345.698 215.173 345.698C215.556 345.698 215.88 345.62 216.146 345.464C216.411 345.308 216.644 345.101 216.843 344.843L217.505 345.359C216.974 346.175 216.177 346.583 215.114 346.583ZM214.979 340.9C214.542 340.9 214.175 341.06 213.878 341.38C213.581 341.697 213.397 342.142 213.327 342.716H216.503V342.634C216.472 342.083 216.323 341.657 216.058 341.357C215.792 341.052 215.433 340.9 214.979 340.9ZM191.782 354.126L191.817 354.923C192.302 354.314 192.935 354.009 193.716 354.009C195.056 354.009 195.731 354.765 195.743 356.277V360.466H194.659V356.271C194.655 355.814 194.55 355.476 194.343 355.257C194.14 355.038 193.821 354.929 193.388 354.929C193.036 354.929 192.728 355.023 192.462 355.21C192.196 355.398 191.989 355.644 191.841 355.948V360.466H190.757V354.126H191.782ZM201.292 360.466C201.229 360.341 201.179 360.118 201.14 359.798C200.636 360.322 200.034 360.583 199.335 360.583C198.71 360.583 198.196 360.407 197.794 360.056C197.396 359.7 197.196 359.251 197.196 358.708C197.196 358.048 197.446 357.536 197.946 357.173C198.45 356.806 199.157 356.622 200.067 356.622H201.122V356.124C201.122 355.745 201.009 355.445 200.782 355.222C200.556 354.995 200.222 354.882 199.78 354.882C199.394 354.882 199.069 354.98 198.808 355.175C198.546 355.37 198.415 355.607 198.415 355.884H197.325C197.325 355.568 197.437 355.263 197.659 354.97C197.886 354.673 198.19 354.439 198.573 354.267C198.96 354.095 199.384 354.009 199.845 354.009C200.575 354.009 201.147 354.193 201.562 354.56C201.976 354.923 202.19 355.425 202.206 356.066V358.984C202.206 359.566 202.28 360.029 202.429 360.372V360.466H201.292ZM199.493 359.64C199.833 359.64 200.155 359.552 200.46 359.376C200.765 359.2 200.985 358.972 201.122 358.691V357.39H200.272C198.944 357.39 198.28 357.779 198.28 358.556C198.28 358.896 198.394 359.161 198.62 359.353C198.847 359.544 199.138 359.64 199.493 359.64ZM204.925 354.126L204.954 354.829C205.419 354.282 206.046 354.009 206.835 354.009C207.722 354.009 208.325 354.349 208.646 355.029C208.856 354.724 209.13 354.478 209.466 354.29C209.806 354.103 210.206 354.009 210.667 354.009C212.058 354.009 212.765 354.745 212.788 356.218V360.466H211.704V356.282C211.704 355.829 211.601 355.491 211.394 355.269C211.187 355.042 210.839 354.929 210.351 354.929C209.948 354.929 209.614 355.05 209.349 355.292C209.083 355.531 208.929 355.853 208.886 356.259V360.466H207.796V356.312C207.796 355.39 207.345 354.929 206.442 354.929C205.731 354.929 205.245 355.232 204.983 355.837V360.466H203.899V354.126H204.925ZM217.06 360.583C216.2 360.583 215.501 360.302 214.962 359.74C214.423 359.173 214.153 358.417 214.153 357.472V357.273C214.153 356.644 214.272 356.083 214.511 355.591C214.753 355.095 215.089 354.708 215.519 354.431C215.952 354.15 216.421 354.009 216.925 354.009C217.749 354.009 218.39 354.281 218.847 354.823C219.304 355.366 219.532 356.144 219.532 357.156V357.607H215.237C215.253 358.232 215.435 358.738 215.782 359.124C216.134 359.507 216.579 359.698 217.118 359.698C217.501 359.698 217.825 359.62 218.091 359.464C218.356 359.308 218.589 359.101 218.788 358.843L219.45 359.359C218.919 360.175 218.122 360.583 217.06 360.583ZM216.925 354.9C216.487 354.9 216.12 355.06 215.823 355.38C215.526 355.697 215.343 356.142 215.272 356.716H218.448V356.634C218.417 356.083 218.269 355.657 218.003 355.357C217.737 355.052 217.378 354.9 216.925 354.9ZM228.233 357.601H229.417V358.486H228.233V360.466H227.144V358.486H223.259V357.847L227.079 351.935H228.233V357.601ZM224.489 357.601H227.144V353.417L227.015 353.652L224.489 357.601Z" fill="black"/>
</g>
<path opacity="0.6" d="M40.4119 46.7041C40.4119 46.1416 40.2126 45.708 39.8142 45.4033C39.4216 45.0986 38.7097 44.791 37.6785 44.4805C36.6472 44.1699 35.8269 43.8242 35.2175 43.4434C34.0515 42.7109 33.4685 41.7559 33.4685 40.5781C33.4685 39.5469 33.8875 38.6973 34.7253 38.0293C35.5691 37.3613 36.6619 37.0273 38.0037 37.0273C38.8943 37.0273 39.6882 37.1914 40.3855 37.5195C41.0828 37.8477 41.6306 38.3164 42.0291 38.9258C42.4275 39.5293 42.6267 40.2002 42.6267 40.9385H40.4119C40.4119 40.2705 40.2009 39.749 39.7791 39.374C39.363 38.9932 38.7654 38.8027 37.9861 38.8027C37.2595 38.8027 36.6941 38.958 36.2898 39.2686C35.8914 39.5791 35.6921 40.0127 35.6921 40.5693C35.6921 41.0381 35.9089 41.4307 36.3425 41.7471C36.7761 42.0576 37.491 42.3623 38.4871 42.6611C39.4832 42.9541 40.283 43.291 40.8865 43.6719C41.49 44.0469 41.9324 44.4805 42.2136 44.9727C42.4949 45.459 42.6355 46.0303 42.6355 46.6865C42.6355 47.7529 42.2253 48.6025 41.405 49.2354C40.5906 49.8623 39.4832 50.1758 38.0828 50.1758C37.157 50.1758 36.3044 50.0059 35.5251 49.666C34.7517 49.3203 34.1482 48.8457 33.7146 48.2422C33.2869 47.6387 33.073 46.9355 33.073 46.1328H35.2966C35.2966 46.8594 35.5369 47.4219 36.0173 47.8203C36.4978 48.2188 37.1863 48.418 38.0828 48.418C38.8562 48.418 39.4363 48.2627 39.823 47.9521C40.2156 47.6357 40.4119 47.2197 40.4119 46.7041ZM51.7498 47.0205H46.7927L45.7556 50H43.4441L48.2781 37.2031H50.2732L55.116 50H52.7957L51.7498 47.0205ZM47.4167 45.2275H51.1257L49.2712 39.9189L47.4167 45.2275ZM58.7986 48.2246H64.6082V50H56.575V37.2031H58.7986V48.2246ZM73.7927 44.2871H68.5369V48.2246H74.6804V50H66.3132V37.2031H74.6189V38.9961H68.5369V42.5293H73.7927V44.2871ZM90.738 45.834C90.6091 47.1992 90.1052 48.2656 89.2263 49.0332C88.3474 49.7949 87.1785 50.1758 85.7195 50.1758C84.7 50.1758 83.8005 49.9355 83.0212 49.4551C82.2478 48.9688 81.6501 48.2803 81.2283 47.3896C80.8064 46.499 80.5867 45.4648 80.5691 44.2871V43.0918C80.5691 41.8848 80.783 40.8213 81.2107 39.9014C81.6384 38.9814 82.2507 38.2725 83.0476 37.7744C83.8503 37.2764 84.7761 37.0273 85.825 37.0273C87.2371 37.0273 88.3738 37.4111 89.2351 38.1787C90.0964 38.9463 90.5974 40.0303 90.738 41.4307H88.5232C88.4177 40.5107 88.1482 39.8486 87.7146 39.4443C87.2869 39.0342 86.657 38.8291 85.825 38.8291C84.8582 38.8291 84.114 39.1836 83.5925 39.8926C83.0769 40.5957 82.8132 41.6299 82.8015 42.9951V44.1289C82.8015 45.5117 83.0476 46.5664 83.5398 47.293C84.0378 48.0195 84.7644 48.3828 85.7195 48.3828C86.5925 48.3828 87.2488 48.1865 87.6882 47.7939C88.1277 47.4014 88.406 46.748 88.5232 45.834H90.738ZM102.946 43.9355C102.946 45.1895 102.729 46.291 102.296 47.2402C101.862 48.1836 101.241 48.9102 100.432 49.4199C99.6296 49.9238 98.7039 50.1758 97.655 50.1758C96.6179 50.1758 95.6921 49.9238 94.8777 49.4199C94.0691 48.9102 93.4421 48.1865 92.9968 47.249C92.5574 46.3115 92.3347 45.2305 92.3289 44.0059V43.2852C92.3289 42.0371 92.5486 40.9355 92.988 39.9805C93.4333 39.0254 94.0574 38.2959 94.8601 37.792C95.6687 37.2822 96.5945 37.0273 97.6375 37.0273C98.6804 37.0273 99.6033 37.2793 100.406 37.7832C101.215 38.2812 101.839 39.002 102.278 39.9453C102.718 40.8828 102.94 41.9756 102.946 43.2236V43.9355ZM100.722 43.2676C100.722 41.8496 100.453 40.7627 99.9138 40.0068C99.3806 39.251 98.6218 38.873 97.6375 38.873C96.6765 38.873 95.9236 39.251 95.3787 40.0068C94.8396 40.7568 94.5642 41.8203 94.5525 43.1973V43.9355C94.5525 45.3418 94.825 46.4287 95.3699 47.1963C95.9207 47.9639 96.6824 48.3477 97.655 48.3477C98.6394 48.3477 99.3953 47.9727 99.9226 47.2227C100.456 46.4727 100.722 45.377 100.722 43.9355V43.2676ZM115.312 50H113.089L107.385 40.9209V50H105.161V37.2031H107.385L113.106 46.3174V37.2031H115.312V50ZM122.449 47.2139L125.701 37.2031H128.144L123.539 50H121.385L116.798 37.2031H119.232L122.449 47.2139ZM137.074 44.2871H131.818V48.2246H137.962V50H129.594V37.2031H137.9V38.9961H131.818V42.5293H137.074V44.2871ZM144.474 45.0693H141.996V50H139.772V37.2031H144.272C145.749 37.2031 146.888 37.5342 147.691 38.1963C148.494 38.8584 148.895 39.8164 148.895 41.0703C148.895 41.9258 148.687 42.6436 148.271 43.2236C147.861 43.7979 147.287 44.2402 146.549 44.5508L149.423 49.8857V50H147.041L144.474 45.0693ZM141.996 43.2852H144.281C145.031 43.2852 145.617 43.0977 146.039 42.7227C146.461 42.3418 146.672 41.8232 146.672 41.167C146.672 40.4814 146.475 39.9512 146.083 39.5762C145.696 39.2012 145.116 39.0078 144.343 38.9961H141.996V43.2852ZM157.693 46.7041C157.693 46.1416 157.494 45.708 157.095 45.4033C156.703 45.0986 155.991 44.791 154.96 44.4805C153.928 44.1699 153.108 43.8242 152.499 43.4434C151.333 42.7109 150.75 41.7559 150.75 40.5781C150.75 39.5469 151.169 38.6973 152.007 38.0293C152.85 37.3613 153.943 37.0273 155.285 37.0273C156.176 37.0273 156.969 37.1914 157.667 37.5195C158.364 37.8477 158.912 38.3164 159.31 38.9258C159.709 39.5293 159.908 40.2002 159.908 40.9385H157.693C157.693 40.2705 157.482 39.749 157.06 39.374C156.644 38.9932 156.047 38.8027 155.267 38.8027C154.541 38.8027 153.975 38.958 153.571 39.2686C153.173 39.5791 152.973 40.0127 152.973 40.5693C152.973 41.0381 153.19 41.4307 153.624 41.7471C154.057 42.0576 154.772 42.3623 155.768 42.6611C156.764 42.9541 157.564 43.291 158.168 43.6719C158.771 44.0469 159.214 44.4805 159.495 44.9727C159.776 45.459 159.917 46.0303 159.917 46.6865C159.917 47.7529 159.507 48.6025 158.686 49.2354C157.872 49.8623 156.764 50.1758 155.364 50.1758C154.438 50.1758 153.586 50.0059 152.806 49.666C152.033 49.3203 151.429 48.8457 150.996 48.2422C150.568 47.6387 150.354 46.9355 150.354 46.1328H152.578C152.578 46.8594 152.818 47.4219 153.299 47.8203C153.779 48.2188 154.468 48.418 155.364 48.418C156.137 48.418 156.718 48.2627 157.104 47.9521C157.497 47.6357 157.693 47.2197 157.693 46.7041ZM164.215 50H162V37.2031H164.215V50ZM177.161 43.9355C177.161 45.1895 176.944 46.291 176.51 47.2402C176.077 48.1836 175.456 48.9102 174.647 49.4199C173.844 49.9238 172.919 50.1758 171.87 50.1758C170.833 50.1758 169.907 49.9238 169.093 49.4199C168.284 48.9102 167.657 48.1865 167.212 47.249C166.772 46.3115 166.55 45.2305 166.544 44.0059V43.2852C166.544 42.0371 166.763 40.9355 167.203 39.9805C167.648 39.0254 168.272 38.2959 169.075 37.792C169.884 37.2822 170.809 37.0273 171.852 37.0273C172.895 37.0273 173.818 37.2793 174.621 37.7832C175.429 38.2812 176.053 39.002 176.493 39.9453C176.932 40.8828 177.155 41.9756 177.161 43.2236V43.9355ZM174.937 43.2676C174.937 41.8496 174.668 40.7627 174.129 40.0068C173.595 39.251 172.837 38.873 171.852 38.873C170.891 38.873 170.138 39.251 169.594 40.0068C169.054 40.7568 168.779 41.8203 168.767 43.1973V43.9355C168.767 45.3418 169.04 46.4287 169.585 47.1963C170.135 47.9639 170.897 48.3477 171.87 48.3477C172.854 48.3477 173.61 47.9727 174.137 47.2227C174.671 46.4727 174.937 45.377 174.937 43.9355V43.2676ZM189.527 50H187.303L181.599 40.9209V50H179.376V37.2031H181.599L187.321 46.3174V37.2031H189.527V50Z" fill="black"/>
</g>
<defs>
<filter id="filter0_d_33_835" x="0" y="0" width="304" height="385" filterUnits="userSpaceOnUse" color-interpolation-filters="sRGB">
<feFlood flood-opacity="0" result="BackgroundImageFix"/>
<feColorMatrix in="SourceAlpha" type="matrix" values="0 0 0 0 0 0 0 0 0 0 0 0 0 0 0 0 0 0 127 0" result="hardAlpha"/>
<feOffset dy="4"/>
<feGaussianBlur stdDeviation="8"/>
<feComposite in2="hardAlpha" operator="out"/>
<feColorMatrix type="matrix" values="0 0 0 0 0 0 0 0 0 0 0 0 0 0 0 0 0 0 0.06 0"/>
<feBlend mode="normal" in2="BackgroundImageFix" result="effect1_dropShadow_33_835"/>
<feBlend mode="normal" in="SourceGraphic" in2="effect1_dropShadow_33_835" result="shape"/>
</filter>
<filter id="filter1_d_33_835" x="-1.02637" y="0" width="305.026" height="385" filterUnits="userSpaceOnUse" color-interpolation-filters="sRGB">
<feFlood flood-opacity="0" result="BackgroundImageFix"/>
<feColorMatrix in="SourceAlpha" type="matrix" values="0 0 0 0 0 0 0 0 0 0 0 0 0 0 0 0 0 0 127 0" result="hardAlpha"/>
<feOffset dy="4"/>
<feGaussianBlur stdDeviation="8"/>
<feColorMatrix type="matrix" values="0 0 0 0 0 0 0 0 0 0 0 0 0 0 0 0 0 0 0.06 0"/>
<feBlend mode="normal" in2="BackgroundImageFix" result="effect1_dropShadow_33_835"/>
<feBlend mode="normal" in="SourceGraphic" in2="effect1_dropShadow_33_835" result="shape"/>
</filter>
<clipPath id="clip0_33_835">
<rect width="272" height="353" fill="white" transform="translate(16 12)"/>
</clipPath>
<clipPath id="clip1_33_835">
<rect width="43.1094" height="202.154" fill="white" transform="translate(32.4226 73.5698)"/>
</clipPath>
<clipPath id="clip2_33_835">
<rect width="197.072" height="170.343" fill="white" transform="translate(71.4265 154.637)"/>
</clipPath>
<clipPath id="clip3_33_835">
<rect width="61.378" height="9.884" fill="white" transform="translate(62.9473 320.522)"/>
</clipPath>
<clipPath id="clip4_33_835">
<rect width="61.378" height="9.884" fill="white" transform="translate(179.354 320.522)"/>
</clipPath>
<clipPath id="clip5_33_835">
<rect width="61.378" height="9.88397" fill="white" transform="translate(62.9473 337.466)"/>
</clipPath>
<clipPath id="clip6_33_835">
<rect width="61.378" height="9.88397" fill="white" transform="translate(179.354 337.466)"/>
</clipPath>
</defs>
</svg>
